  0
SECTION
  2
HEADER
  9
$ACADVER
  1
AC1014
  9
$ACADMAINTVER
 70
     9
  9
$DWGCODEPAGE
  3
ANSI_1252
  9
$INSBASE
 10
0.0
 20
0.0
 30
0.0
  9
$EXTMIN
 10
1.000000000000000E+20
 20
1.000000000000000E+20
 30
1.000000000000000E+20
  9
$EXTMAX
 10
-1.000000000000000E+20
 20
-1.000000000000000E+20
 30
-1.000000000000000E+20
  9
$LIMMIN
 10
0.0
 20
0.0
  9
$LIMMAX
 10
12.0
 20
9.0
  9
$ORTHOMODE
 70
     0
  9
$REGENMODE
 70
     1
  9
$FILLMODE
 70
     1
  9
$QTEXTMODE
 70
     0
  9
$MIRRTEXT
 70
     1
  9
$DRAGMODE
 70
     2
  9
$LTSCALE
 40
1.0
  9
$OSMODE
 70
    37
  9
$ATTMODE
 70
     1
  9
$TEXTSIZE
 40
0.2
  9
$TRACEWID
 40
0.05
  9
$TEXTSTYLE
  7
STANDARD
  9
$CLAYER
  8
0
  9
$CELTYPE
  6
BYLAYER
  9
$CECOLOR
 62
   256
  9
$CELTSCALE
 40
1.0
  9
$DELOBJ
 70
     1
  9
$DISPSILH
 70
     0
  9
$DIMSCALE
 40
1.0
  9
$DIMASZ
 40
0.09
  9
$DIMEXO
 40
0.0625
  9
$DIMDLI
 40
0.38
  9
$DIMRND
 40
0.0
  9
$DIMDLE
 40
0.0
  9
$DIMEXE
 40
0.18
  9
$DIMTP
 40
0.0
  9
$DIMTM
 40
0.0
  9
$DIMTXT
 40
0.0895833333333333
  9
$DIMCEN
 40
0.09
  9
$DIMTSZ
 40
0.0
  9
$DIMTOL
 70
     0
  9
$DIMLIM
 70
     0
  9
$DIMTIH
 70
     1
  9
$DIMTOH
 70
     1
  9
$DIMSE1
 70
     0
  9
$DIMSE2
 70
     0
  9
$DIMTAD
 70
     0
  9
$DIMZIN
 70
     0
  9
$DIMBLK
  1

  9
$DIMASO
 70
     1
  9
$DIMSHO
 70
     1
  9
$DIMPOST
  1

  9
$DIMAPOST
  1

  9
$DIMALT
 70
     0
  9
$DIMALTD
 70
     2
  9
$DIMALTF
 40
25.4
  9
$DIMLFAC
 40
1.0
  9
$DIMTOFL
 70
     0
  9
$DIMTVP
 40
0.0
  9
$DIMTIX
 70
     0
  9
$DIMSOXD
 70
     0
  9
$DIMSAH
 70
     0
  9
$DIMBLK1
  1

  9
$DIMBLK2
  1

  9
$DIMSTYLE
  2
STANDARD
  9
$DIMCLRD
 70
     0
  9
$DIMCLRE
 70
     0
  9
$DIMCLRT
 70
     0
  9
$DIMTFAC
 40
1.0
  9
$DIMGAP
 40
0.09
  9
$DIMJUST
 70
     0
  9
$DIMSD1
 70
     0
  9
$DIMSD2
 70
     0
  9
$DIMTOLJ
 70
     1
  9
$DIMTZIN
 70
     0
  9
$DIMALTZ
 70
     0
  9
$DIMALTTZ
 70
     0
  9
$DIMFIT
 70
     3
  9
$DIMUPT
 70
     0
  9
$DIMUNIT
 70
     2
  9
$DIMDEC
 70
     4
  9
$DIMTDEC
 70
     4
  9
$DIMALTU
 70
     2
  9
$DIMALTTD
 70
     2
  9
$DIMTXSTY
  7
STANDARD
  9
$DIMAUNIT
 70
     0
  9
$LUNITS
 70
     2
  9
$LUPREC
 70
     4
  9
$SKETCHINC
 40
0.1
  9
$FILLETRAD
 40
0.5
  9
$AUNITS
 70
     0
  9
$AUPREC
 70
     0
  9
$MENU
  1
.
  9
$ELEVATION
 40
0.0
  9
$PELEVATION
 40
0.0
  9
$THICKNESS
 40
0.0
  9
$LIMCHECK
 70
     0
  9
$CHAMFERA
 40
0.5
  9
$CHAMFERB
 40
0.5
  9
$CHAMFERC
 40
1.0
  9
$CHAMFERD
 40
0.0
  9
$SKPOLY
 70
     0
  9
$TDCREATE
 40
2456268.603327002
  9
$TDUPDATE
 40
2456268.603327014
  9
$TDINDWG
 40
0.0000000116
  9
$TDUSRTIMER
 40
0.0000000116
  9
$USRTIMER
 70
     1
  9
$ANGBASE
 50
0.0
  9
$ANGDIR
 70
     0
  9
$PDMODE
 70
     0
  9
$PDSIZE
 40
0.0
  9
$PLINEWID
 40
0.0
  9
$COORDS
 70
     1
  9
$SPLFRAME
 70
     0
  9
$SPLINETYPE
 70
     6
  9
$SPLINESEGS
 70
     8
  9
$ATTDIA
 70
     0
  9
$ATTREQ
 70
     1
  9
$HANDLING
 70
     1
  9
$HANDSEED
  5
157
  9
$SURFTAB1
 70
     6
  9
$SURFTAB2
 70
     6
  9
$SURFTYPE
 70
     6
  9
$SURFU
 70
     6
  9
$SURFV
 70
     6
  9
$UCSNAME
  2

  9
$UCSORG
 10
0.0
 20
0.0
 30
0.0
  9
$UCSXDIR
 10
1.0
 20
0.0
 30
0.0
  9
$UCSYDIR
 10
0.0
 20
1.0
 30
0.0
  9
$PUCSNAME
  2

  9
$PUCSORG
 10
0.0
 20
0.0
 30
0.0
  9
$PUCSXDIR
 10
1.0
 20
0.0
 30
0.0
  9
$PUCSYDIR
 10
0.0
 20
1.0
 30
0.0
  9
$USERI1
 70
     0
  9
$USERI2
 70
     0
  9
$USERI3
 70
     0
  9
$USERI4
 70
     0
  9
$USERI5
 70
     0
  9
$USERR1
 40
0.0
  9
$USERR2
 40
0.0
  9
$USERR3
 40
0.0
  9
$USERR4
 40
0.0
  9
$USERR5
 40
0.0
  9
$WORLDVIEW
 70
     1
  9
$SHADEDGE
 70
     3
  9
$SHADEDIF
 70
    70
  9
$TILEMODE
 70
     1
  9
$MAXACTVP
 70
    64
  9
$PINSBASE
 10
0.0
 20
0.0
 30
0.0
  9
$PLIMCHECK
 70
     0
  9
$PEXTMIN
 10
1.000000000000000E+20
 20
1.000000000000000E+20
 30
1.000000000000000E+20
  9
$PEXTMAX
 10
-1.000000000000000E+20
 20
-1.000000000000000E+20
 30
-1.000000000000000E+20
  9
$PLIMMIN
 10
0.0
 20
0.0
  9
$PLIMMAX
 10
12.0
 20
9.0
  9
$UNITMODE
 70
     0
  9
$VISRETAIN
 70
     1
  9
$PLINEGEN
 70
     0
  9
$PSLTSCALE
 70
     1
  9
$TREEDEPTH
 70
  3020
  9
$PICKSTYLE
 70
     1
  9
$CMLSTYLE
  2
STANDARD
  9
$CMLJUST
 70
     0
  9
$CMLSCALE
 40
1.0
  9
$PROXYGRAPHICS
 70
     1
  9
$MEASUREMENT
 70
     0
  0
ENDSEC
  0
SECTION
  2
CLASSES
  0
CLASS
  1
ACDBDICTIONARYWDFLT
  2
AcDbDictionaryWithDefault
  3
ObjectDBX Classes
 90
        0
280
     0
281
     0
  0
CLASS
  1
VISUALSTYLE
  2
AcDbVisualStyle
  3
ObjectDBX Classes
 90
     4095
280
     0
281
     0
  0
CLASS
  1
SCALE
  2
AcDbScale
  3
ObjectDBX Classes
 90
     1153
280
     0
281
     0
  0
CLASS
  1
DICTIONARYVAR
  2
AcDbDictionaryVar
  3
ObjectDBX Classes
 90
        0
280
     0
281
     0
  0
CLASS
  1
XRECORD
  2
AcDbXrecord
  3
AutoCAD 2000
 90
        0
280
     0
281
     0
  0
CLASS
  1
LWPOLYLINE
  2
AcDbPolyline
  3
AutoCAD 2000
 90
        0
280
     0
281
     1
  0
CLASS
  1
HATCH
  2
AcDbHatch
  3
AutoCAD 2000
 90
        0
280
     0
281
     1
  0
CLASS
  1
ACDBPLACEHOLDER
  2
AcDbPlaceHolder
  3
ObjectDBX Classes
 90
        0
280
     0
281
     0
  0
CLASS
  1
LAYOUT
  2
AcDbLayout
  3
ObjectDBX Classes
 90
        0
280
     0
281
     0
  0
ENDSEC
  0
SECTION
  2
TABLES
  0
TABLE
  2
VPORT
  5
8
330
0
100
AcDbSymbolTable
 70
     1
  0
VPORT
  5
29
330
8
100
AcDbSymbolTableRecord
100
AcDbViewportTableRecord
  2
*ACTIVE
 70
     0
 10
0.0
 20
0.0
 11
1.0
 21
1.0
 12
10.42990654205607
 22
4.5
 13
0.0
 23
0.0
 14
0.5
 24
0.5
 15
0.5
 25
0.5
 16
0.0
 26
0.0
 36
1.0
 17
0.0
 27
0.0
 37
0.0
 40
9.0
 41
1.972972972850329
 42
50.0
 43
0.0
 44
0.0
 50
0.0
 51
0.0
 71
     0
 72
   100
 73
     1
 74
     3
 75
     0
 76
     0
 77
     0
 78
     0
  0
ENDTAB
  0
TABLE
  2
LTYPE
  5
5
330
0
100
AcDbSymbolTable
 70
     2
  0
LTYPE
  5
14
330
5
100
AcDbSymbolTableRecord
100
AcDbLinetypeTableRecord
  2
BYBLOCK
 70
     0
  3

 72
    65
 73
     0
 40
0.0
  0
LTYPE
  5
15
330
5
100
AcDbSymbolTableRecord
100
AcDbLinetypeTableRecord
  2
BYLAYER
 70
     0
  3

 72
    65
 73
     0
 40
0.0
  0
LTYPE
  5
16
330
5
100
AcDbSymbolTableRecord
100
AcDbLinetypeTableRecord
  2
CONTINUOUS
 70
     0
  3
Solid line
 72
    65
 73
     0
 40
0.0
  0
LTYPE
  5
6C
330
5
100
AcDbSymbolTableRecord
100
AcDbLinetypeTableRecord
  2
CENTER2
 70
     0
  3
Center (.5x) ___ _ ___ _ ___ _ ___ _ ___ _ ___
 72
    65
 73
     4
 40
1.125
 49
0.75
 74
     0
 49
-0.125
 74
     0
 49
0.125
 74
     0
 49
-0.125
 74
     0
  0
ENDTAB
  0
TABLE
  2
LAYER
  5
2
330
0
100
AcDbSymbolTable
 70
     6
  0
LAYER
  5
10
330
2
100
AcDbSymbolTableRecord
100
AcDbLayerTableRecord
  2
0
 70
     0
 62
     7
  6
CONTINUOUS
  0
LAYER
  5
5D
330
2
100
AcDbSymbolTableRecord
100
AcDbLayerTableRecord
  2
VISIBLE
 70
     0
 62
     7
  6
CONTINUOUS
  0
LAYER
  5
6A
330
2
100
AcDbSymbolTableRecord
100
AcDbLayerTableRecord
  2
INVISIBLE
 70
     6
 62
     7
  6
CONTINUOUS
  0
LAYER
  5
6D
330
2
100
AcDbSymbolTableRecord
100
AcDbLayerTableRecord
  2
BEND_CENTERS
 70
     0
 62
   204
  6
CENTER2
  0
LAYER
  5
6F
330
2
100
AcDbSymbolTableRecord
100
AcDbLayerTableRecord
  2
DIMENSIONS
 70
     0
 62
     7
  6
CONTINUOUS
  0
LAYER
  5
E1
330
2
100
AcDbSymbolTableRecord
100
AcDbLayerTableRecord
  2
CONTINUOUS
 70
     0
 62
     7
  6
CONTINUOUS
  0
ENDTAB
  0
TABLE
  2
STYLE
  5
3
330
0
100
AcDbSymbolTable
 70
     1
  0
STYLE
  5
11
330
3
100
AcDbSymbolTableRecord
100
AcDbTextStyleTableRecord
  2
STANDARD
 70
     0
 40
0.125
 41
1.0
 50
0.0
 71
     0
 42
0.2
  3
txt
  4

1001
ACAD
1000
Arial
1071
        0
  0
ENDTAB
  0
TABLE
  2
VIEW
  5
6
330
0
100
AcDbSymbolTable
 70
     0
  0
ENDTAB
  0
TABLE
  2
UCS
  5
7
330
0
100
AcDbSymbolTable
 70
     0
  0
ENDTAB
  0
TABLE
  2
APPID
  5
9
330
0
100
AcDbSymbolTable
 70
     1
  0
APPID
  5
12
330
9
100
AcDbSymbolTableRecord
100
AcDbRegAppTableRecord
  2
ACAD
 70
     0
  0
ENDTAB
  0
TABLE
  2
DIMSTYLE
  5
A
330
0
100
AcDbSymbolTable
 70
     1
  0
DIMSTYLE
105
27
102
{ACAD_REACTORS
330
70
330
7D
330
8A
330
97
330
A4
330
B1
330
B8
330
C5
330
D2
102
}
330
A
100
AcDbSymbolTableRecord
100
AcDbDimStyleTableRecord
  2
STANDARD
 70
     0
  3

  4

  5

  6

  7

 40
1.0
 41
0.18
 42
0.0625
 43
0.38
 44
0.18
 45
0.0
 46
0.0
 47
0.0
 48
0.0
140
0.18
141
0.09
142
0.0
143
25.4
144
1.0
145
0.0
146
1.0
147
0.09
 71
     0
 72
     0
 73
     1
 74
     1
 75
     0
 76
     0
 77
     0
 78
     0
170
     0
171
     2
172
     0
173
     0
174
     0
175
     0
176
     0
177
     0
178
     0
270
     2
271
     4
272
     4
273
     2
274
     2
340
11
275
     0
280
     0
281
     0
282
     0
283
     1
284
     0
285
     0
286
     0
287
     3
288
     0
  0
ENDTAB
  0
TABLE
  2
BLOCK_RECORD
  5
1
330
0
100
AcDbSymbolTable
 70
    11
  0
BLOCK_RECORD
  5
1F
330
1
100
AcDbSymbolTableRecord
100
AcDbBlockTableRecord
  2
*MODEL_SPACE
  0
BLOCK_RECORD
  5
1B
330
1
100
AcDbSymbolTableRecord
100
AcDbBlockTableRecord
  2
*PAPER_SPACE
  0
BLOCK_RECORD
  5
71
330
1
100
AcDbSymbolTableRecord
100
AcDbBlockTableRecord
  2
D1
  0
BLOCK_RECORD
  5
7E
330
1
100
AcDbSymbolTableRecord
100
AcDbBlockTableRecord
  2
D2
  0
BLOCK_RECORD
  5
8B
330
1
100
AcDbSymbolTableRecord
100
AcDbBlockTableRecord
  2
D3
  0
BLOCK_RECORD
  5
98
330
1
100
AcDbSymbolTableRecord
100
AcDbBlockTableRecord
  2
D4
  0
BLOCK_RECORD
  5
A5
330
1
100
AcDbSymbolTableRecord
100
AcDbBlockTableRecord
  2
D5
  0
BLOCK_RECORD
  5
B2
330
1
100
AcDbSymbolTableRecord
100
AcDbBlockTableRecord
  2
D6
  0
BLOCK_RECORD
  5
B9
330
1
100
AcDbSymbolTableRecord
100
AcDbBlockTableRecord
  2
D7
  0
BLOCK_RECORD
  5
C6
330
1
100
AcDbSymbolTableRecord
100
AcDbBlockTableRecord
  2
D8
  0
BLOCK_RECORD
  5
D3
330
1
100
AcDbSymbolTableRecord
100
AcDbBlockTableRecord
  2
D9
  0
BLOCK_RECORD
  5
E6
330
1
100
AcDbSymbolTableRecord
100
AcDbBlockTableRecord
  2
BLOCK1
  0
ENDTAB
  0
ENDSEC
  0
SECTION
  2
BLOCKS
  0
BLOCK
  5
20
330
1F
100
AcDbEntity
  8
0
100
AcDbBlockBegin
  2
*MODEL_SPACE
 70
     0
 10
0.0
 20
0.0
 30
0.0
  3
*MODEL_SPACE
  1

  0
ENDBLK
  5
21
330
1F
100
AcDbEntity
  8
0
100
AcDbBlockEnd
  0
BLOCK
  5
1C
330
1B
100
AcDbEntity
 67
     1
  8
0
100
AcDbBlockBegin
  2
*PAPER_SPACE
 70
     0
 10
0.0
 20
0.0
 30
0.0
  3
*PAPER_SPACE
  1

  0
ENDBLK
  5
1D
330
1B
100
AcDbEntity
 67
     1
  8
0
100
AcDbBlockEnd
  0
BLOCK
  5
72
330
71
100
AcDbEntity
  8
0
100
AcDbBlockBegin
  2
D1
 70
     0
 10
0.0
 20
0.0
 30
0.0
  3
D1
  1

  0
MTEXT
  5
74
330
71
100
AcDbEntity
  8
DIMENSIONS
100
AcDbMText
 10
7.313685980368806
 20
8.179180715966416
 30
0.0
 40
0.0895833333333333
 41
0.0
 71
     5
 72
     1
  1
{\fArial|b0|i0|c0|p0;66.13}{\fMS Shell Dlg|b0|i0|c0|p0;\H0.9444444x;}
  0
MTEXT
  5
75
330
71
100
AcDbEntity
  8
DIMENSIONS
100
AcDbMText
 10
7.313685980368806
 20
8.179180715966416
 30
0.0
 40
0.0895833333333333
 41
0.0
 71
     5
 72
     1
  1
{\fArial|b0|i0|c0|p0;}
  0
MTEXT
  5
76
330
71
100
AcDbEntity
  8
DIMENSIONS
100
AcDbMText
 10
7.313685980368806
 20
8.179180715966416
 30
0.0
 40
0.0895833333333333
 41
0.0
 71
     5
 72
     1
  1
{\fArial|b0|i0|c0|p0;}
  0
LINE
  5
77
330
71
100
AcDbEntity
  8
DIMENSIONS
100
AcDbLine
 10
3.180560980368804
 20
7.606389275498279
 30
0.0
 11
3.180560980368804
 21
8.241680715966416
 31
0.0
  0
LINE
  5
78
330
71
100
AcDbEntity
  8
DIMENSIONS
100
AcDbLine
 10
11.44681098036881
 20
7.606389275498279
 30
0.0
 11
11.44681098036881
 21
8.241680715966416
 31
0.0
  0
LWPOLYLINE
  5
79
330
71
100
AcDbEntity
  8
DIMENSIONS
100
AcDbPolyline
 90
        4
 70
     0
 43
0.0
 10
3.180560980368804
 20
8.179180715966416
 10
3.270560980368804
 20
8.194180715966414
 10
3.270560980368804
 20
8.164180715966417
 10
3.180560980368804
 20
8.179180715966416
  0
LINE
  5
7A
330
71
100
AcDbEntity
  8
DIMENSIONS
100
AcDbLine
 10
3.270560980368804
 20
8.179180715966416
 30
0.0
 11
7.112297094938341
 21
8.179180583803674
 31
0.0
  0
LWPOLYLINE
  5
7B
330
71
100
AcDbEntity
  8
DIMENSIONS
100
AcDbPolyline
 90
        4
 70
     0
 43
0.0
 10
11.44681098036881
 20
8.179180715966417
 10
11.35681098036881
 20
8.164180715966417
 10
11.35681098036881
 20
8.194180715966418
 10
11.44681098036881
 20
8.179180715966417
  0
LINE
  5
7C
330
71
100
AcDbEntity
  8
DIMENSIONS
100
AcDbLine
 10
11.35681098036881
 20
8.179180715966416
 30
0.0
 11
7.515074873759069
 21
8.179180583803674
 31
0.0
  0
ENDBLK
  5
73
330
71
100
AcDbEntity
  8
0
100
AcDbBlockEnd
  0
BLOCK
  5
7F
330
7E
100
AcDbEntity
  8
0
100
AcDbBlockBegin
  2
D2
 70
     0
 10
0.0
 20
0.0
 30
0.0
  3
D2
  1

  0
MTEXT
  5
81
330
7E
100
AcDbEntity
  8
DIMENSIONS
100
AcDbMText
 10
7.313060980368804
 20
2.936988289900652
 30
0.0
 40
0.0895833333333333
 41
0.0
 71
     5
 72
     1
  1
{\fArial|b0|i0|c0|p0;12.50}{\fMS Shell Dlg|b0|i0|c0|p0;\H0.9444444x;}
  0
MTEXT
  5
82
330
7E
100
AcDbEntity
  8
DIMENSIONS
100
AcDbMText
 10
7.313060980368804
 20
2.936988289900652
 30
0.0
 40
0.0895833333333333
 41
0.0
 71
     5
 72
     1
  1
{\fArial|b0|i0|c0|p0;}
  0
MTEXT
  5
83
330
7E
100
AcDbEntity
  8
DIMENSIONS
100
AcDbMText
 10
7.313060980368804
 20
2.936988289900652
 30
0.0
 40
0.0895833333333333
 41
0.0
 71
     5
 72
     1
  1
{\fArial|b0|i0|c0|p0;}
  0
LINE
  5
84
330
7E
100
AcDbEntity
  8
DIMENSIONS
100
AcDbLine
 10
8.094310980368805
 20
3.31888927549828
 30
0.0
 11
8.094310980368805
 21
2.874488289900652
 31
0.0
  0
LINE
  5
85
330
7E
100
AcDbEntity
  8
DIMENSIONS
100
AcDbLine
 10
6.531810980368804
 20
3.31888927549828
 30
0.0
 11
6.531810980368804
 21
2.874488289900652
 31
0.0
  0
LWPOLYLINE
  5
86
330
7E
100
AcDbEntity
  8
DIMENSIONS
100
AcDbPolyline
 90
        4
 70
     0
 43
0.0
 10
8.094310980368805
 20
2.936988289900652
 10
8.004310980368805
 20
2.921988289900653
 10
8.004310980368805
 20
2.951988289900652
 10
8.094310980368805
 20
2.936988289900652
  0
LINE
  5
87
330
7E
100
AcDbEntity
  8
DIMENSIONS
100
AcDbLine
 10
8.004310980368805
 20
2.936988289900652
 30
0.0
 11
7.514449869779169
 21
2.936988307922846
 31
0.0
  0
LWPOLYLINE
  5
88
330
7E
100
AcDbEntity
  8
DIMENSIONS
100
AcDbPolyline
 90
        4
 70
     0
 43
0.0
 10
6.531810980368804
 20
2.936988289900652
 10
6.621810980368805
 20
2.951988289900652
 10
6.621810980368805
 20
2.921988289900652
 10
6.531810980368804
 20
2.936988289900652
  0
LINE
  5
89
330
7E
100
AcDbEntity
  8
DIMENSIONS
100
AcDbLine
 10
6.621810980368805
 20
2.936988289900652
 30
0.0
 11
7.111672090958439
 21
2.936988307922846
 31
0.0
  0
ENDBLK
  5
80
330
7E
100
AcDbEntity
  8
0
100
AcDbBlockEnd
  0
BLOCK
  5
8C
330
8B
100
AcDbEntity
  8
0
100
AcDbBlockBegin
  2
D3
 70
     0
 10
0.0
 20
0.0
 30
0.0
  3
D3
  1

  0
MTEXT
  5
8E
330
8B
100
AcDbEntity
  8
DIMENSIONS
100
AcDbMText
 10
4.856185980368804
 20
2.995724415215922
 30
0.0
 40
0.0895833333333333
 41
0.0
 71
     5
 72
     1
  1
{\fArial|b0|i0|c0|p0;26.81}{\fMS Shell Dlg|b0|i0|c0|p0;\H0.9444444x;}
  0
MTEXT
  5
8F
330
8B
100
AcDbEntity
  8
DIMENSIONS
100
AcDbMText
 10
4.856185980368804
 20
2.995724415215922
 30
0.0
 40
0.0895833333333333
 41
0.0
 71
     5
 72
     1
  1
{\fArial|b0|i0|c0|p0;}
  0
MTEXT
  5
90
330
8B
100
AcDbEntity
  8
DIMENSIONS
100
AcDbMText
 10
4.856185980368804
 20
2.995724415215922
 30
0.0
 40
0.0895833333333333
 41
0.0
 71
     5
 72
     1
  1
{\fArial|b0|i0|c0|p0;}
  0
LINE
  5
91
330
8B
100
AcDbEntity
  8
DIMENSIONS
100
AcDbLine
 10
3.180560980368804
 20
7.48138927549828
 30
0.0
 11
3.180560980368804
 21
2.933224415215922
 31
0.0
  0
LINE
  5
92
330
8B
100
AcDbEntity
  8
DIMENSIONS
100
AcDbLine
 10
6.531810980368804
 20
3.31888927549828
 30
0.0
 11
6.531810980368804
 21
2.933224415215922
 31
0.0
  0
LWPOLYLINE
  5
93
330
8B
100
AcDbEntity
  8
DIMENSIONS
100
AcDbPolyline
 90
        4
 70
     0
 43
0.0
 10
3.180560980368804
 20
2.995724415215922
 10
3.270560980368804
 20
3.010724415215922
 10
3.270560980368804
 20
2.980724415215922
 10
3.180560980368804
 20
2.995724415215922
  0
LINE
  5
94
330
8B
100
AcDbEntity
  8
DIMENSIONS
100
AcDbLine
 10
3.270560980368804
 20
2.995724415215922
 30
0.0
 11
4.654797098054678
 21
2.995724414464998
 31
0.0
  0
LWPOLYLINE
  5
95
330
8B
100
AcDbEntity
  8
DIMENSIONS
100
AcDbPolyline
 90
        4
 70
     0
 43
0.0
 10
6.531810980368805
 20
2.995724415215922
 10
6.441810980368804
 20
2.980724415215922
 10
6.441810980368804
 20
3.010724415215922
 10
6.531810980368805
 20
2.995724415215922
  0
LINE
  5
96
330
8B
100
AcDbEntity
  8
DIMENSIONS
100
AcDbLine
 10
6.441810980368804
 20
2.995724415215922
 30
0.0
 11
5.057574829942615
 21
2.995724414464998
 31
0.0
  0
ENDBLK
  5
8D
330
8B
100
AcDbEntity
  8
0
100
AcDbBlockEnd
  0
BLOCK
  5
99
330
98
100
AcDbEntity
  8
0
100
AcDbBlockBegin
  2
D4
 70
     0
 10
0.0
 20
0.0
 30
0.0
  3
D4
  1

  0
MTEXT
  5
9B
330
98
100
AcDbEntity
  8
DIMENSIONS
100
AcDbMText
 10
2.761639572504015
 20
5.257061935785249
 30
0.0
 40
0.0895833333333333
 41
0.0
 71
     5
 72
     1
  1
{\fArial|b0|i0|c0|p0;33.30}{\fMS Shell Dlg|b0|i0|c0|p0;\H0.9444444x;}
  0
MTEXT
  5
9C
330
98
100
AcDbEntity
  8
DIMENSIONS
100
AcDbMText
 10
2.761639572504015
 20
5.257061935785249
 30
0.0
 40
0.0895833333333333
 41
0.0
 71
     5
 72
     1
  1
{\fArial|b0|i0|c0|p0;}
  0
MTEXT
  5
9D
330
98
100
AcDbEntity
  8
DIMENSIONS
100
AcDbMText
 10
2.761639572504015
 20
5.257061935785249
 30
0.0
 40
0.0895833333333333
 41
0.0
 71
     5
 72
     1
  1
{\fArial|b0|i0|c0|p0;}
  0
LINE
  5
9E
330
98
100
AcDbEntity
  8
DIMENSIONS
100
AcDbLine
 10
6.469310980368804
 20
3.38138927549828
 30
0.0
 11
2.699139572504015
 21
3.38138927549828
 31
0.0
  0
LINE
  5
9F
330
98
100
AcDbEntity
  8
DIMENSIONS
100
AcDbLine
 10
3.118060980368805
 20
7.543889275498279
 30
0.0
 11
2.699139572504015
 21
7.543889275498279
 31
0.0
  0
LWPOLYLINE
  5
A0
330
98
100
AcDbEntity
  8
DIMENSIONS
100
AcDbPolyline
 90
        4
 70
     0
 43
0.0
 10
2.761639572504015
 20
3.38138927549828
 10
2.746639572504015
 20
3.47138927549828
 10
2.776639572504014
 20
3.47138927549828
 10
2.761639572504015
 20
3.38138927549828
  0
LINE
  5
A1
330
98
100
AcDbEntity
  8
DIMENSIONS
100
AcDbLine
 10
2.761639572504015
 20
3.47138927549828
 30
0.0
 11
2.761639416912426
 21
5.132062006372168
 31
0.0
  0
LWPOLYLINE
  5
A2
330
98
100
AcDbEntity
  8
DIMENSIONS
100
AcDbPolyline
 90
        4
 70
     0
 43
0.0
 10
2.761639572504015
 20
7.54388927549828
 10
2.776639572504015
 20
7.45388927549828
 10
2.746639572504016
 20
7.45388927549828
 10
2.761639572504015
 20
7.54388927549828
  0
LINE
  5
A3
330
98
100
AcDbEntity
  8
DIMENSIONS
100
AcDbLine
 10
2.761639572504015
 20
7.45388927549828
 30
0.0
 11
2.761639416912426
 21
5.382062051427648
 31
0.0
  0
ENDBLK
  5
9A
330
98
100
AcDbEntity
  8
0
100
AcDbBlockEnd
  0
BLOCK
  5
A6
330
A5
100
AcDbEntity
  8
0
100
AcDbBlockBegin
  2
D5
 70
     0
 10
0.0
 20
0.0
 30
0.0
  3
D5
  1

  0
MTEXT
  5
A8
330
A5
100
AcDbEntity
  8
DIMENSIONS
100
AcDbMText
 10
10.30853828459837
 20
5.029349446686361
 30
0.0
 40
0.0895833333333333
 41
0.0
 71
     5
 72
     1
  1
{\fArial|b0|i0|c0|p0;(42.76)}{\fMS Shell Dlg|b0|i0|c0|p0;\H0.9444444x;}
  0
MTEXT
  5
A9
330
A5
100
AcDbEntity
  8
DIMENSIONS
100
AcDbMText
 10
10.30853828459837
 20
5.029349446686361
 30
0.0
 40
0.0895833333333333
 41
0.0
 71
     5
 72
     1
  1
{\fArial|b0|i0|c0|p0;}
  0
MTEXT
  5
AA
330
A5
100
AcDbEntity
  8
DIMENSIONS
100
AcDbMText
 10
10.30853828459837
 20
5.029349446686361
 30
0.0
 40
0.0895833333333333
 41
0.0
 71
     5
 72
     1
  1
{\fArial|b0|i0|c0|p0;}
  0
LINE
  5
AB
330
A5
100
AcDbEntity
  8
DIMENSIONS
100
AcDbLine
 10
11.49548667002434
 20
7.504685611937872
 30
0.0
 11
12.03346397425391
 21
7.071395783125952
 31
0.0
  0
LINE
  5
AC
330
A5
100
AcDbEntity
  8
DIMENSIONS
100
AcDbLine
 10
8.142986670024344
 20
3.342185611937873
 30
0.0
 11
8.680963974253906
 21
2.908895783125955
 31
0.0
  0
LWPOLYLINE
  5
AD
330
A5
100
AcDbEntity
  8
DIMENSIONS
100
AcDbPolyline
 90
        4
 70
     0
 43
0.0
 10
11.98478828459837
 20
7.110599446686359
 10
11.94001717458871
 20
7.031097574327884
 10
11.91665284355405
 20
7.049915332836879
 10
11.98478828459837
 20
7.110599446686359
  0
LINE
  5
AE
330
A5
100
AcDbEntity
  8
DIMENSIONS
100
AcDbLine
 10
11.92833500907138
 20
7.040506453582383
 30
0.0
 11
10.39807989117967
 21
5.140525091803966
 31
0.0
  0
LWPOLYLINE
  5
AF
330
A5
100
AcDbEntity
  8
DIMENSIONS
100
AcDbPolyline
 90
        4
 70
     0
 43
0.0
 10
8.632288284598367
 20
2.948099446686363
 10
8.677059394608023
 20
3.027601319044837
 10
8.700423725642683
 20
3.008783560535842
 10
8.632288284598367
 20
2.948099446686363
  0
LINE
  5
B0
330
A5
100
AcDbEntity
  8
DIMENSIONS
100
AcDbLine
 10
8.688741560125353
 20
3.018192439790339
 30
0.0
 11
10.21899682860327
 21
4.918173673507692
 31
0.0
  0
ENDBLK
  5
A7
330
A5
100
AcDbEntity
  8
0
100
AcDbBlockEnd
  0
BLOCK
  5
B3
330
B2
100
AcDbEntity
  8
0
100
AcDbBlockBegin
  2
D6
 70
     0
 10
0.0
 20
0.0
 30
0.0
  3
D6
  1

  0
MTEXT
  5
B5
330
B2
100
AcDbEntity
  8
INVISIBLE
100
AcDbMText
 10
4.012733819916511
 20
6.969867616187871
 30
0.0
 40
0.0895833333333333
 41
0.0
 71
     5
 72
     1
  1
{\fArial|b0|i0|c0|p0;90.000 \U+02DA}{\fMS Shell Dlg|b0|i0|c0|p0;\H0.9444444x;}
  0
MTEXT
  5
B6
330
B2
100
AcDbEntity
  8
INVISIBLE
100
AcDbMText
 10
4.012733819916511
 20
6.969867616187871
 30
0.0
 40
0.0895833333333333
 41
0.0
 71
     5
 72
     1
  1
{\fArial|b0|i0|c0|p0;}
  0
MTEXT
  5
B7
330
B2
100
AcDbEntity
  8
INVISIBLE
100
AcDbMText
 10
4.012733819916511
 20
6.969867616187871
 30
0.0
 40
0.0895833333333333
 41
0.0
 71
     5
 72
     1
  1
{\fArial|b0|i0|c0|p0;}
  0
ENDBLK
  5
B4
330
B2
100
AcDbEntity
  8
0
100
AcDbBlockEnd
  0
BLOCK
  5
BA
330
B9
100
AcDbEntity
  8
0
100
AcDbBlockBegin
  2
D7
 70
     0
 10
0.0
 20
0.0
 30
0.0
  3
D7
  1

  0
MTEXT
  5
BC
330
B9
100
AcDbEntity
  8
DIMENSIONS
100
AcDbMText
 10
2.920605817179061
 20
6.977584117979516
 30
0.0
 40
0.0895833333333333
 41
0.0
 71
     5
 72
     1
  1
{\fArial|b0|i0|c0|p0;5.00}{\fMS Shell Dlg|b0|i0|c0|p0;\H0.9444444x;}
  0
MTEXT
  5
BD
330
B9
100
AcDbEntity
  8
DIMENSIONS
100
AcDbMText
 10
2.920605817179061
 20
6.977584117979516
 30
0.0
 40
0.0895833333333333
 41
0.0
 71
     5
 72
     1
  1
{\fArial|b0|i0|c0|p0;}
  0
MTEXT
  5
BE
330
B9
100
AcDbEntity
  8
DIMENSIONS
100
AcDbMText
 10
2.920605817179061
 20
6.977584117979516
 30
0.0
 40
0.0895833333333333
 41
0.0
 71
     5
 72
     1
  1
{\fArial|b0|i0|c0|p0;}
  0
LINE
  5
BF
330
B9
100
AcDbEntity
  8
DIMENSIONS
100
AcDbLine
 10
3.669874596955846
 20
7.135450559627085
 30
0.0
 11
3.089477820311541
 21
6.668170151764205
 31
0.0
  0
LINE
  5
C0
330
B9
100
AcDbEntity
  8
DIMENSIONS
100
AcDbLine
 10
3.131878149677592
 20
7.504694479977817
 30
0.0
 11
2.697529865106919
 21
7.154998458676321
 31
0.0
  0
LWPOLYLINE
  5
C1
330
B9
100
AcDbEntity
  8
DIMENSIONS
100
AcDbPolyline
 90
        4
 70
     0
 43
0.0
 10
3.138160651002753
 20
6.707364947284666
 10
3.070036266087397
 20
6.768061472555099
 10
3.093404024819177
 20
6.786874974404921
 10
3.138160651002753
 20
6.707364947284666
  0
LINE
  5
C2
330
B9
100
AcDbEntity
  8
DIMENSIONS
100
AcDbLine
 10
3.081720145453287
 20
6.777468223480012
 30
0.0
 11
3.010119602814355
 21
6.866401325990683
 31
0.0
  0
LWPOLYLINE
  5
C3
330
B9
100
AcDbEntity
  8
DIMENSIONS
100
AcDbPolyline
 90
        4
 70
     0
 43
0.0
 10
2.746212695798131
 20
7.194193254196783
 10
2.814337080713487
 20
7.13349672892635
 10
2.790969321981706
 20
7.114683227076529
 10
2.746212695798131
 20
7.194193254196783
  0
LINE
  5
C4
330
B9
100
AcDbEntity
  8
DIMENSIONS
100
AcDbLine
 10
2.802653201347596
 20
7.124089978001438
 30
0.0
 11
2.831091793536185
 21
7.088767021105202
 31
0.0
  0
ENDBLK
  5
BB
330
B9
100
AcDbEntity
  8
0
100
AcDbBlockEnd
  0
BLOCK
  5
C7
330
C6
100
AcDbEntity
  8
0
100
AcDbBlockBegin
  2
D8
 70
     0
 10
0.0
 20
0.0
 30
0.0
  3
D8
  1

  0
MTEXT
  5
C9
330
C6
100
AcDbEntity
  8
DIMENSIONS
100
AcDbMText
 10
3.597815695659872
 20
6.275047963742572
 30
0.0
 40
0.0895833333333333
 41
0.0
 71
     5
 72
     1
  1
{\fArial|b0|i0|c0|p0;10.00}{\fMS Shell Dlg|b0|i0|c0|p0;\H0.9444444x;}
  0
MTEXT
  5
CA
330
C6
100
AcDbEntity
  8
DIMENSIONS
100
AcDbMText
 10
3.597815695659872
 20
6.275047963742572
 30
0.0
 40
0.0895833333333333
 41
0.0
 71
     5
 72
     1
  1
{\fArial|b0|i0|c0|p0;}
  0
MTEXT
  5
CB
330
C6
100
AcDbEntity
  8
DIMENSIONS
100
AcDbMText
 10
3.458926806770983
 20
6.150047963742572
 30
0.0
 40
0.0895833333333333
 41
0.0
 71
     4
 72
     1
  1
{\fArial|b0|i0|c0|p0;TYP 6 PL}{\fArial|b0|i0|c0|p0;}
  0
LINE
  5
CC
330
C6
100
AcDbEntity
  8
DIMENSIONS
100
AcDbLine
 10
3.669874596955846
 20
7.135450559627085
 30
0.0
 11
3.157184909764042
 21
6.722681475134223
 31
0.0
  0
LINE
  5
CD
330
C6
100
AcDbEntity
  8
DIMENSIONS
100
AcDbLine
 10
4.453770507365087
 20
6.161793945802852
 30
0.0
 11
3.941080820173283
 21
5.749024861309991
 31
0.0
  0
LWPOLYLINE
  5
CE
330
C6
100
AcDbEntity
  8
DIMENSIONS
100
AcDbPolyline
 90
        4
 70
     0
 43
0.0
 10
3.205867740455253
 20
6.761876270654687
 10
3.27399212537061
 20
6.701179745384252
 10
3.250624366638828
 20
6.682366243534431
 10
3.205867740455253
 20
6.761876270654687
  0
LINE
  5
CF
330
C6
100
AcDbEntity
  8
DIMENSIONS
100
AcDbLine
 10
3.262308246004719
 20
6.691772994459341
 30
0.0
 11
3.50830193381591
 21
6.386230830790836
 31
0.0
  0
LWPOLYLINE
  5
D0
330
C6
100
AcDbEntity
  8
DIMENSIONS
100
AcDbPolyline
 90
        4
 70
     0
 43
0.0
 10
3.989763650864494
 20
5.788219656830453
 10
3.921639265949138
 20
5.848916182100888
 10
3.945007024680919
 20
5.867729683950709
 10
3.989763650864494
 20
5.788219656830453
  0
LINE
  5
D1
330
C6
100
AcDbEntity
  8
DIMENSIONS
100
AcDbLine
 10
3.933323145315029
 20
5.858322933025797
 30
0.0
 11
3.787967821705074
 21
6.038865071299166
 31
0.0
  0
ENDBLK
  5
C8
330
C6
100
AcDbEntity
  8
0
100
AcDbBlockEnd
  0
BLOCK
  5
D4
330
D3
100
AcDbEntity
  8
0
100
AcDbBlockBegin
  2
D9
 70
     0
 10
0.0
 20
0.0
 30
0.0
  3
D9
  1

  0
MTEXT
  5
D6
330
D3
100
AcDbEntity
  8
DIMENSIONS
100
AcDbMText
 10
4.718468229038525
 20
6.920151597871556
 30
0.0
 40
0.0895833333333333
 41
0.0
 71
     6
 72
     1
  1
{\fAlibre Symbols|b0|i0|c0|p0;n}{\fArial|b0|i0|c0|p0;1.00}{\fMS Shell Dlg|b0|i0|c0|p0;\H0.9444444x;}
  0
MTEXT
  5
D7
330
D3
100
AcDbEntity
  8
DIMENSIONS
100
AcDbMText
 10
4.755968229038524
 20
7.045151597871556
 30
0.0
 40
0.0895833333333333
 41
0.0
 71
     4
 72
     1
  1
{\fArial|b0|i0|c0|p0;+}{\fArial|b0|i0|c0|p0;}
  0
MTEXT
  5
D8
330
D3
100
AcDbEntity
  8
DIMENSIONS
100
AcDbMText
 10
4.818468229038524
 20
7.045151597871556
 30
0.0
 40
0.0895833333333333
 41
0.0
 71
     4
 72
     1
  1
{\fArial|b0|i0|c0|p0;.00}{\fArial|b0|i0|c0|p0;}
  0
MTEXT
  5
D9
330
D3
100
AcDbEntity
  8
DIMENSIONS
100
AcDbMText
 10
4.755968229038524
 20
6.896342074062032
 30
0.0
 40
0.0895833333333333
 41
0.0
 71
     4
 72
     1
  1
{\fArial|b0|i0|c0|p0;-}{\fArial|b0|i0|c0|p0;}
  0
MTEXT
  5
DA
330
D3
100
AcDbEntity
  8
DIMENSIONS
100
AcDbMText
 10
4.818468229038524
 20
6.896342074062032
 30
0.0
 40
0.0895833333333333
 41
0.0
 71
     4
 72
     1
  1
{\fArial|b0|i0|c0|p0;.25}{\fArial|b0|i0|c0|p0;}
  0
MTEXT
  5
DB
330
D3
100
AcDbEntity
  8
DIMENSIONS
100
AcDbMText
 10
4.971246006816302
 20
6.920151597871556
 30
0.0
 40
0.0895833333333333
 41
0.0
 71
     4
 72
     1
  1
{\fArial|b0|i0|c0|p0;}
  0
MTEXT
  5
DC
330
D3
100
AcDbEntity
  8
DIMENSIONS
100
AcDbMText
 10
4.568468229038524
 20
6.920151597871556
 30
0.0
 40
0.0895833333333333
 41
0.0
 71
     5
 72
     1
  1
{\fArial|b0|i0|c0|p0;}
  0
MTEXT
  5
DD
330
D3
100
AcDbEntity
  8
DIMENSIONS
100
AcDbMText
 10
4.39902378459408
 20
6.774318264538223
 30
0.0
 40
0.0895833333333333
 41
0.0
 71
     4
 72
     1
  1
{\fArial|b0|i0|c0|p0;TYP 8 PL}{\fArial|b0|i0|c0|p0;}
  0
LINE
  5
DE
330
D3
100
AcDbEntity
  8
DIMENSIONS
100
AcDbLine
 10
4.336523876640757
 20
6.920151766078681
 30
0.0
 11
4.086523876640757
 21
6.920151766078681
 31
0.0
  0
LINE
  5
DF
330
D3
100
AcDbEntity
  8
DIMENSIONS
100
AcDbLine
 10
3.843981988948453
 20
7.087899004086809
 30
0.0
 11
4.086523876640757
 21
6.920151766078681
 31
0.0
  0
LWPOLYLINE
  5
E0
330
D3
100
AcDbEntity
  8
DIMENSIONS
100
AcDbPolyline
 90
        4
 70
     0
 43
0.0
 10
3.769960936377138
 20
7.139093571925933
 10
3.85251441692164
 20
7.100235846182029
 10
3.835449560975266
 20
7.075562161991591
 10
3.769960936377138
 20
7.139093571925933
  0
ENDBLK
  5
D5
330
D3
100
AcDbEntity
  8
0
100
AcDbBlockEnd
  0
BLOCK
  5
E7
330
E6
100
AcDbEntity
  8
0
100
AcDbBlockBegin
  2
BLOCK1
 70
     0
 10
0.0
 20
0.0
 30
0.0
  3
BLOCK1
  1

  0
LINE
  5
E9
330
E6
100
AcDbEntity
  8
CONTINUOUS
100
AcDbLine
 10
0.0
 20
0.0
 30
0.0
 11
16.00000000000004
 21
0.0
 31
0.0
  0
LINE
  5
EA
330
E6
100
AcDbEntity
  8
CONTINUOUS
100
AcDbLine
 10
16.00000000000004
 20
10.0
 30
0.0
 11
0.0
 21
10.0
 31
0.0
  0
LINE
  5
EB
330
E6
100
AcDbEntity
  8
CONTINUOUS
100
AcDbLine
 10
0.6200000000000196
 20
0.3800000000000016
 30
0.0
 11
15.37999999999996
 21
0.3800000000000016
 31
0.0
  0
LINE
  5
EC
330
E6
100
AcDbEntity
  8
CONTINUOUS
100
AcDbLine
 10
15.38
 20
9.620000000000001
 30
0.0
 11
0.6200000000000393
 21
9.620000000000001
 31
0.0
  0
LWPOLYLINE
  5
ED
330
E6
100
AcDbEntity
  8
CONTINUOUS
100
AcDbPolyline
 90
        5
 70
     0
 43
0.0
 10
7.85
 20
0.2300000000000039
 10
8.15
 20
0.2300000000000039
 10
7.999999999999999
 20
0.3800000000000016
 10
7.999999999999999
 20
0.3800000000000016
 10
7.85
 20
0.2300000000000039
  0
LWPOLYLINE
  5
EE
330
E6
100
AcDbEntity
  8
CONTINUOUS
100
AcDbPolyline
 90
        5
 70
     0
 43
0.0
 10
7.85
 20
9.77
 10
8.15
 20
9.77
 10
7.999999999999999
 20
9.620000000000001
 10
7.999999999999999
 20
9.620000000000001
 10
7.85
 20
9.77
  0
LINE
  5
EF
330
E6
100
AcDbEntity
  8
CONTINUOUS
100
AcDbLine
 10
0.0
 20
10.0
 30
0.0
 11
0.0
 21
0.0
 31
0.0
  0
LINE
  5
F0
330
E6
100
AcDbEntity
  8
CONTINUOUS
100
AcDbLine
 10
0.6200000000000393
 20
9.620000000000001
 30
0.0
 11
0.6200000000000196
 21
0.3800000000000016
 31
0.0
  0
LWPOLYLINE
  5
F1
330
E6
100
AcDbEntity
  8
CONTINUOUS
100
AcDbPolyline
 90
        5
 70
     0
 43
0.0
 10
0.48
 20
4.85
 10
0.48
 20
5.15
 10
0.6200000000000196
 20
5.0
 10
0.6200000000000196
 20
5.0
 10
0.48
 20
4.85
  0
LINE
  5
F2
330
E6
100
AcDbEntity
  8
CONTINUOUS
100
AcDbLine
 10
16.00000000000004
 20
0.0
 30
0.0
 11
16.00000000000004
 21
10.0
 31
0.0
  0
LINE
  5
F3
330
E6
100
AcDbEntity
  8
CONTINUOUS
100
AcDbLine
 10
15.38
 20
0.3800000000000016
 30
0.0
 11
15.38
 21
9.620000000000001
 31
0.0
  0
LWPOLYLINE
  5
F4
330
E6
100
AcDbEntity
  8
CONTINUOUS
100
AcDbPolyline
 90
        5
 70
     0
 43
0.0
 10
15.52000000000004
 20
4.85
 10
15.52000000000004
 20
5.15
 10
15.38
 20
5.0
 10
15.38
 20
5.0
 10
15.52000000000004
 20
4.85
  0
LINE
  5
F5
330
E6
100
AcDbEntity
  8
CONTINUOUS
100
AcDbLine
 10
11.13
 20
0.6299999999999999
 30
0.0
 11
15.38
 21
0.6299999999999999
 31
0.0
  0
LINE
  5
F6
330
E6
100
AcDbEntity
  8
CONTINUOUS
100
AcDbLine
 10
11.13
 20
1.63
 30
0.0
 11
15.38
 21
1.63
 31
0.0
  0
LINE
  5
F7
330
E6
100
AcDbEntity
  8
CONTINUOUS
100
AcDbLine
 10
11.13
 20
0.3800000000000016
 30
0.0
 11
11.13
 21
2.129999999999996
 31
0.0
  0
LINE
  5
F8
330
E6
100
AcDbEntity
  8
CONTINUOUS
100
AcDbLine
 10
11.51
 20
0.6299999999999999
 30
0.0
 11
11.51
 21
1.01
 31
0.0
  0
LINE
  5
F9
330
E6
100
AcDbEntity
  8
CONTINUOUS
100
AcDbLine
 10
12.13
 20
0.3800000000000016
 30
0.0
 11
12.13
 21
0.6299999999999999
 31
0.0
  0
LINE
  5
FA
330
E6
100
AcDbEntity
  8
CONTINUOUS
100
AcDbLine
 10
12.63000000000004
 20
0.6299999999999999
 30
0.0
 11
12.63000000000004
 21
1.01
 31
0.0
  0
LINE
  5
FB
330
E6
100
AcDbEntity
  8
CONTINUOUS
100
AcDbLine
 10
13.63
 20
0.3800000000000016
 30
0.0
 11
13.63
 21
0.6299999999999999
 31
0.0
  0
LINE
  5
FC
330
E6
100
AcDbEntity
  8
CONTINUOUS
100
AcDbLine
 10
15.0
 20
0.6299999999999999
 30
0.0
 11
15.0
 21
1.01
 31
0.0
  0
LINE
  5
FD
330
E6
100
AcDbEntity
  8
CONTINUOUS
100
AcDbLine
 10
9.879999999999999
 20
9.37
 30
0.0
 11
15.38
 21
9.37
 31
0.0
  0
LINE
  5
FE
330
E6
100
AcDbEntity
  8
CONTINUOUS
100
AcDbLine
 10
9.879999999999999
 20
9.12
 30
0.0
 11
15.38
 21
9.12
 31
0.0
  0
LINE
  5
FF
330
E6
100
AcDbEntity
  8
CONTINUOUS
100
AcDbLine
 10
9.879999999999999
 20
9.620000000000001
 30
0.0
 11
9.879999999999999
 21
8.5727
 31
0.0
  0
LINE
  5
100
330
E6
100
AcDbEntity
  8
CONTINUOUS
100
AcDbLine
 10
10.38
 20
9.12
 30
0.0
 11
10.38
 21
9.37
 31
0.0
  0
LINE
  5
101
330
E6
100
AcDbEntity
  8
CONTINUOUS
100
AcDbLine
 10
10.76
 20
9.12
 30
0.0
 11
10.76
 21
9.37
 31
0.0
  0
LINE
  5
102
330
E6
100
AcDbEntity
  8
CONTINUOUS
100
AcDbLine
 10
13.50000000000004
 20
9.12
 30
0.0
 11
13.50000000000004
 21
9.37
 31
0.0
  0
LINE
  5
103
330
E6
100
AcDbEntity
  8
CONTINUOUS
100
AcDbLine
 10
14.38
 20
9.12
 30
0.0
 11
14.38
 21
9.37
 31
0.0
  0
LINE
  5
104
330
E6
100
AcDbEntity
  8
CONTINUOUS
100
AcDbLine
 10
7.999999999999999
 20
0.1300000000000051
 30
0.0
 11
7.999999999999999
 21
0.2300000000000039
 31
0.0
  0
LINE
  5
105
330
E6
100
AcDbEntity
  8
CONTINUOUS
100
AcDbLine
 10
0.3800000000000016
 20
5.0
 30
0.0
 11
0.48
 21
5.0
 31
0.0
  0
LINE
  5
106
330
E6
100
AcDbEntity
  8
CONTINUOUS
100
AcDbLine
 10
7.999999999999999
 20
9.870000000000001
 30
0.0
 11
7.999999999999999
 21
9.77
 31
0.0
  0
LINE
  5
107
330
E6
100
AcDbEntity
  8
CONTINUOUS
100
AcDbLine
 10
15.62000000000004
 20
5.0
 30
0.0
 11
15.52000000000004
 21
5.0
 31
0.0
  0
LINE
  5
108
330
E6
100
AcDbEntity
  8
CONTINUOUS
100
AcDbLine
 10
11.13
 20
1.4158617485185
 30
0.0
 11
9.129999999999999
 21
1.4158617485185
 31
0.0
  0
LINE
  5
109
330
E6
100
AcDbEntity
  8
CONTINUOUS
100
AcDbLine
 10
9.129999999999999
 20
0.6995204745271615
 30
0.0
 11
7.124461979194095
 21
0.6995204745271615
 31
0.0
  0
LINE
  5
10A
330
E6
100
AcDbEntity
  8
CONTINUOUS
100
AcDbLine
 10
9.134604388150787
 20
2.129999999999996
 30
0.0
 11
9.134604388150787
 21
0.3799999999999996
 31
0.0
  0
LINE
  5
10B
330
E6
100
AcDbEntity
  8
CONTINUOUS
100
AcDbLine
 10
11.13
 20
1.774037191431886
 30
0.0
 11
9.129999999999999
 21
1.774037191431886
 31
0.0
  0
LINE
  5
10C
330
E6
100
AcDbEntity
  8
CONTINUOUS
100
AcDbLine
 10
9.129999999999999
 20
1.006522504546846
 30
0.0
 11
7.124461979194095
 21
1.006522504546846
 31
0.0
  0
LINE
  5
10D
330
E6
100
AcDbEntity
  8
CONTINUOUS
100
AcDbLine
 10
11.13
 20
1.01
 30
0.0
 11
15.38
 21
1.01
 31
0.0
  0
LINE
  5
10E
330
E6
100
AcDbEntity
  8
CONTINUOUS
100
AcDbLine
 10
11.13
 20
2.129999999999996
 30
0.0
 11
15.38
 21
2.129999999999996
 31
0.0
  0
LINE
  5
10F
330
E6
100
AcDbEntity
  8
CONTINUOUS
100
AcDbLine
 10
7.124461979194095
 20
2.129999999999996
 30
0.0
 11
7.124461979194095
 21
0.3799999999999996
 31
0.0
  0
LINE
  5
110
330
E6
100
AcDbEntity
  8
CONTINUOUS
100
AcDbLine
 10
7.124461979194095
 20
2.129999999999996
 30
0.0
 11
11.13
 21
2.129999999999996
 31
0.0
  0
LINE
  5
111
330
E6
100
AcDbEntity
  8
CONTINUOUS
100
AcDbLine
 10
11.13
 20
0.7287596785133819
 30
0.0
 11
9.129999999999999
 21
0.7287596785133819
 31
0.0
  0
LINE
  5
112
330
E6
100
AcDbEntity
  8
CONTINUOUS
100
AcDbLine
 10
11.13
 20
1.072315519433854
 30
0.0
 11
9.129999999999999
 21
1.072315519433854
 31
0.0
  0
LINE
  5
113
330
E6
100
AcDbEntity
  8
CONTINUOUS
100
AcDbLine
 10
10.11408888618228
 20
2.129999999999996
 30
0.0
 11
10.11408888618228
 21
0.3799999999999996
 31
0.0
  0
MTEXT
  5
114
330
E6
100
AcDbEntity
  8
CONTINUOUS
100
AcDbMText
 10
9.182106079833858
 20
0.9945461573519646
 30
0.0
 40
0.0696759259259259
 41
0.0
 71
     4
 72
     1
  1
{\fArial|b0|i0|c0|p0;\C7;MFG}{\fArial|b0|i0|c0|p0;\C7;}
  0
MTEXT
  5
115
330
E6
100
AcDbEntity
  8
CONTINUOUS
100
AcDbMText
 10
12.583375
 20
9.48396
 30
0.0
 40
0.0696759259259259
 41
0.0
 71
     4
 72
     1
  1
{\fArial|b0|i0|c0|p0;\C7;REVISIONS}{\fArial|b0|i0|c0|p0;\C7;}
  0
MTEXT
  5
116
330
E6
100
AcDbEntity
  8
CONTINUOUS
100
AcDbMText
 10
14.614575
 20
9.24176
 30
0.0
 40
0.0696759259259259
 41
0.0
 71
     4
 72
     1
  1
{\fArial|b0|i0|c0|p0;\C7;APPROVED}{\fArial|b0|i0|c0|p0;\C7;}
  0
MTEXT
  5
117
330
E6
100
AcDbEntity
  8
CONTINUOUS
100
AcDbMText
 10
15.073675
 20
0.92736
 30
0.0
 40
0.0696759259259259
 41
0.0
 71
     4
 72
     1
  1
{\fArial|b0|i0|c0|p0;\C7;REV}{\fArial|b0|i0|c0|p0;\C7;}
  0
MTEXT
  5
118
330
E6
100
AcDbEntity
  8
CONTINUOUS
100
AcDbMText
 10
-0.065749999999989
 20
6.0726
 30
0.0
 40
0.2090277777777778
 41
0.0
 71
     4
 72
     1
  1
{\fArial|b0|i0|c0|p0;\C7;}
  0
MTEXT
  5
119
330
E6
100
AcDbEntity
  8
CONTINUOUS
100
AcDbMText
 10
11.755175
 20
9.24176
 30
0.0
 40
0.0696759259259259
 41
0.0
 71
     4
 72
     1
  1
{\fArial|b0|i0|c0|p0;\C7;DESCRIPTION}{\fArial|b0|i0|c0|p0;\C7;}
  0
MTEXT
  5
11A
330
E6
100
AcDbEntity
  8
CONTINUOUS
100
AcDbMText
 10
9.180241383721654
 20
1.338207728464169
 30
0.0
 40
0.0696759259259259
 41
0.0
 71
     4
 72
     1
  1
{\fArial|b0|i0|c0|p0;\C7;QA}{\fArial|b0|i0|c0|p0;\C7;}
  0
MTEXT
  5
11B
330
E6
100
AcDbEntity
  8
CONTINUOUS
100
AcDbMText
 10
12.694175
 20
0.92736
 30
0.0
 40
0.0696759259259259
 41
0.0
 71
     4
 72
     1
  1
{\fArial|b0|i0|c0|p0;\C7;DWG NO.}{\fArial|b0|i0|c0|p0;\C7;}
  0
MTEXT
  5
11C
330
E6
100
AcDbEntity
  8
CONTINUOUS
100
AcDbMText
 10
9.169995166940158
 20
0.6396771858952717
 30
0.0
 40
0.0696759259259259
 41
0.0
 71
     4
 72
     1
  1
{\fArial|b0|i0|c0|p0;\C7;APPROVED}{\fArial|b0|i0|c0|p0;\C7;}
  0
MTEXT
  5
11D
330
E6
100
AcDbEntity
  8
CONTINUOUS
100
AcDbMText
 10
9.169975943268899
 20
1.687472999748815
 30
0.0
 40
0.0696759259259259
 41
0.0
 71
     4
 72
     1
  1
{\fArial|b0|i0|c0|p0;\C7;CHECKED}{\fArial|b0|i0|c0|p0;\C7;}
  0
MTEXT
  5
11E
330
E6
100
AcDbEntity
  8
CONTINUOUS
100
AcDbMText
 10
13.13451812192602
 20
0.7493454520116338
 30
0.0
 40
0.0895833333333333
 41
0.0
 71
     4
 72
     1
  1
{\fArial|b0|i0|c0|p0;\C7;01-061-00-0}{\fArial|b0|i0|c0|p0;\C7;}
  0
MTEXT
  5
11F
330
E6
100
AcDbEntity
  8
CONTINUOUS
100
AcDbMText
 10
-0.065749999999989
 20
3.072599999999992
 30
0.0
 40
0.2090277777777778
 41
0.0
 71
     4
 72
     1
  1
{\fArial|b0|i0|c0|p0;\C7;}
  0
MTEXT
  5
120
330
E6
100
AcDbEntity
  8
CONTINUOUS
100
AcDbMText
 10
13.6642245309424
 20
0.5392086662977362
 30
0.0
 40
0.0696759259259259
 41
0.0
 71
     4
 72
     1
  1
{\fArial|b0|i0|c0|p0;\C7;SHEET}{\fArial|b0|i0|c0|p0;\C7;}
  0
MTEXT
  5
121
330
E6
100
AcDbEntity
  8
CONTINUOUS
100
AcDbMText
 10
-0.065749999999989
 20
0.072599999999998
 30
0.0
 40
0.2090277777777778
 41
0.0
 71
     4
 72
     1
  1
{\fArial|b0|i0|c0|p0;\C7;}
  0
MTEXT
  5
122
330
E6
100
AcDbEntity
  8
CONTINUOUS
100
AcDbMText
 10
10.16976063815079
 20
2.047244007376768
 30
0.0
 40
0.0696759259259259
 41
0.0
 71
     4
 72
     1
  1
{\fArial|b0|i0|c0|p0;\C7;DATE}{\fArial|b0|i0|c0|p0;\C7;}
  0
MTEXT
  5
123
330
E6
100
AcDbEntity
  8
CONTINUOUS
100
AcDbMText
 10
10.453275
 20
9.24176
 30
0.0
 40
0.0696759259259259
 41
0.0
 71
     4
 72
     1
  1
{\fArial|b0|i0|c0|p0;\C7;REV}{\fArial|b0|i0|c0|p0;\C7;}
  0
MTEXT
  5
124
330
E6
100
AcDbEntity
  8
CONTINUOUS
100
AcDbMText
 10
9.981875
 20
9.24176
 30
0.0
 40
0.0696759259259259
 41
0.0
 71
     4
 72
     1
  1
{\fArial|b0|i0|c0|p0;\C7;ZONE}{\fArial|b0|i0|c0|p0;\C7;}
  0
MTEXT
  5
125
330
E6
100
AcDbEntity
  8
CONTINUOUS
100
AcDbMText
 10
13.820875
 20
9.24176
 30
0.0
 40
0.0696759259259259
 41
0.0
 71
     4
 72
     1
  1
{\fArial|b0|i0|c0|p0;\C7;DATE}{\fArial|b0|i0|c0|p0;\C7;}
  0
MTEXT
  5
126
330
E6
100
AcDbEntity
  8
CONTINUOUS
100
AcDbMText
 10
11.175475
 20
0.5450834127254961
 30
0.0
 40
0.0696759259259259
 41
0.0
 71
     4
 72
     1
  1
{\fArial|b0|i0|c0|p0;\C7;SCALE}{\fArial|b0|i0|c0|p0;\C7;}
  0
MTEXT
  5
127
330
E6
100
AcDbEntity
  8
CONTINUOUS
100
AcDbMText
 10
10.16036026290472
 20
1.891782177898421
 30
0.0
 40
0.0895833333333333
 41
0.0
 71
     4
 72
     1
  1
{\fArial|b0|i0|c0|p0;\C7;4-DEC-2012}{\fArial|b0|i0|c0|p0;\C7;}
  0
MTEXT
  5
128
330
E6
100
AcDbEntity
  8
CONTINUOUS
100
AcDbMText
 10
9.169975943268899
 20
2.036738271033067
 30
0.0
 40
0.0696759259259259
 41
0.0
 71
     4
 72
     1
  1
{\fArial|b0|i0|c0|p0;\C7;DRAWN}{\fArial|b0|i0|c0|p0;\C7;}
  0
MTEXT
  5
129
330
E6
100
AcDbEntity
  8
CONTINUOUS
100
AcDbMText
 10
9.176473544154724
 20
1.899404363553146
 30
0.0
 40
0.0895833333333333
 41
0.0
 71
     4
 72
     1
  1
{\fArial|b0|i0|c0|p0;\C7;CH}{\fArial|b0|i0|c0|p0;\C7;}
  0
MTEXT
  5
12A
330
E6
100
AcDbEntity
  8
CONTINUOUS
100
AcDbMText
 10
11.572075
 20
0.92736
 30
0.0
 40
0.0696759259259259
 41
0.0
 71
     4
 72
     1
  1
{\fArial|b0|i0|c0|p0;\C7;FSCM NO.}{\fArial|b0|i0|c0|p0;\C7;}
  0
MTEXT
  5
12B
330
E6
100
AcDbEntity
  8
CONTINUOUS
100
AcDbMText
 10
11.24972726585748
 20
0.7664026305387873
 30
0.0
 40
0.169212962962963
 41
0.0
 71
     4
 72
     1
  1
{\fArial|b0|i0|c0|p0;\C7;B}{\fArial|b0|i0|c0|p0;\C7;}
  0
MTEXT
  5
12C
330
E6
100
AcDbEntity
  8
CONTINUOUS
100
AcDbMText
 10
11.211075
 20
0.92736
 30
0.0
 40
0.0696759259259259
 41
0.0
 71
     4
 72
     1
  1
{\fArial|b0|i0|c0|p0;\C7;SIZE}{\fArial|b0|i0|c0|p0;\C7;}
  0
ENDBLK
  5
E8
330
E6
100
AcDbEntity
  8
0
100
AcDbBlockEnd
  0
ENDSEC
  0
SECTION
  2
ENTITIES
  0
CIRCLE
  5
5E
330
1F
100
AcDbEntity
  8
VISIBLE
100
AcDbCircle
 10
9.32010224084037
 20
5.227332127499087
 30
0.0
 40
0.0625
  0
CIRCLE
  5
5F
330
1F
100
AcDbEntity
  8
VISIBLE
100
AcDbCircle
 10
4.502453338056299
 20
6.200988741323314
 30
0.0
 40
0.0625000000000009
  0
CIRCLE
  5
60
330
1F
100
AcDbEntity
  8
VISIBLE
100
AcDbCircle
 10
6.070245158874779
 20
4.253675513674855
 30
0.0
 40
0.0625
  0
CIRCLE
  5
61
330
1F
100
AcDbEntity
  8
VISIBLE
100
AcDbCircle
 10
10.10399815124961
 20
6.200988741323314
 30
0.0
 40
0.0625
  0
LINE
  5
62
330
1F
100
AcDbEntity
  8
VISIBLE
100
AcDbLine
 10
11.44681098036881
 20
7.543889275498279
 30
0.0
 11
8.094310980368803
 21
3.381389275498284
 31
0.0
  0
LINE
  5
63
330
1F
100
AcDbEntity
  8
VISIBLE
100
AcDbLine
 10
6.531810980368804
 20
3.381389275498279
 30
0.0
 11
3.180560980368796
 21
7.543889275498293
 31
0.0
  0
LINE
  5
64
330
1F
100
AcDbEntity
  8
VISIBLE
100
AcDbLine
 10
3.180560980368804
 20
7.543889275498279
 30
0.0
 11
11.44681098036881
 21
7.543889275498279
 31
0.0
  0
CIRCLE
  5
65
330
1F
100
AcDbEntity
  8
VISIBLE
100
AcDbCircle
 10
8.536206330431128
 20
4.253675513674855
 30
0.0
 40
0.0625
  0
CIRCLE
  5
66
330
1F
100
AcDbEntity
  8
VISIBLE
100
AcDbCircle
 10
5.286349248465537
 20
5.227332127499087
 30
0.0
 40
0.0625
  0
CIRCLE
  5
67
330
1F
100
AcDbEntity
  8
VISIBLE
100
AcDbCircle
 10
3.718557427647062
 20
7.174645355147552
 30
0.0
 40
0.0625
  0
LINE
  5
68
330
1F
100
AcDbEntity
  8
VISIBLE
100
AcDbLine
 10
8.094310980368805
 20
3.38138927549828
 30
0.0
 11
6.531810980368804
 21
3.38138927549828
 31
0.0
  0
CIRCLE
  5
69
330
1F
100
AcDbEntity
  8
VISIBLE
100
AcDbCircle
 10
10.88789406165885
 20
7.174645355147547
 30
0.0
 40
0.0625
  0
LINE
  5
6B
330
1F
100
AcDbEntity
  8
INVISIBLE
100
AcDbLine
 10
3.718557427647057
 20
7.174645355147547
 30
0.0
 11
3.950459916157194
 21
7.361351232533639
 31
0.0
  0
LINE
  5
6E
330
1F
100
AcDbEntity
  8
BEND_CENTERS
100
AcDbLine
 10
7.303225744652953
 20
3.170488612858331
 30
0.0
 11
7.303225744652953
 21
7.8223773625892
 31
0.0
  0
DIMENSION
  5
70
330
1F
100
AcDbEntity
  8
DIMENSIONS
100
AcDbDimension
  2
D1
 10
0.0
 20
0.0
 30
0.0
 11
14.61691172502176
 21
11.5605699914647
 31
0.0
 70
    32
  1
<>
  3
STANDARD
100
AcDbAlignedDimension
 13
3.180560980368804
 23
7.543889275498279
 33
0.0
 14
11.44681098036881
 24
7.543889275498279
 34
0.0
100
AcDbRotatedDimension
1001
ACAD
1000
DSTYLE
1002
{
1070
    76
1070
     0
1070
    75
1070
     0
1070
   282
1070
     0
1070
   281
1070
     0
1070
    77
1070
     0
1070
    79
1070
     0
1070
    78
1070
     0
1070
   272
1070
     2
1070
   271
1070
     2
1070
   179
1070
     2
1070
   140
1040
0.0895833333333333
1070
    71
1070
     0
1070
    72
1070
     0
1070
    48
1040
0.0000787401574803
1070
    47
1040
0.0001968503937008
1002
}
  0
DIMENSION
  5
7D
330
1F
100
AcDbEntity
  8
DIMENSIONS
100
AcDbDimension
  2
D2
 10
0.0
 20
0.0
 30
0.0
 11
14.61628672502176
 21
6.318377565398932
 31
0.0
 70
    32
  1
<>
 53
180.0
  3
STANDARD
100
AcDbAlignedDimension
 13
8.094310980368805
 23
3.38138927549828
 33
0.0
 14
6.531810980368804
 24
3.38138927549828
 34
0.0
 50
180.0
100
AcDbRotatedDimension
1001
ACAD
1000
DSTYLE
1002
{
1070
    76
1070
     0
1070
    75
1070
     0
1070
   282
1070
     0
1070
   281
1070
     0
1070
    77
1070
     0
1070
    79
1070
     0
1070
    78
1070
     0
1070
   272
1070
     2
1070
   271
1070
     2
1070
   179
1070
     2
1070
   140
1040
0.0895833333333333
1070
    71
1070
     0
1070
    72
1070
     0
1070
    48
1040
0.0000787401574803
1070
    47
1040
0.0001968503937008
1002
}
  0
DIMENSION
  5
8A
330
1F
100
AcDbEntity
  8
DIMENSIONS
100
AcDbDimension
  2
D3
 10
0.0
 20
0.0
 30
0.0
 11
12.15941172502176
 21
6.377113690714202
 31
0.0
 70
    32
  1
<>
  3
STANDARD
100
AcDbAlignedDimension
 13
3.180560980368804
 23
7.543889275498279
 33
0.0
 14
6.531810980368804
 24
3.38138927549828
 34
0.0
100
AcDbRotatedDimension
1001
ACAD
1000
DSTYLE
1002
{
1070
    76
1070
     0
1070
    75
1070
     0
1070
   282
1070
     0
1070
   281
1070
     0
1070
    77
1070
     0
1070
    79
1070
     0
1070
    78
1070
     0
1070
   272
1070
     2
1070
   271
1070
     2
1070
   179
1070
     2
1070
   140
1040
0.0895833333333333
1070
    71
1070
     0
1070
    72
1070
     0
1070
    48
1040
0.0000787401574803
1070
    47
1040
0.0001968503937008
1002
}
  0
DIMENSION
  5
97
330
1F
100
AcDbEntity
  8
DIMENSIONS
100
AcDbDimension
  2
D4
 10
0.0
 20
0.0
 30
0.0
 11
10.06486531715697
 21
8.638451211283527
 31
0.0
 70
    32
  1
<>
 53
90.0
  3
STANDARD
100
AcDbAlignedDimension
 13
6.531810980368804
 23
3.38138927549828
 33
0.0
 14
3.180560980368804
 24
7.543889275498279
 34
0.0
 50
90.0
100
AcDbRotatedDimension
1001
ACAD
1000
DSTYLE
1002
{
1070
    76
1070
     0
1070
    75
1070
     0
1070
   282
1070
     0
1070
   281
1070
     0
1070
    77
1070
     0
1070
    79
1070
     0
1070
    78
1070
     0
1070
   272
1070
     2
1070
   271
1070
     2
1070
   179
1070
     2
1070
   140
1040
0.0895833333333333
1070
    71
1070
     0
1070
    72
1070
     0
1070
    48
1040
0.0000787401574803
1070
    47
1040
0.0001968503937008
1002
}
  0
DIMENSION
  5
A4
330
1F
100
AcDbEntity
  8
DIMENSIONS
100
AcDbDimension
  2
D5
 10
0.0
 20
0.0
 30
0.0
 11
17.61176402925132
 21
8.41073872218464
 31
0.0
 70
    32
  1
<>
 53
231.1518433792855
  3
STANDARD
100
AcDbAlignedDimension
 13
11.44681098036881
 23
7.543889275498279
 33
0.0
 14
8.094310980368805
 24
3.38138927549828
 34
0.0
 50
231.1518433792855
100
AcDbRotatedDimension
1001
ACAD
1000
DSTYLE
1002
{
1070
    76
1070
     0
1070
    75
1070
     0
1070
   282
1070
     0
1070
   281
1070
     0
1070
    77
1070
     0
1070
    79
1070
     0
1070
    78
1070
     0
1070
   272
1070
     2
1070
   271
1070
     2
1070
   179
1070
     2
1070
   140
1040
0.0895833333333333
1070
    71
1070
     0
1070
    72
1070
     0
1070
    48
1040
0.0000787401574803
1070
    47
1040
0.0001968503937008
1002
}
  0
DIMENSION
  5
B1
330
1F
100
AcDbEntity
  8
INVISIBLE
100
AcDbDimension
  2
D6
 10
3.922072546658147
 20
7.338496416429443
 30
0.0
 11
11.31595956456946
 21
10.35125689168615
 31
0.0
 70
    34
  1
<>
  3
STANDARD
100
AcDb2LineAngularDimension
 13
3.180560980368804
 23
7.543889275498279
 33
0.0
 14
3.291073487730141
 24
7.406624579670884
 34
0.0
 15
3.718557427647057
 25
7.174645355147547
 35
0.0
 16
11.31595956456946
 26
10.35125689168615
 36
0.0
1001
ACAD
1000
DSTYLE
1002
{
1070
    76
1070
     1
1070
    75
1070
     1
1070
   282
1070
     1
1070
   281
1070
     1
1070
    77
1070
     0
1070
    79
1070
     0
1070
    78
1070
     0
1070
   272
1070
     3
1070
   271
1070
     3
1070
   179
1070
     3
1070
   140
1040
0.0895833333333333
1070
    71
1070
     0
1070
    72
1070
     0
1070
    48
1040
0.0006871172362205
1070
    47
1040
0.0006871172362205
1002
}
  0
DIMENSION
  5
B8
330
1F
100
AcDbEntity
  8
DIMENSIONS
100
AcDbDimension
  2
D7
 10
0.0
 20
0.0
 30
0.0
 11
10.22383156183201
 21
10.3589733934778
 31
0.0
 70
    32
  1
<>
 53
128.8377188848449
  3
STANDARD
100
AcDbAlignedDimension
 13
3.718557427647057
 23
7.174645355147547
 33
0.0
 14
3.180560980368804
 24
7.543889275498279
 34
0.0
 50
128.8377188848449
100
AcDbRotatedDimension
1001
ACAD
1000
DSTYLE
1002
{
1070
    76
1070
     0
1070
    75
1070
     0
1070
   282
1070
     0
1070
   281
1070
     0
1070
    77
1070
     0
1070
    79
1070
     0
1070
    78
1070
     0
1070
   272
1070
     2
1070
   271
1070
     2
1070
   179
1070
     2
1070
   140
1040
0.0895833333333333
1070
    71
1070
     0
1070
    72
1070
     0
1070
    48
1040
0.0000787401574803
1070
    47
1040
0.0001968503937008
1002
}
  0
DIMENSION
  5
C5
330
1F
100
AcDbEntity
  8
DIMENSIONS
100
AcDbDimension
  2
D8
 10
0.0
 20
0.0
 30
0.0
 11
10.90104144031283
 21
9.656437239240852
 31
0.0
 70
    32
  1
<>TYP 6 PL\P
 53
308.8377188848448
  3
STANDARD
100
AcDbAlignedDimension
 13
3.718557427647057
 23
7.174645355147547
 33
0.0
 14
4.502453338056299
 24
6.200988741323314
 34
0.0
 50
308.8377188848448
100
AcDbRotatedDimension
1001
ACAD
1000
DSTYLE
1002
{
1070
    76
1070
     0
1070
    75
1070
     0
1070
   282
1070
     0
1070
   281
1070
     0
1070
    77
1070
     0
1070
    79
1070
     0
1070
    78
1070
     0
1070
   272
1070
     2
1070
   271
1070
     2
1070
   179
1070
     2
1070
   140
1040
0.0895833333333333
1070
    71
1070
     0
1070
    72
1070
     0
1070
    48
1040
0.0000787401574803
1070
    47
1040
0.0001968503937008
1002
}
  0
DIMENSION
  5
D2
330
1F
100
AcDbEntity
  8
DIMENSIONS
100
AcDbDimension
  2
D9
 10
3.660981650005809
 20
7.198961601342335
 30
0.0
 11
12.4031900366836
 21
10.30154087336983
 31
0.0
 70
    35
  1
<>TYP 8 PL\P
  3
STANDARD
100
AcDbDiametricDimension
 15
3.776133205288306
 25
7.150329108952759
 35
0.0
 40
0.0
1001
ACAD
1000
DSTYLE
1002
{
1070
    76
1070
     1
1070
    75
1070
     0
1070
   282
1070
     1
1070
   281
1070
     0
1070
    77
1070
     0
1070
    79
1070
     0
1070
    78
1070
     0
1070
   272
1070
     2
1070
   271
1070
     2
1070
   179
1070
     2
1070
   140
1040
0.0895833333333333
1070
    71
1070
     0
1070
    72
1070
     0
1070
    48
1040
0.25
1070
    47
1040
0.0001968503937008
1002
}
  0
MTEXT
  5
E2
330
1F
100
AcDbEntity
  8
CONTINUOUS
100
AcDbMText
 10
11.89509834830217
 20
3.545585668368603
 30
0.0
 40
0.2388888888888889
 41
0.0
 71
     1
 72
     1
  1
{\fArial|b0|i0|c0|p0;\C7;1X  INDEX 89}{\fArial|b0|i0|c0|p0;\C7;\H0.375x;}
  0
MTEXT
  5
E3
330
1F
100
AcDbEntity
  8
CONTINUOUS
100
AcDbMText
 10
7.19616987573819
 20
7.945864555779409
 30
0.0
 40
0.1393518518518518
 41
0.0
 71
     1
 72
     1
  1
{\fArial|b0|i0|c0|p0;\C7;C}{\fArial|b0|i0|c0|p0;\C7;\H0.642857134x;}
  0
MTEXT
  5
E4
330
1F
100
AcDbEntity
  8
CONTINUOUS
100
AcDbMText
 10
7.246694489726891
 20
7.880928796482836
 30
0.0
 40
0.1393518518518518
 41
0.0
 71
     1
 72
     1
  1
{\fArial|b0|i0|c0|p0;\C7;L}{\fArial|b0|i0|c0|p0;\C7;\H0.642857134x;}
  0
INSERT
  5
E5
330
1F
100
AcDbEntity
  8
CONTINUOUS
100
AcDbBlockReference
  2
BLOCK1
 10
0.0
 20
0.0
 30
0.0
  0
MTEXT
  5
12D
330
1F
100
AcDbEntity
  8
CONTINUOUS
100
AcDbMText
 10
13.30476295290969
 20
3.717727925458296
 30
0.0
 40
0.3583333333333333
 41
0.0
 71
     1
 72
     1
  1
{\fAlibre Symbols|b0|i0|c0|p0;\C7;e}{\fArial|b0|i0|c0|p0;\C7;\H0.25x;}
  0
MTEXT
  5
12E
330
1F
100
AcDbEntity
  8
CONTINUOUS
100
AcDbMText
 10
11.26368485097811
 20
2.003764331246925
 30
0.0
 40
0.2388888888888889
 41
0.0
 71
     1
 72
     1
  1
{\fArial|b0|i0|c0|p0;\C7;Open Source Ecology}{\fArial|b0|i0|c0|p0;\C7;\H0.375x;}
  0
MTEXT
  5
12F
330
1F
100
AcDbEntity
  8
CONTINUOUS
100
AcDbMText
 10
15.10955810546874
 20
0.8782151289812244
 30
0.0
 40
0.1990740740740741
 41
0.0
 71
     1
 72
     1
  1
{\fArial|b0|i0|c0|p0;\C7;B}{\fArial|b0|i0|c0|p0;\C7;\H0.45x;}
  0
MTEXT
  5
130
330
1F
100
AcDbEntity
  8
CONTINUOUS
100
AcDbMText
 10
8.150673813707245
 20
1.720399823526701
 30
0.0
 40
0.0796296296296296
 41
0.0
 71
     2
 72
     1
  3
{\fArial Narrow|b0|i0|c0|p0;\C7;LICENSE INFORMATION}{\fArial Narrow|b0|i0|c0|p0;\C7;\P}{\fArial Narrow|b0|i0|c0|p0;\C7;\PALL INFORMATION IS RELEASED UNDER THE OSE}{\fArial Narrow|b0|i0|c0|p0;\C7;\PLICENSE FOR DISTRIBUTIVE ECONOMICS. FOR}{\fArial Nar
  1
row|b0|i0|c0|p0;\C7;\PFURTHER INFORMATION GO TO:}{\fArial Narrow|b0|i0|c0|p0;\C7;\POPENSOURCEECOLOGY.ORG/WIKI/LICENSE}{\fArial|b0|i0|c0|p0;\C7;\H1.125x;}
  0
MTEXT
  5
131
330
1F
100
AcDbEntity
  8
CONTINUOUS
100
AcDbMText
 10
11.28392016793799
 20
1.510178753710169
 30
0.0
 40
0.1990740740740741
 41
0.0
 71
     1
 72
     1
  1
{\fArial|b0|i0|c0|p0;\C7;Plate, Hopper, Front}{\fArial|b0|i0|c0|p0;\C7;}
  0
MTEXT
  5
132
330
1F
100
AcDbEntity
  8
CONTINUOUS
100
AcDbMText
 10
11.62247184693343
 20
0.5634481204776339
 30
0.0
 40
0.1194444444444444
 41
0.0
 71
     1
 72
     1
  1
{\fArial|b0|i0|c0|p0;\C7;1:8}{\fArial|b0|i0|c0|p0;\C7;\H0.75x;}
  0
ENDSEC
  0
SECTION
  2
OBJECTS
  0
DICTIONARY
  5
C
330
0
100
AcDbDictionary
  3
ACAD_GROUP
350
D
  3
ACAD_LAYOUT
350
1A
  3
ACAD_MLEADERSTYLE
350
156
  3
ACAD_MLINESTYLE
350
17
  3
ACAD_PLOTSETTINGS
350
19
  3
ACAD_SCALELIST
350
3B
  3
ACAD_TABLESTYLE
350
155
  3
ACAD_VISUALSTYLE
350
2A
  3
ACDBHEADERROUNDTRIPXREC
350
133
  3
ACDBVARIABLEDICTIONARY
350
153
  0
DICTIONARY
  5
D
102
{ACAD_REACTORS
330
C
102
}
330
C
100
AcDbDictionary
  0
DICTIONARY
  5
1A
102
{ACAD_REACTORS
330
C
102
}
330
C
100
AcDbDictionary
  0
DICTIONARY
  5
156
102
{ACAD_REACTORS
330
C
102
}
330
C
100
AcDbDictionary
  0
DICTIONARY
  5
17
102
{ACAD_REACTORS
330
C
102
}
330
C
100
AcDbDictionary
  3
STANDARD
350
18
  0
DICTIONARY
  5
19
102
{ACAD_REACTORS
330
C
102
}
330
C
100
AcDbDictionary
  0
DICTIONARY
  5
3B
102
{ACAD_REACTORS
330
C
102
}
330
C
100
AcDbDictionary
  3
A0
350
3C
  3
A1
350
3D
  3
A2
350
3E
  3
A3
350
3F
  3
A4
350
40
  3
A5
350
41
  3
A6
350
42
  3
A7
350
43
  3
A8
350
44
  3
A9
350
45
  3
B0
350
46
  3
B1
350
47
  3
B2
350
48
  3
B3
350
49
  3
B4
350
4A
  3
B5
350
4B
  3
B6
350
4C
  3
B7
350
4D
  3
B8
350
4E
  3
B9
350
4F
  3
C0
350
50
  3
C1
350
51
  3
C2
350
52
  3
C3
350
53
  3
C4
350
54
  3
C5
350
55
  3
C6
350
56
  3
C7
350
57
  3
C8
350
58
  3
C9
350
59
  3
D0
350
5A
  3
D1
350
5B
  3
D2
350
5C
  0
DICTIONARY
  5
155
102
{ACAD_REACTORS
330
C
102
}
330
C
100
AcDbDictionary
  0
DICTIONARY
  5
2A
102
{ACAD_REACTORS
330
C
102
}
330
C
100
AcDbDictionary
  3
2DWIREFRAME
350
2F
  3
3D_HIDDEN
350
31
  3
3DWIREFRAME
350
30
  3
BASIC
350
32
  3
BRIGHTEN
350
36
  3
COLORCHANGE
350
3A
  3
CONCEPTUAL
350
34
  3
DIM
350
35
  3
FACEPATTERN
350
39
  3
FLAT
350
2B
  3
FLATWITHEDGES
350
2C
  3
GOURAUD
350
2D
  3
GOURAUDWITHEDGES
350
2E
  3
LINEPATTERN
350
38
  3
REALISTIC
350
33
  3
THICKEN
350
37
  0
DICTIONARY
  5
133
102
{ACAD_REACTORS
330
C
102
}
330
C
100
AcDbDictionary
  3
CEPSNTYPE
350
13C
  3
DIMSTYLEDATA
350
152
  3
FINGERPRINTGUID
350
13D
  3
HYPERLINKBASE
350
136
  3
INSUNITS
350
13B
  3
LAYOUTDICT
350
138
  3
LWETCUNION
350
13A
  3
PLOTSETDICT
350
139
  3
PSVPSCALE
350
13F
  3
PUCSBASE
350
142
  3
PUCSORGBACK
350
148
  3
PUCSORGBOTTOM
350
144
  3
PUCSORGFRONT
350
147
  3
PUCSORGLEFT
350
145
  3
PUCSORGRIGHT
350
146
  3
PUCSORGTOP
350
143
  3
PUCSORTHOREF
350
140
  3
PUCSORTHOVIEW
350
141
  3
STYLESHEET
350
137
  3
TSTACKALIGN
350
134
  3
TSTACKSIZE
350
135
  3
UCSBASE
350
14B
  3
UCSORGBACK
350
151
  3
UCSORGBOTTOM
350
14D
  3
UCSORGFRONT
350
150
  3
UCSORGLEFT
350
14E
  3
UCSORGRIGHT
350
14F
  3
UCSORGTOP
350
14C
  3
UCSORTHOREF
350
149
  3
UCSORTHOVIEW
350
14A
  3
VERSIONGUID
350
13E
  0
DICTIONARY
  5
153
102
{ACAD_REACTORS
330
C
102
}
330
C
100
AcDbDictionary
  3
CANNOSCALE
350
154
  0
MLINESTYLE
  5
18
102
{ACAD_REACTORS
330
17
102
}
330
17
100
AcDbMlineStyle
  2
Standard
 70
     0
  3

 62
   256
 51
90.0
 52
90.0
 71
     2
 49
0.5
 62
   256
  6
BYLAYER
 49
-0.5
 62
   256
  6
BYLAYER
  0
SCALE
  5
3C
102
{ACAD_REACTORS
330
3B
102
}
330
3B
100
AcDbScale
 70
     0
300
1:1
140
1.0
141
1.0
290
     1
  0
SCALE
  5
3D
102
{ACAD_REACTORS
330
3B
102
}
330
3B
100
AcDbScale
 70
     0
300
1:2
140
1.0
141
2.0
290
     0
  0
SCALE
  5
3E
102
{ACAD_REACTORS
330
3B
102
}
330
3B
100
AcDbScale
 70
     0
300
1:4
140
1.0
141
4.0
290
     0
  0
SCALE
  5
3F
102
{ACAD_REACTORS
330
3B
102
}
330
3B
100
AcDbScale
 70
     0
300
1:5
140
1.0
141
5.0
290
     0
  0
SCALE
  5
40
102
{ACAD_REACTORS
330
3B
102
}
330
3B
100
AcDbScale
 70
     0
300
1:8
140
1.0
141
8.0
290
     0
  0
SCALE
  5
41
102
{ACAD_REACTORS
330
3B
102
}
330
3B
100
AcDbScale
 70
     0
300
1:10
140
1.0
141
10.0
290
     0
  0
SCALE
  5
42
102
{ACAD_REACTORS
330
3B
102
}
330
3B
100
AcDbScale
 70
     0
300
1:16
140
1.0
141
16.0
290
     0
  0
SCALE
  5
43
102
{ACAD_REACTORS
330
3B
102
}
330
3B
100
AcDbScale
 70
     0
300
1:20
140
1.0
141
20.0
290
     0
  0
SCALE
  5
44
102
{ACAD_REACTORS
330
3B
102
}
330
3B
100
AcDbScale
 70
     0
300
1:30
140
1.0
141
30.0
290
     0
  0
SCALE
  5
45
102
{ACAD_REACTORS
330
3B
102
}
330
3B
100
AcDbScale
 70
     0
300
1:40
140
1.0
141
40.0
290
     0
  0
SCALE
  5
46
102
{ACAD_REACTORS
330
3B
102
}
330
3B
100
AcDbScale
 70
     0
300
1:50
140
1.0
141
50.0
290
     0
  0
SCALE
  5
47
102
{ACAD_REACTORS
330
3B
102
}
330
3B
100
AcDbScale
 70
     0
300
1:100
140
1.0
141
100.0
290
     0
  0
SCALE
  5
48
102
{ACAD_REACTORS
330
3B
102
}
330
3B
100
AcDbScale
 70
     0
300
2:1
140
2.0
141
1.0
290
     0
  0
SCALE
  5
49
102
{ACAD_REACTORS
330
3B
102
}
330
3B
100
AcDbScale
 70
     0
300
4:1
140
4.0
141
1.0
290
     0
  0
SCALE
  5
4A
102
{ACAD_REACTORS
330
3B
102
}
330
3B
100
AcDbScale
 70
     0
300
8:1
140
8.0
141
1.0
290
     0
  0
SCALE
  5
4B
102
{ACAD_REACTORS
330
3B
102
}
330
3B
100
AcDbScale
 70
     0
300
10:1
140
10.0
141
1.0
290
     0
  0
SCALE
  5
4C
102
{ACAD_REACTORS
330
3B
102
}
330
3B
100
AcDbScale
 70
     0
300
100:1
140
100.0
141
1.0
290
     0
  0
SCALE
  5
4D
102
{ACAD_REACTORS
330
3B
102
}
330
3B
100
AcDbScale
 70
     0
300
1/128" = 1'-0"
140
0.0078125
141
12.0
290
     0
  0
SCALE
  5
4E
102
{ACAD_REACTORS
330
3B
102
}
330
3B
100
AcDbScale
 70
     0
300
1/64" = 1'-0"
140
0.015625
141
12.0
290
     0
  0
SCALE
  5
4F
102
{ACAD_REACTORS
330
3B
102
}
330
3B
100
AcDbScale
 70
     0
300
1/32" = 1'-0"
140
0.03125
141
12.0
290
     0
  0
SCALE
  5
50
102
{ACAD_REACTORS
330
3B
102
}
330
3B
100
AcDbScale
 70
     0
300
1/16" = 1'-0"
140
0.0625
141
12.0
290
     0
  0
SCALE
  5
51
102
{ACAD_REACTORS
330
3B
102
}
330
3B
100
AcDbScale
 70
     0
300
3/32" = 1'-0"
140
0.09375
141
12.0
290
     0
  0
SCALE
  5
52
102
{ACAD_REACTORS
330
3B
102
}
330
3B
100
AcDbScale
 70
     0
300
1/8" = 1'-0"
140
0.125
141
12.0
290
     0
  0
SCALE
  5
53
102
{ACAD_REACTORS
330
3B
102
}
330
3B
100
AcDbScale
 70
     0
300
3/16" = 1'-0"
140
0.1875
141
12.0
290
     0
  0
SCALE
  5
54
102
{ACAD_REACTORS
330
3B
102
}
330
3B
100
AcDbScale
 70
     0
300
1/4" = 1'-0"
140
0.25
141
12.0
290
     0
  0
SCALE
  5
55
102
{ACAD_REACTORS
330
3B
102
}
330
3B
100
AcDbScale
 70
     0
300
3/8" = 1'-0"
140
0.375
141
12.0
290
     0
  0
SCALE
  5
56
102
{ACAD_REACTORS
330
3B
102
}
330
3B
100
AcDbScale
 70
     0
300
1/2" = 1'-0"
140
0.5
141
12.0
290
     0
  0
SCALE
  5
57
102
{ACAD_REACTORS
330
3B
102
}
330
3B
100
AcDbScale
 70
     0
300
3/4" = 1'-0"
140
0.75
141
12.0
290
     0
  0
SCALE
  5
58
102
{ACAD_REACTORS
330
3B
102
}
330
3B
100
AcDbScale
 70
     0
300
1" = 1'-0"
140
1.0
141
12.0
290
     0
  0
SCALE
  5
59
102
{ACAD_REACTORS
330
3B
102
}
330
3B
100
AcDbScale
 70
     0
300
1-1/2" = 1'-0"
140
1.5
141
12.0
290
     0
  0
SCALE
  5
5A
102
{ACAD_REACTORS
330
3B
102
}
330
3B
100
AcDbScale
 70
     0
300
3" = 1'-0"
140
3.0
141
12.0
290
     0
  0
SCALE
  5
5B
102
{ACAD_REACTORS
330
3B
102
}
330
3B
100
AcDbScale
 70
     0
300
6" = 1'-0"
140
6.0
141
12.0
290
     0
  0
SCALE
  5
5C
102
{ACAD_REACTORS
330
3B
102
}
330
3B
100
AcDbScale
 70
     0
300
1'-0" = 1'-0"
140
12.0
141
12.0
290
     0
  0
VISUALSTYLE
  5
2F
102
{ACAD_REACTORS
330
2A
102
}
330
2A
100
AcDbVisualStyle
  2
2dWireframe
 70
     4
 71
     0
 72
     2
 73
     0
 90
        0
 40
-0.6
 41
-30.0
 62
     5
 63
     7
 74
     1
 91
        4
 64
     7
 65
   257
 75
     1
175
     1
 42
1.0
 92
        0
 66
   257
 43
1.0
 76
     1
 77
     6
 78
     2
 67
     7
 79
     5
170
     0
171
     0
290
     0
174
     0
 93
        1
 44
0.0
173
     0
291
     0
 45
0.0
1001
ACAD
1000
AcDbSavedByObjectVersion
1070
     0
  0
VISUALSTYLE
  5
31
102
{ACAD_REACTORS
330
2A
102
}
330
2A
100
AcDbVisualStyle
  2
3D Hidden
 70
     6
 71
     1
 72
     2
 73
     2
 90
        0
 40
-0.6
 41
-30.0
 62
     5
 63
     7
 74
     2
 91
        2
 64
     7
 65
   257
 75
     2
175
     1
 42
40.0
 92
        0
 66
   257
 43
1.0
 76
     1
 77
     6
 78
     2
 67
     7
 79
     3
170
     0
171
     0
290
     0
174
     0
 93
        1
 44
0.0
173
     0
291
     0
 45
0.0
1001
ACAD
1000
AcDbSavedByObjectVersion
1070
     0
  0
VISUALSTYLE
  5
30
102
{ACAD_REACTORS
330
2A
102
}
330
2A
100
AcDbVisualStyle
  2
3dWireframe
 70
     5
 71
     0
 72
     2
 73
     0
 90
        0
 40
-0.6
 41
-30.0
 62
     5
 63
     7
 74
     1
 91
        4
 64
     7
 65
   257
 75
     1
175
     1
 42
1.0
 92
        0
 66
   257
 43
1.0
 76
     1
 77
     6
 78
     2
 67
     7
 79
     5
170
     0
171
     0
290
     0
174
     0
 93
        1
 44
0.0
173
     0
291
     0
 45
0.0
1001
ACAD
1000
AcDbSavedByObjectVersion
1070
     0
  0
VISUALSTYLE
  5
32
102
{ACAD_REACTORS
330
2A
102
}
330
2A
100
AcDbVisualStyle
  2
Basic
 70
     7
 71
     1
 72
     0
 73
     1
 90
        0
 40
-0.6
 41
-30.0
 62
     5
 63
     7
 74
     0
 91
        4
 64
     7
 65
   257
 75
     1
175
     1
 42
1.0
 92
        8
 66
     7
 43
1.0
 76
     1
 77
     6
 78
     2
 67
     7
 79
     5
170
     0
171
     0
290
     0
174
     0
 93
        1
 44
0.0
173
     0
291
     1
 45
0.0
1001
ACAD
1000
AcDbSavedByObjectVersion
1070
     0
  0
VISUALSTYLE
  5
36
102
{ACAD_REACTORS
330
2A
102
}
330
2A
100
AcDbVisualStyle
  2
Brighten
 70
    12
 71
     2
 72
     2
 73
     0
 90
        0
 40
-0.6
 41
-30.0
 62
     5
 63
     7
 74
     1
 91
        4
 64
     7
 65
   257
 75
     1
175
     1
 42
1.0
 92
        8
 66
     7
 43
1.0
 76
     1
 77
     6
 78
     2
 67
     7
 79
     5
170
     0
171
     0
290
     0
174
     0
 93
        1
 44
50.0
173
     0
291
     1
 45
0.0
1001
ACAD
1000
AcDbSavedByObjectVersion
1070
     0
  0
VISUALSTYLE
  5
3A
102
{ACAD_REACTORS
330
2A
102
}
330
2A
100
AcDbVisualStyle
  2
ColorChange
 70
    16
 71
     2
 72
     2
 73
     3
 90
        0
 40
-0.6
 41
-30.0
 62
     5
 63
     8
 74
     1
 91
        4
 64
     7
 65
   257
 75
     1
175
     1
 42
1.0
 92
        8
 66
     8
 43
1.0
 76
     1
 77
     6
 78
     2
 67
     7
 79
     5
170
     0
171
     0
290
     0
174
     0
 93
        1
 44
0.0
173
     0
291
     1
 45
0.0
1001
ACAD
1000
AcDbSavedByObjectVersion
1070
     0
  0
VISUALSTYLE
  5
34
102
{ACAD_REACTORS
330
2A
102
}
330
2A
100
AcDbVisualStyle
  2
Conceptual
 70
     9
 71
     3
 72
     2
 73
     0
 90
        0
 40
-0.6
 41
-30.0
 62
     5
 63
     7
 74
     2
 91
        2
 64
     7
 65
   257
 75
     1
175
     1
 42
40.0
 92
        8
 66
     7
 43
1.0
 76
     1
 77
     6
 78
     2
 67
     7
 79
     3
170
     0
171
     0
290
     0
174
     0
 93
        1
 44
0.0
173
     0
291
     0
 45
0.0
1001
ACAD
1000
AcDbSavedByObjectVersion
1070
     0
  0
VISUALSTYLE
  5
35
102
{ACAD_REACTORS
330
2A
102
}
330
2A
100
AcDbVisualStyle
  2
Dim
 70
    11
 71
     2
 72
     2
 73
     0
 90
        0
 40
-0.6
 41
-30.0
 62
     5
 63
     7
 74
     1
 91
        4
 64
     7
 65
   257
 75
     1
175
     1
 42
1.0
 92
        8
 66
     7
 43
1.0
 76
     1
 77
     6
 78
     2
 67
     7
 79
     5
170
     0
171
     0
290
     0
174
     0
 93
        1
 44
-50.0
173
     0
291
     1
 45
0.0
1001
ACAD
1000
AcDbSavedByObjectVersion
1070
     0
  0
VISUALSTYLE
  5
39
102
{ACAD_REACTORS
330
2A
102
}
330
2A
100
AcDbVisualStyle
  2
Facepattern
 70
    15
 71
     2
 72
     2
 73
     0
 90
        0
 40
-0.6
 41
-30.0
 62
     5
 63
     7
 74
     1
 91
        4
 64
     7
 65
   257
 75
     1
175
     1
 42
1.0
 92
        8
 66
     7
 43
1.0
 76
     1
 77
     6
 78
     2
 67
     7
 79
     5
170
     0
171
     0
290
     0
174
     0
 93
        1
 44
0.0
173
     0
291
     1
 45
0.0
1001
ACAD
1000
AcDbSavedByObjectVersion
1070
     0
  0
VISUALSTYLE
  5
2B
102
{ACAD_REACTORS
330
2A
102
}
330
2A
100
AcDbVisualStyle
  2
Flat
 70
     0
 71
     2
 72
     1
 73
     1
 90
        2
 40
-0.6
 41
30.0
 62
     5
 63
     7
 74
     0
 91
        4
 64
     7
 65
   257
 75
     1
175
     1
 42
1.0
 92
        8
 66
     7
 43
1.0
 76
     1
 77
     6
 78
     2
 67
     7
 79
     5
170
     0
171
     0
290
     0
174
     0
 93
       13
 44
0.0
173
     0
291
     1
 45
0.0
1001
ACAD
1000
AcDbSavedByObjectVersion
1070
     0
  0
VISUALSTYLE
  5
2C
102
{ACAD_REACTORS
330
2A
102
}
330
2A
100
AcDbVisualStyle
  2
FlatWithEdges
 70
     1
 71
     2
 72
     1
 73
     1
 90
        2
 40
-0.6
 41
30.0
 62
     5
 63
     7
 74
     1
 91
        4
 64
     7
 65
   257
 75
     1
175
     1
 42
1.0
 92
        0
 66
   257
 43
1.0
 76
     1
 77
     6
 78
     2
 67
     7
 79
     5
170
     0
171
     0
290
     0
174
     0
 93
       13
 44
0.0
173
     0
291
     1
 45
0.0
1001
ACAD
1000
AcDbSavedByObjectVersion
1070
     0
  0
VISUALSTYLE
  5
2D
102
{ACAD_REACTORS
330
2A
102
}
330
2A
100
AcDbVisualStyle
  2
Gouraud
 70
     2
 71
     2
 72
     2
 73
     1
 90
        2
 40
-0.6
 41
30.0
 62
     5
 63
     7
 74
     0
 91
        4
 64
     7
 65
   257
 75
     1
175
     1
 42
1.0
 92
        0
 66
     7
 43
1.0
 76
     1
 77
     6
 78
     2
 67
     7
 79
     5
170
     0
171
     0
290
     0
174
     0
 93
       13
 44
0.0
173
     0
291
     1
 45
0.0
1001
ACAD
1000
AcDbSavedByObjectVersion
1070
     0
  0
VISUALSTYLE
  5
2E
102
{ACAD_REACTORS
330
2A
102
}
330
2A
100
AcDbVisualStyle
  2
GouraudWithEdges
 70
     3
 71
     2
 72
     2
 73
     1
 90
        2
 40
-0.6
 41
30.0
 62
     5
 63
     7
 74
     1
 91
        4
 64
     7
 65
   257
 75
     1
175
     1
 42
1.0
 92
        0
 66
   257
 43
1.0
 76
     1
 77
     6
 78
     2
 67
     7
 79
     5
170
     0
171
     0
290
     0
174
     0
 93
       13
 44
0.0
173
     0
291
     1
 45
0.0
1001
ACAD
1000
AcDbSavedByObjectVersion
1070
     0
  0
VISUALSTYLE
  5
38
102
{ACAD_REACTORS
330
2A
102
}
330
2A
100
AcDbVisualStyle
  2
Linepattern
 70
    14
 71
     2
 72
     2
 73
     0
 90
        0
 40
-0.6
 41
-30.0
 62
     5
 63
     7
 74
     1
 91
        4
 64
     7
 65
   257
 75
     7
175
     7
 42
1.0
 92
        8
 66
     7
 43
1.0
 76
     1
 77
     6
 78
     2
 67
     7
 79
     5
170
     0
171
     0
290
     0
174
     0
 93
        1
 44
0.0
173
     0
291
     1
 45
0.0
1001
ACAD
1000
AcDbSavedByObjectVersion
1070
     0
  0
VISUALSTYLE
  5
33
102
{ACAD_REACTORS
330
2A
102
}
330
2A
100
AcDbVisualStyle
  2
Realistic
 70
     8
 71
     2
 72
     2
 73
     0
 90
        0
 40
-0.6
 41
-30.0
 62
     5
 63
     7
 74
     1
 91
        0
 64
     7
 65
   257
 75
     1
175
     1
 42
1.0
 92
        8
 66
     8
 43
1.0
 76
     1
 77
     6
 78
     2
 67
     7
 79
     5
170
     0
171
     0
290
     0
174
     0
 93
       13
 44
0.0
173
     0
291
     0
 45
0.0
1001
ACAD
1000
AcDbSavedByObjectVersion
1070
     0
  0
VISUALSTYLE
  5
37
102
{ACAD_REACTORS
330
2A
102
}
330
2A
100
AcDbVisualStyle
  2
Thicken
 70
    13
 71
     2
 72
     2
 73
     0
 90
        0
 40
-0.6
 41
-30.0
 62
     5
 63
     7
 74
     1
 91
        4
 64
     7
 65
   257
 75
     1
175
     1
 42
1.0
 92
       12
 66
     7
 43
1.0
 76
     1
 77
     6
 78
     2
 67
     7
 79
     5
170
     0
171
     0
290
     0
174
     0
 93
        1
 44
0.0
173
     0
291
     1
 45
0.0
1001
ACAD
1000
AcDbSavedByObjectVersion
1070
     0
  0
XRECORD
  5
13C
102
{ACAD_REACTORS
330
133
102
}
330
133
100
AcDbXrecord
 90
        0
  0
XRECORD
  5
152
102
{ACAD_REACTORS
330
133
102
}
330
133
100
AcDbXrecord
1000
DSTYLE
1002
{
1070
    41
 40
0.09
1070
   340
340
11
1070
   140
 40
0.0895833333333333
1002
}
  0
XRECORD
  5
13D
102
{ACAD_REACTORS
330
133
102
}
330
133
100
AcDbXrecord
  1
{E0FD735B-5F6B-464B-B4BB-FE0679DE5983}
  0
XRECORD
  5
136
102
{ACAD_REACTORS
330
133
102
}
330
133
100
AcDbXrecord
  1

  0
XRECORD
  5
13B
102
{ACAD_REACTORS
330
133
102
}
330
133
100
AcDbXrecord
 90
        1
  0
XRECORD
  5
138
102
{ACAD_REACTORS
330
133
102
}
330
133
100
AcDbXrecord
340
1A
  0
XRECORD
  5
13A
102
{ACAD_REACTORS
330
133
102
}
330
133
100
AcDbXrecord
 90
    10781
  0
XRECORD
  5
139
102
{ACAD_REACTORS
330
133
102
}
330
133
100
AcDbXrecord
340
19
  0
XRECORD
  5
13F
102
{ACAD_REACTORS
330
133
102
}
330
133
100
AcDbXrecord
 40
0.0
  0
XRECORD
  5
142
102
{ACAD_REACTORS
330
133
102
}
330
133
100
AcDbXrecord
340
0
  0
XRECORD
  5
148
102
{ACAD_REACTORS
330
133
102
}
330
133
100
AcDbXrecord
 10
0.0
 20
0.0
 30
0.0
  0
XRECORD
  5
144
102
{ACAD_REACTORS
330
133
102
}
330
133
100
AcDbXrecord
 10
0.0
 20
0.0
 30
0.0
  0
XRECORD
  5
147
102
{ACAD_REACTORS
330
133
102
}
330
133
100
AcDbXrecord
 10
0.0
 20
0.0
 30
0.0
  0
XRECORD
  5
145
102
{ACAD_REACTORS
330
133
102
}
330
133
100
AcDbXrecord
 10
0.0
 20
0.0
 30
0.0
  0
XRECORD
  5
146
102
{ACAD_REACTORS
330
133
102
}
330
133
100
AcDbXrecord
 10
0.0
 20
0.0
 30
0.0
  0
XRECORD
  5
143
102
{ACAD_REACTORS
330
133
102
}
330
133
100
AcDbXrecord
 10
0.0
 20
0.0
 30
0.0
  0
XRECORD
  5
140
102
{ACAD_REACTORS
330
133
102
}
330
133
100
AcDbXrecord
340
0
  0
XRECORD
  5
141
102
{ACAD_REACTORS
330
133
102
}
330
133
100
AcDbXrecord
 70
     0
  0
XRECORD
  5
137
102
{ACAD_REACTORS
330
133
102
}
330
133
100
AcDbXrecord
  1

  0
XRECORD
  5
134
102
{ACAD_REACTORS
330
133
102
}
330
133
100
AcDbXrecord
 90
        1
  0
XRECORD
  5
135
102
{ACAD_REACTORS
330
133
102
}
330
133
100
AcDbXrecord
 90
       70
  0
XRECORD
  5
14B
102
{ACAD_REACTORS
330
133
102
}
330
133
100
AcDbXrecord
340
0
  0
XRECORD
  5
151
102
{ACAD_REACTORS
330
133
102
}
330
133
100
AcDbXrecord
 10
0.0
 20
0.0
 30
0.0
  0
XRECORD
  5
14D
102
{ACAD_REACTORS
330
133
102
}
330
133
100
AcDbXrecord
 10
0.0
 20
0.0
 30
0.0
  0
XRECORD
  5
150
102
{ACAD_REACTORS
330
133
102
}
330
133
100
AcDbXrecord
 10
0.0
 20
0.0
 30
0.0
  0
XRECORD
  5
14E
102
{ACAD_REACTORS
330
133
102
}
330
133
100
AcDbXrecord
 10
0.0
 20
0.0
 30
0.0
  0
XRECORD
  5
14F
102
{ACAD_REACTORS
330
133
102
}
330
133
100
AcDbXrecord
 10
0.0
 20
0.0
 30
0.0
  0
XRECORD
  5
14C
102
{ACAD_REACTORS
330
133
102
}
330
133
100
AcDbXrecord
 10
0.0
 20
0.0
 30
0.0
  0
XRECORD
  5
149
102
{ACAD_REACTORS
330
133
102
}
330
133
100
AcDbXrecord
340
0
  0
XRECORD
  5
14A
102
{ACAD_REACTORS
330
133
102
}
330
133
100
AcDbXrecord
 70
     0
  0
XRECORD
  5
13E
102
{ACAD_REACTORS
330
133
102
}
330
133
100
AcDbXrecord
  1
{FAEB1C32-E019-11D5-929B-00C0DF256EC4}
  0
DICTIONARYVAR
  5
154
102
{ACAD_REACTORS
330
153
102
}
330
153
100
DictionaryVariables
280
     0
  1
1:1
  0
ENDSEC
  0
EOF
