  0
SECTION
  2
HEADER
  9
$ACADVER
  1
AC1015
  9
$ACADMAINTVER
 70
     6
  9
$DWGCODEPAGE
  3
ANSI_1252
  9
$INSBASE
 10
0.0
 20
0.0
 30
0.0
  9
$EXTMIN
 10
1.000000000000000E+20
 20
1.000000000000000E+20
 30
1.000000000000000E+20
  9
$EXTMAX
 10
-1.000000000000000E+20
 20
-1.000000000000000E+20
 30
-1.000000000000000E+20
  9
$LIMMIN
 10
0.0
 20
0.0
  9
$LIMMAX
 10
12.0
 20
9.0
  9
$ORTHOMODE
 70
     0
  9
$REGENMODE
 70
     1
  9
$FILLMODE
 70
     1
  9
$QTEXTMODE
 70
     0
  9
$MIRRTEXT
 70
     1
  9
$LTSCALE
 40
1.0
  9
$ATTMODE
 70
     1
  9
$TEXTSIZE
 40
0.2
  9
$TRACEWID
 40
0.05
  9
$TEXTSTYLE
  7
Standard
  9
$CLAYER
  8
0
  9
$CELTYPE
  6
ByLayer
  9
$CECOLOR
 62
   256
  9
$CELTSCALE
 40
1.0
  9
$DISPSILH
 70
     0
  9
$DIMSCALE
 40
1.0
  9
$DIMASZ
 40
0.09
  9
$DIMEXO
 40
0.0625
  9
$DIMDLI
 40
0.38
  9
$DIMRND
 40
0.0
  9
$DIMDLE
 40
0.0
  9
$DIMEXE
 40
0.18
  9
$DIMTP
 40
0.0
  9
$DIMTM
 40
0.0
  9
$DIMTXT
 40
0.0895833333333333
  9
$DIMCEN
 40
0.09
  9
$DIMTSZ
 40
0.0
  9
$DIMTOL
 70
     0
  9
$DIMLIM
 70
     0
  9
$DIMTIH
 70
     1
  9
$DIMTOH
 70
     1
  9
$DIMSE1
 70
     0
  9
$DIMSE2
 70
     0
  9
$DIMTAD
 70
     0
  9
$DIMZIN
 70
     0
  9
$DIMBLK
  1

  9
$DIMASO
 70
     1
  9
$DIMSHO
 70
     1
  9
$DIMPOST
  1

  9
$DIMAPOST
  1

  9
$DIMALT
 70
     0
  9
$DIMALTD
 70
     2
  9
$DIMALTF
 40
25.4
  9
$DIMLFAC
 40
1.0
  9
$DIMTOFL
 70
     0
  9
$DIMTVP
 40
0.0
  9
$DIMTIX
 70
     0
  9
$DIMSOXD
 70
     0
  9
$DIMSAH
 70
     0
  9
$DIMBLK1
  1

  9
$DIMBLK2
  1

  9
$DIMSTYLE
  2
Standard
  9
$DIMCLRD
 70
     0
  9
$DIMCLRE
 70
     0
  9
$DIMCLRT
 70
     0
  9
$DIMTFAC
 40
1.0
  9
$DIMGAP
 40
0.09
  9
$DIMJUST
 70
     0
  9
$DIMSD1
 70
     0
  9
$DIMSD2
 70
     0
  9
$DIMTOLJ
 70
     1
  9
$DIMTZIN
 70
     0
  9
$DIMALTZ
 70
     0
  9
$DIMALTTZ
 70
     0
  9
$DIMUPT
 70
     0
  9
$DIMDEC
 70
     4
  9
$DIMTDEC
 70
     4
  9
$DIMALTU
 70
     2
  9
$DIMALTTD
 70
     2
  9
$DIMTXSTY
  7
Standard
  9
$DIMAUNIT
 70
     0
  9
$DIMADEC
 70
     0
  9
$DIMALTRND
 40
0.0
  9
$DIMAZIN
 70
     0
  9
$DIMDSEP
 70
    46
  9
$DIMATFIT
 70
     3
  9
$DIMFRAC
 70
     0
  9
$DIMLDRBLK
  1

  9
$DIMLUNIT
 70
     2
  9
$DIMLWD
 70
    -2
  9
$DIMLWE
 70
    -2
  9
$DIMTMOVE
 70
     0
  9
$LUNITS
 70
     2
  9
$LUPREC
 70
     4
  9
$SKETCHINC
 40
0.1
  9
$FILLETRAD
 40
0.5
  9
$AUNITS
 70
     0
  9
$AUPREC
 70
     0
  9
$MENU
  1
.
  9
$ELEVATION
 40
0.0
  9
$PELEVATION
 40
0.0
  9
$THICKNESS
 40
0.0
  9
$LIMCHECK
 70
     0
  9
$CHAMFERA
 40
0.5
  9
$CHAMFERB
 40
0.5
  9
$CHAMFERC
 40
1.0
  9
$CHAMFERD
 40
0.0
  9
$SKPOLY
 70
     0
  9
$TDCREATE
 40
2456269.157634004
  9
$TDUCREATE
 40
2456269.490967338
  9
$TDUPDATE
 40
2456269.157634016
  9
$TDUUPDATE
 40
2456269.49096735
  9
$TDINDWG
 40
0.0000000116
  9
$TDUSRTIMER
 40
0.0000000116
  9
$USRTIMER
 70
     1
  9
$ANGBASE
 50
0.0
  9
$ANGDIR
 70
     0
  9
$PDMODE
 70
     0
  9
$PDSIZE
 40
0.0
  9
$PLINEWID
 40
0.0
  9
$SPLFRAME
 70
     0
  9
$SPLINETYPE
 70
     6
  9
$SPLINESEGS
 70
     8
  9
$HANDSEED
  5
1F7
  9
$SURFTAB1
 70
     6
  9
$SURFTAB2
 70
     6
  9
$SURFTYPE
 70
     6
  9
$SURFU
 70
     6
  9
$SURFV
 70
     6
  9
$UCSBASE
  2

  9
$UCSNAME
  2

  9
$UCSORG
 10
0.0
 20
0.0
 30
0.0
  9
$UCSXDIR
 10
1.0
 20
0.0
 30
0.0
  9
$UCSYDIR
 10
0.0
 20
1.0
 30
0.0
  9
$UCSORTHOREF
  2

  9
$UCSORTHOVIEW
 70
     0
  9
$UCSORGTOP
 10
0.0
 20
0.0
 30
0.0
  9
$UCSORGBOTTOM
 10
0.0
 20
0.0
 30
0.0
  9
$UCSORGLEFT
 10
0.0
 20
0.0
 30
0.0
  9
$UCSORGRIGHT
 10
0.0
 20
0.0
 30
0.0
  9
$UCSORGFRONT
 10
0.0
 20
0.0
 30
0.0
  9
$UCSORGBACK
 10
0.0
 20
0.0
 30
0.0
  9
$PUCSBASE
  2

  9
$PUCSNAME
  2

  9
$PUCSORG
 10
0.0
 20
0.0
 30
0.0
  9
$PUCSXDIR
 10
1.0
 20
0.0
 30
0.0
  9
$PUCSYDIR
 10
0.0
 20
1.0
 30
0.0
  9
$PUCSORTHOREF
  2

  9
$PUCSORTHOVIEW
 70
     0
  9
$PUCSORGTOP
 10
0.0
 20
0.0
 30
0.0
  9
$PUCSORGBOTTOM
 10
0.0
 20
0.0
 30
0.0
  9
$PUCSORGLEFT
 10
0.0
 20
0.0
 30
0.0
  9
$PUCSORGRIGHT
 10
0.0
 20
0.0
 30
0.0
  9
$PUCSORGFRONT
 10
0.0
 20
0.0
 30
0.0
  9
$PUCSORGBACK
 10
0.0
 20
0.0
 30
0.0
  9
$USERI1
 70
     0
  9
$USERI2
 70
     0
  9
$USERI3
 70
     0
  9
$USERI4
 70
     0
  9
$USERI5
 70
     0
  9
$USERR1
 40
0.0
  9
$USERR2
 40
0.0
  9
$USERR3
 40
0.0
  9
$USERR4
 40
0.0
  9
$USERR5
 40
0.0
  9
$WORLDVIEW
 70
     1
  9
$SHADEDGE
 70
     3
  9
$SHADEDIF
 70
    70
  9
$TILEMODE
 70
     1
  9
$MAXACTVP
 70
    64
  9
$PINSBASE
 10
0.0
 20
0.0
 30
0.0
  9
$PLIMCHECK
 70
     0
  9
$PEXTMIN
 10
1.000000000000000E+20
 20
1.000000000000000E+20
 30
1.000000000000000E+20
  9
$PEXTMAX
 10
-1.000000000000000E+20
 20
-1.000000000000000E+20
 30
-1.000000000000000E+20
  9
$PLIMMIN
 10
0.0
 20
0.0
  9
$PLIMMAX
 10
12.0
 20
9.0
  9
$UNITMODE
 70
     0
  9
$VISRETAIN
 70
     1
  9
$PLINEGEN
 70
     0
  9
$PSLTSCALE
 70
     1
  9
$TREEDEPTH
 70
  3020
  9
$CMLSTYLE
  2
Standard
  9
$CMLJUST
 70
     0
  9
$CMLSCALE
 40
1.0
  9
$PROXYGRAPHICS
 70
     1
  9
$MEASUREMENT
 70
     0
  9
$CELWEIGHT
370
    -1
  9
$ENDCAPS
280
     0
  9
$JOINSTYLE
280
     0
  9
$LWDISPLAY
290
     0
  9
$INSUNITS
 70
     1
  9
$HYPERLINKBASE
  1

  9
$STYLESHEET
  1

  9
$XEDIT
290
     1
  9
$CEPSNTYPE
380
     0
  9
$PSTYLEMODE
290
     1
  9
$FINGERPRINTGUID
  2
{67FA4E10-C9FE-4374-A680-D849BA3A3FA7}
  9
$VERSIONGUID
  2
{FAEB1C32-E019-11D5-929B-00C0DF256EC4}
  9
$EXTNAMES
290
     1
  9
$PSVPSCALE
 40
0.0
  9
$OLESTARTUP
290
     0
  0
ENDSEC
  0
SECTION
  2
CLASSES
  0
CLASS
  1
ACDBDICTIONARYWDFLT
  2
AcDbDictionaryWithDefault
  3
ObjectDBX Classes
 90
        0
280
     0
281
     0
  0
CLASS
  1
VISUALSTYLE
  2
AcDbVisualStyle
  3
ObjectDBX Classes
 90
     4095
280
     0
281
     0
  0
CLASS
  1
SCALE
  2
AcDbScale
  3
ObjectDBX Classes
 90
     1153
280
     0
281
     0
  0
CLASS
  1
DICTIONARYVAR
  2
AcDbDictionaryVar
  3
ObjectDBX Classes
 90
        0
280
     0
281
     0
  0
CLASS
  1
ACDBPLACEHOLDER
  2
AcDbPlaceHolder
  3
ObjectDBX Classes
 90
        0
280
     0
281
     0
  0
CLASS
  1
LAYOUT
  2
AcDbLayout
  3
ObjectDBX Classes
 90
        0
280
     0
281
     0
  0
ENDSEC
  0
SECTION
  2
TABLES
  0
TABLE
  2
VPORT
  5
8
330
0
100
AcDbSymbolTable
 70
     1
  0
VPORT
  5
29
330
8
100
AcDbSymbolTableRecord
100
AcDbViewportTableRecord
  2
*Active
 70
     0
 10
0.0
 20
0.0
 11
1.0
 21
1.0
 12
10.42990654205607
 22
4.5
 13
0.0
 23
0.0
 14
0.5
 24
0.5
 15
0.5
 25
0.5
 16
0.0
 26
0.0
 36
1.0
 17
0.0
 27
0.0
 37
0.0
 40
9.0
 41
1.972972972850329
 42
50.0
 43
0.0
 44
0.0
 50
0.0
 51
0.0
 71
     0
 72
   100
 73
     1
 74
     3
 75
     0
 76
     0
 77
     0
 78
     0
281
     0
 65
     1
110
0.0
120
0.0
130
0.0
111
1.0
121
0.0
131
0.0
112
0.0
122
1.0
132
0.0
 79
     0
146
0.0
  0
ENDTAB
  0
TABLE
  2
LTYPE
  5
5
330
0
100
AcDbSymbolTable
 70
     2
  0
LTYPE
  5
14
330
5
100
AcDbSymbolTableRecord
100
AcDbLinetypeTableRecord
  2
ByBlock
 70
     0
  3

 72
    65
 73
     0
 40
0.0
  0
LTYPE
  5
15
330
5
100
AcDbSymbolTableRecord
100
AcDbLinetypeTableRecord
  2
ByLayer
 70
     0
  3

 72
    65
 73
     0
 40
0.0
  0
LTYPE
  5
16
330
5
100
AcDbSymbolTableRecord
100
AcDbLinetypeTableRecord
  2
Continuous
 70
     0
  3
Solid line
 72
    65
 73
     0
 40
0.0
  0
LTYPE
  5
101
330
5
100
AcDbSymbolTableRecord
100
AcDbLinetypeTableRecord
  2
CENTER2
 70
     0
  3
Center (.5x) ___ _ ___ _ ___ _ ___ _ ___ _ ___
 72
    65
 73
     4
 40
1.125
 49
0.75
 74
     0
 49
-0.125
 74
     0
 49
0.125
 74
     0
 49
-0.125
 74
     0
  0
ENDTAB
  0
TABLE
  2
LAYER
  5
2
330
0
100
AcDbSymbolTable
 70
     6
  0
LAYER
  5
10
330
2
100
AcDbSymbolTableRecord
100
AcDbLayerTableRecord
  2
0
 70
     0
 62
     7
  6
Continuous
370
    -3
390
F
  0
LAYER
  5
5D
330
2
100
AcDbSymbolTableRecord
100
AcDbLayerTableRecord
  2
VISIBLE
 70
     0
 62
     7
  6
Continuous
370
     0
390
F
  0
LAYER
  5
A0
330
2
100
AcDbSymbolTableRecord
100
AcDbLayerTableRecord
  2
TANGENT EDGES
 70
     0
 62
     7
  6
Continuous
370
     0
390
F
  0
LAYER
  5
AE
330
2
100
AcDbSymbolTableRecord
100
AcDbLayerTableRecord
  2
DIMENSIONS
 70
     0
 62
     7
  6
Continuous
370
     0
390
F
  0
LAYER
  5
102
330
2
100
AcDbSymbolTableRecord
100
AcDbLayerTableRecord
  2
BEND CENTERS
 70
     0
 62
   204
  6
CENTER2
370
     0
390
F
  0
LAYER
  5
1A3
330
2
100
AcDbSymbolTableRecord
100
AcDbLayerTableRecord
  2
CONTINUOUS
 70
     0
 62
     7
  6
Continuous
370
     0
390
F
  0
ENDTAB
  0
TABLE
  2
STYLE
  5
3
330
0
100
AcDbSymbolTable
 70
     1
  0
STYLE
  5
11
330
3
100
AcDbSymbolTableRecord
100
AcDbTextStyleTableRecord
  2
Standard
 70
     0
 40
0.125
 41
1.0
 50
0.0
 71
     0
 42
0.2
  3
txt
  4

1001
ACAD
1000
Arial
1071
        0
  0
ENDTAB
  0
TABLE
  2
VIEW
  5
6
330
0
100
AcDbSymbolTable
 70
     0
  0
ENDTAB
  0
TABLE
  2
UCS
  5
7
330
0
100
AcDbSymbolTable
 70
     0
  0
ENDTAB
  0
TABLE
  2
APPID
  5
9
330
0
100
AcDbSymbolTable
 70
     1
  0
APPID
  5
12
330
9
100
AcDbSymbolTableRecord
100
AcDbRegAppTableRecord
  2
ACAD
 70
     0
  0
ENDTAB
  0
TABLE
  2
DIMSTYLE
  5
A
330
0
100
AcDbSymbolTable
 70
     1
100
AcDbDimStyleTable
  0
DIMSTYLE
105
27
102
{ACAD_REACTORS
330
AF
330
BC
330
C9
330
D6
330
E3
330
F0
330
12B
330
138
330
14C
102
}
330
A
100
AcDbSymbolTableRecord
100
AcDbDimStyleTableRecord
  2
Standard
 70
     0
340
11
  0
ENDTAB
  0
TABLE
  2
BLOCK_RECORD
  5
1
330
0
100
AcDbSymbolTable
 70
    11
  0
BLOCK_RECORD
  5
1F
330
1
100
AcDbSymbolTableRecord
100
AcDbBlockTableRecord
  2
*Model_Space
340
22
  0
BLOCK_RECORD
  5
1B
330
1
100
AcDbSymbolTableRecord
100
AcDbBlockTableRecord
  2
*Paper_Space
340
1E
  0
BLOCK_RECORD
  5
23
330
1
100
AcDbSymbolTableRecord
100
AcDbBlockTableRecord
  2
*Paper_Space0
340
26
  0
BLOCK_RECORD
  5
B0
330
1
100
AcDbSymbolTableRecord
100
AcDbBlockTableRecord
  2
D1
340
0
  0
BLOCK_RECORD
  5
BD
330
1
100
AcDbSymbolTableRecord
100
AcDbBlockTableRecord
  2
D2
340
0
  0
BLOCK_RECORD
  5
CA
330
1
100
AcDbSymbolTableRecord
100
AcDbBlockTableRecord
  2
D3
340
0
  0
BLOCK_RECORD
  5
D7
330
1
100
AcDbSymbolTableRecord
100
AcDbBlockTableRecord
  2
D4
340
0
  0
BLOCK_RECORD
  5
E4
330
1
100
AcDbSymbolTableRecord
100
AcDbBlockTableRecord
  2
D5
340
0
  0
BLOCK_RECORD
  5
F1
330
1
100
AcDbSymbolTableRecord
100
AcDbBlockTableRecord
  2
D6
340
0
  0
BLOCK_RECORD
  5
12C
330
1
100
AcDbSymbolTableRecord
100
AcDbBlockTableRecord
  2
D7
340
0
  0
BLOCK_RECORD
  5
139
330
1
100
AcDbSymbolTableRecord
100
AcDbBlockTableRecord
  2
D8
340
0
  0
BLOCK_RECORD
  5
14D
330
1
100
AcDbSymbolTableRecord
100
AcDbBlockTableRecord
  2
D9
340
0
  0
BLOCK_RECORD
  5
1A6
330
1
100
AcDbSymbolTableRecord
100
AcDbBlockTableRecord
  2
BLOCK3
340
0
102
{BLKREFS
331
1A5
102
}
  0
ENDTAB
  0
ENDSEC
  0
SECTION
  2
BLOCKS
  0
BLOCK
  5
20
330
1F
100
AcDbEntity
  8
0
100
AcDbBlockBegin
  2
*Model_Space
 70
     0
 10
0.0
 20
0.0
 30
0.0
  3
*Model_Space
  1

  0
ENDBLK
  5
21
330
1F
100
AcDbEntity
  8
0
100
AcDbBlockEnd
  0
BLOCK
  5
1C
330
1B
100
AcDbEntity
 67
     1
  8
0
100
AcDbBlockBegin
  2
*Paper_Space
 70
     0
 10
0.0
 20
0.0
 30
0.0
  3
*Paper_Space
  1

  0
ENDBLK
  5
1D
330
1B
100
AcDbEntity
 67
     1
  8
0
100
AcDbBlockEnd
  0
BLOCK
  5
24
330
23
100
AcDbEntity
  8
0
100
AcDbBlockBegin
  2
*Paper_Space0
 70
     0
 10
0.0
 20
0.0
 30
0.0
  3
*Paper_Space0
  1

  0
ENDBLK
  5
25
330
23
100
AcDbEntity
  8
0
100
AcDbBlockEnd
  0
BLOCK
  5
B1
330
B0
100
AcDbEntity
  8
0
100
AcDbBlockBegin
  2
D1
 70
     0
 10
0.0
 20
0.0
 30
0.0
  3
D1
  1

  0
MTEXT
  5
B3
330
B0
100
AcDbEntity
  8
DIMENSIONS
100
AcDbMText
 10
1.808255653681717
 20
3.98902772918461
 30
0.0
 40
0.0895833333333333
 41
0.0
 71
     5
 72
     1
  1
{\fArial|b0|i0|c0|p0;8.00}{\fMS Shell Dlg|b0|i0|c0|p0;\H0.9444444x;}
 73
     1
 44
1.0
  0
MTEXT
  5
B4
330
B0
100
AcDbEntity
  8
DIMENSIONS
100
AcDbMText
 10
1.808255653681717
 20
3.98902772918461
 30
0.0
 40
0.0895833333333333
 41
0.0
 71
     5
 72
     1
  1
{\fArial|b0|i0|c0|p0;}
 73
     1
 44
1.0
  0
MTEXT
  5
B5
330
B0
100
AcDbEntity
  8
DIMENSIONS
100
AcDbMText
 10
1.808255653681717
 20
3.98902772918461
 30
0.0
 40
0.0895833333333333
 41
0.0
 71
     5
 72
     1
  1
{\fArial|b0|i0|c0|p0;}
 73
     1
 44
1.0
  0
LINE
  5
B6
330
B0
100
AcDbEntity
  8
DIMENSIONS
100
AcDbLine
 10
1.308255653681717
 20
3.767982756997657
 30
0.0
 11
1.308255653681717
 21
4.05152772918461
 31
0.0
  0
LINE
  5
B7
330
B0
100
AcDbEntity
  8
DIMENSIONS
100
AcDbLine
 10
2.308255653681717
 20
3.642982756997657
 30
0.0
 11
2.308255653681717
 21
4.05152772918461
 31
0.0
  0
LWPOLYLINE
  5
B8
330
B0
100
AcDbEntity
  8
DIMENSIONS
100
AcDbPolyline
 90
        4
 70
     0
 43
0.0
 10
1.308255653681717
 20
3.98902772918461
 10
1.398255653681717
 20
4.004027729184609
 10
1.398255653681717
 20
3.97402772918461
 10
1.308255653681717
 20
3.98902772918461
  0
LINE
  5
B9
330
B0
100
AcDbEntity
  8
DIMENSIONS
100
AcDbLine
 10
1.398255653681717
 20
3.98902772918461
 30
0.0
 11
1.634644539337458
 21
3.989027727307297
 31
0.0
  0
LWPOLYLINE
  5
BA
330
B0
100
AcDbEntity
  8
DIMENSIONS
100
AcDbPolyline
 90
        4
 70
     0
 43
0.0
 10
2.308255653681717
 20
3.98902772918461
 10
2.218255653681717
 20
3.97402772918461
 10
2.218255653681717
 20
4.004027729184609
 10
2.308255653681717
 20
3.98902772918461
  0
LINE
  5
BB
330
B0
100
AcDbEntity
  8
DIMENSIONS
100
AcDbLine
 10
2.218255653681717
 20
3.98902772918461
 30
0.0
 11
1.981866776473879
 21
3.989027727307297
 31
0.0
  0
ENDBLK
  5
B2
330
B0
100
AcDbEntity
  8
0
100
AcDbBlockEnd
  0
BLOCK
  5
BE
330
BD
100
AcDbEntity
  8
0
100
AcDbBlockBegin
  2
D2
 70
     0
 10
0.0
 20
0.0
 30
0.0
  3
D2
  1

  0
MTEXT
  5
C0
330
BD
100
AcDbEntity
  8
DIMENSIONS
100
AcDbMText
 10
5.667174331785187
 20
3.971378596748893
 30
0.0
 40
0.0895833333333333
 41
0.0
 71
     5
 72
     1
  1
{\fArial|b0|i0|c0|p0;16.00}{\fMS Shell Dlg|b0|i0|c0|p0;\H0.9444444x;}
 73
     1
 44
1.0
  0
MTEXT
  5
C1
330
BD
100
AcDbEntity
  8
DIMENSIONS
100
AcDbMText
 10
5.667174331785187
 20
3.971378596748893
 30
0.0
 40
0.0895833333333333
 41
0.0
 71
     5
 72
     1
  1
{\fArial|b0|i0|c0|p0;}
 73
     1
 44
1.0
  0
MTEXT
  5
C2
330
BD
100
AcDbEntity
  8
DIMENSIONS
100
AcDbMText
 10
5.667174331785187
 20
3.971378596748893
 30
0.0
 40
0.0895833333333333
 41
0.0
 71
     5
 72
     1
  1
{\fArial|b0|i0|c0|p0;}
 73
     1
 44
1.0
  0
LINE
  5
C3
330
BD
100
AcDbEntity
  8
DIMENSIONS
100
AcDbLine
 10
4.808255653681718
 20
3.642982756997657
 30
0.0
 11
4.808255653681718
 21
4.033878596748893
 31
0.0
  0
LINE
  5
C4
330
BD
100
AcDbEntity
  8
DIMENSIONS
100
AcDbLine
 10
6.808255653681718
 20
3.642982756997657
 30
0.0
 11
6.808255653681718
 21
4.033878596748893
 31
0.0
  0
LWPOLYLINE
  5
C5
330
BD
100
AcDbEntity
  8
DIMENSIONS
100
AcDbPolyline
 90
        4
 70
     0
 43
0.0
 10
4.808255653681718
 20
3.971378596748893
 10
4.898255653681717
 20
3.986378596748893
 10
4.898255653681717
 20
3.956378596748893
 10
4.808255653681718
 20
3.971378596748893
  0
LINE
  5
C6
330
BD
100
AcDbEntity
  8
DIMENSIONS
100
AcDbLine
 10
4.898255653681717
 20
3.971378596748893
 30
0.0
 11
5.465785529669814
 21
3.971378604258139
 31
0.0
  0
LWPOLYLINE
  5
C7
330
BD
100
AcDbEntity
  8
DIMENSIONS
100
AcDbPolyline
 90
        4
 70
     0
 43
0.0
 10
6.808255653681718
 20
3.971378596748893
 10
6.718255653681718
 20
3.956378596748893
 10
6.718255653681718
 20
3.986378596748893
 10
6.808255653681718
 20
3.971378596748893
  0
LINE
  5
C8
330
BD
100
AcDbEntity
  8
DIMENSIONS
100
AcDbLine
 10
6.718255653681718
 20
3.971378596748893
 30
0.0
 11
5.868563449288915
 21
3.971378604258139
 31
0.0
  0
ENDBLK
  5
BF
330
BD
100
AcDbEntity
  8
0
100
AcDbBlockEnd
  0
BLOCK
  5
CB
330
CA
100
AcDbEntity
  8
0
100
AcDbBlockBegin
  2
D3
 70
     0
 10
0.0
 20
0.0
 30
0.0
  3
D3
  1

  0
MTEXT
  5
CD
330
CA
100
AcDbEntity
  8
DIMENSIONS
100
AcDbMText
 10
3.434561481626015
 20
3.90960693359375
 30
0.0
 40
0.0895833333333333
 41
0.0
 71
     5
 72
     1
  1
{\fArial|b0|i0|c0|p0;20.00}{\fMS Shell Dlg|b0|i0|c0|p0;\H0.9444444x;}
 73
     1
 44
1.0
  0
MTEXT
  5
CE
330
CA
100
AcDbEntity
  8
DIMENSIONS
100
AcDbMText
 10
3.434561481626015
 20
3.90960693359375
 30
0.0
 40
0.0895833333333333
 41
0.0
 71
     5
 72
     1
  1
{\fArial|b0|i0|c0|p0;}
 73
     1
 44
1.0
  0
MTEXT
  5
CF
330
CA
100
AcDbEntity
  8
DIMENSIONS
100
AcDbMText
 10
3.434561481626015
 20
3.90960693359375
 30
0.0
 40
0.0895833333333333
 41
0.0
 71
     5
 72
     1
  1
{\fArial|b0|i0|c0|p0;}
 73
     1
 44
1.0
  0
LINE
  5
D0
330
CA
100
AcDbEntity
  8
DIMENSIONS
100
AcDbLine
 10
2.308255653681717
 20
3.642982756997657
 30
0.0
 11
2.308255653681717
 21
3.97210693359375
 31
0.0
  0
LINE
  5
D1
330
CA
100
AcDbEntity
  8
DIMENSIONS
100
AcDbLine
 10
4.808255653681718
 20
3.642982756997657
 30
0.0
 11
4.808255653681718
 21
3.97210693359375
 31
0.0
  0
LWPOLYLINE
  5
D2
330
CA
100
AcDbEntity
  8
DIMENSIONS
100
AcDbPolyline
 90
        4
 70
     0
 43
0.0
 10
2.308255653681717
 20
3.90960693359375
 10
2.398255653681717
 20
3.924606933593751
 10
2.398255653681717
 20
3.89460693359375
 10
2.308255653681717
 20
3.90960693359375
  0
LINE
  5
D3
330
CA
100
AcDbEntity
  8
DIMENSIONS
100
AcDbLine
 10
2.398255653681717
 20
3.90960693359375
 30
0.0
 11
3.233172566871943
 21
3.909606931716438
 31
0.0
  0
LWPOLYLINE
  5
D4
330
CA
100
AcDbEntity
  8
DIMENSIONS
100
AcDbPolyline
 90
        4
 70
     0
 43
0.0
 10
4.808255653681718
 20
3.90960693359375
 10
4.718255653681718
 20
3.894606933593751
 10
4.718255653681718
 20
3.924606933593751
 10
4.808255653681718
 20
3.90960693359375
  0
LINE
  5
D5
330
CA
100
AcDbEntity
  8
DIMENSIONS
100
AcDbLine
 10
4.718255653681718
 20
3.90960693359375
 30
0.0
 11
3.635950298759881
 21
3.909606931716438
 31
0.0
  0
ENDBLK
  5
CC
330
CA
100
AcDbEntity
  8
0
100
AcDbBlockEnd
  0
BLOCK
  5
D8
330
D7
100
AcDbEntity
  8
0
100
AcDbBlockBegin
  2
D4
 70
     0
 10
0.0
 20
0.0
 30
0.0
  3
D4
  1

  0
MTEXT
  5
DA
330
D7
100
AcDbEntity
  8
DIMENSIONS
100
AcDbMText
 10
8.199823334461122
 20
3.927256066029467
 30
0.0
 40
0.0895833333333333
 41
0.0
 71
     5
 72
     1
  1
{\fArial|b0|i0|c0|p0;20.00}{\fMS Shell Dlg|b0|i0|c0|p0;\H0.9444444x;}
 73
     1
 44
1.0
  0
MTEXT
  5
DB
330
D7
100
AcDbEntity
  8
DIMENSIONS
100
AcDbMText
 10
8.199823334461122
 20
3.927256066029467
 30
0.0
 40
0.0895833333333333
 41
0.0
 71
     5
 72
     1
  1
{\fArial|b0|i0|c0|p0;}
 73
     1
 44
1.0
  0
MTEXT
  5
DC
330
D7
100
AcDbEntity
  8
DIMENSIONS
100
AcDbMText
 10
8.199823334461122
 20
3.927256066029467
 30
0.0
 40
0.0895833333333333
 41
0.0
 71
     5
 72
     1
  1
{\fArial|b0|i0|c0|p0;}
 73
     1
 44
1.0
  0
LINE
  5
DD
330
D7
100
AcDbEntity
  8
DIMENSIONS
100
AcDbLine
 10
6.808255653681718
 20
3.642982756997657
 30
0.0
 11
6.808255653681718
 21
3.989756066029467
 31
0.0
  0
LINE
  5
DE
330
D7
100
AcDbEntity
  8
DIMENSIONS
100
AcDbLine
 10
9.308255653681718
 20
3.642982756997657
 30
0.0
 11
9.308255653681718
 21
3.989756066029467
 31
0.0
  0
LWPOLYLINE
  5
DF
330
D7
100
AcDbEntity
  8
DIMENSIONS
100
AcDbPolyline
 90
        4
 70
     0
 43
0.0
 10
6.808255653681718
 20
3.927256066029467
 10
6.898255653681717
 20
3.942256066029467
 10
6.898255653681717
 20
3.912256066029467
 10
6.808255653681718
 20
3.927256066029467
  0
LINE
  5
E0
330
D7
100
AcDbEntity
  8
DIMENSIONS
100
AcDbLine
 10
6.898255653681717
 20
3.927256066029467
 30
0.0
 11
7.998434382160816
 21
3.927256054765596
 31
0.0
  0
LWPOLYLINE
  5
E1
330
D7
100
AcDbEntity
  8
DIMENSIONS
100
AcDbPolyline
 90
        4
 70
     0
 43
0.0
 10
9.308255653681718
 20
3.927256066029467
 10
9.218255653681718
 20
3.912256066029467
 10
9.218255653681718
 20
3.942256066029467
 10
9.308255653681718
 20
3.927256066029467
  0
LINE
  5
E2
330
D7
100
AcDbEntity
  8
DIMENSIONS
100
AcDbLine
 10
9.218255653681718
 20
3.927256066029467
 30
0.0
 11
8.401211926317592
 21
3.927256054765596
 31
0.0
  0
ENDBLK
  5
D9
330
D7
100
AcDbEntity
  8
0
100
AcDbBlockEnd
  0
BLOCK
  5
E5
330
E4
100
AcDbEntity
  8
0
100
AcDbBlockBegin
  2
D5
 70
     0
 10
0.0
 20
0.0
 30
0.0
  3
D5
  1

  0
MTEXT
  5
E7
330
E4
100
AcDbEntity
  8
DIMENSIONS
100
AcDbMText
 10
9.808255653681718
 20
4.006676861620325
 30
0.0
 40
0.0895833333333333
 41
0.0
 71
     5
 72
     1
  1
{\fArial|b0|i0|c0|p0;(8.00)}{\fMS Shell Dlg|b0|i0|c0|p0;\H0.9444444x;}
 73
     1
 44
1.0
  0
MTEXT
  5
E8
330
E4
100
AcDbEntity
  8
DIMENSIONS
100
AcDbMText
 10
9.808255653681718
 20
4.006676861620325
 30
0.0
 40
0.0895833333333333
 41
0.0
 71
     5
 72
     1
  1
{\fArial|b0|i0|c0|p0;}
 73
     1
 44
1.0
  0
MTEXT
  5
E9
330
E4
100
AcDbEntity
  8
DIMENSIONS
100
AcDbMText
 10
9.808255653681718
 20
4.006676861620325
 30
0.0
 40
0.0895833333333333
 41
0.0
 71
     5
 72
     1
  1
{\fArial|b0|i0|c0|p0;}
 73
     1
 44
1.0
  0
LINE
  5
EA
330
E4
100
AcDbEntity
  8
DIMENSIONS
100
AcDbLine
 10
9.308255653681718
 20
3.642982756997657
 30
0.0
 11
9.308255653681718
 21
4.069176861620325
 31
0.0
  0
LINE
  5
EB
330
E4
100
AcDbEntity
  8
DIMENSIONS
100
AcDbLine
 10
10.30825565368172
 20
3.767982756997657
 30
0.0
 11
10.30825565368172
 21
4.069176861620325
 31
0.0
  0
LWPOLYLINE
  5
EC
330
E4
100
AcDbEntity
  8
DIMENSIONS
100
AcDbPolyline
 90
        4
 70
     0
 43
0.0
 10
9.308255653681718
 20
4.006676861620325
 10
9.398255653681717
 20
4.021676861620326
 10
9.398255653681717
 20
3.991676861620325
 10
9.308255653681718
 20
4.006676861620325
  0
LINE
  5
ED
330
E4
100
AcDbEntity
  8
DIMENSIONS
100
AcDbLine
 10
9.398255653681717
 20
4.006676861620325
 30
0.0
 11
9.599922390434685
 21
4.006676850356455
 31
0.0
  0
LWPOLYLINE
  5
EE
330
E4
100
AcDbEntity
  8
DIMENSIONS
100
AcDbPolyline
 90
        4
 70
     0
 43
0.0
 10
10.30825565368172
 20
4.006676861620325
 10
10.21825565368172
 20
3.991676861620325
 10
10.21825565368172
 20
4.021676861620326
 10
10.30825565368172
 20
4.006676861620325
  0
LINE
  5
EF
330
E4
100
AcDbEntity
  8
DIMENSIONS
100
AcDbLine
 10
10.21825565368172
 20
4.006676861620325
 30
0.0
 11
10.0165890370767
 21
4.006676850356455
 31
0.0
  0
ENDBLK
  5
E6
330
E4
100
AcDbEntity
  8
0
100
AcDbBlockEnd
  0
BLOCK
  5
F2
330
F1
100
AcDbEntity
  8
0
100
AcDbBlockBegin
  2
D6
 70
     0
 10
0.0
 20
0.0
 30
0.0
  3
D6
  1

  0
MTEXT
  5
F4
330
F1
100
AcDbEntity
  8
DIMENSIONS
100
AcDbMText
 10
3.177184253602516
 20
3.091084337609959
 30
0.0
 40
0.0895833333333333
 41
0.0
 71
     6
 72
     1
  1
{\fAlibre Symbols|b0|i0|c0|p0;n}{\fArial|b0|i0|c0|p0;1.00}{\fMS Shell Dlg|b0|i0|c0|p0;\H0.9444444x;}
 73
     1
 44
1.0
  0
MTEXT
  5
F5
330
F1
100
AcDbEntity
  8
DIMENSIONS
100
AcDbMText
 10
3.214684253602516
 20
3.216084337609959
 30
0.0
 40
0.0895833333333333
 41
0.0
 71
     4
 72
     1
  1
{\fArial|b0|i0|c0|p0;+}{\fArial|b0|i0|c0|p0;}
 73
     1
 44
1.0
  0
MTEXT
  5
F6
330
F1
100
AcDbEntity
  8
DIMENSIONS
100
AcDbMText
 10
3.277184253602516
 20
3.216084337609959
 30
0.0
 40
0.0895833333333333
 41
0.0
 71
     4
 72
     1
  1
{\fArial|b0|i0|c0|p0;.00}{\fArial|b0|i0|c0|p0;}
 73
     1
 44
1.0
  0
MTEXT
  5
F7
330
F1
100
AcDbEntity
  8
DIMENSIONS
100
AcDbMText
 10
3.214684253602516
 20
3.067274813800436
 30
0.0
 40
0.0895833333333333
 41
0.0
 71
     4
 72
     1
  1
{\fArial|b0|i0|c0|p0;-}{\fArial|b0|i0|c0|p0;}
 73
     1
 44
1.0
  0
MTEXT
  5
F8
330
F1
100
AcDbEntity
  8
DIMENSIONS
100
AcDbMText
 10
3.277184253602516
 20
3.067274813800436
 30
0.0
 40
0.0895833333333333
 41
0.0
 71
     4
 72
     1
  1
{\fArial|b0|i0|c0|p0;.25}{\fArial|b0|i0|c0|p0;}
 73
     1
 44
1.0
  0
MTEXT
  5
F9
330
F1
100
AcDbEntity
  8
DIMENSIONS
100
AcDbMText
 10
3.429962031380294
 20
3.091084337609959
 30
0.0
 40
0.0895833333333333
 41
0.0
 71
     4
 72
     1
  1
{\fArial|b0|i0|c0|p0;}
 73
     1
 44
1.0
  0
MTEXT
  5
FA
330
F1
100
AcDbEntity
  8
DIMENSIONS
100
AcDbMText
 10
3.027184253602516
 20
3.091084337609959
 30
0.0
 40
0.0895833333333333
 41
0.0
 71
     5
 72
     1
  1
{\fArial|b0|i0|c0|p0;}
 73
     1
 44
1.0
  0
MTEXT
  5
FB
330
F1
100
AcDbEntity
  8
DIMENSIONS
100
AcDbMText
 10
2.857739809158072
 20
2.945251004276626
 30
0.0
 40
0.0895833333333333
 41
0.0
 71
     4
 72
     1
  1
{\fArial|b0|i0|c0|p0;TYP 4 PL}{\fArial|b0|i0|c0|p0;}
 73
     1
 44
1.0
  0
LINE
  5
FC
330
F1
100
AcDbEntity
  8
DIMENSIONS
100
AcDbLine
 10
2.795239782708836
 20
3.091084340425927
 30
0.0
 11
2.545239782708836
 21
3.091084340425927
 31
0.0
  0
LINE
  5
FD
330
F1
100
AcDbEntity
  8
DIMENSIONS
100
AcDbLine
 10
2.374719243563477
 20
3.443228098715946
 30
0.0
 11
2.545239782708836
 21
3.091084340425927
 31
0.0
  0
LWPOLYLINE
  5
FE
330
F1
100
AcDbEntity
  8
DIMENSIONS
100
AcDbPolyline
 90
        4
 70
     0
 43
0.0
 10
2.335494829862766
 20
3.524230847865808
 10
2.388219701755121
 20
3.449765500999398
 10
2.361218785371833
 20
3.436690696432494
 10
2.335494829862766
 20
3.524230847865808
  0
LWPOLYLINE
  5
FF
330
F1
100
AcDbEntity
  8
DIMENSIONS
100
AcDbPolyline
 90
        4
 70
     0
 43
0.0
 10
2.281016477500668
 20
3.636734666129505
 10
2.228291605608314
 20
3.711200012995915
 10
2.255292521991601
 20
3.724274817562819
 10
2.281016477500668
 20
3.636734666129505
  0
LINE
  5
100
330
F1
100
AcDbEntity
  8
DIMENSIONS
100
AcDbLine
 10
2.241792063799958
 20
3.717737415279367
 30
0.0
 11
2.172059772776472
 21
3.8617423026569
 31
0.0
  0
ENDBLK
  5
F3
330
F1
100
AcDbEntity
  8
0
100
AcDbBlockEnd
  0
BLOCK
  5
12D
330
12C
100
AcDbEntity
  8
0
100
AcDbBlockBegin
  2
D7
 70
     0
 10
0.0
 20
0.0
 30
0.0
  3
D7
  1

  0
MTEXT
  5
12F
330
12C
100
AcDbEntity
  8
DIMENSIONS
100
AcDbMText
 10
5.899073082631027
 20
4.364303228423354
 30
0.0
 40
0.0895833333333333
 41
0.0
 71
     5
 72
     1
  1
{\fArial|b0|i0|c0|p0;72.00}{\fMS Shell Dlg|b0|i0|c0|p0;\H0.9444444x;}
 73
     1
 44
1.0
  0
MTEXT
  5
130
330
12C
100
AcDbEntity
  8
DIMENSIONS
100
AcDbMText
 10
5.899073082631027
 20
4.364303228423354
 30
0.0
 40
0.0895833333333333
 41
0.0
 71
     5
 72
     1
  1
{\fArial|b0|i0|c0|p0;}
 73
     1
 44
1.0
  0
MTEXT
  5
131
330
12C
100
AcDbEntity
  8
DIMENSIONS
100
AcDbMText
 10
5.899073082631027
 20
4.364303228423354
 30
0.0
 40
0.0895833333333333
 41
0.0
 71
     5
 72
     1
  1
{\fArial|b0|i0|c0|p0;}
 73
     1
 44
1.0
  0
LINE
  5
132
330
12C
100
AcDbEntity
  8
DIMENSIONS
100
AcDbLine
 10
1.308255653681717
 20
4.916420333967435
 30
0.0
 11
1.308255653681717
 21
4.301803228423354
 31
0.0
  0
LINE
  5
133
330
12C
100
AcDbEntity
  8
DIMENSIONS
100
AcDbLine
 10
10.30825565368172
 20
4.916420333967435
 30
0.0
 11
10.30825565368172
 21
4.301803228423354
 31
0.0
  0
LWPOLYLINE
  5
134
330
12C
100
AcDbEntity
  8
DIMENSIONS
100
AcDbPolyline
 90
        4
 70
     0
 43
0.0
 10
1.308255653681717
 20
4.364303228423354
 10
1.398255653681717
 20
4.379303228423353
 10
1.398255653681717
 20
4.349303228423353
 10
1.308255653681717
 20
4.364303228423354
  0
LINE
  5
135
330
12C
100
AcDbEntity
  8
DIMENSIONS
100
AcDbLine
 10
1.398255653681717
 20
4.364303228423354
 30
0.0
 11
5.69768420542319
 21
4.364303243441845
 31
0.0
  0
LWPOLYLINE
  5
136
330
12C
100
AcDbEntity
  8
DIMENSIONS
100
AcDbPolyline
 90
        4
 70
     0
 43
0.0
 10
10.30825565368172
 20
4.364303228423354
 10
10.21825565368172
 20
4.349303228423354
 10
10.21825565368172
 20
4.379303228423353
 10
10.30825565368172
 20
4.364303228423354
  0
LINE
  5
137
330
12C
100
AcDbEntity
  8
DIMENSIONS
100
AcDbLine
 10
10.21825565368172
 20
4.364303228423354
 30
0.0
 11
6.100462125042291
 21
4.364303243441845
 31
0.0
  0
ENDBLK
  5
12E
330
12C
100
AcDbEntity
  8
0
100
AcDbBlockEnd
  0
BLOCK
  5
13A
330
139
100
AcDbEntity
  8
0
100
AcDbBlockBegin
  2
D8
 70
     0
 10
0.0
 20
0.0
 30
0.0
  3
D8
  1

  0
MTEXT
  5
13C
330
139
100
AcDbEntity
  8
DIMENSIONS
100
AcDbMText
 10
10.67350973294476
 20
5.330482833967434
 30
0.0
 40
0.0895833333333333
 41
0.0
 71
     5
 72
     1
  1
{\fArial|b0|i0|c0|p0;5.88}{\fMS Shell Dlg|b0|i0|c0|p0;\H0.9444444x;}
 73
     1
 44
1.0
  0
MTEXT
  5
13D
330
139
100
AcDbEntity
  8
DIMENSIONS
100
AcDbMText
 10
10.67350973294476
 20
5.330482833967434
 30
0.0
 40
0.0895833333333333
 41
0.0
 71
     5
 72
     1
  1
{\fArial|b0|i0|c0|p0;}
 73
     1
 44
1.0
  0
MTEXT
  5
13E
330
139
100
AcDbEntity
  8
DIMENSIONS
100
AcDbMText
 10
10.67350973294476
 20
5.330482833967434
 30
0.0
 40
0.0895833333333333
 41
0.0
 71
     5
 72
     1
  1
{\fArial|b0|i0|c0|p0;}
 73
     1
 44
1.0
  0
LINE
  5
13F
330
139
100
AcDbEntity
  8
DIMENSIONS
100
AcDbLine
 10
10.37075565368172
 20
5.697670333967434
 30
0.0
 11
10.73600973294476
 21
5.697670333967434
 31
0.0
  0
LINE
  5
140
330
139
100
AcDbEntity
  8
DIMENSIONS
100
AcDbLine
 10
10.37075565368172
 20
4.963295333967434
 30
0.0
 11
10.73600973294476
 21
4.963295333967434
 31
0.0
  0
LWPOLYLINE
  5
141
330
139
100
AcDbEntity
  8
DIMENSIONS
100
AcDbPolyline
 90
        4
 70
     0
 43
0.0
 10
10.67350973294476
 20
5.697670333967433
 10
10.68850973294476
 20
5.607670333967432
 10
10.65850973294476
 20
5.607670333967432
 10
10.67350973294476
 20
5.697670333967433
  0
LINE
  5
142
330
139
100
AcDbEntity
  8
DIMENSIONS
100
AcDbLine
 10
10.67350973294476
 20
5.607670333967434
 30
0.0
 11
10.67350940253791
 21
5.455482824580876
 31
0.0
  0
LWPOLYLINE
  5
143
330
139
100
AcDbEntity
  8
DIMENSIONS
100
AcDbPolyline
 90
        4
 70
     0
 43
0.0
 10
10.67350973294476
 20
4.963295333967435
 10
10.65850973294476
 20
5.053295333967434
 10
10.68850973294476
 20
5.053295333967434
 10
10.67350973294476
 20
4.963295333967435
  0
LINE
  5
144
330
139
100
AcDbEntity
  8
DIMENSIONS
100
AcDbLine
 10
10.67350973294476
 20
5.053295333967434
 30
0.0
 11
10.67350940253791
 21
5.205482826458188
 31
0.0
  0
ENDBLK
  5
13B
330
139
100
AcDbEntity
  8
0
100
AcDbBlockEnd
  0
BLOCK
  5
14E
330
14D
100
AcDbEntity
  8
0
100
AcDbBlockBegin
  2
D9
 70
     0
 10
0.0
 20
0.0
 30
0.0
  3
D9
  1

  0
MTEXT
  5
150
330
14D
100
AcDbEntity
  8
DIMENSIONS
100
AcDbMText
 10
10.3721378356453
 20
3.240996026617335
 30
0.0
 40
0.0895833333333333
 41
0.0
 71
     5
 72
     1
  1
{\fArial|b0|i0|c0|p0;2.00}{\fMS Shell Dlg|b0|i0|c0|p0;\H0.9444444x;}
 73
     1
 44
1.0
  0
MTEXT
  5
151
330
14D
100
AcDbEntity
  8
DIMENSIONS
100
AcDbMText
 10
10.3721378356453
 20
3.240996026617335
 30
0.0
 40
0.0895833333333333
 41
0.0
 71
     5
 72
     1
  1
{\fArial|b0|i0|c0|p0;}
 73
     1
 44
1.0
  0
MTEXT
  5
152
330
14D
100
AcDbEntity
  8
DIMENSIONS
100
AcDbMText
 10
10.3721378356453
 20
3.240996026617335
 30
0.0
 40
0.0895833333333333
 41
0.0
 71
     5
 72
     1
  1
{\fArial|b0|i0|c0|p0;}
 73
     1
 44
1.0
  0
LINE
  5
153
330
14D
100
AcDbEntity
  8
DIMENSIONS
100
AcDbLine
 10
10.7957489152593
 20
3.240996029433303
 30
0.0
 11
10.5457489152593
 21
3.240996029433303
 31
0.0
  0
LINE
  5
154
330
14D
100
AcDbEntity
  8
DIMENSIONS
100
AcDbLine
 10
11.16334389513872
 20
3.705482756997657
 30
0.0
 11
10.7332489152593
 21
3.705482756997657
 31
0.0
  0
LINE
  5
155
330
14D
100
AcDbEntity
  8
DIMENSIONS
100
AcDbLine
 10
11.17896889513872
 20
3.455482756997657
 30
0.0
 11
10.7332489152593
 21
3.455482756997657
 31
0.0
  0
LWPOLYLINE
  5
156
330
14D
100
AcDbEntity
  8
DIMENSIONS
100
AcDbPolyline
 90
        4
 70
     0
 43
0.0
 10
10.7957489152593
 20
3.705482756997657
 10
10.8107489152593
 20
3.615482756997657
 10
10.7807489152593
 20
3.615482756997657
 10
10.7957489152593
 20
3.705482756997657
  0
LINE
  5
157
330
14D
100
AcDbEntity
  8
DIMENSIONS
100
AcDbLine
 10
10.7957489152593
 20
3.615482756997657
 30
0.0
 11
10.7957489152593
 21
3.545482756997656
 31
0.0
  0
LWPOLYLINE
  5
158
330
14D
100
AcDbEntity
  8
DIMENSIONS
100
AcDbPolyline
 90
        4
 70
     0
 43
0.0
 10
10.7957489152593
 20
3.455482756997657
 10
10.7807489152593
 20
3.545482756997656
 10
10.8107489152593
 20
3.545482756997656
 10
10.7957489152593
 20
3.455482756997657
  0
LINE
  5
159
330
14D
100
AcDbEntity
  8
DIMENSIONS
100
AcDbLine
 10
10.7957489152593
 20
3.455482756997657
 30
0.0
 11
10.7957489152593
 21
3.240996029433303
 31
0.0
  0
ENDBLK
  5
14F
330
14D
100
AcDbEntity
  8
0
100
AcDbBlockEnd
  0
BLOCK
  5
1A7
330
1A6
100
AcDbEntity
  8
0
100
AcDbBlockBegin
  2
BLOCK3
 70
     0
 10
0.0
 20
0.0
 30
0.0
  3
BLOCK3
  1

  0
LINE
  5
1A9
330
1A6
100
AcDbEntity
  8
CONTINUOUS
100
AcDbLine
 10
0.0
 20
0.0
 30
0.0
 11
16.00000000000004
 21
0.0
 31
0.0
  0
LINE
  5
1AA
330
1A6
100
AcDbEntity
  8
CONTINUOUS
100
AcDbLine
 10
16.00000000000004
 20
10.0
 30
0.0
 11
0.0
 21
10.0
 31
0.0
  0
LINE
  5
1AB
330
1A6
100
AcDbEntity
  8
CONTINUOUS
100
AcDbLine
 10
0.6200000000000196
 20
0.3800000000000016
 30
0.0
 11
15.37999999999996
 21
0.3800000000000016
 31
0.0
  0
LINE
  5
1AC
330
1A6
100
AcDbEntity
  8
CONTINUOUS
100
AcDbLine
 10
15.38
 20
9.620000000000001
 30
0.0
 11
0.6200000000000393
 21
9.620000000000001
 31
0.0
  0
LWPOLYLINE
  5
1AD
330
1A6
100
AcDbEntity
  8
CONTINUOUS
100
AcDbPolyline
 90
        5
 70
     0
 43
0.0
 10
7.85
 20
0.2300000000000039
 10
8.15
 20
0.2300000000000039
 10
7.999999999999999
 20
0.3800000000000016
 10
7.999999999999999
 20
0.3800000000000016
 10
7.85
 20
0.2300000000000039
  0
LWPOLYLINE
  5
1AE
330
1A6
100
AcDbEntity
  8
CONTINUOUS
100
AcDbPolyline
 90
        5
 70
     0
 43
0.0
 10
7.85
 20
9.77
 10
8.15
 20
9.77
 10
7.999999999999999
 20
9.620000000000001
 10
7.999999999999999
 20
9.620000000000001
 10
7.85
 20
9.77
  0
LINE
  5
1AF
330
1A6
100
AcDbEntity
  8
CONTINUOUS
100
AcDbLine
 10
0.0
 20
10.0
 30
0.0
 11
0.0
 21
0.0
 31
0.0
  0
LINE
  5
1B0
330
1A6
100
AcDbEntity
  8
CONTINUOUS
100
AcDbLine
 10
0.6200000000000393
 20
9.620000000000001
 30
0.0
 11
0.6200000000000196
 21
0.3800000000000016
 31
0.0
  0
LWPOLYLINE
  5
1B1
330
1A6
100
AcDbEntity
  8
CONTINUOUS
100
AcDbPolyline
 90
        5
 70
     0
 43
0.0
 10
0.48
 20
4.85
 10
0.48
 20
5.15
 10
0.6200000000000196
 20
5.0
 10
0.6200000000000196
 20
5.0
 10
0.48
 20
4.85
  0
LINE
  5
1B2
330
1A6
100
AcDbEntity
  8
CONTINUOUS
100
AcDbLine
 10
16.00000000000004
 20
0.0
 30
0.0
 11
16.00000000000004
 21
10.0
 31
0.0
  0
LINE
  5
1B3
330
1A6
100
AcDbEntity
  8
CONTINUOUS
100
AcDbLine
 10
15.38
 20
0.3800000000000016
 30
0.0
 11
15.38
 21
9.620000000000001
 31
0.0
  0
LWPOLYLINE
  5
1B4
330
1A6
100
AcDbEntity
  8
CONTINUOUS
100
AcDbPolyline
 90
        5
 70
     0
 43
0.0
 10
15.52000000000004
 20
4.85
 10
15.52000000000004
 20
5.15
 10
15.38
 20
5.0
 10
15.38
 20
5.0
 10
15.52000000000004
 20
4.85
  0
LINE
  5
1B5
330
1A6
100
AcDbEntity
  8
CONTINUOUS
100
AcDbLine
 10
11.13
 20
0.6299999999999999
 30
0.0
 11
15.38
 21
0.6299999999999999
 31
0.0
  0
LINE
  5
1B6
330
1A6
100
AcDbEntity
  8
CONTINUOUS
100
AcDbLine
 10
11.13
 20
1.63
 30
0.0
 11
15.38
 21
1.63
 31
0.0
  0
LINE
  5
1B7
330
1A6
100
AcDbEntity
  8
CONTINUOUS
100
AcDbLine
 10
11.13
 20
0.3800000000000016
 30
0.0
 11
11.13
 21
2.129999999999996
 31
0.0
  0
LINE
  5
1B8
330
1A6
100
AcDbEntity
  8
CONTINUOUS
100
AcDbLine
 10
11.51
 20
0.6299999999999999
 30
0.0
 11
11.51
 21
1.01
 31
0.0
  0
LINE
  5
1B9
330
1A6
100
AcDbEntity
  8
CONTINUOUS
100
AcDbLine
 10
12.13
 20
0.3800000000000016
 30
0.0
 11
12.13
 21
0.6299999999999999
 31
0.0
  0
LINE
  5
1BA
330
1A6
100
AcDbEntity
  8
CONTINUOUS
100
AcDbLine
 10
12.63000000000004
 20
0.6299999999999999
 30
0.0
 11
12.63000000000004
 21
1.01
 31
0.0
  0
LINE
  5
1BB
330
1A6
100
AcDbEntity
  8
CONTINUOUS
100
AcDbLine
 10
13.63
 20
0.3800000000000016
 30
0.0
 11
13.63
 21
0.6299999999999999
 31
0.0
  0
LINE
  5
1BC
330
1A6
100
AcDbEntity
  8
CONTINUOUS
100
AcDbLine
 10
15.0
 20
0.6299999999999999
 30
0.0
 11
15.0
 21
1.01
 31
0.0
  0
LINE
  5
1BD
330
1A6
100
AcDbEntity
  8
CONTINUOUS
100
AcDbLine
 10
9.879999999999999
 20
9.37
 30
0.0
 11
15.38
 21
9.37
 31
0.0
  0
LINE
  5
1BE
330
1A6
100
AcDbEntity
  8
CONTINUOUS
100
AcDbLine
 10
9.879999999999999
 20
9.12
 30
0.0
 11
15.38
 21
9.12
 31
0.0
  0
LINE
  5
1BF
330
1A6
100
AcDbEntity
  8
CONTINUOUS
100
AcDbLine
 10
9.879999999999999
 20
9.620000000000001
 30
0.0
 11
9.879999999999999
 21
8.5727
 31
0.0
  0
LINE
  5
1C0
330
1A6
100
AcDbEntity
  8
CONTINUOUS
100
AcDbLine
 10
10.38
 20
9.12
 30
0.0
 11
10.38
 21
9.37
 31
0.0
  0
LINE
  5
1C1
330
1A6
100
AcDbEntity
  8
CONTINUOUS
100
AcDbLine
 10
10.76
 20
9.12
 30
0.0
 11
10.76
 21
9.37
 31
0.0
  0
LINE
  5
1C2
330
1A6
100
AcDbEntity
  8
CONTINUOUS
100
AcDbLine
 10
13.50000000000004
 20
9.12
 30
0.0
 11
13.50000000000004
 21
9.37
 31
0.0
  0
LINE
  5
1C3
330
1A6
100
AcDbEntity
  8
CONTINUOUS
100
AcDbLine
 10
14.38
 20
9.12
 30
0.0
 11
14.38
 21
9.37
 31
0.0
  0
LINE
  5
1C4
330
1A6
100
AcDbEntity
  8
CONTINUOUS
100
AcDbLine
 10
7.999999999999999
 20
0.1300000000000051
 30
0.0
 11
7.999999999999999
 21
0.2300000000000039
 31
0.0
  0
LINE
  5
1C5
330
1A6
100
AcDbEntity
  8
CONTINUOUS
100
AcDbLine
 10
0.3800000000000016
 20
5.0
 30
0.0
 11
0.48
 21
5.0
 31
0.0
  0
LINE
  5
1C6
330
1A6
100
AcDbEntity
  8
CONTINUOUS
100
AcDbLine
 10
7.999999999999999
 20
9.870000000000001
 30
0.0
 11
7.999999999999999
 21
9.77
 31
0.0
  0
LINE
  5
1C7
330
1A6
100
AcDbEntity
  8
CONTINUOUS
100
AcDbLine
 10
15.62000000000004
 20
5.0
 30
0.0
 11
15.52000000000004
 21
5.0
 31
0.0
  0
LINE
  5
1C8
330
1A6
100
AcDbEntity
  8
CONTINUOUS
100
AcDbLine
 10
11.13
 20
1.4158617485185
 30
0.0
 11
9.129999999999999
 21
1.4158617485185
 31
0.0
  0
LINE
  5
1C9
330
1A6
100
AcDbEntity
  8
CONTINUOUS
100
AcDbLine
 10
9.129999999999999
 20
0.6995204745271615
 30
0.0
 11
7.124461979194095
 21
0.6995204745271615
 31
0.0
  0
LINE
  5
1CA
330
1A6
100
AcDbEntity
  8
CONTINUOUS
100
AcDbLine
 10
9.134604388150787
 20
2.129999999999996
 30
0.0
 11
9.134604388150787
 21
0.3799999999999996
 31
0.0
  0
LINE
  5
1CB
330
1A6
100
AcDbEntity
  8
CONTINUOUS
100
AcDbLine
 10
11.13
 20
1.774037191431886
 30
0.0
 11
9.129999999999999
 21
1.774037191431886
 31
0.0
  0
LINE
  5
1CC
330
1A6
100
AcDbEntity
  8
CONTINUOUS
100
AcDbLine
 10
9.129999999999999
 20
1.006522504546846
 30
0.0
 11
7.124461979194095
 21
1.006522504546846
 31
0.0
  0
LINE
  5
1CD
330
1A6
100
AcDbEntity
  8
CONTINUOUS
100
AcDbLine
 10
11.13
 20
1.01
 30
0.0
 11
15.38
 21
1.01
 31
0.0
  0
LINE
  5
1CE
330
1A6
100
AcDbEntity
  8
CONTINUOUS
100
AcDbLine
 10
11.13
 20
2.129999999999996
 30
0.0
 11
15.38
 21
2.129999999999996
 31
0.0
  0
LINE
  5
1CF
330
1A6
100
AcDbEntity
  8
CONTINUOUS
100
AcDbLine
 10
7.124461979194095
 20
2.129999999999996
 30
0.0
 11
7.124461979194095
 21
0.3799999999999996
 31
0.0
  0
LINE
  5
1D0
330
1A6
100
AcDbEntity
  8
CONTINUOUS
100
AcDbLine
 10
7.124461979194095
 20
2.129999999999996
 30
0.0
 11
11.13
 21
2.129999999999996
 31
0.0
  0
LINE
  5
1D1
330
1A6
100
AcDbEntity
  8
CONTINUOUS
100
AcDbLine
 10
11.13
 20
0.7287596785133819
 30
0.0
 11
9.129999999999999
 21
0.7287596785133819
 31
0.0
  0
LINE
  5
1D2
330
1A6
100
AcDbEntity
  8
CONTINUOUS
100
AcDbLine
 10
11.13
 20
1.072315519433854
 30
0.0
 11
9.129999999999999
 21
1.072315519433854
 31
0.0
  0
LINE
  5
1D3
330
1A6
100
AcDbEntity
  8
CONTINUOUS
100
AcDbLine
 10
10.11408888618228
 20
2.129999999999996
 30
0.0
 11
10.11408888618228
 21
0.3799999999999996
 31
0.0
  0
MTEXT
  5
1D4
330
1A6
100
AcDbEntity
  8
CONTINUOUS
100
AcDbMText
 10
-0.065749999999989
 20
0.072599999999998
 30
0.0
 40
0.2090277777777778
 41
0.0
 71
     4
 72
     1
  1
{\fArial|b0|i0|c0|p0;\C7;}
 73
     1
 44
1.0
  0
MTEXT
  5
1D5
330
1A6
100
AcDbEntity
  8
CONTINUOUS
100
AcDbMText
 10
10.16976063815079
 20
2.047244007376768
 30
0.0
 40
0.0696759259259259
 41
0.0
 71
     4
 72
     1
  1
{\fArial|b0|i0|c0|p0;\C7;DATE}{\fArial|b0|i0|c0|p0;\C7;}
 73
     1
 44
1.0
  0
MTEXT
  5
1D6
330
1A6
100
AcDbEntity
  8
CONTINUOUS
100
AcDbMText
 10
11.175475
 20
0.5450834127254961
 30
0.0
 40
0.0696759259259259
 41
0.0
 71
     4
 72
     1
  1
{\fArial|b0|i0|c0|p0;\C7;SCALE}{\fArial|b0|i0|c0|p0;\C7;}
 73
     1
 44
1.0
  0
MTEXT
  5
1D7
330
1A6
100
AcDbEntity
  8
CONTINUOUS
100
AcDbMText
 10
9.169995166940158
 20
0.6396771858952717
 30
0.0
 40
0.0696759259259259
 41
0.0
 71
     4
 72
     1
  1
{\fArial|b0|i0|c0|p0;\C7;APPROVED}{\fArial|b0|i0|c0|p0;\C7;}
 73
     1
 44
1.0
  0
MTEXT
  5
1D8
330
1A6
100
AcDbEntity
  8
CONTINUOUS
100
AcDbMText
 10
9.182106079833858
 20
0.9945461573519646
 30
0.0
 40
0.0696759259259259
 41
0.0
 71
     4
 72
     1
  1
{\fArial|b0|i0|c0|p0;\C7;MFG}{\fArial|b0|i0|c0|p0;\C7;}
 73
     1
 44
1.0
  0
MTEXT
  5
1D9
330
1A6
100
AcDbEntity
  8
CONTINUOUS
100
AcDbMText
 10
13.6642245309424
 20
0.5392086662977362
 30
0.0
 40
0.0696759259259259
 41
0.0
 71
     4
 72
     1
  1
{\fArial|b0|i0|c0|p0;\C7;SHEET}{\fArial|b0|i0|c0|p0;\C7;}
 73
     1
 44
1.0
  0
MTEXT
  5
1DA
330
1A6
100
AcDbEntity
  8
CONTINUOUS
100
AcDbMText
 10
13.13451812192602
 20
0.7493454520116338
 30
0.0
 40
0.0895833333333333
 41
0.0
 71
     4
 72
     1
  1
{\fArial|b0|i0|c0|p0;\C7;}
 73
     1
 44
1.0
  0
MTEXT
  5
1DB
330
1A6
100
AcDbEntity
  8
CONTINUOUS
100
AcDbMText
 10
13.820875
 20
9.24176
 30
0.0
 40
0.0696759259259259
 41
0.0
 71
     4
 72
     1
  1
{\fArial|b0|i0|c0|p0;\C7;DATE}{\fArial|b0|i0|c0|p0;\C7;}
 73
     1
 44
1.0
  0
MTEXT
  5
1DC
330
1A6
100
AcDbEntity
  8
CONTINUOUS
100
AcDbMText
 10
9.169975943268899
 20
1.687472999748815
 30
0.0
 40
0.0696759259259259
 41
0.0
 71
     4
 72
     1
  1
{\fArial|b0|i0|c0|p0;\C7;CHECKED}{\fArial|b0|i0|c0|p0;\C7;}
 73
     1
 44
1.0
  0
MTEXT
  5
1DD
330
1A6
100
AcDbEntity
  8
CONTINUOUS
100
AcDbMText
 10
11.24972726585748
 20
0.7664026305387873
 30
0.0
 40
0.169212962962963
 41
0.0
 71
     4
 72
     1
  1
{\fArial|b0|i0|c0|p0;\C7;B}{\fArial|b0|i0|c0|p0;\C7;}
 73
     1
 44
1.0
  0
MTEXT
  5
1DE
330
1A6
100
AcDbEntity
  8
CONTINUOUS
100
AcDbMText
 10
11.755175
 20
9.24176
 30
0.0
 40
0.0696759259259259
 41
0.0
 71
     4
 72
     1
  1
{\fArial|b0|i0|c0|p0;\C7;DESCRIPTION}{\fArial|b0|i0|c0|p0;\C7;}
 73
     1
 44
1.0
  0
MTEXT
  5
1DF
330
1A6
100
AcDbEntity
  8
CONTINUOUS
100
AcDbMText
 10
11.572075
 20
0.92736
 30
0.0
 40
0.0696759259259259
 41
0.0
 71
     4
 72
     1
  1
{\fArial|b0|i0|c0|p0;\C7;FSCM NO.}{\fArial|b0|i0|c0|p0;\C7;}
 73
     1
 44
1.0
  0
MTEXT
  5
1E0
330
1A6
100
AcDbEntity
  8
CONTINUOUS
100
AcDbMText
 10
11.211075
 20
0.92736
 30
0.0
 40
0.0696759259259259
 41
0.0
 71
     4
 72
     1
  1
{\fArial|b0|i0|c0|p0;\C7;SIZE}{\fArial|b0|i0|c0|p0;\C7;}
 73
     1
 44
1.0
  0
MTEXT
  5
1E1
330
1A6
100
AcDbEntity
  8
CONTINUOUS
100
AcDbMText
 10
-0.065749999999989
 20
3.072599999999992
 30
0.0
 40
0.2090277777777778
 41
0.0
 71
     4
 72
     1
  1
{\fArial|b0|i0|c0|p0;\C7;}
 73
     1
 44
1.0
  0
MTEXT
  5
1E2
330
1A6
100
AcDbEntity
  8
CONTINUOUS
100
AcDbMText
 10
12.694175
 20
0.92736
 30
0.0
 40
0.0696759259259259
 41
0.0
 71
     4
 72
     1
  1
{\fArial|b0|i0|c0|p0;\C7;DWG NO.}{\fArial|b0|i0|c0|p0;\C7;}
 73
     1
 44
1.0
  0
MTEXT
  5
1E3
330
1A6
100
AcDbEntity
  8
CONTINUOUS
100
AcDbMText
 10
10.16036026290472
 20
1.891782177898421
 30
0.0
 40
0.0895833333333333
 41
0.0
 71
     4
 72
     1
  1
{\fArial|b0|i0|c0|p0;\C7;7-DEC-2012}{\fArial|b0|i0|c0|p0;\C7;}
 73
     1
 44
1.0
  0
MTEXT
  5
1E4
330
1A6
100
AcDbEntity
  8
CONTINUOUS
100
AcDbMText
 10
-0.065749999999989
 20
6.0726
 30
0.0
 40
0.2090277777777778
 41
0.0
 71
     4
 72
     1
  1
{\fArial|b0|i0|c0|p0;\C7;}
 73
     1
 44
1.0
  0
MTEXT
  5
1E5
330
1A6
100
AcDbEntity
  8
CONTINUOUS
100
AcDbMText
 10
12.583375
 20
9.48396
 30
0.0
 40
0.0696759259259259
 41
0.0
 71
     4
 72
     1
  1
{\fArial|b0|i0|c0|p0;\C7;REVISIONS}{\fArial|b0|i0|c0|p0;\C7;}
 73
     1
 44
1.0
  0
MTEXT
  5
1E6
330
1A6
100
AcDbEntity
  8
CONTINUOUS
100
AcDbMText
 10
15.073675
 20
0.92736
 30
0.0
 40
0.0696759259259259
 41
0.0
 71
     4
 72
     1
  1
{\fArial|b0|i0|c0|p0;\C7;REV}{\fArial|b0|i0|c0|p0;\C7;}
 73
     1
 44
1.0
  0
MTEXT
  5
1E7
330
1A6
100
AcDbEntity
  8
CONTINUOUS
100
AcDbMText
 10
10.453275
 20
9.24176
 30
0.0
 40
0.0696759259259259
 41
0.0
 71
     4
 72
     1
  1
{\fArial|b0|i0|c0|p0;\C7;REV}{\fArial|b0|i0|c0|p0;\C7;}
 73
     1
 44
1.0
  0
MTEXT
  5
1E8
330
1A6
100
AcDbEntity
  8
CONTINUOUS
100
AcDbMText
 10
9.981875
 20
9.24176
 30
0.0
 40
0.0696759259259259
 41
0.0
 71
     4
 72
     1
  1
{\fArial|b0|i0|c0|p0;\C7;ZONE}{\fArial|b0|i0|c0|p0;\C7;}
 73
     1
 44
1.0
  0
MTEXT
  5
1E9
330
1A6
100
AcDbEntity
  8
CONTINUOUS
100
AcDbMText
 10
14.614575
 20
9.24176
 30
0.0
 40
0.0696759259259259
 41
0.0
 71
     4
 72
     1
  1
{\fArial|b0|i0|c0|p0;\C7;APPROVED}{\fArial|b0|i0|c0|p0;\C7;}
 73
     1
 44
1.0
  0
MTEXT
  5
1EA
330
1A6
100
AcDbEntity
  8
CONTINUOUS
100
AcDbMText
 10
9.180241383721654
 20
1.338207728464169
 30
0.0
 40
0.0696759259259259
 41
0.0
 71
     4
 72
     1
  1
{\fArial|b0|i0|c0|p0;\C7;QA}{\fArial|b0|i0|c0|p0;\C7;}
 73
     1
 44
1.0
  0
MTEXT
  5
1EB
330
1A6
100
AcDbEntity
  8
CONTINUOUS
100
AcDbMText
 10
9.176473544154724
 20
1.899404363553146
 30
0.0
 40
0.0895833333333333
 41
0.0
 71
     4
 72
     1
  1
{\fArial|b0|i0|c0|p0;\C7;CH}{\fArial|b0|i0|c0|p0;\C7;}
 73
     1
 44
1.0
  0
MTEXT
  5
1EC
330
1A6
100
AcDbEntity
  8
CONTINUOUS
100
AcDbMText
 10
9.169975943268899
 20
2.036738271033067
 30
0.0
 40
0.0696759259259259
 41
0.0
 71
     4
 72
     1
  1
{\fArial|b0|i0|c0|p0;\C7;DRAWN}{\fArial|b0|i0|c0|p0;\C7;}
 73
     1
 44
1.0
  0
ENDBLK
  5
1A8
330
1A6
100
AcDbEntity
  8
0
100
AcDbBlockEnd
  0
ENDSEC
  0
SECTION
  2
ENTITIES
  0
LINE
  5
5E
330
1F
100
AcDbEntity
  8
VISIBLE
100
AcDbLine
 10
3.538054197137758
 20
3.455482756997657
 30
0.0
 11
3.527005653681718
 21
3.455482756997657
 31
0.0
  0
LINE
  5
5F
330
1F
100
AcDbEntity
  8
VISIBLE
100
AcDbLine
 10
10.19430419713776
 20
3.455482756997657
 30
0.0
 11
10.18325565368172
 21
3.455482756997657
 31
0.0
  0
LINE
  5
60
330
1F
100
AcDbEntity
  8
VISIBLE
100
AcDbLine
 10
3.640957110225676
 20
3.471107756997657
 30
0.0
 11
3.652005653681718
 21
3.471107756997657
 31
0.0
  0
LINE
  5
61
330
1F
100
AcDbEntity
  8
VISIBLE
100
AcDbLine
 10
8.078457110225676
 20
3.471107756997657
 30
0.0
 11
8.089505653681718
 21
3.471107756997657
 31
0.0
  0
LINE
  5
62
330
1F
100
AcDbEntity
  8
VISIBLE
100
AcDbLine
 10
5.745755653681718
 20
3.455482756997657
 30
0.0
 11
3.652005653681718
 21
3.455482756997657
 31
0.0
  0
LINE
  5
63
330
1F
100
AcDbEntity
  8
VISIBLE
100
AcDbLine
 10
7.975554197137757
 20
3.455482756997657
 30
0.0
 11
8.078457110225676
 21
3.455482756997657
 31
0.0
  0
LINE
  5
64
330
1F
100
AcDbEntity
  8
VISIBLE
100
AcDbLine
 10
10.30825565368172
 20
3.471107756997657
 30
0.0
 11
10.30825565368172
 21
3.455482756997657
 31
0.0
  0
CIRCLE
  5
65
330
1F
100
AcDbEntity
  8
VISIBLE
100
AcDbCircle
 10
4.808255653681718
 20
3.580482756997657
 30
0.0
 40
0.0625
  0
LINE
  5
66
330
1F
100
AcDbEntity
  8
VISIBLE
100
AcDbLine
 10
10.18325565368172
 20
3.471107756997657
 30
0.0
 11
10.19430419713776
 21
3.471107756997657
 31
0.0
  0
LINE
  5
67
330
1F
100
AcDbEntity
  8
VISIBLE
100
AcDbLine
 10
1.433255653681717
 20
3.477579843909738
 30
0.0
 11
3.527005653681718
 21
3.477579843909738
 31
0.0
  0
CIRCLE
  5
68
330
1F
100
AcDbEntity
  8
VISIBLE
100
AcDbCircle
 10
6.808255653681718
 20
3.580482756997657
 30
0.0
 40
0.0625
  0
ELLIPSE
  5
69
330
1F
100
AcDbEntity
  8
VISIBLE
100
AcDbEllipse
 10
5.870755653681719
 20
3.471107756997657
 30
0.0
 11
0.01443561769548829
 21
0.01443561769549007
 31
0.0
210
0.0
220
0.0
230
1.0
 40
0.4142135623731106
 41
2.748893571891008
 42
3.53429173528845
  0
ELLIPSE
  5
6A
330
1F
100
AcDbEntity
  8
VISIBLE
100
AcDbEllipse
 10
5.870755653681719
 20
3.471107756997657
 30
0.0
 11
0.01443561769548829
 21
0.01443561769549007
 31
0.0
210
0.0
220
0.0
230
1.0
 40
0.4142135623731106
 41
1.963495408493676
 42
2.748893571891008
  0
LINE
  5
6B
330
1F
100
AcDbEntity
  8
VISIBLE
100
AcDbLine
 10
3.652005653681718
 20
3.471107756997657
 30
0.0
 11
5.745755653681718
 21
3.471107756997657
 31
0.0
  0
ELLIPSE
  5
6C
330
1F
100
AcDbEntity
  8
VISIBLE
100
AcDbEllipse
 10
3.527005653681718
 20
3.471107756997653
 30
0.0
 11
0.01443561769548918
 21
-0.01443561769548785
 31
0.0
210
0.0
220
0.0
230
1.0
 40
0.4142135623731604
 41
0.3926990816987916
 42
1.178097245096226
  0
ELLIPSE
  5
6D
330
1F
100
AcDbEntity
  8
VISIBLE
100
AcDbEllipse
 10
3.527005653681718
 20
3.471107756997653
 30
0.0
 11
0.01443561769548918
 21
-0.01443561769548785
 31
0.0
210
0.0
220
0.0
230
1.0
 40
0.4142135623731604
 41
-0.3926990816986503
 42
0.3926990816987916
  0
LINE
  5
6E
330
1F
100
AcDbEntity
  8
VISIBLE
100
AcDbLine
 10
10.18325565368172
 20
3.455482756997657
 30
0.0
 11
8.089505653681718
 21
3.455482756997657
 31
0.0
  0
LINE
  5
6F
330
1F
100
AcDbEntity
  8
VISIBLE
100
AcDbLine
 10
5.745755653681718
 20
3.471107756997657
 30
0.0
 11
5.756804197137759
 21
3.471107756997657
 31
0.0
  0
LINE
  5
70
330
1F
100
AcDbEntity
  8
VISIBLE
100
AcDbLine
 10
8.089505653681718
 20
3.477579843909738
 30
0.0
 11
10.18325565368172
 21
3.477579843909738
 31
0.0
  0
LINE
  5
71
330
1F
100
AcDbEntity
  8
VISIBLE
100
AcDbLine
 10
1.308255653681717
 20
3.705482756997657
 30
0.0
 11
10.30825565368172
 21
3.705482756997657
 31
0.0
  0
ELLIPSE
  5
72
330
1F
100
AcDbEntity
  8
VISIBLE
100
AcDbEllipse
 10
5.870755653681719
 20
3.455482756997657
 30
0.0
 11
0.0
 21
0.02209708691208023
 31
0.0
210
0.0
220
0.0
230
1.0
 40
0.707106781186608
 41
0.0
 42
0.7853981633975181
  0
LINE
  5
73
330
1F
100
AcDbEntity
  8
VISIBLE
100
AcDbLine
 10
7.964505653681719
 20
3.455482756997657
 30
0.0
 11
5.870755653681719
 21
3.455482756997657
 31
0.0
  0
ELLIPSE
  5
74
330
1F
100
AcDbEntity
  8
VISIBLE
100
AcDbEllipse
 10
10.18325565368172
 20
3.455482756997657
 30
0.0
 11
0.0
 21
0.02209708691208023
 31
0.0
210
0.0
220
0.0
230
1.0
 40
0.7071067811865276
 41
-0.7853981633974239
 42
0.0
  0
LINE
  5
75
330
1F
100
AcDbEntity
  8
VISIBLE
100
AcDbLine
 10
1.308255653681717
 20
3.455482756997657
 30
0.0
 11
1.422207110225676
 21
3.455482756997657
 31
0.0
  0
ELLIPSE
  5
76
330
1F
100
AcDbEntity
  8
VISIBLE
100
AcDbEllipse
 10
5.745755653681718
 20
3.455482756997657
 30
0.0
 11
0.0
 21
0.02209708691208023
 31
0.0
210
0.0
220
0.0
230
1.0
 40
0.7071067811865276
 41
-0.7853981633975468
 42
0.0
  0
ELLIPSE
  5
77
330
1F
100
AcDbEntity
  8
VISIBLE
100
AcDbEllipse
 10
10.18325565368172
 20
3.471107756997657
 30
0.0
 11
0.01443561769549006
 21
-0.0144356176954874
 31
0.0
210
0.0
220
0.0
230
0.9999999999999998
 40
0.414213562373108
 41
0.3926990816988646
 42
1.178097245096153
  0
ELLIPSE
  5
78
330
1F
100
AcDbEntity
  8
VISIBLE
100
AcDbEllipse
 10
10.18325565368172
 20
3.471107756997657
 30
0.0
 11
0.01443561769549006
 21
-0.0144356176954874
 31
0.0
210
0.0
220
0.0
230
0.9999999999999998
 40
0.414213562373108
 41
-0.392699081698712
 42
0.3926990816988646
  0
ELLIPSE
  5
79
330
1F
100
AcDbEntity
  8
VISIBLE
100
AcDbEllipse
 10
1.433255653681717
 20
3.471107756997653
 30
0.0
 11
0.0144356176954894
 21
0.01443561769549051
 31
0.0
210
0.0
220
0.0
230
1.0
 40
0.4142135623730653
 41
2.748893571891061
 42
3.534291735288537
  0
ELLIPSE
  5
7A
330
1F
100
AcDbEntity
  8
VISIBLE
100
AcDbEllipse
 10
1.433255653681717
 20
3.471107756997653
 30
0.0
 11
0.0144356176954894
 21
0.01443561769549051
 31
0.0
210
0.0
220
0.0
230
1.0
 40
0.4142135623730653
 41
1.963495408493511
 42
2.748893571891061
  0
ELLIPSE
  5
7B
330
1F
100
AcDbEntity
  8
VISIBLE
100
AcDbEllipse
 10
7.964505653681719
 20
3.455482756997657
 30
0.0
 11
0.0
 21
0.02209708691208023
 31
0.0
210
0.0
220
0.0
230
1.0
 40
0.707106781186608
 41
-0.785398163397367
 42
0.0
  0
CIRCLE
  5
7C
330
1F
100
AcDbEntity
  8
VISIBLE
100
AcDbCircle
 10
2.308255653681717
 20
3.580482756997657
 30
0.0
 40
0.0625
  0
LINE
  5
7D
330
1F
100
AcDbEntity
  8
VISIBLE
100
AcDbLine
 10
1.433255653681717
 20
3.471107756997657
 30
0.0
 11
3.527005653681718
 21
3.471107756997657
 31
0.0
  0
LINE
  5
7E
330
1F
100
AcDbEntity
  8
VISIBLE
100
AcDbLine
 10
5.756804197137759
 20
3.455482756997657
 30
0.0
 11
5.859707110225678
 21
3.455482756997657
 31
0.0
  0
ELLIPSE
  5
7F
330
1F
100
AcDbEntity
  8
VISIBLE
100
AcDbEllipse
 10
7.964505653681719
 20
3.471107756997657
 30
0.0
 11
0.01443561769549006
 21
-0.0144356176954874
 31
0.0
210
0.0
220
0.0
230
0.9999999999999998
 40
0.414213562373108
 41
0.3926990816987497
 42
1.178097245096153
  0
ELLIPSE
  5
80
330
1F
100
AcDbEntity
  8
VISIBLE
100
AcDbEllipse
 10
7.964505653681719
 20
3.471107756997657
 30
0.0
 11
0.01443561769549006
 21
-0.0144356176954874
 31
0.0
210
0.0
220
0.0
230
0.9999999999999998
 40
0.414213562373108
 41
-0.3926990816988721
 42
0.3926990816987497
  0
LINE
  5
81
330
1F
100
AcDbEntity
  8
VISIBLE
100
AcDbLine
 10
5.756804197137759
 20
3.455482756997657
 30
0.0
 11
5.745755653681718
 21
3.455482756997657
 31
0.0
  0
LINE
  5
82
330
1F
100
AcDbEntity
  8
VISIBLE
100
AcDbLine
 10
10.30825565368172
 20
3.471107756997657
 30
0.0
 11
10.30825565368172
 21
3.705482756997657
 31
0.0
  0
ELLIPSE
  5
83
330
1F
100
AcDbEntity
  8
VISIBLE
100
AcDbEllipse
 10
3.527005653681718
 20
3.455482756997657
 30
0.0
 11
0.0
 21
0.02209708691208023
 31
0.0
210
0.0
220
0.0
230
1.0
 40
0.7071067811865477
 41
-0.7853981633974925
 42
0.0
  0
LINE
  5
84
330
1F
100
AcDbEntity
  8
VISIBLE
100
AcDbLine
 10
5.870755653681719
 20
3.455482756997657
 30
0.0
 11
5.859707110225678
 21
3.455482756997657
 31
0.0
  0
LINE
  5
85
330
1F
100
AcDbEntity
  8
VISIBLE
100
AcDbLine
 10
3.538054197137758
 20
3.455482756997657
 30
0.0
 11
3.640957110225676
 21
3.455482756997657
 31
0.0
  0
LINE
  5
86
330
1F
100
AcDbEntity
  8
VISIBLE
100
AcDbLine
 10
5.870755653681719
 20
3.477579843909738
 30
0.0
 11
7.964505653681719
 21
3.477579843909738
 31
0.0
  0
LINE
  5
87
330
1F
100
AcDbEntity
  8
VISIBLE
100
AcDbLine
 10
1.422207110225676
 20
3.471107756997657
 30
0.0
 11
1.433255653681717
 21
3.471107756997657
 31
0.0
  0
LINE
  5
88
330
1F
100
AcDbEntity
  8
VISIBLE
100
AcDbLine
 10
1.308255653681717
 20
3.455482756997657
 30
0.0
 11
1.308255653681717
 21
3.471107756997657
 31
0.0
  0
LINE
  5
89
330
1F
100
AcDbEntity
  8
VISIBLE
100
AcDbLine
 10
3.652005653681718
 20
3.455482756997657
 30
0.0
 11
3.640957110225677
 21
3.455482756997657
 31
0.0
  0
ELLIPSE
  5
8A
330
1F
100
AcDbEntity
  8
VISIBLE
100
AcDbEllipse
 10
1.433255653681717
 20
3.455482756997657
 30
0.0
 11
0.0
 21
0.02209708691208023
 31
0.0
210
0.0
220
0.0
230
1.0
 40
0.7071067811865477
 41
0.0
 42
0.7853981633975067
  0
ELLIPSE
  5
8B
330
1F
100
AcDbEntity
  8
VISIBLE
100
AcDbEllipse
 10
8.089505653681718
 20
3.455482756997657
 30
0.0
 11
0.0
 21
0.02209708691208023
 31
0.0
210
0.0
220
0.0
230
1.0
 40
0.7071067811865276
 41
0.0
 42
0.7853981633975751
  0
LINE
  5
8C
330
1F
100
AcDbEntity
  8
VISIBLE
100
AcDbLine
 10
3.527005653681718
 20
3.471107756997657
 30
0.0
 11
3.538054197137758
 21
3.471107756997657
 31
0.0
  0
LINE
  5
8D
330
1F
100
AcDbEntity
  8
VISIBLE
100
AcDbLine
 10
5.859707110225678
 20
3.471107756997657
 30
0.0
 11
5.870755653681719
 21
3.471107756997657
 31
0.0
  0
LINE
  5
8E
330
1F
100
AcDbEntity
  8
VISIBLE
100
AcDbLine
 10
10.19430419713776
 20
3.455482756997657
 30
0.0
 11
10.30825565368172
 21
3.455482756997657
 31
0.0
  0
LINE
  5
8F
330
1F
100
AcDbEntity
  8
VISIBLE
100
AcDbLine
 10
8.089505653681718
 20
3.471107756997657
 30
0.0
 11
10.18325565368172
 21
3.471107756997657
 31
0.0
  0
LINE
  5
90
330
1F
100
AcDbEntity
  8
VISIBLE
100
AcDbLine
 10
1.433255653681717
 20
3.455482756997657
 30
0.0
 11
1.422207110225676
 21
3.455482756997657
 31
0.0
  0
ELLIPSE
  5
91
330
1F
100
AcDbEntity
  8
VISIBLE
100
AcDbEllipse
 10
5.745755653681718
 20
3.471107756997653
 30
0.0
 11
0.01443561769549007
 21
-0.01443561769548784
 31
0.0
210
0.0
220
0.0
230
1.0
 40
0.4142135623731786
 41
0.392699081698795
 42
1.178097245096189
  0
ELLIPSE
  5
92
330
1F
100
AcDbEntity
  8
VISIBLE
100
AcDbEllipse
 10
5.745755653681718
 20
3.471107756997653
 30
0.0
 11
0.01443561769549007
 21
-0.01443561769548784
 31
0.0
210
0.0
220
0.0
230
1.0
 40
0.4142135623731786
 41
-0.3926990816986198
 42
0.392699081698795
  0
LINE
  5
93
330
1F
100
AcDbEntity
  8
VISIBLE
100
AcDbLine
 10
8.089505653681718
 20
3.455482756997657
 30
0.0
 11
8.078457110225676
 21
3.455482756997657
 31
0.0
  0
LINE
  5
94
330
1F
100
AcDbEntity
  8
VISIBLE
100
AcDbLine
 10
7.975554197137759
 20
3.455482756997657
 30
0.0
 11
7.964505653681719
 21
3.455482756997657
 31
0.0
  0
LINE
  5
95
330
1F
100
AcDbEntity
  8
VISIBLE
100
AcDbLine
 10
7.964505653681719
 20
3.471107756997657
 30
0.0
 11
7.975554197137757
 21
3.471107756997657
 31
0.0
  0
LINE
  5
96
330
1F
100
AcDbEntity
  8
VISIBLE
100
AcDbLine
 10
3.527005653681718
 20
3.455482756997657
 30
0.0
 11
1.433255653681717
 21
3.455482756997657
 31
0.0
  0
LINE
  5
97
330
1F
100
AcDbEntity
  8
VISIBLE
100
AcDbLine
 10
5.870755653681719
 20
3.471107756997657
 30
0.0
 11
7.964505653681719
 21
3.471107756997657
 31
0.0
  0
CIRCLE
  5
98
330
1F
100
AcDbEntity
  8
VISIBLE
100
AcDbCircle
 10
9.308255653681718
 20
3.580482756997657
 30
0.0
 40
0.0625000000000018
  0
LINE
  5
99
330
1F
100
AcDbEntity
  8
VISIBLE
100
AcDbLine
 10
3.652005653681718
 20
3.477579843909738
 30
0.0
 11
5.745755653681718
 21
3.477579843909738
 31
0.0
  0
ELLIPSE
  5
9A
330
1F
100
AcDbEntity
  8
VISIBLE
100
AcDbEllipse
 10
3.652005653681718
 20
3.471107756997657
 30
0.0
 11
0.01443561769548918
 21
0.01443561769549007
 31
0.0
210
0.0
220
0.0
230
0.9999999999999998
 40
0.4142135623730672
 41
2.74889357189112
 42
3.534291735288512
  0
ELLIPSE
  5
9B
330
1F
100
AcDbEntity
  8
VISIBLE
100
AcDbEllipse
 10
3.652005653681718
 20
3.471107756997657
 30
0.0
 11
0.01443561769548918
 21
0.01443561769549007
 31
0.0
210
0.0
220
0.0
230
0.9999999999999998
 40
0.4142135623730672
 41
1.963495408493661
 42
2.74889357189112
  0
LINE
  5
9C
330
1F
100
AcDbEntity
  8
VISIBLE
100
AcDbLine
 10
1.308255653681717
 20
3.705482756997657
 30
0.0
 11
1.308255653681717
 21
3.471107756997657
 31
0.0
  0
ELLIPSE
  5
9D
330
1F
100
AcDbEntity
  8
VISIBLE
100
AcDbEllipse
 10
8.089505653681718
 20
3.471107756997655
 30
0.0
 11
0.01443561769549185
 21
0.01443561769549007
 31
0.0
210
0.0
220
0.0
230
1.0
 40
0.4142135623730289
 41
2.748893571891232
 42
3.534291735288753
  0
ELLIPSE
  5
9E
330
1F
100
AcDbEntity
  8
VISIBLE
100
AcDbEllipse
 10
8.089505653681718
 20
3.471107756997655
 30
0.0
 11
0.01443561769549185
 21
0.01443561769549007
 31
0.0
210
0.0
220
0.0
230
1.0
 40
0.4142135623730289
 41
1.963495408493608
 42
2.748893571891232
  0
ELLIPSE
  5
9F
330
1F
100
AcDbEntity
  8
VISIBLE
100
AcDbEllipse
 10
3.652005653681718
 20
3.455482756997657
 30
0.0
 11
0.0
 21
0.02209708691208023
 31
0.0
210
0.0
220
0.0
230
1.0
 40
0.7071067811865477
 41
0.0
 42
0.7853981633975067
  0
LINE
  5
A1
330
1F
100
AcDbEntity
  8
TANGENT EDGES
100
AcDbLine
 10
10.19430419713776
 20
3.471107756997657
 30
0.0
 11
10.30825565368172
 21
3.471107756997657
 31
0.0
  0
LINE
  5
A2
330
1F
100
AcDbEntity
  8
TANGENT EDGES
100
AcDbLine
 10
1.308255653681717
 20
3.471107756997657
 30
0.0
 11
1.422207110225676
 21
3.471107756997657
 31
0.0
  0
LINE
  5
A3
330
1F
100
AcDbEntity
  8
TANGENT EDGES
100
AcDbLine
 10
7.964505653681719
 20
3.455482756997655
 30
0.0
 11
7.964505653681719
 21
3.471107756997653
 31
0.0
  0
LINE
  5
A4
330
1F
100
AcDbEntity
  8
TANGENT EDGES
100
AcDbLine
 10
3.652005653681718
 20
3.455482756997655
 30
0.0
 11
3.652005653681718
 21
3.471107756997653
 31
0.0
  0
LINE
  5
A5
330
1F
100
AcDbEntity
  8
TANGENT EDGES
100
AcDbLine
 10
10.18325565368172
 20
3.455482756997655
 30
0.0
 11
10.18325565368172
 21
3.471107756997653
 31
0.0
  0
LINE
  5
A6
330
1F
100
AcDbEntity
  8
TANGENT EDGES
100
AcDbLine
 10
3.527005653681718
 20
3.455482756997655
 30
0.0
 11
3.527005653681718
 21
3.471107756997653
 31
0.0
  0
LINE
  5
A7
330
1F
100
AcDbEntity
  8
TANGENT EDGES
100
AcDbLine
 10
1.433255653681717
 20
3.455482756997655
 30
0.0
 11
1.433255653681717
 21
3.471107756997653
 31
0.0
  0
LINE
  5
A8
330
1F
100
AcDbEntity
  8
TANGENT EDGES
100
AcDbLine
 10
5.870755653681719
 20
3.455482756997655
 30
0.0
 11
5.870755653681719
 21
3.471107756997653
 31
0.0
  0
LINE
  5
A9
330
1F
100
AcDbEntity
  8
TANGENT EDGES
100
AcDbLine
 10
8.089505653681718
 20
3.455482756997655
 30
0.0
 11
8.089505653681718
 21
3.471107756997653
 31
0.0
  0
LINE
  5
AA
330
1F
100
AcDbEntity
  8
TANGENT EDGES
100
AcDbLine
 10
3.538054197137758
 20
3.471107756997657
 30
0.0
 11
3.640957110225676
 21
3.471107756997657
 31
0.0
  0
LINE
  5
AB
330
1F
100
AcDbEntity
  8
TANGENT EDGES
100
AcDbLine
 10
5.745755653681718
 20
3.455482756997655
 30
0.0
 11
5.745755653681718
 21
3.471107756997653
 31
0.0
  0
LINE
  5
AC
330
1F
100
AcDbEntity
  8
TANGENT EDGES
100
AcDbLine
 10
7.975554197137757
 20
3.471107756997657
 30
0.0
 11
8.078457110225676
 21
3.471107756997657
 31
0.0
  0
LINE
  5
AD
330
1F
100
AcDbEntity
  8
TANGENT EDGES
100
AcDbLine
 10
5.756804197137759
 20
3.471107756997657
 30
0.0
 11
5.859707110225678
 21
3.471107756997657
 31
0.0
  0
DIMENSION
  5
AF
330
1F
100
AcDbEntity
  8
DIMENSIONS
100
AcDbDimension
  2
D1
 10
0.0
 20
0.0
 30
0.0
 11
3.116511307363434
 21
7.444510486182266
 31
0.0
 70
    32
  1
<>
 71
     5
 42
-1.0
  3
Standard
100
AcDbAlignedDimension
 13
1.308255653681717
 23
3.705482756997657
 33
0.0
 14
2.308255653681717
 24
3.580482756997657
 34
0.0
100
AcDbRotatedDimension
1001
ACAD
1000
DSTYLE
1002
{
1070
    76
1070
     0
1070
    75
1070
     0
1070
   282
1070
     0
1070
   281
1070
     0
1070
    77
1070
     0
1070
    79
1070
     0
1070
    78
1070
     0
1070
   272
1070
     2
1070
   271
1070
     2
1070
   179
1070
     2
1070
   140
1040
0.0895833333333333
1070
    71
1070
     0
1070
    72
1070
     0
1070
    48
1040
0.0000787401574803
1070
    47
1040
0.0001968503937008
1002
}
  0
DIMENSION
  5
BC
330
1F
100
AcDbEntity
  8
DIMENSIONS
100
AcDbDimension
  2
D2
 10
0.0
 20
0.0
 30
0.0
 11
6.975429985466905
 21
7.426861353746549
 31
0.0
 70
    32
  1
<>
 71
     5
 42
-1.0
  3
Standard
100
AcDbAlignedDimension
 13
4.808255653681718
 23
3.580482756997657
 33
0.0
 14
6.808255653681718
 24
3.580482756997657
 34
0.0
100
AcDbRotatedDimension
1001
ACAD
1000
DSTYLE
1002
{
1070
    76
1070
     0
1070
    75
1070
     0
1070
   282
1070
     0
1070
   281
1070
     0
1070
    77
1070
     0
1070
    79
1070
     0
1070
    78
1070
     0
1070
   272
1070
     2
1070
   271
1070
     2
1070
   179
1070
     2
1070
   140
1040
0.0895833333333333
1070
    71
1070
     0
1070
    72
1070
     0
1070
    48
1040
0.0000787401574803
1070
    47
1040
0.0001968503937008
1002
}
  0
DIMENSION
  5
C9
330
1F
100
AcDbEntity
  8
DIMENSIONS
100
AcDbDimension
  2
D3
 10
0.0
 20
0.0
 30
0.0
 11
4.742817135307733
 21
7.365089690591407
 31
0.0
 70
    32
  1
<>
 71
     5
 42
-1.0
  3
Standard
100
AcDbAlignedDimension
 13
2.308255653681717
 23
3.580482756997657
 33
0.0
 14
4.808255653681718
 24
3.580482756997657
 34
0.0
100
AcDbRotatedDimension
1001
ACAD
1000
DSTYLE
1002
{
1070
    76
1070
     0
1070
    75
1070
     0
1070
   282
1070
     0
1070
   281
1070
     0
1070
    77
1070
     0
1070
    79
1070
     0
1070
    78
1070
     0
1070
   272
1070
     2
1070
   271
1070
     2
1070
   179
1070
     2
1070
   140
1040
0.0895833333333333
1070
    71
1070
     0
1070
    72
1070
     0
1070
    48
1040
0.0000787401574803
1070
    47
1040
0.0001968503937008
1002
}
  0
DIMENSION
  5
D6
330
1F
100
AcDbEntity
  8
DIMENSIONS
100
AcDbDimension
  2
D4
 10
0.0
 20
0.0
 30
0.0
 11
9.50807898814284
 21
7.382738823027124
 31
0.0
 70
    32
  1
<>
 71
     5
 42
-1.0
  3
Standard
100
AcDbAlignedDimension
 13
6.808255653681718
 23
3.580482756997657
 33
0.0
 14
9.308255653681718
 24
3.580482756997657
 34
0.0
100
AcDbRotatedDimension
1001
ACAD
1000
DSTYLE
1002
{
1070
    76
1070
     0
1070
    75
1070
     0
1070
   282
1070
     0
1070
   281
1070
     0
1070
    77
1070
     0
1070
    79
1070
     0
1070
    78
1070
     0
1070
   272
1070
     2
1070
   271
1070
     2
1070
   179
1070
     2
1070
   140
1040
0.0895833333333333
1070
    71
1070
     0
1070
    72
1070
     0
1070
    48
1040
0.0000787401574803
1070
    47
1040
0.0001968503937008
1002
}
  0
DIMENSION
  5
E3
330
1F
100
AcDbEntity
  8
DIMENSIONS
100
AcDbDimension
  2
D5
 10
0.0
 20
0.0
 30
0.0
 11
11.11651130736344
 21
7.462159618617981
 31
0.0
 70
    32
  1
<>
 71
     5
 42
-1.0
 53
180.0
  3
Standard
100
AcDbAlignedDimension
 13
9.308255653681718
 23
3.580482756997657
 33
0.0
 14
10.30825565368172
 24
3.705482756997657
 34
0.0
 50
180.0
100
AcDbRotatedDimension
1001
ACAD
1000
DSTYLE
1002
{
1070
    76
1070
     0
1070
    75
1070
     0
1070
   282
1070
     0
1070
   281
1070
     0
1070
    77
1070
     0
1070
    79
1070
     0
1070
    78
1070
     0
1070
   272
1070
     2
1070
   271
1070
     2
1070
   179
1070
     2
1070
   140
1040
0.0895833333333333
1070
    71
1070
     0
1070
    72
1070
     0
1070
    48
1040
0.0000787401574803
1070
    47
1040
0.0001968503937008
1002
}
  0
DIMENSION
  5
F0
330
1F
100
AcDbEntity
  8
DIMENSIONS
100
AcDbDimension
  2
D6
 10
2.264887179184564
 20
3.625487483635975
 30
0.0
 11
4.866935970276359
 21
6.546567094607616
 31
0.0
 70
    35
  1
<>TYP 4 PL\P
 71
     5
 42
-1.0
  3
Standard
100
AcDbDiametricDimension
 15
2.35162412817887
 25
3.535478030359338
 35
0.0
 40
0.0
1001
ACAD
1000
DSTYLE
1002
{
1070
    76
1070
     0
1070
    75
1070
     0
1070
   282
1070
     0
1070
   281
1070
     0
1070
    77
1070
     0
1070
    79
1070
     0
1070
    78
1070
     0
1070
   272
1070
     2
1070
   271
1070
     2
1070
   179
1070
     2
1070
   140
1040
0.0895833333333333
1070
    71
1070
     0
1070
    72
1070
     0
1070
    48
1040
0.25
1070
    47
1040
0.0001968503937008
1002
}
  0
MTEXT
  5
103
330
1F
100
AcDbEntity
  8
BEND CENTERS
100
AcDbMText
 10
7.133056160033219
 20
2.423108805258443
 30
0.0
 40
0.1393518518518518
 41
0.0
 71
     1
 72
     1
  1
{\fArial|b0|i0|c0|p0;\C7;MAT'L: 1/8 THK H.R. STEEL}{\fArial|b0|i0|c0|p0;\C7;\H0.642857134x;}
 73
     1
 44
1.0
  0
ELLIPSE
  5
104
330
1F
100
AcDbEntity
  8
VISIBLE
100
AcDbEllipse
 10
3.527005653681718
 20
4.963295333967433
 30
0.0
 11
0.0
 21
-0.02209708691207979
 31
0.0
210
0.0
220
0.0
230
1.0
 40
0.7071067811865619
 41
-3.926990816987275
 42
-3.141592653589793
  0
LINE
  5
105
330
1F
100
AcDbEntity
  8
VISIBLE
100
AcDbLine
 10
10.30825565368172
 20
4.978920333967435
 30
0.0
 11
10.30825565368172
 21
5.697670333967434
 31
0.0
  0
LINE
  5
106
330
1F
100
AcDbEntity
  8
VISIBLE
100
AcDbLine
 10
1.308255653681717
 20
5.697670333967435
 30
0.0
 11
10.30825565368172
 21
5.697670333967434
 31
0.0
  0
ELLIPSE
  5
107
330
1F
100
AcDbEntity
  8
VISIBLE
100
AcDbEllipse
 10
10.18325565368172
 20
4.963295333967433
 30
0.0
 11
0.0
 21
-0.02209708691208068
 31
0.0
210
0.0
220
0.0
230
1.0
 40
0.7071067811865938
 41
-3.926990816987184
 42
-3.141592653589793
  0
ELLIPSE
  5
108
330
1F
100
AcDbEntity
  8
VISIBLE
100
AcDbEllipse
 10
3.652005653681718
 20
4.978920333967433
 30
0.0
 11
0.0
 21
-0.02209708691208068
 31
0.0
210
0.0
220
0.0
230
1.0
 40
0.7071067811865335
 41
-3.141592653589793
 42
-1.570796326794977
  0
ELLIPSE
  5
109
330
1F
100
AcDbEntity
  8
VISIBLE
100
AcDbEllipse
 10
8.089505653681718
 20
4.978920333967433
 30
0.0
 11
0.0
 21
-0.02209708691208068
 31
0.0
210
0.0
220
0.0
230
1.0
 40
0.7071067811865938
 41
-3.141592653589793
 42
-1.570796326794937
  0
LINE
  5
10A
330
1F
100
AcDbEntity
  8
VISIBLE
100
AcDbLine
 10
5.745755653681718
 20
4.985392420879515
 30
0.0
 11
3.652005653681718
 21
4.985392420879515
 31
0.0
  0
LINE
  5
10B
330
1F
100
AcDbEntity
  8
VISIBLE
100
AcDbLine
 10
1.308255653681717
 20
4.978920333967435
 30
0.0
 11
1.308255653681717
 21
4.963295333967435
 31
0.0
  0
ELLIPSE
  5
10C
330
1F
100
AcDbEntity
  8
VISIBLE
100
AcDbEllipse
 10
10.18325565368172
 20
4.978920333967433
 30
0.0
 11
0.0
 21
-0.02209708691208068
 31
0.0
210
0.0
220
0.0
230
1.0
 40
0.7071067811865938
 41
-4.712388980384649
 42
-3.141592653589793
  0
LINE
  5
10D
330
1F
100
AcDbEntity
  8
VISIBLE
100
AcDbLine
 10
3.652005653681718
 20
5.001017420879514
 30
0.0
 11
5.745755653681718
 21
5.001017420879514
 31
0.0
  0
LINE
  5
10E
330
1F
100
AcDbEntity
  8
VISIBLE
100
AcDbLine
 10
10.18325565368172
 20
4.985392420879515
 30
0.0
 11
8.089505653681718
 21
4.985392420879515
 31
0.0
  0
ELLIPSE
  5
10F
330
1F
100
AcDbEntity
  8
VISIBLE
100
AcDbEllipse
 10
5.745755653681718
 20
4.978920333967433
 30
0.0
 11
0.0
 21
-0.02209708691208068
 31
0.0
210
0.0
220
0.0
230
1.0
 40
0.7071067811865938
 41
-4.712388980384649
 42
-3.141592653589793
  0
LINE
  5
110
330
1F
100
AcDbEntity
  8
VISIBLE
100
AcDbLine
 10
1.308255653681717
 20
5.697670333967435
 30
0.0
 11
1.308255653681717
 21
4.978920333967435
 31
0.0
  0
LINE
  5
111
330
1F
100
AcDbEntity
  8
VISIBLE
100
AcDbLine
 10
1.308255653681717
 20
4.963295333967435
 30
0.0
 11
10.30825565368172
 21
4.963295333967434
 31
0.0
  0
LINE
  5
112
330
1F
100
AcDbEntity
  8
VISIBLE
100
AcDbLine
 10
7.964505653681719
 20
4.985392420879515
 30
0.0
 11
5.870755653681719
 21
4.985392420879515
 31
0.0
  0
LINE
  5
113
330
1F
100
AcDbEntity
  8
VISIBLE
100
AcDbLine
 10
10.30825565368172
 20
4.963295333967434
 30
0.0
 11
10.30825565368172
 21
4.978920333967434
 31
0.0
  0
LINE
  5
114
330
1F
100
AcDbEntity
  8
VISIBLE
100
AcDbLine
 10
1.433255653681717
 20
5.001017420879514
 30
0.0
 11
3.527005653681718
 21
5.001017420879514
 31
0.0
  0
LINE
  5
115
330
1F
100
AcDbEntity
  8
VISIBLE
100
AcDbLine
 10
1.308255653681717
 20
4.978920333967435
 30
0.0
 11
10.30825565368172
 21
4.978920333967434
 31
0.0
  0
ELLIPSE
  5
116
330
1F
100
AcDbEntity
  8
VISIBLE
100
AcDbEllipse
 10
5.745755653681718
 20
4.963295333967433
 30
0.0
 11
0.0
 21
-0.02209708691208068
 31
0.0
210
0.0
220
0.0
230
1.0
 40
0.7071067811865938
 41
-3.926990816987293
 42
-3.141592653589793
  0
ELLIPSE
  5
117
330
1F
100
AcDbEntity
  8
VISIBLE
100
AcDbEllipse
 10
5.870755653681719
 20
4.963295333967433
 30
0.0
 11
0.0
 21
-0.02209708691208068
 31
0.0
210
0.0
220
0.0
230
1.0
 40
0.7071067811865134
 41
-3.141592653589793
 42
-2.356194490192208
  0
ELLIPSE
  5
118
330
1F
100
AcDbEntity
  8
VISIBLE
100
AcDbEllipse
 10
1.433255653681717
 20
4.978920333967433
 30
0.0
 11
0.0
 21
-0.02209708691208068
 31
0.0
210
0.0
220
0.0
230
1.0
 40
0.7071067811865436
 41
-3.141592653589793
 42
-1.570796326794977
  0
ELLIPSE
  5
119
330
1F
100
AcDbEntity
  8
VISIBLE
100
AcDbEllipse
 10
3.652005653681718
 20
4.963295333967433
 30
0.0
 11
0.0
 21
-0.02209708691207979
 31
0.0
210
0.0
220
0.0
230
1.0
 40
0.7071067811865619
 41
-3.141592653589793
 42
-2.356194490192311
  0
ELLIPSE
  5
11A
330
1F
100
AcDbEntity
  8
VISIBLE
100
AcDbEllipse
 10
3.527005653681718
 20
4.978920333967433
 30
0.0
 11
0.0
 21
-0.02209708691208068
 31
0.0
210
0.0
220
0.0
230
1.0
 40
0.7071067811865335
 41
-4.712388980384609
 42
-3.141592653589793
  0
ELLIPSE
  5
11B
330
1F
100
AcDbEntity
  8
VISIBLE
100
AcDbEllipse
 10
5.870755653681719
 20
4.978920333967433
 30
0.0
 11
0.0
 21
-0.02209708691208068
 31
0.0
210
0.0
220
0.0
230
1.0
 40
0.7071067811865134
 41
-3.141592653589793
 42
-1.570796326794937
  0
LINE
  5
11C
330
1F
100
AcDbEntity
  8
VISIBLE
100
AcDbLine
 10
8.089505653681718
 20
5.001017420879514
 30
0.0
 11
10.18325565368172
 21
5.001017420879514
 31
0.0
  0
ELLIPSE
  5
11D
330
1F
100
AcDbEntity
  8
VISIBLE
100
AcDbEllipse
 10
1.433255653681717
 20
4.963295333967433
 30
0.0
 11
0.0
 21
-0.02209708691207979
 31
0.0
210
0.0
220
0.0
230
1.0
 40
0.707106781186572
 41
-3.141592653589793
 42
-2.356194490192318
  0
ELLIPSE
  5
11E
330
1F
100
AcDbEntity
  8
VISIBLE
100
AcDbEllipse
 10
8.089505653681718
 20
4.963295333967433
 30
0.0
 11
0.0
 21
-0.02209708691208068
 31
0.0
210
0.0
220
0.0
230
1.0
 40
0.7071067811865938
 41
-3.141592653589793
 42
-2.356194490192265
  0
ELLIPSE
  5
11F
330
1F
100
AcDbEntity
  8
VISIBLE
100
AcDbEllipse
 10
7.964505653681719
 20
4.963295333967433
 30
0.0
 11
0.0
 21
-0.02209708691208068
 31
0.0
210
0.0
220
0.0
230
1.0
 40
0.7071067811865134
 41
-3.926990816987241
 42
-3.141592653589793
  0
ELLIPSE
  5
120
330
1F
100
AcDbEntity
  8
VISIBLE
100
AcDbEllipse
 10
7.964505653681719
 20
4.978920333967433
 30
0.0
 11
0.0
 21
-0.02209708691208068
 31
0.0
210
0.0
220
0.0
230
1.0
 40
0.7071067811865134
 41
-4.712388980384649
 42
-3.141592653589793
  0
LINE
  5
121
330
1F
100
AcDbEntity
  8
VISIBLE
100
AcDbLine
 10
3.527005653681718
 20
4.985392420879515
 30
0.0
 11
1.433255653681717
 21
4.985392420879515
 31
0.0
  0
LINE
  5
122
330
1F
100
AcDbEntity
  8
VISIBLE
100
AcDbLine
 10
5.870755653681719
 20
5.001017420879514
 30
0.0
 11
7.964505653681719
 21
5.001017420879514
 31
0.0
  0
LINE
  5
123
330
1F
100
AcDbEntity
  8
TANGENT EDGES
100
AcDbLine
 10
7.964505653681719
 20
4.985392420879512
 30
0.0
 11
7.964505653681719
 21
5.00101742087951
 31
0.0
  0
LINE
  5
124
330
1F
100
AcDbEntity
  8
TANGENT EDGES
100
AcDbLine
 10
3.652005653681718
 20
4.985392420879512
 30
0.0
 11
3.652005653681718
 21
5.001017420879511
 31
0.0
  0
LINE
  5
125
330
1F
100
AcDbEntity
  8
TANGENT EDGES
100
AcDbLine
 10
10.18325565368172
 20
4.985392420879512
 30
0.0
 11
10.18325565368172
 21
5.00101742087951
 31
0.0
  0
LINE
  5
126
330
1F
100
AcDbEntity
  8
TANGENT EDGES
100
AcDbLine
 10
3.527005653681718
 20
4.985392420879512
 30
0.0
 11
3.527005653681718
 21
5.001017420879511
 31
0.0
  0
LINE
  5
127
330
1F
100
AcDbEntity
  8
TANGENT EDGES
100
AcDbLine
 10
1.433255653681717
 20
4.985392420879513
 30
0.0
 11
1.433255653681717
 21
5.001017420879511
 31
0.0
  0
LINE
  5
128
330
1F
100
AcDbEntity
  8
TANGENT EDGES
100
AcDbLine
 10
5.870755653681719
 20
4.985392420879512
 30
0.0
 11
5.870755653681719
 21
5.00101742087951
 31
0.0
  0
LINE
  5
129
330
1F
100
AcDbEntity
  8
TANGENT EDGES
100
AcDbLine
 10
8.089505653681718
 20
4.985392420879512
 30
0.0
 11
8.089505653681718
 21
5.00101742087951
 31
0.0
  0
LINE
  5
12A
330
1F
100
AcDbEntity
  8
TANGENT EDGES
100
AcDbLine
 10
5.745755653681718
 20
4.985392420879512
 30
0.0
 11
5.745755653681718
 21
5.00101742087951
 31
0.0
  0
DIMENSION
  5
12B
330
1F
100
AcDbEntity
  8
DIMENSIONS
100
AcDbDimension
  2
D7
 10
0.0
 20
0.0
 30
0.0
 11
7.207328736312745
 21
9.327598562390788
 31
0.0
 70
    32
  1
<>
 71
     5
 42
-1.0
  3
Standard
100
AcDbAlignedDimension
 13
1.308255653681717
 23
4.978920333967435
 33
0.0
 14
10.30825565368172
 24
4.978920333967435
 34
0.0
100
AcDbRotatedDimension
1001
ACAD
1000
DSTYLE
1002
{
1070
    76
1070
     0
1070
    75
1070
     0
1070
   282
1070
     0
1070
   281
1070
     0
1070
    77
1070
     0
1070
    79
1070
     0
1070
    78
1070
     0
1070
   272
1070
     2
1070
   271
1070
     2
1070
   179
1070
     2
1070
   140
1040
0.0895833333333333
1070
    71
1070
     0
1070
    72
1070
     0
1070
    48
1040
0.0000787401574803
1070
    47
1040
0.0001968503937008
1002
}
  0
DIMENSION
  5
138
330
1F
100
AcDbEntity
  8
DIMENSIONS
100
AcDbDimension
  2
D8
 10
0.0
 20
0.0
 30
0.0
 11
11.98176538662648
 21
10.29377816793487
 31
0.0
 70
    32
  1
<>
 71
     5
 42
-1.0
 53
90.0
  3
Standard
100
AcDbAlignedDimension
 13
10.30825565368172
 23
5.697670333967434
 33
0.0
 14
10.30825565368172
 24
4.963295333967434
 34
0.0
 50
90.0
100
AcDbRotatedDimension
1001
ACAD
1000
DSTYLE
1002
{
1070
    76
1070
     0
1070
    75
1070
     0
1070
   282
1070
     0
1070
   281
1070
     0
1070
    77
1070
     0
1070
    79
1070
     0
1070
    78
1070
     0
1070
   272
1070
     2
1070
   271
1070
     2
1070
   179
1070
     2
1070
   140
1040
0.0895833333333333
1070
    71
1070
     0
1070
    72
1070
     0
1070
    48
1040
0.0000787401574803
1070
    47
1040
0.0001968503937008
1002
}
  0
LINE
  5
145
330
1F
100
AcDbEntity
  8
VISIBLE
100
AcDbLine
 10
11.96021889513872
 20
3.471107756997657
 30
0.0
 11
11.96021889513872
 21
3.455482756997657
 31
0.0
  0
LINE
  5
146
330
1F
100
AcDbEntity
  8
VISIBLE
100
AcDbLine
 10
11.24146889513872
 20
3.471107756997657
 30
0.0
 11
11.96021889513872
 21
3.471107756997657
 31
0.0
  0
LINE
  5
147
330
1F
100
AcDbEntity
  8
VISIBLE
100
AcDbLine
 10
11.96021889513872
 20
3.455482756997657
 30
0.0
 11
11.24146889513872
 21
3.455482756997657
 31
0.0
  0
ARC
  5
148
330
1F
100
AcDbEntity
  8
VISIBLE
100
AcDbCircle
 10
11.24146889513872
 20
3.471107756997657
 30
0.0
 40
0.015625
100
AcDbArc
 50
180.0
 51
270.0
  0
LINE
  5
149
330
1F
100
AcDbEntity
  8
VISIBLE
100
AcDbLine
 10
11.22584389513872
 20
3.705482756997657
 30
0.0
 11
11.24146889513872
 21
3.705482756997657
 31
0.0
  0
LINE
  5
14A
330
1F
100
AcDbEntity
  8
VISIBLE
100
AcDbLine
 10
11.22584389513872
 20
3.471107756997657
 30
0.0
 11
11.22584389513872
 21
3.705482756997657
 31
0.0
  0
LINE
  5
14B
330
1F
100
AcDbEntity
  8
VISIBLE
100
AcDbLine
 10
11.24146889513872
 20
3.705482756997657
 30
0.0
 11
11.24146889513872
 21
3.471107756997657
 31
0.0
  0
DIMENSION
  5
14C
330
1F
100
AcDbEntity
  8
DIMENSIONS
100
AcDbDimension
  2
D9
 10
0.0
 20
0.0
 30
0.0
 11
21.59798173078402
 21
6.696478783614992
 31
0.0
 70
    32
  1
<>
 71
     5
 42
-1.0
 53
270.0
  3
Standard
100
AcDbAlignedDimension
 13
11.22584389513872
 23
3.705482756997657
 33
0.0
 14
11.24146889513872
 24
3.455482756997657
 34
0.0
 50
270.0
100
AcDbRotatedDimension
1001
ACAD
1000
DSTYLE
1002
{
1070
    76
1070
     0
1070
    75
1070
     0
1070
   282
1070
     0
1070
   281
1070
     0
1070
    77
1070
     0
1070
    79
1070
     0
1070
    78
1070
     0
1070
   272
1070
     2
1070
   271
1070
     2
1070
   179
1070
     2
1070
   140
1040
0.0895833333333333
1070
    71
1070
     0
1070
    72
1070
     0
1070
    48
1040
0.0000787401574803
1070
    47
1040
0.0001968503937008
1002
}
  0
LINE
  5
15A
330
1F
100
AcDbEntity
  8
VISIBLE
100
AcDbLine
 10
14.65536063664252
 20
5.012825432071706
 30
0.0
 11
14.65536063664252
 21
5.000067672994708
 31
0.0
  0
LINE
  5
15B
330
1F
100
AcDbEntity
  8
VISIBLE
100
AcDbLine
 10
14.14712763766469
 20
4.719396973300803
 30
0.0
 11
14.65536063664252
 21
5.012825432071706
 31
0.0
  0
LINE
  5
15C
330
1F
100
AcDbEntity
  8
VISIBLE
100
AcDbLine
 10
8.291399605963594
 20
8.687060046246474
 30
0.0
 11
14.65536063664252
 21
5.012825432071706
 31
0.0
  0
LINE
  5
15D
330
1F
100
AcDbEntity
  8
VISIBLE
100
AcDbLine
 10
14.65536063664252
 20
5.000067672994708
 30
0.0
 11
14.14712763766469
 21
4.706639214223808
 31
0.0
  0
LINE
  5
15E
330
1F
100
AcDbEntity
  8
VISIBLE
100
AcDbLine
 10
7.783166606985763
 20
8.584997973630509
 30
0.0
 11
7.772118063529724
 21
8.57861909409201
 31
0.0
  0
ELLIPSE
  5
15F
330
1F
100
AcDbEntity
  8
VISIBLE
100
AcDbEllipse
 10
14.14712763766469
 20
4.719396973300803
 30
0.0
 11
0.0078125
 21
0.01353164693413156
 31
0.0
210
0.0
220
0.0
230
0.9999999999999999
 40
0.5773502691898953
 41
3.141592653589793
 42
3.926990816987018
  0
ELLIPSE
  5
160
330
1F
100
AcDbEntity
  8
VISIBLE
100
AcDbEllipse
 10
14.14712763766469
 20
4.719396973300803
 30
0.0
 11
0.0078125
 21
0.01353164693413156
 31
0.0
210
0.0
220
0.0
230
0.9999999999999999
 40
0.5773502691898953
 41
2.35619449019257
 42
3.141592653589793
  0
ELLIPSE
  5
161
330
1F
100
AcDbEntity
  8
VISIBLE
100
AcDbEllipse
 10
10.24699179768264
 20
7.047688004852523
 30
0.0
 11
0.03125
 21
-0.05412658773652712
 31
0.0
210
0.0
220
0.0
230
0.9999999999999998
 40
0.5773502691896273
 41
0.0
 42
2.356194490192344
  0
ELLIPSE
  5
162
330
1F
100
AcDbEntity
  8
VISIBLE
100
AcDbEllipse
 10
10.24699179768264
 20
7.047688004852523
 30
0.0
 11
0.03125
 21
-0.05412658773652712
 31
0.0
210
0.0
220
0.0
230
0.9999999999999998
 40
0.5773502691896273
 41
-3.141592653589805
 42
0.0
  0
ELLIPSE
  5
163
330
1F
100
AcDbEntity
  8
VISIBLE
100
AcDbEllipse
 10
10.24699179768264
 20
7.047688004852523
 30
0.0
 11
0.03125
 21
-0.05412658773652712
 31
0.0
210
0.0
220
0.0
230
0.9999999999999998
 40
0.5773502691896273
 41
-3.926990816987242
 42
-3.141592653589805
  0
LINE
  5
164
330
1F
100
AcDbEntity
  8
VISIBLE
100
AcDbLine
 10
7.860506411178042
 20
8.341506108464273
 30
0.0
 11
9.341011234287375
 21
7.486736250305559
 31
0.0
  0
ELLIPSE
  5
165
330
1F
100
AcDbEntity
  8
VISIBLE
100
AcDbEllipse
 10
11.66120536005574
 20
6.231191423924797
 30
0.0
 11
0.03125
 21
-0.05412658773652712
 31
0.0
210
0.0
220
0.0
230
0.9999999999999998
 40
0.5773502691896273
 41
0.0
 42
2.356194490192344
  0
ELLIPSE
  5
166
330
1F
100
AcDbEntity
  8
VISIBLE
100
AcDbEllipse
 10
11.66120536005574
 20
6.231191423924797
 30
0.0
 11
0.03125
 21
-0.05412658773652712
 31
0.0
210
0.0
220
0.0
230
0.9999999999999998
 40
0.5773502691896273
 41
-3.141592653589793
 42
0.0
  0
ELLIPSE
  5
167
330
1F
100
AcDbEntity
  8
VISIBLE
100
AcDbEllipse
 10
11.66120536005574
 20
6.231191423924797
 30
0.0
 11
0.03125
 21
-0.05412658773652712
 31
0.0
210
0.0
220
0.0
230
0.9999999999999998
 40
0.5773502691896273
 41
-3.926990816987242
 42
-3.141592653589793
  0
ELLIPSE
  5
168
330
1F
100
AcDbEntity
  8
VISIBLE
100
AcDbEllipse
 10
11.00934129614939
 20
6.530998762234195
 30
0.0
 11
0.02034141201372996
 21
0.005450464921988642
 31
0.0
210
0.0
220
0.0
230
1.0
 40
0.3178372451958136
 41
3.449332507924941
 42
4.234730671322436
  0
ELLIPSE
  5
169
330
1F
100
AcDbEntity
  8
VISIBLE
100
AcDbEllipse
 10
11.00934129614939
 20
6.530998762234195
 30
0.0
 11
0.02034141201372996
 21
0.005450464921988642
 31
0.0
210
0.0
220
0.0
230
1.0
 40
0.3178372451958136
 41
2.833852799254752
 42
3.449332507924941
  0
ELLIPSE
  5
16A
330
1F
100
AcDbEntity
  8
VISIBLE
100
AcDbEllipse
 10
11.00934129614939
 20
6.530998762234195
 30
0.0
 11
0.02034141201372996
 21
0.005450464921988642
 31
0.0
210
0.0
220
0.0
230
1.0
 40
0.3178372451958136
 41
2.663934344527645
 42
2.833852799254752
  0
ELLIPSE
  5
16B
330
1F
100
AcDbEntity
  8
VISIBLE
100
AcDbEllipse
 10
9.352059777743413
 20
7.487830693008872
 30
0.0
 11
0.005450464921988641
 21
-0.0203414120137273
 31
0.0
210
0.0
220
0.0
230
1.0
 40
0.3178372451957601
 41
-1.093138017732786
 42
-0.3077398543351447
  0
LINE
  5
16C
330
1F
100
AcDbEntity
  8
VISIBLE
100
AcDbLine
 10
12.567185923451
 20
5.624103425064183
 30
0.0
 11
14.04769074656033
 21
4.76933356690547
 31
0.0
  0
LINE
  5
16D
330
1F
100
AcDbEntity
  8
VISIBLE
100
AcDbLine
 10
8.291399605963594
 20
8.687060046246474
 30
0.0
 11
7.94889475882636
 21
8.489314780553041
 31
0.0
  0
ELLIPSE
  5
16E
330
1F
100
AcDbEntity
  8
VISIBLE
100
AcDbEllipse
 10
11.67225390351177
 20
6.237570303463295
 30
0.0
 11
0.03125
 21
-0.05412658773652801
 31
0.0
210
0.0
220
0.0
230
1.0
 40
0.5773502691896202
 41
-2.963882052744703
 42
-0.1777106008450779
  0
LINE
  5
16F
330
1F
100
AcDbEntity
  8
VISIBLE
100
AcDbLine
 10
7.772118063529724
 20
8.57861909409201
 30
0.0
 11
14.13607909420865
 21
4.90438447991724
 31
0.0
  0
ELLIPSE
  5
170
330
1F
100
AcDbEntity
  8
VISIBLE
100
AcDbEllipse
 10
10.99829275269335
 20
6.511862123618703
 30
0.0
 11
-0.005079024744873095
 21
0.01895517840076533
 31
0.0
210
0.0
220
0.0
230
1.0
 40
0.5176380902050557
 41
-0.4776583090622567
 42
0.3077398543351676
  0
ELLIPSE
  5
171
330
1F
100
AcDbEntity
  8
VISIBLE
100
AcDbEllipse
 10
14.04769074656033
 20
4.751291370993291
 30
0.0
 11
-0.005079024744876648
 21
0.01895517840076621
 31
0.0
210
0.0
220
0.0
230
1.0
 40
0.5176380902051197
 41
-1.263056472459678
 42
-0.4776583090624728
  0
ELLIPSE
  5
172
330
1F
100
AcDbEntity
  8
VISIBLE
100
AcDbEllipse
 10
10.90990440504503
 20
6.562893159926685
 30
0.0
 11
-0.005079024744874872
 21
0.01895517840076622
 31
0.0
210
0.0
220
0.0
230
1.0
 40
0.51763809020512
 41
-1.263056472459725
 42
-0.4776583090623296
  0
ELLIPSE
  5
173
330
1F
100
AcDbEntity
  8
VISIBLE
100
AcDbEllipse
 10
14.05873929001637
 20
4.770428009608784
 30
0.0
 11
0.00545046492198864
 21
-0.02034141201372552
 31
0.0
210
0.0
220
0.0
230
1.0
 40
0.3178372451957045
 41
-1.093138017732917
 42
-0.3077398543352567
  0
ELLIPSE
  5
174
330
1F
100
AcDbEntity
  8
VISIBLE
100
AcDbEllipse
 10
7.87155495463408
 20
8.342600551167585
 30
0.0
 11
0.02034141201372908
 21
0.005450464921988639
 31
0.0
210
0.0
220
0.0
230
1.0
 40
0.3178372451958265
 41
3.44933250792478
 42
4.234730671322309
  0
ELLIPSE
  5
175
330
1F
100
AcDbEntity
  8
VISIBLE
100
AcDbEllipse
 10
7.87155495463408
 20
8.342600551167585
 30
0.0
 11
0.02034141201372908
 21
0.005450464921988639
 31
0.0
210
0.0
220
0.0
230
1.0
 40
0.3178372451958265
 41
2.833852799254461
 42
3.44933250792478
  0
ELLIPSE
  5
176
330
1F
100
AcDbEntity
  8
VISIBLE
100
AcDbEllipse
 10
7.87155495463408
 20
8.342600551167585
 30
0.0
 11
0.02034141201372908
 21
0.005450464921988639
 31
0.0
210
0.0
220
0.0
230
1.0
 40
0.3178372451958265
 41
2.663934344527409
 42
2.833852799254461
  0
ELLIPSE
  5
177
330
1F
100
AcDbEntity
  8
VISIBLE
100
AcDbEllipse
 10
12.47879757580268
 20
5.657092265459989
 30
0.0
 11
-0.005079024744873095
 21
0.01895517840076621
 31
0.0
210
0.0
220
0.0
230
1.0
 40
0.5176380902049339
 41
-1.263056472459738
 42
-0.4776583090623336
  0
ELLIPSE
  5
178
330
1F
100
AcDbEntity
  8
VISIBLE
100
AcDbEllipse
 10
8.47922484471627
 20
8.06830873101218
 30
0.0
 11
0.03125
 21
-0.05412658773652623
 31
0.0
210
0.0
220
0.0
230
0.9999999999999999
 40
0.5773502691896415
 41
0.0
 42
2.356194490192348
  0
ELLIPSE
  5
179
330
1F
100
AcDbEntity
  8
VISIBLE
100
AcDbEllipse
 10
8.47922484471627
 20
8.06830873101218
 30
0.0
 11
0.03125
 21
-0.05412658773652623
 31
0.0
210
0.0
220
0.0
230
0.9999999999999999
 40
0.5773502691896415
 41
-3.141592653589818
 42
0.0
  0
ELLIPSE
  5
17A
330
1F
100
AcDbEntity
  8
VISIBLE
100
AcDbEllipse
 10
8.47922484471627
 20
8.06830873101218
 30
0.0
 11
0.03125
 21
-0.05412658773652623
 31
0.0
210
0.0
220
0.0
230
0.9999999999999999
 40
0.5773502691896415
 41
-3.926990816987238
 42
-3.141592653589818
  0
LINE
  5
17B
330
1F
100
AcDbEntity
  8
VISIBLE
100
AcDbLine
 10
14.13607909420865
 20
4.90438447991724
 30
0.0
 11
14.14712763766469
 21
4.910763359455739
 31
0.0
  0
ELLIPSE
  5
17C
330
1F
100
AcDbEntity
  8
VISIBLE
100
AcDbEllipse
 10
8.49027338817231
 20
8.07468761055068
 30
0.0
 11
0.03125
 21
-0.05412658773652801
 31
0.0
210
0.0
220
0.0
230
1.0
 40
0.5773502691896131
 41
-2.963882052744676
 42
-0.1777106008451041
  0
ELLIPSE
  5
17D
330
1F
100
AcDbEntity
  8
VISIBLE
100
AcDbEllipse
 10
12.48984611925872
 20
5.676228904075481
 30
0.0
 11
0.00545046492198864
 21
-0.02034141201372641
 31
0.0
210
0.0
220
0.0
230
1.0
 40
0.317837245195773
 41
-1.093138017732799
 42
-0.3077398543351433
  0
LINE
  5
17E
330
1F
100
AcDbEntity
  8
VISIBLE
100
AcDbLine
 10
7.783166606985763
 20
8.584997973630509
 30
0.0
 11
14.14712763766469
 21
4.910763359455739
 31
0.0
  0
LINE
  5
17F
330
1F
100
AcDbEntity
  8
VISIBLE
100
AcDbLine
 10
14.13607909420865
 20
4.713018093762306
 30
0.0
 11
14.13607909420865
 21
4.90438447991724
 31
0.0
  0
ELLIPSE
  5
180
330
1F
100
AcDbEntity
  8
VISIBLE
100
AcDbEllipse
 10
9.341011234287375
 20
7.468694054393382
 30
0.0
 11
-0.005079024744873095
 21
0.01895517840076533
 31
0.0
210
0.0
220
0.0
230
1.0
 40
0.5176380902050557
 41
-1.263056472459786
 42
-0.4776583090622567
  0
ELLIPSE
  5
181
330
1F
100
AcDbEntity
  8
VISIBLE
100
AcDbEllipse
 10
10.99829275269335
 20
6.511862123618702
 30
0.0
 11
-0.01895517840076621
 21
-0.005079024744873095
 31
0.0
210
0.0
220
0.0
230
1.0
 40
0.5176380902050214
 41
-2.663934344527566
 42
-1.878536181130079
  0
LINE
  5
182
330
1F
100
AcDbEntity
  8
VISIBLE
100
AcDbLine
 10
10.99829275269335
 20
6.52990431953088
 30
0.0
 11
12.47879757580268
 21
5.675134461372166
 31
0.0
  0
ELLIPSE
  5
183
330
1F
100
AcDbEntity
  8
VISIBLE
100
AcDbEllipse
 10
7.783166606985763
 20
8.393631587475573
 30
0.0
 11
0.0078125
 21
0.01353164693413156
 31
0.0
210
0.0
220
0.0
230
0.9999999999999999
 40
0.5773502691896131
 41
2.356194490192406
 42
3.141592653589891
  0
ELLIPSE
  5
184
330
1F
100
AcDbEntity
  8
VISIBLE
100
AcDbEllipse
 10
10.25804034113868
 20
7.054066884391021
 30
0.0
 11
0.03125
 21
-0.05412658773652801
 31
0.0
210
0.0
220
0.0
230
1.0
 40
0.5773502691896202
 41
-2.963882052744664
 42
-0.1777106008451108
  0
ELLIPSE
  5
185
330
1F
100
AcDbEntity
  8
VISIBLE
100
AcDbEllipse
 10
9.429399581935693
 20
7.417663018085399
 30
0.0
 11
-0.01895517840076444
 21
-0.005079024744873983
 31
0.0
210
0.0
220
0.0
230
0.9999999999999999
 40
0.517638090205084
 41
-2.663934344527725
 42
-1.878536181130158
  0
ELLIPSE
  5
186
330
1F
100
AcDbEntity
  8
VISIBLE
100
AcDbEllipse
 10
7.860506411178042
 20
8.323463912552096
 30
0.0
 11
-0.005079024744873095
 21
0.01895517840076621
 31
0.0
210
0.0
220
0.0
230
1.0
 40
0.5176380902050214
 41
-0.4776583090622646
 42
0.3077398543353196
  0
ELLIPSE
  5
187
330
1F
100
AcDbEntity
  8
VISIBLE
100
AcDbEllipse
 10
12.567185923451
 20
5.606061229152006
 30
0.0
 11
-0.005079024744873095
 21
0.01895517840076621
 31
0.0
210
0.0
220
0.0
230
0.9999999999999999
 40
0.517638090205033
 41
-0.4776583090622554
 42
0.30773985433539
  0
ELLIPSE
  5
188
330
1F
100
AcDbEntity
  8
VISIBLE
100
AcDbEllipse
 10
7.860506411178041
 20
8.323463912552095
 30
0.0
 11
-0.01895517840076621
 21
-0.005079024744873095
 31
0.0
210
0.0
220
0.0
230
0.9999999999999999
 40
0.517638090205033
 41
-2.663934344527535
 42
-1.878536181130009
  0
ELLIPSE
  5
189
330
1F
100
AcDbEntity
  8
VISIBLE
100
AcDbEllipse
 10
10.92095294850107
 20
6.582029798542176
 30
0.0
 11
0.005450464921988641
 21
-0.0203414120137273
 31
0.0
210
0.0
220
0.0
230
1.0
 40
0.3178372451957601
 41
-1.093138017732765
 42
-0.3077398543351653
  0
ELLIPSE
  5
18A
330
1F
100
AcDbEntity
  8
VISIBLE
100
AcDbEllipse
 10
12.567185923451
 20
5.606061229152005
 30
0.0
 11
-0.01895517840076622
 21
-0.005079024744872208
 31
0.0
210
0.0
220
0.0
230
1.0
 40
0.517638090205071
 41
-2.663934344527384
 42
-1.878536181129967
  0
ELLIPSE
  5
18B
330
1F
100
AcDbEntity
  8
VISIBLE
100
AcDbEllipse
 10
13.44002085647814
 20
5.216949577303637
 30
0.0
 11
0.03125
 21
-0.05412658773652712
 31
0.0
210
0.0
220
0.0
230
0.9999999999999998
 40
0.5773502691896273
 41
-2.963882052744678
 42
-0.177710600845121
  0
ELLIPSE
  5
18C
330
1F
100
AcDbEntity
  8
VISIBLE
100
AcDbEllipse
 10
13.4289723130221
 20
5.210570697765139
 30
0.0
 11
0.03125000000000355
 21
-0.05412658773652801
 31
0.0
210
0.0
220
0.0
230
1.0
 40
0.577350269189618
 41
0.0
 42
2.356194490192287
  0
ELLIPSE
  5
18D
330
1F
100
AcDbEntity
  8
VISIBLE
100
AcDbEllipse
 10
13.4289723130221
 20
5.210570697765139
 30
0.0
 11
0.03125000000000355
 21
-0.05412658773652801
 31
0.0
210
0.0
220
0.0
230
1.0
 40
0.577350269189618
 41
-3.141592653589921
 42
0.0
  0
ELLIPSE
  5
18E
330
1F
100
AcDbEntity
  8
VISIBLE
100
AcDbEllipse
 10
13.4289723130221
 20
5.210570697765139
 30
0.0
 11
0.03125000000000355
 21
-0.05412658773652801
 31
0.0
210
0.0
220
0.0
230
1.0
 40
0.577350269189618
 41
-3.9269908169873
 42
-3.141592653589921
  0
LINE
  5
18F
330
1F
100
AcDbEntity
  8
VISIBLE
100
AcDbLine
 10
9.429399581935694
 20
7.435705213997577
 30
0.0
 11
10.90990440504503
 21
6.580935355838863
 31
0.0
  0
ELLIPSE
  5
190
330
1F
100
AcDbEntity
  8
VISIBLE
100
AcDbEllipse
 10
9.440448125391733
 20
7.436799656700892
 30
0.0
 11
0.02034141201372996
 21
0.005450464921989528
 31
0.0
210
0.0
220
0.0
230
1.0
 40
0.3178372451958101
 41
3.449332507924828
 42
4.234730671322403
  0
ELLIPSE
  5
191
330
1F
100
AcDbEntity
  8
VISIBLE
100
AcDbEllipse
 10
9.440448125391733
 20
7.436799656700892
 30
0.0
 11
0.02034141201372996
 21
0.005450464921989528
 31
0.0
210
0.0
220
0.0
230
1.0
 40
0.3178372451958101
 41
2.833852799254506
 42
3.449332507924828
  0
ELLIPSE
  5
192
330
1F
100
AcDbEntity
  8
VISIBLE
100
AcDbEllipse
 10
9.440448125391733
 20
7.436799656700892
 30
0.0
 11
0.02034141201372996
 21
0.005450464921989528
 31
0.0
210
0.0
220
0.0
230
1.0
 40
0.3178372451958101
 41
2.663934344527442
 42
2.833852799254506
  0
LINE
  5
193
330
1F
100
AcDbEntity
  8
VISIBLE
100
AcDbLine
 10
7.772118063529724
 20
8.57861909409201
 30
0.0
 11
7.772118063529724
 21
8.387252707937074
 31
0.0
  0
ELLIPSE
  5
194
330
1F
100
AcDbEntity
  8
VISIBLE
100
AcDbEllipse
 10
12.57823446690704
 20
5.625197867767497
 30
0.0
 11
0.02034141201372819
 21
0.005450464921988641
 31
0.0
210
0.0
220
0.0
230
1.0
 40
0.3178372451958394
 41
3.449332507924736
 42
4.23473067132223
  0
ELLIPSE
  5
195
330
1F
100
AcDbEntity
  8
VISIBLE
100
AcDbEllipse
 10
12.57823446690704
 20
5.625197867767497
 30
0.0
 11
0.02034141201372819
 21
0.005450464921988641
 31
0.0
210
0.0
220
0.0
230
1.0
 40
0.3178372451958394
 41
2.833852799254546
 42
3.449332507924736
  0
ELLIPSE
  5
196
330
1F
100
AcDbEntity
  8
VISIBLE
100
AcDbEllipse
 10
12.57823446690704
 20
5.625197867767497
 30
0.0
 11
0.02034141201372819
 21
0.005450464921988641
 31
0.0
210
0.0
220
0.0
230
1.0
 40
0.3178372451958394
 41
2.663934344527385
 42
2.833852799254546
  0
ELLIPSE
  5
197
330
1F
100
AcDbEntity
  8
VISIBLE
100
AcDbEllipse
 10
9.429399581935694
 20
7.417663018085399
 30
0.0
 11
-0.005079024744873095
 21
0.01895517840076621
 31
0.0
210
0.0
220
0.0
230
0.9999999999999999
 40
0.517638090205033
 41
-0.4776583090622554
 42
0.3077398543352016
  0
LINE
  5
198
330
1F
100
AcDbEntity
  8
VISIBLE
100
AcDbLine
 10
14.14712763766469
 20
4.910763359455739
 30
0.0
 11
14.14712763766469
 21
4.719396973300803
 31
0.0
  0
LINE
  5
199
330
1F
100
AcDbEntity
  8
VISIBLE
100
AcDbLine
 10
10.92418899195711
 20
6.562119272069548
 30
0.0
 11
10.99048025269335
 21
6.523845994838562
 31
0.0
  0
LINE
  5
19A
330
1F
100
AcDbEntity
  8
VISIBLE
100
AcDbLine
 10
14.06197533347241
 20
4.750517483136155
 30
0.0
 11
14.13931513766469
 21
4.705865326366672
 31
0.0
  0
LINE
  5
19B
330
1F
100
AcDbEntity
  8
VISIBLE
100
AcDbLine
 10
7.775354106985763
 20
8.38009994054144
 30
0.0
 11
7.852693911178042
 21
8.335447783771956
 31
0.0
  0
LINE
  5
19C
330
1F
100
AcDbEntity
  8
VISIBLE
100
AcDbLine
 10
9.355295821199457
 20
7.467920166536246
 30
0.0
 11
9.421587081935694
 21
7.429646889305259
 31
0.0
  0
LINE
  5
19D
330
1F
100
AcDbEntity
  8
VISIBLE
100
AcDbLine
 10
12.49308216271476
 20
5.656318377602853
 30
0.0
 11
12.559373423451
 21
5.618045100371866
 31
0.0
  0
LINE
  5
19E
330
1F
100
AcDbEntity
  8
TANGENT EDGES
100
AcDbLine
 10
14.05550324656033
 20
4.759538581092244
 30
0.0
 11
14.13607909420865
 21
4.713018093762306
 31
0.0
  0
LINE
  5
19F
330
1F
100
AcDbEntity
  8
TANGENT EDGES
100
AcDbLine
 10
7.772118063529724
 20
8.387252707937074
 30
0.0
 11
7.852693911178041
 21
8.340732220607135
 31
0.0
  0
LINE
  5
1A0
330
1F
100
AcDbEntity
  8
TANGENT EDGES
100
AcDbLine
 10
9.348823734287377
 20
7.476941264492334
 30
0.0
 11
9.421587081935693
 21
7.43493132614044
 31
0.0
  0
LINE
  5
1A1
330
1F
100
AcDbEntity
  8
TANGENT EDGES
100
AcDbLine
 10
12.48661007580268
 20
5.665339475558941
 30
0.0
 11
12.559373423451
 21
5.623329537207047
 31
0.0
  0
LINE
  5
1A2
330
1F
100
AcDbEntity
  8
TANGENT EDGES
100
AcDbLine
 10
10.91771690504503
 20
6.571140370025637
 30
0.0
 11
10.99048025269335
 21
6.529130431673742
 31
0.0
  0
CIRCLE
  5
1A4
330
1F
100
AcDbEntity
  8
CONTINUOUS
100
AcDbCircle
 10
14.61818064291646
 20
3.755896560789093
 30
0.0
 40
0.297566607807914
  0
INSERT
  5
1A5
330
1F
100
AcDbEntity
  8
CONTINUOUS
100
AcDbBlockReference
  2
BLOCK3
 10
0.0
 20
0.0
 30
0.0
  0
MTEXT
  5
1ED
330
1F
100
AcDbEntity
  8
CONTINUOUS
100
AcDbMText
 10
8.131569088913297
 20
1.698288096029927
 30
0.0
 40
0.0796296296296296
 41
0.0
 71
     2
 72
     1
  3
{\fArial Narrow|b0|i0|c0|p0;\C7;LICENSE INFORMATION}{\fArial Narrow|b0|i0|c0|p0;\C7;\P}{\fArial Narrow|b0|i0|c0|p0;\C7;\PALL INFORMATION IS RELEASED UNDER THE OSE}{\fArial Narrow|b0|i0|c0|p0;\C7;\PLICENSE FOR DISTRIBUTIVE ECONOMICS. FOR}{\fArial Nar
  1
row|b0|i0|c0|p0;\C7;\PFURTHER INFORMATION GO TO:}{\fArial Narrow|b0|i0|c0|p0;\C7;\POPENSOURCEECOLOGY.ORG/WIKI/LICENSE}{\fArial|b0|i0|c0|p0;\C7;\H1.125x;}
 73
     1
 44
1.0
  0
MTEXT
  5
1EE
330
1F
100
AcDbEntity
  8
CONTINUOUS
100
AcDbMText
 10
11.24458012618416
 20
1.981652603750152
 30
0.0
 40
0.2388888888888889
 41
0.0
 71
     1
 72
     1
  1
{\fArial|b0|i0|c0|p0;\C7;Open Source Ecology}{\fArial|b0|i0|c0|p0;\C7;\H0.375x;}
 73
     1
 44
1.0
  0
MTEXT
  5
1EF
330
1F
100
AcDbEntity
  8
CONTINUOUS
100
AcDbMText
 10
15.09045338067479
 20
0.8561034014844509
 30
0.0
 40
0.1990740740740741
 41
0.0
 71
     1
 72
     1
  1
{\fArial|b0|i0|c0|p0;\C7;B}{\fArial|b0|i0|c0|p0;\C7;\H0.45x;}
 73
     1
 44
1.0
  0
MTEXT
  5
1F0
330
1F
100
AcDbEntity
  8
BEND CENTERS
100
AcDbMText
 10
14.10795677365279
 20
0.5582386662640927
 30
0.0
 40
0.1393518518518518
 41
0.0
 71
     1
 72
     1
  1
{\fArial|b0|i0|c0|p0;\C7;1 OF 2}{\fArial|b0|i0|c0|p0;\C7;\H0.642857134x;}
 73
     1
 44
1.0
  0
MTEXT
  5
1F1
330
1F
100
AcDbEntity
  8
CONTINUOUS
100
AcDbMText
 10
11.33859709491877
 20
1.429042245459368
 30
0.0
 40
0.1990740740740741
 41
0.0
 71
     1
 72
     1
  1
{\fArial|b0|i0|c0|p0;\C7;Angle, Primary Arm}{\fArial|b0|i0|c0|p0;\C7;}
 73
     1
 44
1.0
  0
MTEXT
  5
1F2
330
1F
100
AcDbEntity
  8
CONTINUOUS
100
AcDbMText
 10
12.87270373246801
 20
3.886056110051674
 30
0.0
 40
0.2388888888888889
 41
0.0
 71
     1
 72
     1
  1
{\fArial|b0|i0|c0|p0;\C7;1X  INDEX 151}{\fArial|b0|i0|c0|p0;\C7;\H0.375x;}
 73
     1
 44
1.0
  0
ENDSEC
  0
SECTION
  2
OBJECTS
  0
DICTIONARY
  5
C
330
0
100
AcDbDictionary
281
     1
  3
ACAD_GROUP
350
D
  3
ACAD_LAYOUT
350
1A
  3
ACAD_MLEADERSTYLE
350
1F6
  3
ACAD_MLINESTYLE
350
17
  3
ACAD_PLOTSETTINGS
350
19
  3
ACAD_PLOTSTYLENAME
350
E
  3
ACAD_SCALELIST
350
3B
  3
ACAD_TABLESTYLE
350
1F5
  3
ACAD_VISUALSTYLE
350
2A
  3
AcDbVariableDictionary
350
1F3
  0
DICTIONARY
  5
D
102
{ACAD_REACTORS
330
C
102
}
330
C
100
AcDbDictionary
281
     1
  0
DICTIONARY
  5
1A
102
{ACAD_REACTORS
330
C
102
}
330
C
100
AcDbDictionary
281
     1
  3
Layout1
350
1E
  3
Layout2
350
26
  3
Model
350
22
  0
DICTIONARY
  5
1F6
102
{ACAD_REACTORS
330
C
102
}
330
C
100
AcDbDictionary
281
     1
  0
DICTIONARY
  5
17
102
{ACAD_REACTORS
330
C
102
}
330
C
100
AcDbDictionary
281
     1
  3
Standard
350
18
  0
DICTIONARY
  5
19
102
{ACAD_REACTORS
330
C
102
}
330
C
100
AcDbDictionary
281
     1
  0
ACDBDICTIONARYWDFLT
  5
E
102
{ACAD_REACTORS
330
C
102
}
330
C
100
AcDbDictionary
281
     1
  3
Normal
350
F
100
AcDbDictionaryWithDefault
340
F
  0
DICTIONARY
  5
3B
102
{ACAD_REACTORS
330
C
102
}
330
C
100
AcDbDictionary
281
     1
  3
A0
350
3C
  3
A1
350
3D
  3
A2
350
3E
  3
A3
350
3F
  3
A4
350
40
  3
A5
350
41
  3
A6
350
42
  3
A7
350
43
  3
A8
350
44
  3
A9
350
45
  3
B0
350
46
  3
B1
350
47
  3
B2
350
48
  3
B3
350
49
  3
B4
350
4A
  3
B5
350
4B
  3
B6
350
4C
  3
B7
350
4D
  3
B8
350
4E
  3
B9
350
4F
  3
C0
350
50
  3
C1
350
51
  3
C2
350
52
  3
C3
350
53
  3
C4
350
54
  3
C5
350
55
  3
C6
350
56
  3
C7
350
57
  3
C8
350
58
  3
C9
350
59
  3
D0
350
5A
  3
D1
350
5B
  3
D2
350
5C
  0
DICTIONARY
  5
1F5
102
{ACAD_REACTORS
330
C
102
}
330
C
100
AcDbDictionary
281
     1
  0
DICTIONARY
  5
2A
102
{ACAD_REACTORS
330
C
102
}
330
C
100
AcDbDictionary
281
     1
  3
2dWireframe
350
2F
  3
3D Hidden
350
31
  3
3dWireframe
350
30
  3
Basic
350
32
  3
Brighten
350
36
  3
ColorChange
350
3A
  3
Conceptual
350
34
  3
Dim
350
35
  3
Facepattern
350
39
  3
Flat
350
2B
  3
FlatWithEdges
350
2C
  3
Gouraud
350
2D
  3
GouraudWithEdges
350
2E
  3
Linepattern
350
38
  3
Realistic
350
33
  3
Thicken
350
37
  0
DICTIONARY
  5
1F3
102
{ACAD_REACTORS
330
C
102
}
330
C
100
AcDbDictionary
281
     1
  3
CANNOSCALE
350
1F4
  0
LAYOUT
  5
1E
102
{ACAD_REACTORS
330
1A
102
}
330
1A
100
AcDbPlotSettings
  1

  2
none_device
  4

  6

 40
0.0
 41
0.0
 42
0.0
 43
0.0
 44
0.0
 45
0.0
 46
0.0
 47
0.0
 48
0.0
 49
0.0
140
0.0
141
0.0
142
1.0
143
1.0
 70
   688
 72
     0
 73
     0
 74
     5
  7

 75
    16
147
1.0
148
0.0
149
0.0
100
AcDbLayout
  1
Layout1
 70
     1
 71
     1
 10
0.0
 20
0.0
 11
12.0
 21
9.0
 12
0.0
 22
0.0
 32
0.0
 14
1.000000000000000E+20
 24
1.000000000000000E+20
 34
1.000000000000000E+20
 15
-1.000000000000000E+20
 25
-1.000000000000000E+20
 35
-1.000000000000000E+20
146
0.0
 13
0.0
 23
0.0
 33
0.0
 16
1.0
 26
0.0
 36
0.0
 17
0.0
 27
1.0
 37
0.0
 76
     0
330
1B
  0
LAYOUT
  5
26
102
{ACAD_REACTORS
330
1A
102
}
330
1A
100
AcDbPlotSettings
  1

  2
none_device
  4

  6

 40
0.0
 41
0.0
 42
0.0
 43
0.0
 44
0.0
 45
0.0
 46
0.0
 47
0.0
 48
0.0
 49
0.0
140
0.0
141
0.0
142
1.0
143
1.0
 70
   688
 72
     0
 73
     0
 74
     5
  7

 75
    16
147
1.0
148
0.0
149
0.0
100
AcDbLayout
  1
Layout2
 70
     1
 71
     2
 10
0.0
 20
0.0
 11
0.0
 21
0.0
 12
0.0
 22
0.0
 32
0.0
 14
0.0
 24
0.0
 34
0.0
 15
0.0
 25
0.0
 35
0.0
146
0.0
 13
0.0
 23
0.0
 33
0.0
 16
1.0
 26
0.0
 36
0.0
 17
0.0
 27
1.0
 37
0.0
 76
     0
330
23
  0
LAYOUT
  5
22
102
{ACAD_REACTORS
330
1A
102
}
330
1A
100
AcDbPlotSettings
  1

  2
none_device
  4

  6

 40
0.0
 41
0.0
 42
0.0
 43
0.0
 44
0.0
 45
0.0
 46
0.0
 47
0.0
 48
0.0
 49
0.0
140
0.0
141
0.0
142
1.0
143
1.0
 70
  1712
 72
     0
 73
     0
 74
     0
  7

 75
     0
147
1.0
148
0.0
149
0.0
100
AcDbLayout
  1
Model
 70
     1
 71
     0
 10
0.0
 20
0.0
 11
12.0
 21
9.0
 12
0.0
 22
0.0
 32
0.0
 14
1.000000000000000E+20
 24
1.000000000000000E+20
 34
1.000000000000000E+20
 15
-1.000000000000000E+20
 25
-1.000000000000000E+20
 35
-1.000000000000000E+20
146
0.0
 13
0.0
 23
0.0
 33
0.0
 16
1.0
 26
0.0
 36
0.0
 17
0.0
 27
1.0
 37
0.0
 76
     0
330
1F
331
29
  0
MLINESTYLE
  5
18
102
{ACAD_REACTORS
330
17
102
}
330
17
100
AcDbMlineStyle
  2
Standard
 70
     0
  3

 62
   256
 51
90.0
 52
90.0
 71
     2
 49
0.5
 62
   256
  6
BYLAYER
 49
-0.5
 62
   256
  6
BYLAYER
  0
ACDBPLACEHOLDER
  5
F
102
{ACAD_REACTORS
330
E
102
}
330
E
  0
SCALE
  5
3C
102
{ACAD_REACTORS
330
3B
102
}
330
3B
100
AcDbScale
 70
     0
300
1:1
140
1.0
141
1.0
290
     1
  0
SCALE
  5
3D
102
{ACAD_REACTORS
330
3B
102
}
330
3B
100
AcDbScale
 70
     0
300
1:2
140
1.0
141
2.0
290
     0
  0
SCALE
  5
3E
102
{ACAD_REACTORS
330
3B
102
}
330
3B
100
AcDbScale
 70
     0
300
1:4
140
1.0
141
4.0
290
     0
  0
SCALE
  5
3F
102
{ACAD_REACTORS
330
3B
102
}
330
3B
100
AcDbScale
 70
     0
300
1:5
140
1.0
141
5.0
290
     0
  0
SCALE
  5
40
102
{ACAD_REACTORS
330
3B
102
}
330
3B
100
AcDbScale
 70
     0
300
1:8
140
1.0
141
8.0
290
     0
  0
SCALE
  5
41
102
{ACAD_REACTORS
330
3B
102
}
330
3B
100
AcDbScale
 70
     0
300
1:10
140
1.0
141
10.0
290
     0
  0
SCALE
  5
42
102
{ACAD_REACTORS
330
3B
102
}
330
3B
100
AcDbScale
 70
     0
300
1:16
140
1.0
141
16.0
290
     0
  0
SCALE
  5
43
102
{ACAD_REACTORS
330
3B
102
}
330
3B
100
AcDbScale
 70
     0
300
1:20
140
1.0
141
20.0
290
     0
  0
SCALE
  5
44
102
{ACAD_REACTORS
330
3B
102
}
330
3B
100
AcDbScale
 70
     0
300
1:30
140
1.0
141
30.0
290
     0
  0
SCALE
  5
45
102
{ACAD_REACTORS
330
3B
102
}
330
3B
100
AcDbScale
 70
     0
300
1:40
140
1.0
141
40.0
290
     0
  0
SCALE
  5
46
102
{ACAD_REACTORS
330
3B
102
}
330
3B
100
AcDbScale
 70
     0
300
1:50
140
1.0
141
50.0
290
     0
  0
SCALE
  5
47
102
{ACAD_REACTORS
330
3B
102
}
330
3B
100
AcDbScale
 70
     0
300
1:100
140
1.0
141
100.0
290
     0
  0
SCALE
  5
48
102
{ACAD_REACTORS
330
3B
102
}
330
3B
100
AcDbScale
 70
     0
300
2:1
140
2.0
141
1.0
290
     0
  0
SCALE
  5
49
102
{ACAD_REACTORS
330
3B
102
}
330
3B
100
AcDbScale
 70
     0
300
4:1
140
4.0
141
1.0
290
     0
  0
SCALE
  5
4A
102
{ACAD_REACTORS
330
3B
102
}
330
3B
100
AcDbScale
 70
     0
300
8:1
140
8.0
141
1.0
290
     0
  0
SCALE
  5
4B
102
{ACAD_REACTORS
330
3B
102
}
330
3B
100
AcDbScale
 70
     0
300
10:1
140
10.0
141
1.0
290
     0
  0
SCALE
  5
4C
102
{ACAD_REACTORS
330
3B
102
}
330
3B
100
AcDbScale
 70
     0
300
100:1
140
100.0
141
1.0
290
     0
  0
SCALE
  5
4D
102
{ACAD_REACTORS
330
3B
102
}
330
3B
100
AcDbScale
 70
     0
300
1/128" = 1'-0"
140
0.0078125
141
12.0
290
     0
  0
SCALE
  5
4E
102
{ACAD_REACTORS
330
3B
102
}
330
3B
100
AcDbScale
 70
     0
300
1/64" = 1'-0"
140
0.015625
141
12.0
290
     0
  0
SCALE
  5
4F
102
{ACAD_REACTORS
330
3B
102
}
330
3B
100
AcDbScale
 70
     0
300
1/32" = 1'-0"
140
0.03125
141
12.0
290
     0
  0
SCALE
  5
50
102
{ACAD_REACTORS
330
3B
102
}
330
3B
100
AcDbScale
 70
     0
300
1/16" = 1'-0"
140
0.0625
141
12.0
290
     0
  0
SCALE
  5
51
102
{ACAD_REACTORS
330
3B
102
}
330
3B
100
AcDbScale
 70
     0
300
3/32" = 1'-0"
140
0.09375
141
12.0
290
     0
  0
SCALE
  5
52
102
{ACAD_REACTORS
330
3B
102
}
330
3B
100
AcDbScale
 70
     0
300
1/8" = 1'-0"
140
0.125
141
12.0
290
     0
  0
SCALE
  5
53
102
{ACAD_REACTORS
330
3B
102
}
330
3B
100
AcDbScale
 70
     0
300
3/16" = 1'-0"
140
0.1875
141
12.0
290
     0
  0
SCALE
  5
54
102
{ACAD_REACTORS
330
3B
102
}
330
3B
100
AcDbScale
 70
     0
300
1/4" = 1'-0"
140
0.25
141
12.0
290
     0
  0
SCALE
  5
55
102
{ACAD_REACTORS
330
3B
102
}
330
3B
100
AcDbScale
 70
     0
300
3/8" = 1'-0"
140
0.375
141
12.0
290
     0
  0
SCALE
  5
56
102
{ACAD_REACTORS
330
3B
102
}
330
3B
100
AcDbScale
 70
     0
300
1/2" = 1'-0"
140
0.5
141
12.0
290
     0
  0
SCALE
  5
57
102
{ACAD_REACTORS
330
3B
102
}
330
3B
100
AcDbScale
 70
     0
300
3/4" = 1'-0"
140
0.75
141
12.0
290
     0
  0
SCALE
  5
58
102
{ACAD_REACTORS
330
3B
102
}
330
3B
100
AcDbScale
 70
     0
300
1" = 1'-0"
140
1.0
141
12.0
290
     0
  0
SCALE
  5
59
102
{ACAD_REACTORS
330
3B
102
}
330
3B
100
AcDbScale
 70
     0
300
1-1/2" = 1'-0"
140
1.5
141
12.0
290
     0
  0
SCALE
  5
5A
102
{ACAD_REACTORS
330
3B
102
}
330
3B
100
AcDbScale
 70
     0
300
3" = 1'-0"
140
3.0
141
12.0
290
     0
  0
SCALE
  5
5B
102
{ACAD_REACTORS
330
3B
102
}
330
3B
100
AcDbScale
 70
     0
300
6" = 1'-0"
140
6.0
141
12.0
290
     0
  0
SCALE
  5
5C
102
{ACAD_REACTORS
330
3B
102
}
330
3B
100
AcDbScale
 70
     0
300
1'-0" = 1'-0"
140
12.0
141
12.0
290
     0
  0
VISUALSTYLE
  5
2F
102
{ACAD_REACTORS
330
2A
102
}
330
2A
100
AcDbVisualStyle
  2
2dWireframe
 70
     4
 71
     0
 72
     2
 73
     0
 90
        0
 40
-0.6
 41
-30.0
 62
     5
 63
     7
 74
     1
 91
        4
 64
     7
 65
   257
 75
     1
175
     1
 42
1.0
 92
        0
 66
   257
 43
1.0
 76
     1
 77
     6
 78
     2
 67
     7
 79
     5
170
     0
171
     0
290
     0
174
     0
 93
        1
 44
0.0
173
     0
291
     0
 45
0.0
1001
ACAD
1000
AcDbSavedByObjectVersion
1070
     0
  0
VISUALSTYLE
  5
31
102
{ACAD_REACTORS
330
2A
102
}
330
2A
100
AcDbVisualStyle
  2
3D Hidden
 70
     6
 71
     1
 72
     2
 73
     2
 90
        0
 40
-0.6
 41
-30.0
 62
     5
 63
     7
 74
     2
 91
        2
 64
     7
 65
   257
 75
     2
175
     1
 42
40.0
 92
        0
 66
   257
 43
1.0
 76
     1
 77
     6
 78
     2
 67
     7
 79
     3
170
     0
171
     0
290
     0
174
     0
 93
        1
 44
0.0
173
     0
291
     0
 45
0.0
1001
ACAD
1000
AcDbSavedByObjectVersion
1070
     0
  0
VISUALSTYLE
  5
30
102
{ACAD_REACTORS
330
2A
102
}
330
2A
100
AcDbVisualStyle
  2
3dWireframe
 70
     5
 71
     0
 72
     2
 73
     0
 90
        0
 40
-0.6
 41
-30.0
 62
     5
 63
     7
 74
     1
 91
        4
 64
     7
 65
   257
 75
     1
175
     1
 42
1.0
 92
        0
 66
   257
 43
1.0
 76
     1
 77
     6
 78
     2
 67
     7
 79
     5
170
     0
171
     0
290
     0
174
     0
 93
        1
 44
0.0
173
     0
291
     0
 45
0.0
1001
ACAD
1000
AcDbSavedByObjectVersion
1070
     0
  0
VISUALSTYLE
  5
32
102
{ACAD_REACTORS
330
2A
102
}
330
2A
100
AcDbVisualStyle
  2
Basic
 70
     7
 71
     1
 72
     0
 73
     1
 90
        0
 40
-0.6
 41
-30.0
 62
     5
 63
     7
 74
     0
 91
        4
 64
     7
 65
   257
 75
     1
175
     1
 42
1.0
 92
        8
 66
     7
 43
1.0
 76
     1
 77
     6
 78
     2
 67
     7
 79
     5
170
     0
171
     0
290
     0
174
     0
 93
        1
 44
0.0
173
     0
291
     1
 45
0.0
1001
ACAD
1000
AcDbSavedByObjectVersion
1070
     0
  0
VISUALSTYLE
  5
36
102
{ACAD_REACTORS
330
2A
102
}
330
2A
100
AcDbVisualStyle
  2
Brighten
 70
    12
 71
     2
 72
     2
 73
     0
 90
        0
 40
-0.6
 41
-30.0
 62
     5
 63
     7
 74
     1
 91
        4
 64
     7
 65
   257
 75
     1
175
     1
 42
1.0
 92
        8
 66
     7
 43
1.0
 76
     1
 77
     6
 78
     2
 67
     7
 79
     5
170
     0
171
     0
290
     0
174
     0
 93
        1
 44
50.0
173
     0
291
     1
 45
0.0
1001
ACAD
1000
AcDbSavedByObjectVersion
1070
     0
  0
VISUALSTYLE
  5
3A
102
{ACAD_REACTORS
330
2A
102
}
330
2A
100
AcDbVisualStyle
  2
ColorChange
 70
    16
 71
     2
 72
     2
 73
     3
 90
        0
 40
-0.6
 41
-30.0
 62
     5
 63
     8
 74
     1
 91
        4
 64
     7
 65
   257
 75
     1
175
     1
 42
1.0
 92
        8
 66
     8
 43
1.0
 76
     1
 77
     6
 78
     2
 67
     7
 79
     5
170
     0
171
     0
290
     0
174
     0
 93
        1
 44
0.0
173
     0
291
     1
 45
0.0
1001
ACAD
1000
AcDbSavedByObjectVersion
1070
     0
  0
VISUALSTYLE
  5
34
102
{ACAD_REACTORS
330
2A
102
}
330
2A
100
AcDbVisualStyle
  2
Conceptual
 70
     9
 71
     3
 72
     2
 73
     0
 90
        0
 40
-0.6
 41
-30.0
 62
     5
 63
     7
 74
     2
 91
        2
 64
     7
 65
   257
 75
     1
175
     1
 42
40.0
 92
        8
 66
     7
 43
1.0
 76
     1
 77
     6
 78
     2
 67
     7
 79
     3
170
     0
171
     0
290
     0
174
     0
 93
        1
 44
0.0
173
     0
291
     0
 45
0.0
1001
ACAD
1000
AcDbSavedByObjectVersion
1070
     0
  0
VISUALSTYLE
  5
35
102
{ACAD_REACTORS
330
2A
102
}
330
2A
100
AcDbVisualStyle
  2
Dim
 70
    11
 71
     2
 72
     2
 73
     0
 90
        0
 40
-0.6
 41
-30.0
 62
     5
 63
     7
 74
     1
 91
        4
 64
     7
 65
   257
 75
     1
175
     1
 42
1.0
 92
        8
 66
     7
 43
1.0
 76
     1
 77
     6
 78
     2
 67
     7
 79
     5
170
     0
171
     0
290
     0
174
     0
 93
        1
 44
-50.0
173
     0
291
     1
 45
0.0
1001
ACAD
1000
AcDbSavedByObjectVersion
1070
     0
  0
VISUALSTYLE
  5
39
102
{ACAD_REACTORS
330
2A
102
}
330
2A
100
AcDbVisualStyle
  2
Facepattern
 70
    15
 71
     2
 72
     2
 73
     0
 90
        0
 40
-0.6
 41
-30.0
 62
     5
 63
     7
 74
     1
 91
        4
 64
     7
 65
   257
 75
     1
175
     1
 42
1.0
 92
        8
 66
     7
 43
1.0
 76
     1
 77
     6
 78
     2
 67
     7
 79
     5
170
     0
171
     0
290
     0
174
     0
 93
        1
 44
0.0
173
     0
291
     1
 45
0.0
1001
ACAD
1000
AcDbSavedByObjectVersion
1070
     0
  0
VISUALSTYLE
  5
2B
102
{ACAD_REACTORS
330
2A
102
}
330
2A
100
AcDbVisualStyle
  2
Flat
 70
     0
 71
     2
 72
     1
 73
     1
 90
        2
 40
-0.6
 41
30.0
 62
     5
 63
     7
 74
     0
 91
        4
 64
     7
 65
   257
 75
     1
175
     1
 42
1.0
 92
        8
 66
     7
 43
1.0
 76
     1
 77
     6
 78
     2
 67
     7
 79
     5
170
     0
171
     0
290
     0
174
     0
 93
       13
 44
0.0
173
     0
291
     1
 45
0.0
1001
ACAD
1000
AcDbSavedByObjectVersion
1070
     0
  0
VISUALSTYLE
  5
2C
102
{ACAD_REACTORS
330
2A
102
}
330
2A
100
AcDbVisualStyle
  2
FlatWithEdges
 70
     1
 71
     2
 72
     1
 73
     1
 90
        2
 40
-0.6
 41
30.0
 62
     5
 63
     7
 74
     1
 91
        4
 64
     7
 65
   257
 75
     1
175
     1
 42
1.0
 92
        0
 66
   257
 43
1.0
 76
     1
 77
     6
 78
     2
 67
     7
 79
     5
170
     0
171
     0
290
     0
174
     0
 93
       13
 44
0.0
173
     0
291
     1
 45
0.0
1001
ACAD
1000
AcDbSavedByObjectVersion
1070
     0
  0
VISUALSTYLE
  5
2D
102
{ACAD_REACTORS
330
2A
102
}
330
2A
100
AcDbVisualStyle
  2
Gouraud
 70
     2
 71
     2
 72
     2
 73
     1
 90
        2
 40
-0.6
 41
30.0
 62
     5
 63
     7
 74
     0
 91
        4
 64
     7
 65
   257
 75
     1
175
     1
 42
1.0
 92
        0
 66
     7
 43
1.0
 76
     1
 77
     6
 78
     2
 67
     7
 79
     5
170
     0
171
     0
290
     0
174
     0
 93
       13
 44
0.0
173
     0
291
     1
 45
0.0
1001
ACAD
1000
AcDbSavedByObjectVersion
1070
     0
  0
VISUALSTYLE
  5
2E
102
{ACAD_REACTORS
330
2A
102
}
330
2A
100
AcDbVisualStyle
  2
GouraudWithEdges
 70
     3
 71
     2
 72
     2
 73
     1
 90
        2
 40
-0.6
 41
30.0
 62
     5
 63
     7
 74
     1
 91
        4
 64
     7
 65
   257
 75
     1
175
     1
 42
1.0
 92
        0
 66
   257
 43
1.0
 76
     1
 77
     6
 78
     2
 67
     7
 79
     5
170
     0
171
     0
290
     0
174
     0
 93
       13
 44
0.0
173
     0
291
     1
 45
0.0
1001
ACAD
1000
AcDbSavedByObjectVersion
1070
     0
  0
VISUALSTYLE
  5
38
102
{ACAD_REACTORS
330
2A
102
}
330
2A
100
AcDbVisualStyle
  2
Linepattern
 70
    14
 71
     2
 72
     2
 73
     0
 90
        0
 40
-0.6
 41
-30.0
 62
     5
 63
     7
 74
     1
 91
        4
 64
     7
 65
   257
 75
     7
175
     7
 42
1.0
 92
        8
 66
     7
 43
1.0
 76
     1
 77
     6
 78
     2
 67
     7
 79
     5
170
     0
171
     0
290
     0
174
     0
 93
        1
 44
0.0
173
     0
291
     1
 45
0.0
1001
ACAD
1000
AcDbSavedByObjectVersion
1070
     0
  0
VISUALSTYLE
  5
33
102
{ACAD_REACTORS
330
2A
102
}
330
2A
100
AcDbVisualStyle
  2
Realistic
 70
     8
 71
     2
 72
     2
 73
     0
 90
        0
 40
-0.6
 41
-30.0
 62
     5
 63
     7
 74
     1
 91
        0
 64
     7
 65
   257
 75
     1
175
     1
 42
1.0
 92
        8
 66
     8
 43
1.0
 76
     1
 77
     6
 78
     2
 67
     7
 79
     5
170
     0
171
     0
290
     0
174
     0
 93
       13
 44
0.0
173
     0
291
     0
 45
0.0
1001
ACAD
1000
AcDbSavedByObjectVersion
1070
     0
  0
VISUALSTYLE
  5
37
102
{ACAD_REACTORS
330
2A
102
}
330
2A
100
AcDbVisualStyle
  2
Thicken
 70
    13
 71
     2
 72
     2
 73
     0
 90
        0
 40
-0.6
 41
-30.0
 62
     5
 63
     7
 74
     1
 91
        4
 64
     7
 65
   257
 75
     1
175
     1
 42
1.0
 92
       12
 66
     7
 43
1.0
 76
     1
 77
     6
 78
     2
 67
     7
 79
     5
170
     0
171
     0
290
     0
174
     0
 93
        1
 44
0.0
173
     0
291
     1
 45
0.0
1001
ACAD
1000
AcDbSavedByObjectVersion
1070
     0
  0
DICTIONARYVAR
  5
1F4
102
{ACAD_REACTORS
330
1F3
102
}
330
1F3
100
DictionaryVariables
280
     0
  1
1:1
  0
ENDSEC
  0
EOF
