  0
SECTION
  2
HEADER
  9
$ACADVER
  1
AC1015
  9
$ACADMAINTVER
 70
     6
  9
$DWGCODEPAGE
  3
ANSI_1252
  9
$INSBASE
 10
0.0
 20
0.0
 30
0.0
  9
$EXTMIN
 10
1.000000000000000E+20
 20
1.000000000000000E+20
 30
1.000000000000000E+20
  9
$EXTMAX
 10
-1.000000000000000E+20
 20
-1.000000000000000E+20
 30
-1.000000000000000E+20
  9
$LIMMIN
 10
0.0
 20
0.0
  9
$LIMMAX
 10
12.0
 20
9.0
  9
$ORTHOMODE
 70
     0
  9
$REGENMODE
 70
     1
  9
$FILLMODE
 70
     1
  9
$QTEXTMODE
 70
     0
  9
$MIRRTEXT
 70
     1
  9
$LTSCALE
 40
1.0
  9
$ATTMODE
 70
     1
  9
$TEXTSIZE
 40
0.2
  9
$TRACEWID
 40
0.05
  9
$TEXTSTYLE
  7
Standard
  9
$CLAYER
  8
0
  9
$CELTYPE
  6
ByLayer
  9
$CECOLOR
 62
   256
  9
$CELTSCALE
 40
1.0
  9
$DISPSILH
 70
     0
  9
$DIMSCALE
 40
1.0
  9
$DIMASZ
 40
0.09
  9
$DIMEXO
 40
0.0625
  9
$DIMDLI
 40
0.38
  9
$DIMRND
 40
0.0
  9
$DIMDLE
 40
0.0
  9
$DIMEXE
 40
0.18
  9
$DIMTP
 40
0.0
  9
$DIMTM
 40
0.0
  9
$DIMTXT
 40
0.0895833333333333
  9
$DIMCEN
 40
0.09
  9
$DIMTSZ
 40
0.0
  9
$DIMTOL
 70
     0
  9
$DIMLIM
 70
     0
  9
$DIMTIH
 70
     1
  9
$DIMTOH
 70
     1
  9
$DIMSE1
 70
     0
  9
$DIMSE2
 70
     0
  9
$DIMTAD
 70
     0
  9
$DIMZIN
 70
     0
  9
$DIMBLK
  1

  9
$DIMASO
 70
     1
  9
$DIMSHO
 70
     1
  9
$DIMPOST
  1

  9
$DIMAPOST
  1

  9
$DIMALT
 70
     0
  9
$DIMALTD
 70
     2
  9
$DIMALTF
 40
25.4
  9
$DIMLFAC
 40
1.0
  9
$DIMTOFL
 70
     0
  9
$DIMTVP
 40
0.0
  9
$DIMTIX
 70
     0
  9
$DIMSOXD
 70
     0
  9
$DIMSAH
 70
     0
  9
$DIMBLK1
  1

  9
$DIMBLK2
  1

  9
$DIMSTYLE
  2
Standard
  9
$DIMCLRD
 70
     0
  9
$DIMCLRE
 70
     0
  9
$DIMCLRT
 70
     0
  9
$DIMTFAC
 40
1.0
  9
$DIMGAP
 40
0.09
  9
$DIMJUST
 70
     0
  9
$DIMSD1
 70
     0
  9
$DIMSD2
 70
     0
  9
$DIMTOLJ
 70
     1
  9
$DIMTZIN
 70
     0
  9
$DIMALTZ
 70
     0
  9
$DIMALTTZ
 70
     0
  9
$DIMUPT
 70
     0
  9
$DIMDEC
 70
     4
  9
$DIMTDEC
 70
     4
  9
$DIMALTU
 70
     2
  9
$DIMALTTD
 70
     2
  9
$DIMTXSTY
  7
Standard
  9
$DIMAUNIT
 70
     0
  9
$DIMADEC
 70
     0
  9
$DIMALTRND
 40
0.0
  9
$DIMAZIN
 70
     0
  9
$DIMDSEP
 70
    46
  9
$DIMATFIT
 70
     3
  9
$DIMFRAC
 70
     0
  9
$DIMLDRBLK
  1

  9
$DIMLUNIT
 70
     2
  9
$DIMLWD
 70
    -2
  9
$DIMLWE
 70
    -2
  9
$DIMTMOVE
 70
     0
  9
$LUNITS
 70
     2
  9
$LUPREC
 70
     4
  9
$SKETCHINC
 40
0.1
  9
$FILLETRAD
 40
0.5
  9
$AUNITS
 70
     0
  9
$AUPREC
 70
     0
  9
$MENU
  1
.
  9
$ELEVATION
 40
0.0
  9
$PELEVATION
 40
0.0
  9
$THICKNESS
 40
0.0
  9
$LIMCHECK
 70
     0
  9
$CHAMFERA
 40
0.5
  9
$CHAMFERB
 40
0.5
  9
$CHAMFERC
 40
1.0
  9
$CHAMFERD
 40
0.0
  9
$SKPOLY
 70
     0
  9
$TDCREATE
 40
2456269.035360243
  9
$TDUCREATE
 40
2456269.368693576
  9
$TDUPDATE
 40
2456269.035360255
  9
$TDUUPDATE
 40
2456269.368693588
  9
$TDINDWG
 40
0.0000000116
  9
$TDUSRTIMER
 40
0.0000000116
  9
$USRTIMER
 70
     1
  9
$ANGBASE
 50
0.0
  9
$ANGDIR
 70
     0
  9
$PDMODE
 70
     0
  9
$PDSIZE
 40
0.0
  9
$PLINEWID
 40
0.0
  9
$SPLFRAME
 70
     0
  9
$SPLINETYPE
 70
     6
  9
$SPLINESEGS
 70
     8
  9
$HANDSEED
  5
104
  9
$SURFTAB1
 70
     6
  9
$SURFTAB2
 70
     6
  9
$SURFTYPE
 70
     6
  9
$SURFU
 70
     6
  9
$SURFV
 70
     6
  9
$UCSBASE
  2

  9
$UCSNAME
  2

  9
$UCSORG
 10
0.0
 20
0.0
 30
0.0
  9
$UCSXDIR
 10
1.0
 20
0.0
 30
0.0
  9
$UCSYDIR
 10
0.0
 20
1.0
 30
0.0
  9
$UCSORTHOREF
  2

  9
$UCSORTHOVIEW
 70
     0
  9
$UCSORGTOP
 10
0.0
 20
0.0
 30
0.0
  9
$UCSORGBOTTOM
 10
0.0
 20
0.0
 30
0.0
  9
$UCSORGLEFT
 10
0.0
 20
0.0
 30
0.0
  9
$UCSORGRIGHT
 10
0.0
 20
0.0
 30
0.0
  9
$UCSORGFRONT
 10
0.0
 20
0.0
 30
0.0
  9
$UCSORGBACK
 10
0.0
 20
0.0
 30
0.0
  9
$PUCSBASE
  2

  9
$PUCSNAME
  2

  9
$PUCSORG
 10
0.0
 20
0.0
 30
0.0
  9
$PUCSXDIR
 10
1.0
 20
0.0
 30
0.0
  9
$PUCSYDIR
 10
0.0
 20
1.0
 30
0.0
  9
$PUCSORTHOREF
  2

  9
$PUCSORTHOVIEW
 70
     0
  9
$PUCSORGTOP
 10
0.0
 20
0.0
 30
0.0
  9
$PUCSORGBOTTOM
 10
0.0
 20
0.0
 30
0.0
  9
$PUCSORGLEFT
 10
0.0
 20
0.0
 30
0.0
  9
$PUCSORGRIGHT
 10
0.0
 20
0.0
 30
0.0
  9
$PUCSORGFRONT
 10
0.0
 20
0.0
 30
0.0
  9
$PUCSORGBACK
 10
0.0
 20
0.0
 30
0.0
  9
$USERI1
 70
     0
  9
$USERI2
 70
     0
  9
$USERI3
 70
     0
  9
$USERI4
 70
     0
  9
$USERI5
 70
     0
  9
$USERR1
 40
0.0
  9
$USERR2
 40
0.0
  9
$USERR3
 40
0.0
  9
$USERR4
 40
0.0
  9
$USERR5
 40
0.0
  9
$WORLDVIEW
 70
     1
  9
$SHADEDGE
 70
     3
  9
$SHADEDIF
 70
    70
  9
$TILEMODE
 70
     1
  9
$MAXACTVP
 70
    64
  9
$PINSBASE
 10
0.0
 20
0.0
 30
0.0
  9
$PLIMCHECK
 70
     0
  9
$PEXTMIN
 10
1.000000000000000E+20
 20
1.000000000000000E+20
 30
1.000000000000000E+20
  9
$PEXTMAX
 10
-1.000000000000000E+20
 20
-1.000000000000000E+20
 30
-1.000000000000000E+20
  9
$PLIMMIN
 10
0.0
 20
0.0
  9
$PLIMMAX
 10
12.0
 20
9.0
  9
$UNITMODE
 70
     0
  9
$VISRETAIN
 70
     1
  9
$PLINEGEN
 70
     0
  9
$PSLTSCALE
 70
     1
  9
$TREEDEPTH
 70
  3020
  9
$CMLSTYLE
  2
Standard
  9
$CMLJUST
 70
     0
  9
$CMLSCALE
 40
1.0
  9
$PROXYGRAPHICS
 70
     1
  9
$MEASUREMENT
 70
     0
  9
$CELWEIGHT
370
    -1
  9
$ENDCAPS
280
     0
  9
$JOINSTYLE
280
     0
  9
$LWDISPLAY
290
     0
  9
$INSUNITS
 70
     1
  9
$HYPERLINKBASE
  1

  9
$STYLESHEET
  1

  9
$XEDIT
290
     1
  9
$CEPSNTYPE
380
     0
  9
$PSTYLEMODE
290
     1
  9
$FINGERPRINTGUID
  2
{DF4D2E15-718E-46B8-BEF7-9A4CE0307D7B}
  9
$VERSIONGUID
  2
{FAEB1C32-E019-11D5-929B-00C0DF256EC4}
  9
$EXTNAMES
290
     1
  9
$PSVPSCALE
 40
0.0
  9
$OLESTARTUP
290
     0
  0
ENDSEC
  0
SECTION
  2
CLASSES
  0
CLASS
  1
ACDBDICTIONARYWDFLT
  2
AcDbDictionaryWithDefault
  3
ObjectDBX Classes
 90
        0
280
     0
281
     0
  0
CLASS
  1
VISUALSTYLE
  2
AcDbVisualStyle
  3
ObjectDBX Classes
 90
     4095
280
     0
281
     0
  0
CLASS
  1
SCALE
  2
AcDbScale
  3
ObjectDBX Classes
 90
     1153
280
     0
281
     0
  0
CLASS
  1
DICTIONARYVAR
  2
AcDbDictionaryVar
  3
ObjectDBX Classes
 90
        0
280
     0
281
     0
  0
CLASS
  1
ACDBPLACEHOLDER
  2
AcDbPlaceHolder
  3
ObjectDBX Classes
 90
        0
280
     0
281
     0
  0
CLASS
  1
LAYOUT
  2
AcDbLayout
  3
ObjectDBX Classes
 90
        0
280
     0
281
     0
  0
ENDSEC
  0
SECTION
  2
TABLES
  0
TABLE
  2
VPORT
  5
8
330
0
100
AcDbSymbolTable
 70
     1
  0
VPORT
  5
29
330
8
100
AcDbSymbolTableRecord
100
AcDbViewportTableRecord
  2
*Active
 70
     0
 10
0.0
 20
0.0
 11
1.0
 21
1.0
 12
10.42990654205607
 22
4.5
 13
0.0
 23
0.0
 14
0.5
 24
0.5
 15
0.5
 25
0.5
 16
0.0
 26
0.0
 36
1.0
 17
0.0
 27
0.0
 37
0.0
 40
9.0
 41
1.972972972850329
 42
50.0
 43
0.0
 44
0.0
 50
0.0
 51
0.0
 71
     0
 72
   100
 73
     1
 74
     3
 75
     0
 76
     0
 77
     0
 78
     0
281
     0
 65
     1
110
0.0
120
0.0
130
0.0
111
1.0
121
0.0
131
0.0
112
0.0
122
1.0
132
0.0
 79
     0
146
0.0
  0
ENDTAB
  0
TABLE
  2
LTYPE
  5
5
330
0
100
AcDbSymbolTable
 70
     2
  0
LTYPE
  5
14
330
5
100
AcDbSymbolTableRecord
100
AcDbLinetypeTableRecord
  2
ByBlock
 70
     0
  3

 72
    65
 73
     0
 40
0.0
  0
LTYPE
  5
15
330
5
100
AcDbSymbolTableRecord
100
AcDbLinetypeTableRecord
  2
ByLayer
 70
     0
  3

 72
    65
 73
     0
 40
0.0
  0
LTYPE
  5
16
330
5
100
AcDbSymbolTableRecord
100
AcDbLinetypeTableRecord
  2
Continuous
 70
     0
  3
Solid line
 72
    65
 73
     0
 40
0.0
  0
LTYPE
  5
6A
330
5
100
AcDbSymbolTableRecord
100
AcDbLinetypeTableRecord
  2
CENTER2
 70
     0
  3
Center (.5x) ___ _ ___ _ ___ _ ___ _ ___ _ ___
 72
    65
 73
     4
 40
1.125
 49
0.75
 74
     0
 49
-0.125
 74
     0
 49
0.125
 74
     0
 49
-0.125
 74
     0
  0
ENDTAB
  0
TABLE
  2
LAYER
  5
2
330
0
100
AcDbSymbolTable
 70
     5
  0
LAYER
  5
10
330
2
100
AcDbSymbolTableRecord
100
AcDbLayerTableRecord
  2
0
 70
     0
 62
     7
  6
Continuous
370
    -3
390
F
  0
LAYER
  5
5D
330
2
100
AcDbSymbolTableRecord
100
AcDbLayerTableRecord
  2
VISIBLE
 70
     0
 62
     7
  6
Continuous
370
     0
390
F
  0
LAYER
  5
6B
330
2
100
AcDbSymbolTableRecord
100
AcDbLayerTableRecord
  2
BEND CENTERS
 70
     0
 62
   204
  6
CENTER2
370
     0
390
F
  0
LAYER
  5
6D
330
2
100
AcDbSymbolTableRecord
100
AcDbLayerTableRecord
  2
DIMENSIONS
 70
     0
 62
     7
  6
Continuous
370
     0
390
F
  0
LAYER
  5
AC
330
2
100
AcDbSymbolTableRecord
100
AcDbLayerTableRecord
  2
CONTINUOUS
 70
     0
 62
     7
  6
Continuous
370
     0
390
F
  0
ENDTAB
  0
TABLE
  2
STYLE
  5
3
330
0
100
AcDbSymbolTable
 70
     1
  0
STYLE
  5
11
330
3
100
AcDbSymbolTableRecord
100
AcDbTextStyleTableRecord
  2
Standard
 70
     0
 40
0.125
 41
1.0
 50
0.0
 71
     0
 42
0.2
  3
txt
  4

1001
ACAD
1000
Arial
1071
        0
  0
ENDTAB
  0
TABLE
  2
VIEW
  5
6
330
0
100
AcDbSymbolTable
 70
     0
  0
ENDTAB
  0
TABLE
  2
UCS
  5
7
330
0
100
AcDbSymbolTable
 70
     0
  0
ENDTAB
  0
TABLE
  2
APPID
  5
9
330
0
100
AcDbSymbolTable
 70
     1
  0
APPID
  5
12
330
9
100
AcDbSymbolTableRecord
100
AcDbRegAppTableRecord
  2
ACAD
 70
     0
  0
ENDTAB
  0
TABLE
  2
DIMSTYLE
  5
A
330
0
100
AcDbSymbolTable
 70
     1
100
AcDbDimStyleTable
  0
DIMSTYLE
105
27
102
{ACAD_REACTORS
330
6E
330
7B
330
88
330
95
330
A2
102
}
330
A
100
AcDbSymbolTableRecord
100
AcDbDimStyleTableRecord
  2
Standard
 70
     0
340
11
  0
ENDTAB
  0
TABLE
  2
BLOCK_RECORD
  5
1
330
0
100
AcDbSymbolTable
 70
     7
  0
BLOCK_RECORD
  5
1F
330
1
100
AcDbSymbolTableRecord
100
AcDbBlockTableRecord
  2
*Model_Space
340
22
  0
BLOCK_RECORD
  5
1B
330
1
100
AcDbSymbolTableRecord
100
AcDbBlockTableRecord
  2
*Paper_Space
340
1E
  0
BLOCK_RECORD
  5
23
330
1
100
AcDbSymbolTableRecord
100
AcDbBlockTableRecord
  2
*Paper_Space0
340
26
  0
BLOCK_RECORD
  5
6F
330
1
100
AcDbSymbolTableRecord
100
AcDbBlockTableRecord
  2
D1
340
0
  0
BLOCK_RECORD
  5
7C
330
1
100
AcDbSymbolTableRecord
100
AcDbBlockTableRecord
  2
D2
340
0
  0
BLOCK_RECORD
  5
89
330
1
100
AcDbSymbolTableRecord
100
AcDbBlockTableRecord
  2
D3
340
0
  0
BLOCK_RECORD
  5
96
330
1
100
AcDbSymbolTableRecord
100
AcDbBlockTableRecord
  2
D4
340
0
  0
BLOCK_RECORD
  5
A3
330
1
100
AcDbSymbolTableRecord
100
AcDbBlockTableRecord
  2
D5
340
0
  0
BLOCK_RECORD
  5
B4
330
1
100
AcDbSymbolTableRecord
100
AcDbBlockTableRecord
  2
BLOCK1
340
0
102
{BLKREFS
331
B3
102
}
  0
ENDTAB
  0
ENDSEC
  0
SECTION
  2
BLOCKS
  0
BLOCK
  5
20
330
1F
100
AcDbEntity
  8
0
100
AcDbBlockBegin
  2
*Model_Space
 70
     0
 10
0.0
 20
0.0
 30
0.0
  3
*Model_Space
  1

  0
ENDBLK
  5
21
330
1F
100
AcDbEntity
  8
0
100
AcDbBlockEnd
  0
BLOCK
  5
1C
330
1B
100
AcDbEntity
 67
     1
  8
0
100
AcDbBlockBegin
  2
*Paper_Space
 70
     0
 10
0.0
 20
0.0
 30
0.0
  3
*Paper_Space
  1

  0
ENDBLK
  5
1D
330
1B
100
AcDbEntity
 67
     1
  8
0
100
AcDbBlockEnd
  0
BLOCK
  5
24
330
23
100
AcDbEntity
  8
0
100
AcDbBlockBegin
  2
*Paper_Space0
 70
     0
 10
0.0
 20
0.0
 30
0.0
  3
*Paper_Space0
  1

  0
ENDBLK
  5
25
330
23
100
AcDbEntity
  8
0
100
AcDbBlockEnd
  0
BLOCK
  5
70
330
6F
100
AcDbEntity
  8
0
100
AcDbBlockBegin
  2
D1
 70
     0
 10
0.0
 20
0.0
 30
0.0
  3
D1
  1

  0
MTEXT
  5
72
330
6F
100
AcDbEntity
  8
DIMENSIONS
100
AcDbMText
 10
1.39602781280758
 20
5.85910827156126
 30
0.0
 40
0.0895833333333333
 41
0.0
 71
     5
 72
     1
  1
{\fArial|b0|i0|c0|p0;20.00}{\fMS Shell Dlg|b0|i0|c0|p0;\H0.9444444x;}
 73
     1
 44
1.0
  0
MTEXT
  5
73
330
6F
100
AcDbEntity
  8
DIMENSIONS
100
AcDbMText
 10
1.39602781280758
 20
5.85910827156126
 30
0.0
 40
0.0895833333333333
 41
0.0
 71
     5
 72
     1
  1
{\fArial|b0|i0|c0|p0;}
 73
     1
 44
1.0
  0
MTEXT
  5
74
330
6F
100
AcDbEntity
  8
DIMENSIONS
100
AcDbMText
 10
1.39602781280758
 20
5.85910827156126
 30
0.0
 40
0.0895833333333333
 41
0.0
 71
     5
 72
     1
  1
{\fArial|b0|i0|c0|p0;}
 73
     1
 44
1.0
  0
LINE
  5
75
330
6F
100
AcDbEntity
  8
DIMENSIONS
100
AcDbLine
 10
2.701836293137914
 20
8.35910827156126
 30
0.0
 11
1.33352781280758
 21
8.35910827156126
 31
0.0
  0
LINE
  5
76
330
6F
100
AcDbEntity
  8
DIMENSIONS
100
AcDbLine
 10
2.701836293137914
 20
3.35910827156126
 30
0.0
 11
1.33352781280758
 21
3.35910827156126
 31
0.0
  0
LWPOLYLINE
  5
77
330
6F
100
AcDbEntity
  8
DIMENSIONS
100
AcDbPolyline
 90
        4
 70
     0
 43
0.0
 10
1.39602781280758
 20
8.35910827156126
 10
1.411027812807581
 20
8.26910827156126
 10
1.381027812807581
 20
8.26910827156126
 10
1.39602781280758
 20
8.35910827156126
  0
LINE
  5
78
330
6F
100
AcDbEntity
  8
DIMENSIONS
100
AcDbLine
 10
1.39602781280758
 20
8.26910827156126
 30
0.0
 11
1.396027662622642
 21
5.984108270622604
 31
0.0
  0
LWPOLYLINE
  5
79
330
6F
100
AcDbEntity
  8
DIMENSIONS
100
AcDbPolyline
 90
        4
 70
     0
 43
0.0
 10
1.396027812807581
 20
3.35910827156126
 10
1.381027812807582
 20
3.44910827156126
 10
1.411027812807581
 20
3.44910827156126
 10
1.396027812807581
 20
3.35910827156126
  0
LINE
  5
7A
330
6F
100
AcDbEntity
  8
DIMENSIONS
100
AcDbLine
 10
1.39602781280758
 20
3.44910827156126
 30
0.0
 11
1.396027662622642
 21
5.734108272499915
 31
0.0
  0
ENDBLK
  5
71
330
6F
100
AcDbEntity
  8
0
100
AcDbBlockEnd
  0
BLOCK
  5
7D
330
7C
100
AcDbEntity
  8
0
100
AcDbBlockBegin
  2
D2
 70
     0
 10
0.0
 20
0.0
 30
0.0
  3
D2
  1

  0
MTEXT
  5
7F
330
7C
100
AcDbEntity
  8
DIMENSIONS
100
AcDbMText
 10
2.115544747179882
 20
7.10910827156126
 30
0.0
 40
0.0895833333333333
 41
0.0
 71
     5
 72
     1
  1
{\fArial|b0|i0|c0|p0;10.00}{\fMS Shell Dlg|b0|i0|c0|p0;\H0.9444444x;}
 73
     1
 44
1.0
  0
MTEXT
  5
80
330
7C
100
AcDbEntity
  8
DIMENSIONS
100
AcDbMText
 10
2.115544747179882
 20
7.10910827156126
 30
0.0
 40
0.0895833333333333
 41
0.0
 71
     5
 72
     1
  1
{\fArial|b0|i0|c0|p0;}
 73
     1
 44
1.0
  0
MTEXT
  5
81
330
7C
100
AcDbEntity
  8
DIMENSIONS
100
AcDbMText
 10
2.115544747179882
 20
7.10910827156126
 30
0.0
 40
0.0895833333333333
 41
0.0
 71
     5
 72
     1
  1
{\fArial|b0|i0|c0|p0;}
 73
     1
 44
1.0
  0
LINE
  5
82
330
7C
100
AcDbEntity
  8
DIMENSIONS
100
AcDbLine
 10
2.701836293137914
 20
8.35910827156126
 30
0.0
 11
2.053044747179882
 21
8.35910827156126
 31
0.0
  0
LINE
  5
83
330
7C
100
AcDbEntity
  8
DIMENSIONS
100
AcDbLine
 10
3.326836293137914
 20
5.85910827156126
 30
0.0
 11
2.053044747179882
 21
5.85910827156126
 31
0.0
  0
LWPOLYLINE
  5
84
330
7C
100
AcDbEntity
  8
DIMENSIONS
100
AcDbPolyline
 90
        4
 70
     0
 43
0.0
 10
2.115544747179882
 20
8.35910827156126
 10
2.130544747179882
 20
8.26910827156126
 10
2.100544747179882
 20
8.26910827156126
 10
2.115544747179882
 20
8.35910827156126
  0
LINE
  5
85
330
7C
100
AcDbEntity
  8
DIMENSIONS
100
AcDbLine
 10
2.115544747179882
 20
8.26910827156126
 30
0.0
 11
2.115544897364815
 21
7.234108181450301
 31
0.0
  0
LWPOLYLINE
  5
86
330
7C
100
AcDbEntity
  8
DIMENSIONS
100
AcDbPolyline
 90
        4
 70
     0
 43
0.0
 10
2.115544747179882
 20
5.85910827156126
 10
2.100544747179882
 20
5.94910827156126
 10
2.130544747179882
 20
5.94910827156126
 10
2.115544747179882
 20
5.85910827156126
  0
LINE
  5
87
330
7C
100
AcDbEntity
  8
DIMENSIONS
100
AcDbLine
 10
2.115544747179882
 20
5.94910827156126
 30
0.0
 11
2.115544897364815
 21
6.984108230260404
 31
0.0
  0
ENDBLK
  5
7E
330
7C
100
AcDbEntity
  8
0
100
AcDbBlockEnd
  0
BLOCK
  5
8A
330
89
100
AcDbEntity
  8
0
100
AcDbBlockBegin
  2
D3
 70
     0
 10
0.0
 20
0.0
 30
0.0
  3
D3
  1

  0
MTEXT
  5
8C
330
89
100
AcDbEntity
  8
DIMENSIONS
100
AcDbMText
 10
3.076836293137914
 20
5.47732375738188
 30
0.0
 40
0.0895833333333333
 41
0.0
 71
     5
 72
     1
  1
{\fArial|b0|i0|c0|p0;2.50}{\fMS Shell Dlg|b0|i0|c0|p0;\H0.9444444x;}
 73
     1
 44
1.0
  0
MTEXT
  5
8D
330
89
100
AcDbEntity
  8
DIMENSIONS
100
AcDbMText
 10
3.076836293137914
 20
5.47732375738188
 30
0.0
 40
0.0895833333333333
 41
0.0
 71
     5
 72
     1
  1
{\fArial|b0|i0|c0|p0;}
 73
     1
 44
1.0
  0
MTEXT
  5
8E
330
89
100
AcDbEntity
  8
DIMENSIONS
100
AcDbMText
 10
2.965725182026803
 20
5.35232375738188
 30
0.0
 40
0.0895833333333333
 41
0.0
 71
     4
 72
     1
  1
{\fArial|b0|i0|c0|p0;TYP}{\fArial|b0|i0|c0|p0;}
 73
     1
 44
1.0
  0
LINE
  5
8F
330
89
100
AcDbEntity
  8
DIMENSIONS
100
AcDbLine
 10
2.764336293137914
 20
5.67160827156126
 30
0.0
 11
2.764336293137914
 21
5.41482375738188
 31
0.0
  0
LINE
  5
90
330
89
100
AcDbEntity
  8
DIMENSIONS
100
AcDbLine
 10
3.389336293137914
 20
5.79660827156126
 30
0.0
 11
3.389336293137914
 21
5.41482375738188
 31
0.0
  0
LWPOLYLINE
  5
91
330
89
100
AcDbEntity
  8
DIMENSIONS
100
AcDbPolyline
 90
        4
 70
     0
 43
0.0
 10
2.764336293137914
 20
5.47732375738188
 10
2.854336293137914
 20
5.49232375738188
 10
2.854336293137914
 20
5.462323757381879
 10
2.764336293137914
 20
5.47732375738188
  0
LINE
  5
92
330
89
100
AcDbEntity
  8
DIMENSIONS
100
AcDbLine
 10
2.854336293137914
 20
5.47732375738188
 30
0.0
 11
2.903225275475205
 21
5.477323766768438
 31
0.0
  0
LWPOLYLINE
  5
93
330
89
100
AcDbEntity
  8
DIMENSIONS
100
AcDbPolyline
 90
        4
 70
     0
 43
0.0
 10
3.389336293137914
 20
5.47732375738188
 10
3.299336293137914
 20
5.462323757381879
 10
3.299336293137914
 20
5.49232375738188
 10
3.389336293137914
 20
5.47732375738188
  0
LINE
  5
94
330
89
100
AcDbEntity
  8
DIMENSIONS
100
AcDbLine
 10
3.299336293137914
 20
5.47732375738188
 30
0.0
 11
3.250447536078021
 21
5.477323766768438
 31
0.0
  0
ENDBLK
  5
8B
330
89
100
AcDbEntity
  8
0
100
AcDbBlockEnd
  0
BLOCK
  5
97
330
96
100
AcDbEntity
  8
0
100
AcDbBlockBegin
  2
D4
 70
     0
 10
0.0
 20
0.0
 30
0.0
  3
D4
  1

  0
MTEXT
  5
99
330
96
100
AcDbEntity
  8
DIMENSIONS
100
AcDbMText
 10
5.889336293137914
 20
2.819516940379694
 30
0.0
 40
0.0895833333333333
 41
0.0
 71
     5
 72
     1
  1
{\fArial|b0|i0|c0|p0;25.00}{\fMS Shell Dlg|b0|i0|c0|p0;\H0.9444444x;}
 73
     1
 44
1.0
  0
MTEXT
  5
9A
330
96
100
AcDbEntity
  8
DIMENSIONS
100
AcDbMText
 10
5.889336293137914
 20
2.819516940379694
 30
0.0
 40
0.0895833333333333
 41
0.0
 71
     5
 72
     1
  1
{\fArial|b0|i0|c0|p0;}
 73
     1
 44
1.0
  0
MTEXT
  5
9B
330
96
100
AcDbEntity
  8
DIMENSIONS
100
AcDbMText
 10
5.889336293137914
 20
2.819516940379694
 30
0.0
 40
0.0895833333333333
 41
0.0
 71
     5
 72
     1
  1
{\fArial|b0|i0|c0|p0;}
 73
     1
 44
1.0
  0
LINE
  5
9C
330
96
100
AcDbEntity
  8
DIMENSIONS
100
AcDbLine
 10
9.014336293137914
 20
3.29660827156126
 30
0.0
 11
9.014336293137914
 21
2.757016940379694
 31
0.0
  0
LINE
  5
9D
330
96
100
AcDbEntity
  8
DIMENSIONS
100
AcDbLine
 10
2.764336293137914
 20
3.29660827156126
 30
0.0
 11
2.764336293137914
 21
2.757016940379694
 31
0.0
  0
LWPOLYLINE
  5
9E
330
96
100
AcDbEntity
  8
DIMENSIONS
100
AcDbPolyline
 90
        4
 70
     0
 43
0.0
 10
9.014336293137914
 20
2.819516940379695
 10
8.924336293137914
 20
2.804516940379695
 10
8.924336293137914
 20
2.834516940379695
 10
9.014336293137914
 20
2.819516940379695
  0
LINE
  5
9F
330
96
100
AcDbEntity
  8
DIMENSIONS
100
AcDbLine
 10
8.924336293137914
 20
2.819516940379694
 30
0.0
 11
6.090725182548279
 21
2.819516940379696
 31
0.0
  0
LWPOLYLINE
  5
A0
330
96
100
AcDbEntity
  8
DIMENSIONS
100
AcDbPolyline
 90
        4
 70
     0
 43
0.0
 10
2.764336293137914
 20
2.819516940379694
 10
2.854336293137914
 20
2.834516940379694
 10
2.854336293137914
 20
2.804516940379695
 10
2.764336293137914
 20
2.819516940379694
  0
LINE
  5
A1
330
96
100
AcDbEntity
  8
DIMENSIONS
100
AcDbLine
 10
2.854336293137914
 20
2.819516940379694
 30
0.0
 11
5.687947403727549
 21
2.819516940379696
 31
0.0
  0
ENDBLK
  5
98
330
96
100
AcDbEntity
  8
0
100
AcDbBlockEnd
  0
BLOCK
  5
A4
330
A3
100
AcDbEntity
  8
0
100
AcDbBlockBegin
  2
D5
 70
     0
 10
0.0
 20
0.0
 30
0.0
  3
D5
  1

  0
MTEXT
  5
A6
330
A3
100
AcDbEntity
  8
DIMENSIONS
100
AcDbMText
 10
4.185991061954043
 20
6.152788297397874
 30
0.0
 40
0.0895833333333333
 41
0.0
 71
     5
 72
     1
  1
{\fArial|b0|i0|c0|p0;R.50}{\fMS Shell Dlg|b0|i0|c0|p0;\H0.9444444x;}
 73
     1
 44
1.0
  0
MTEXT
  5
A7
330
A3
100
AcDbEntity
  8
DIMENSIONS
100
AcDbMText
 10
4.185991061954043
 20
6.152788297397874
 30
0.0
 40
0.0895833333333333
 41
0.0
 71
     5
 72
     1
  1
{\fArial|b0|i0|c0|p0;}
 73
     1
 44
1.0
  0
MTEXT
  5
A8
330
A3
100
AcDbEntity
  8
DIMENSIONS
100
AcDbMText
 10
4.185991061954043
 20
6.152788297397874
 30
0.0
 40
0.0895833333333333
 41
0.0
 71
     5
 72
     1
  1
{\fArial|b0|i0|c0|p0;}
 73
     1
 44
1.0
  0
LINE
  5
A9
330
A3
100
AcDbEntity
  8
DIMENSIONS
100
AcDbLine
 10
4.005435493048716
 20
6.152788288011315
 30
0.0
 11
3.755435493048716
 21
6.152788288011315
 31
0.0
  0
LINE
  5
AA
330
A3
100
AcDbEntity
  8
DIMENSIONS
100
AcDbLine
 10
3.556855664406455
 20
5.993490089069417
 30
0.0
 11
3.755435493048716
 21
6.152788288011315
 31
0.0
  0
LWPOLYLINE
  5
AB
330
A3
100
AcDbEntity
  8
DIMENSIONS
100
AcDbPolyline
 90
        4
 70
     0
 43
0.0
 10
3.486770653121614
 20
5.937268835170916
 10
3.547587886587627
 20
6.00528548102721
 10
3.566359921272587
 20
5.981884397424379
 10
3.486770653121614
 20
5.937268835170916
  0
ENDBLK
  5
A5
330
A3
100
AcDbEntity
  8
0
100
AcDbBlockEnd
  0
BLOCK
  5
B5
330
B4
100
AcDbEntity
  8
0
100
AcDbBlockBegin
  2
BLOCK1
 70
     0
 10
0.0
 20
0.0
 30
0.0
  3
BLOCK1
  1

  0
LINE
  5
B7
330
B4
100
AcDbEntity
  8
CONTINUOUS
100
AcDbLine
 10
0.0
 20
0.0
 30
0.0
 11
16.00000000000004
 21
0.0
 31
0.0
  0
LINE
  5
B8
330
B4
100
AcDbEntity
  8
CONTINUOUS
100
AcDbLine
 10
16.00000000000004
 20
10.0
 30
0.0
 11
0.0
 21
10.0
 31
0.0
  0
LINE
  5
B9
330
B4
100
AcDbEntity
  8
CONTINUOUS
100
AcDbLine
 10
0.6200000000000196
 20
0.3800000000000016
 30
0.0
 11
15.37999999999996
 21
0.3800000000000016
 31
0.0
  0
LINE
  5
BA
330
B4
100
AcDbEntity
  8
CONTINUOUS
100
AcDbLine
 10
15.38
 20
9.620000000000001
 30
0.0
 11
0.6200000000000393
 21
9.620000000000001
 31
0.0
  0
LWPOLYLINE
  5
BB
330
B4
100
AcDbEntity
  8
CONTINUOUS
100
AcDbPolyline
 90
        5
 70
     0
 43
0.0
 10
7.85
 20
0.2300000000000039
 10
8.15
 20
0.2300000000000039
 10
7.999999999999999
 20
0.3800000000000016
 10
7.999999999999999
 20
0.3800000000000016
 10
7.85
 20
0.2300000000000039
  0
LWPOLYLINE
  5
BC
330
B4
100
AcDbEntity
  8
CONTINUOUS
100
AcDbPolyline
 90
        5
 70
     0
 43
0.0
 10
7.85
 20
9.77
 10
8.15
 20
9.77
 10
7.999999999999999
 20
9.620000000000001
 10
7.999999999999999
 20
9.620000000000001
 10
7.85
 20
9.77
  0
LINE
  5
BD
330
B4
100
AcDbEntity
  8
CONTINUOUS
100
AcDbLine
 10
0.0
 20
10.0
 30
0.0
 11
0.0
 21
0.0
 31
0.0
  0
LINE
  5
BE
330
B4
100
AcDbEntity
  8
CONTINUOUS
100
AcDbLine
 10
0.6200000000000393
 20
9.620000000000001
 30
0.0
 11
0.6200000000000196
 21
0.3800000000000016
 31
0.0
  0
LWPOLYLINE
  5
BF
330
B4
100
AcDbEntity
  8
CONTINUOUS
100
AcDbPolyline
 90
        5
 70
     0
 43
0.0
 10
0.48
 20
4.85
 10
0.48
 20
5.15
 10
0.6200000000000196
 20
5.0
 10
0.6200000000000196
 20
5.0
 10
0.48
 20
4.85
  0
LINE
  5
C0
330
B4
100
AcDbEntity
  8
CONTINUOUS
100
AcDbLine
 10
16.00000000000004
 20
0.0
 30
0.0
 11
16.00000000000004
 21
10.0
 31
0.0
  0
LINE
  5
C1
330
B4
100
AcDbEntity
  8
CONTINUOUS
100
AcDbLine
 10
15.38
 20
0.3800000000000016
 30
0.0
 11
15.38
 21
9.620000000000001
 31
0.0
  0
LWPOLYLINE
  5
C2
330
B4
100
AcDbEntity
  8
CONTINUOUS
100
AcDbPolyline
 90
        5
 70
     0
 43
0.0
 10
15.52000000000004
 20
4.85
 10
15.52000000000004
 20
5.15
 10
15.38
 20
5.0
 10
15.38
 20
5.0
 10
15.52000000000004
 20
4.85
  0
LINE
  5
C3
330
B4
100
AcDbEntity
  8
CONTINUOUS
100
AcDbLine
 10
11.13
 20
0.6299999999999999
 30
0.0
 11
15.38
 21
0.6299999999999999
 31
0.0
  0
LINE
  5
C4
330
B4
100
AcDbEntity
  8
CONTINUOUS
100
AcDbLine
 10
11.13
 20
1.63
 30
0.0
 11
15.38
 21
1.63
 31
0.0
  0
LINE
  5
C5
330
B4
100
AcDbEntity
  8
CONTINUOUS
100
AcDbLine
 10
11.13
 20
0.3800000000000016
 30
0.0
 11
11.13
 21
2.129999999999996
 31
0.0
  0
LINE
  5
C6
330
B4
100
AcDbEntity
  8
CONTINUOUS
100
AcDbLine
 10
11.51
 20
0.6299999999999999
 30
0.0
 11
11.51
 21
1.01
 31
0.0
  0
LINE
  5
C7
330
B4
100
AcDbEntity
  8
CONTINUOUS
100
AcDbLine
 10
12.13
 20
0.3800000000000016
 30
0.0
 11
12.13
 21
0.6299999999999999
 31
0.0
  0
LINE
  5
C8
330
B4
100
AcDbEntity
  8
CONTINUOUS
100
AcDbLine
 10
12.63000000000004
 20
0.6299999999999999
 30
0.0
 11
12.63000000000004
 21
1.01
 31
0.0
  0
LINE
  5
C9
330
B4
100
AcDbEntity
  8
CONTINUOUS
100
AcDbLine
 10
13.63
 20
0.3800000000000016
 30
0.0
 11
13.63
 21
0.6299999999999999
 31
0.0
  0
LINE
  5
CA
330
B4
100
AcDbEntity
  8
CONTINUOUS
100
AcDbLine
 10
15.0
 20
0.6299999999999999
 30
0.0
 11
15.0
 21
1.01
 31
0.0
  0
LINE
  5
CB
330
B4
100
AcDbEntity
  8
CONTINUOUS
100
AcDbLine
 10
9.879999999999999
 20
9.37
 30
0.0
 11
15.38
 21
9.37
 31
0.0
  0
LINE
  5
CC
330
B4
100
AcDbEntity
  8
CONTINUOUS
100
AcDbLine
 10
9.879999999999999
 20
9.12
 30
0.0
 11
15.38
 21
9.12
 31
0.0
  0
LINE
  5
CD
330
B4
100
AcDbEntity
  8
CONTINUOUS
100
AcDbLine
 10
9.879999999999999
 20
9.620000000000001
 30
0.0
 11
9.879999999999999
 21
8.5727
 31
0.0
  0
LINE
  5
CE
330
B4
100
AcDbEntity
  8
CONTINUOUS
100
AcDbLine
 10
10.38
 20
9.12
 30
0.0
 11
10.38
 21
9.37
 31
0.0
  0
LINE
  5
CF
330
B4
100
AcDbEntity
  8
CONTINUOUS
100
AcDbLine
 10
10.76
 20
9.12
 30
0.0
 11
10.76
 21
9.37
 31
0.0
  0
LINE
  5
D0
330
B4
100
AcDbEntity
  8
CONTINUOUS
100
AcDbLine
 10
13.50000000000004
 20
9.12
 30
0.0
 11
13.50000000000004
 21
9.37
 31
0.0
  0
LINE
  5
D1
330
B4
100
AcDbEntity
  8
CONTINUOUS
100
AcDbLine
 10
14.38
 20
9.12
 30
0.0
 11
14.38
 21
9.37
 31
0.0
  0
LINE
  5
D2
330
B4
100
AcDbEntity
  8
CONTINUOUS
100
AcDbLine
 10
7.999999999999999
 20
0.1300000000000051
 30
0.0
 11
7.999999999999999
 21
0.2300000000000039
 31
0.0
  0
LINE
  5
D3
330
B4
100
AcDbEntity
  8
CONTINUOUS
100
AcDbLine
 10
0.3800000000000016
 20
5.0
 30
0.0
 11
0.48
 21
5.0
 31
0.0
  0
LINE
  5
D4
330
B4
100
AcDbEntity
  8
CONTINUOUS
100
AcDbLine
 10
7.999999999999999
 20
9.870000000000001
 30
0.0
 11
7.999999999999999
 21
9.77
 31
0.0
  0
LINE
  5
D5
330
B4
100
AcDbEntity
  8
CONTINUOUS
100
AcDbLine
 10
15.62000000000004
 20
5.0
 30
0.0
 11
15.52000000000004
 21
5.0
 31
0.0
  0
LINE
  5
D6
330
B4
100
AcDbEntity
  8
CONTINUOUS
100
AcDbLine
 10
11.13
 20
1.4158617485185
 30
0.0
 11
9.129999999999999
 21
1.4158617485185
 31
0.0
  0
LINE
  5
D7
330
B4
100
AcDbEntity
  8
CONTINUOUS
100
AcDbLine
 10
9.129999999999999
 20
0.6995204745271615
 30
0.0
 11
7.124461979194095
 21
0.6995204745271615
 31
0.0
  0
LINE
  5
D8
330
B4
100
AcDbEntity
  8
CONTINUOUS
100
AcDbLine
 10
9.134604388150787
 20
2.129999999999996
 30
0.0
 11
9.134604388150787
 21
0.3799999999999996
 31
0.0
  0
LINE
  5
D9
330
B4
100
AcDbEntity
  8
CONTINUOUS
100
AcDbLine
 10
11.13
 20
1.774037191431886
 30
0.0
 11
9.129999999999999
 21
1.774037191431886
 31
0.0
  0
LINE
  5
DA
330
B4
100
AcDbEntity
  8
CONTINUOUS
100
AcDbLine
 10
9.129999999999999
 20
1.006522504546846
 30
0.0
 11
7.124461979194095
 21
1.006522504546846
 31
0.0
  0
LINE
  5
DB
330
B4
100
AcDbEntity
  8
CONTINUOUS
100
AcDbLine
 10
11.13
 20
1.01
 30
0.0
 11
15.38
 21
1.01
 31
0.0
  0
LINE
  5
DC
330
B4
100
AcDbEntity
  8
CONTINUOUS
100
AcDbLine
 10
11.13
 20
2.129999999999996
 30
0.0
 11
15.38
 21
2.129999999999996
 31
0.0
  0
LINE
  5
DD
330
B4
100
AcDbEntity
  8
CONTINUOUS
100
AcDbLine
 10
7.124461979194095
 20
2.129999999999996
 30
0.0
 11
7.124461979194095
 21
0.3799999999999996
 31
0.0
  0
LINE
  5
DE
330
B4
100
AcDbEntity
  8
CONTINUOUS
100
AcDbLine
 10
7.124461979194095
 20
2.129999999999996
 30
0.0
 11
11.13
 21
2.129999999999996
 31
0.0
  0
LINE
  5
DF
330
B4
100
AcDbEntity
  8
CONTINUOUS
100
AcDbLine
 10
11.13
 20
0.7287596785133819
 30
0.0
 11
9.129999999999999
 21
0.7287596785133819
 31
0.0
  0
LINE
  5
E0
330
B4
100
AcDbEntity
  8
CONTINUOUS
100
AcDbLine
 10
11.13
 20
1.072315519433854
 30
0.0
 11
9.129999999999999
 21
1.072315519433854
 31
0.0
  0
LINE
  5
E1
330
B4
100
AcDbEntity
  8
CONTINUOUS
100
AcDbLine
 10
10.11408888618228
 20
2.129999999999996
 30
0.0
 11
10.11408888618228
 21
0.3799999999999996
 31
0.0
  0
MTEXT
  5
E2
330
B4
100
AcDbEntity
  8
CONTINUOUS
100
AcDbMText
 10
12.583375
 20
9.48396
 30
0.0
 40
0.0696759259259259
 41
0.0
 71
     4
 72
     1
  1
{\fArial|b0|i0|c0|p0;\C7;REVISIONS}{\fArial|b0|i0|c0|p0;\C7;}
 73
     1
 44
1.0
  0
MTEXT
  5
E3
330
B4
100
AcDbEntity
  8
CONTINUOUS
100
AcDbMText
 10
9.176473544154724
 20
1.899404363553146
 30
0.0
 40
0.0895833333333333
 41
0.0
 71
     4
 72
     1
  1
{\fArial|b0|i0|c0|p0;\C7;CH}{\fArial|b0|i0|c0|p0;\C7;}
 73
     1
 44
1.0
  0
MTEXT
  5
E4
330
B4
100
AcDbEntity
  8
CONTINUOUS
100
AcDbMText
 10
14.614575
 20
9.24176
 30
0.0
 40
0.0696759259259259
 41
0.0
 71
     4
 72
     1
  1
{\fArial|b0|i0|c0|p0;\C7;APPROVED}{\fArial|b0|i0|c0|p0;\C7;}
 73
     1
 44
1.0
  0
MTEXT
  5
E5
330
B4
100
AcDbEntity
  8
CONTINUOUS
100
AcDbMText
 10
11.24972726585748
 20
0.7664026305387873
 30
0.0
 40
0.169212962962963
 41
0.0
 71
     4
 72
     1
  1
{\fArial|b0|i0|c0|p0;\C7;B}{\fArial|b0|i0|c0|p0;\C7;}
 73
     1
 44
1.0
  0
MTEXT
  5
E6
330
B4
100
AcDbEntity
  8
CONTINUOUS
100
AcDbMText
 10
9.169995166940158
 20
0.6396771858952717
 30
0.0
 40
0.0696759259259259
 41
0.0
 71
     4
 72
     1
  1
{\fArial|b0|i0|c0|p0;\C7;APPROVED}{\fArial|b0|i0|c0|p0;\C7;}
 73
     1
 44
1.0
  0
MTEXT
  5
E7
330
B4
100
AcDbEntity
  8
CONTINUOUS
100
AcDbMText
 10
9.169975943268899
 20
1.687472999748815
 30
0.0
 40
0.0696759259259259
 41
0.0
 71
     4
 72
     1
  1
{\fArial|b0|i0|c0|p0;\C7;CHECKED}{\fArial|b0|i0|c0|p0;\C7;}
 73
     1
 44
1.0
  0
MTEXT
  5
E8
330
B4
100
AcDbEntity
  8
CONTINUOUS
100
AcDbMText
 10
15.073675
 20
0.92736
 30
0.0
 40
0.0696759259259259
 41
0.0
 71
     4
 72
     1
  1
{\fArial|b0|i0|c0|p0;\C7;REV}{\fArial|b0|i0|c0|p0;\C7;}
 73
     1
 44
1.0
  0
MTEXT
  5
E9
330
B4
100
AcDbEntity
  8
CONTINUOUS
100
AcDbMText
 10
13.13451812192602
 20
0.7493454520116338
 30
0.0
 40
0.0895833333333333
 41
0.0
 71
     4
 72
     1
  1
{\fArial|b0|i0|c0|p0;\C7;}
 73
     1
 44
1.0
  0
MTEXT
  5
EA
330
B4
100
AcDbEntity
  8
CONTINUOUS
100
AcDbMText
 10
13.820875
 20
9.24176
 30
0.0
 40
0.0696759259259259
 41
0.0
 71
     4
 72
     1
  1
{\fArial|b0|i0|c0|p0;\C7;DATE}{\fArial|b0|i0|c0|p0;\C7;}
 73
     1
 44
1.0
  0
MTEXT
  5
EB
330
B4
100
AcDbEntity
  8
CONTINUOUS
100
AcDbMText
 10
-0.065749999999989
 20
3.072599999999992
 30
0.0
 40
0.2090277777777778
 41
0.0
 71
     4
 72
     1
  1
{\fArial|b0|i0|c0|p0;\C7;}
 73
     1
 44
1.0
  0
MTEXT
  5
EC
330
B4
100
AcDbEntity
  8
CONTINUOUS
100
AcDbMText
 10
9.981875
 20
9.24176
 30
0.0
 40
0.0696759259259259
 41
0.0
 71
     4
 72
     1
  1
{\fArial|b0|i0|c0|p0;\C7;ZONE}{\fArial|b0|i0|c0|p0;\C7;}
 73
     1
 44
1.0
  0
MTEXT
  5
ED
330
B4
100
AcDbEntity
  8
CONTINUOUS
100
AcDbMText
 10
11.175475
 20
0.5450834127254961
 30
0.0
 40
0.0696759259259259
 41
0.0
 71
     4
 72
     1
  1
{\fArial|b0|i0|c0|p0;\C7;SCALE}{\fArial|b0|i0|c0|p0;\C7;}
 73
     1
 44
1.0
  0
MTEXT
  5
EE
330
B4
100
AcDbEntity
  8
CONTINUOUS
100
AcDbMText
 10
13.6642245309424
 20
0.5392086662977362
 30
0.0
 40
0.0696759259259259
 41
0.0
 71
     4
 72
     1
  1
{\fArial|b0|i0|c0|p0;\C7;SHEET}{\fArial|b0|i0|c0|p0;\C7;}
 73
     1
 44
1.0
  0
MTEXT
  5
EF
330
B4
100
AcDbEntity
  8
CONTINUOUS
100
AcDbMText
 10
12.694175
 20
0.92736
 30
0.0
 40
0.0696759259259259
 41
0.0
 71
     4
 72
     1
  1
{\fArial|b0|i0|c0|p0;\C7;DWG NO.}{\fArial|b0|i0|c0|p0;\C7;}
 73
     1
 44
1.0
  0
MTEXT
  5
F0
330
B4
100
AcDbEntity
  8
CONTINUOUS
100
AcDbMText
 10
-0.065749999999989
 20
0.072599999999998
 30
0.0
 40
0.2090277777777778
 41
0.0
 71
     4
 72
     1
  1
{\fArial|b0|i0|c0|p0;\C7;}
 73
     1
 44
1.0
  0
MTEXT
  5
F1
330
B4
100
AcDbEntity
  8
CONTINUOUS
100
AcDbMText
 10
11.211075
 20
0.92736
 30
0.0
 40
0.0696759259259259
 41
0.0
 71
     4
 72
     1
  1
{\fArial|b0|i0|c0|p0;\C7;SIZE}{\fArial|b0|i0|c0|p0;\C7;}
 73
     1
 44
1.0
  0
MTEXT
  5
F2
330
B4
100
AcDbEntity
  8
CONTINUOUS
100
AcDbMText
 10
-0.065749999999989
 20
6.0726
 30
0.0
 40
0.2090277777777778
 41
0.0
 71
     4
 72
     1
  1
{\fArial|b0|i0|c0|p0;\C7;}
 73
     1
 44
1.0
  0
MTEXT
  5
F3
330
B4
100
AcDbEntity
  8
CONTINUOUS
100
AcDbMText
 10
11.755175
 20
9.24176
 30
0.0
 40
0.0696759259259259
 41
0.0
 71
     4
 72
     1
  1
{\fArial|b0|i0|c0|p0;\C7;DESCRIPTION}{\fArial|b0|i0|c0|p0;\C7;}
 73
     1
 44
1.0
  0
MTEXT
  5
F4
330
B4
100
AcDbEntity
  8
CONTINUOUS
100
AcDbMText
 10
10.453275
 20
9.24176
 30
0.0
 40
0.0696759259259259
 41
0.0
 71
     4
 72
     1
  1
{\fArial|b0|i0|c0|p0;\C7;REV}{\fArial|b0|i0|c0|p0;\C7;}
 73
     1
 44
1.0
  0
MTEXT
  5
F5
330
B4
100
AcDbEntity
  8
CONTINUOUS
100
AcDbMText
 10
10.16036026290472
 20
1.891782177898421
 30
0.0
 40
0.0895833333333333
 41
0.0
 71
     4
 72
     1
  1
{\fArial|b0|i0|c0|p0;\C7;7-DEC-2012}{\fArial|b0|i0|c0|p0;\C7;}
 73
     1
 44
1.0
  0
MTEXT
  5
F6
330
B4
100
AcDbEntity
  8
CONTINUOUS
100
AcDbMText
 10
9.169975943268899
 20
2.036738271033067
 30
0.0
 40
0.0696759259259259
 41
0.0
 71
     4
 72
     1
  1
{\fArial|b0|i0|c0|p0;\C7;DRAWN}{\fArial|b0|i0|c0|p0;\C7;}
 73
     1
 44
1.0
  0
MTEXT
  5
F7
330
B4
100
AcDbEntity
  8
CONTINUOUS
100
AcDbMText
 10
9.182106079833858
 20
0.9945461573519646
 30
0.0
 40
0.0696759259259259
 41
0.0
 71
     4
 72
     1
  1
{\fArial|b0|i0|c0|p0;\C7;MFG}{\fArial|b0|i0|c0|p0;\C7;}
 73
     1
 44
1.0
  0
MTEXT
  5
F8
330
B4
100
AcDbEntity
  8
CONTINUOUS
100
AcDbMText
 10
11.572075
 20
0.92736
 30
0.0
 40
0.0696759259259259
 41
0.0
 71
     4
 72
     1
  1
{\fArial|b0|i0|c0|p0;\C7;FSCM NO.}{\fArial|b0|i0|c0|p0;\C7;}
 73
     1
 44
1.0
  0
MTEXT
  5
F9
330
B4
100
AcDbEntity
  8
CONTINUOUS
100
AcDbMText
 10
9.180241383721654
 20
1.338207728464169
 30
0.0
 40
0.0696759259259259
 41
0.0
 71
     4
 72
     1
  1
{\fArial|b0|i0|c0|p0;\C7;QA}{\fArial|b0|i0|c0|p0;\C7;}
 73
     1
 44
1.0
  0
MTEXT
  5
FA
330
B4
100
AcDbEntity
  8
CONTINUOUS
100
AcDbMText
 10
10.16976063815079
 20
2.047244007376768
 30
0.0
 40
0.0696759259259259
 41
0.0
 71
     4
 72
     1
  1
{\fArial|b0|i0|c0|p0;\C7;DATE}{\fArial|b0|i0|c0|p0;\C7;}
 73
     1
 44
1.0
  0
ENDBLK
  5
B6
330
B4
100
AcDbEntity
  8
0
100
AcDbBlockEnd
  0
ENDSEC
  0
SECTION
  2
ENTITIES
  0
LINE
  5
5E
330
1F
100
AcDbEntity
  8
VISIBLE
100
AcDbLine
 10
3.389336293137914
 20
5.73410827156126
 30
0.0
 11
2.764336293137913
 21
5.73410827156126
 31
0.0
  0
ARC
  5
5F
330
1F
100
AcDbEntity
  8
VISIBLE
100
AcDbCircle
 10
3.389336293137914
 20
5.85910827156126
 30
0.0
 40
0.125
100
AcDbArc
 50
270.0
 51
90.0
  0
LINE
  5
60
330
1F
100
AcDbEntity
  8
VISIBLE
100
AcDbLine
 10
8.389336293137914
 20
5.98410827156126
 30
0.0
 11
9.014336293137914
 21
5.98410827156126
 31
0.0
  0
LINE
  5
61
330
1F
100
AcDbEntity
  8
VISIBLE
100
AcDbLine
 10
9.014336293137914
 20
8.35910827156126
 30
0.0
 11
9.014336293137914
 21
5.98410827156126
 31
0.0
  0
LINE
  5
62
330
1F
100
AcDbEntity
  8
VISIBLE
100
AcDbLine
 10
2.764336293137914
 20
5.98410827156126
 30
0.0
 11
3.389336293137915
 21
5.98410827156126
 31
0.0
  0
LINE
  5
63
330
1F
100
AcDbEntity
  8
VISIBLE
100
AcDbLine
 10
9.014336293137914
 20
5.73410827156126
 30
0.0
 11
8.389336293137914
 21
5.73410827156126
 31
0.0
  0
LINE
  5
64
330
1F
100
AcDbEntity
  8
VISIBLE
100
AcDbLine
 10
2.764336293137914
 20
5.98410827156126
 30
0.0
 11
2.764336293137914
 21
8.35910827156126
 31
0.0
  0
ARC
  5
65
330
1F
100
AcDbEntity
  8
VISIBLE
100
AcDbCircle
 10
8.389336293137914
 20
5.85910827156126
 30
0.0
 40
0.125
100
AcDbArc
 50
90.0
 51
270.0
  0
LINE
  5
66
330
1F
100
AcDbEntity
  8
VISIBLE
100
AcDbLine
 10
2.764336293137914
 20
3.35910827156126
 30
0.0
 11
2.764336293137914
 21
5.73410827156126
 31
0.0
  0
LINE
  5
67
330
1F
100
AcDbEntity
  8
VISIBLE
100
AcDbLine
 10
9.014336293137914
 20
3.35910827156126
 30
0.0
 11
2.764336293137914
 21
3.35910827156126
 31
0.0
  0
LINE
  5
68
330
1F
100
AcDbEntity
  8
VISIBLE
100
AcDbLine
 10
2.764336293137914
 20
8.35910827156126
 30
0.0
 11
9.014336293137914
 21
8.35910827156126
 31
0.0
  0
LINE
  5
69
330
1F
100
AcDbEntity
  8
VISIBLE
100
AcDbLine
 10
9.014336293137914
 20
5.73410827156126
 30
0.0
 11
9.014336293137914
 21
3.35910827156126
 31
0.0
  0
LINE
  5
6C
330
1F
100
AcDbEntity
  8
BEND CENTERS
100
AcDbLine
 10
5.889336293137914
 20
8.605019276536348
 30
0.0
 11
5.889336293137914
 21
3.010409197469389
 31
0.0
  0
DIMENSION
  5
6E
330
1F
100
AcDbEntity
  8
DIMENSIONS
100
AcDbDimension
  2
D1
 10
0.0
 20
0.0
 30
0.0
 11
7.285364105945495
 21
11.71821654312252
 31
0.0
 70
    32
  1
<>
 71
     5
 42
-1.0
 53
90.0
  3
Standard
100
AcDbAlignedDimension
 13
2.764336293137914
 23
8.35910827156126
 33
0.0
 14
2.764336293137914
 24
3.35910827156126
 34
0.0
 50
90.0
100
AcDbRotatedDimension
1001
ACAD
1000
DSTYLE
1002
{
1070
    76
1070
     0
1070
    75
1070
     0
1070
   282
1070
     0
1070
   281
1070
     0
1070
    77
1070
     0
1070
    79
1070
     0
1070
    78
1070
     0
1070
   272
1070
     2
1070
   271
1070
     2
1070
   179
1070
     2
1070
   140
1040
0.0895833333333333
1070
    71
1070
     0
1070
    72
1070
     0
1070
    48
1040
0.0000787401574803
1070
    47
1040
0.0001968503937008
1002
}
  0
DIMENSION
  5
7B
330
1F
100
AcDbEntity
  8
DIMENSIONS
100
AcDbDimension
  2
D2
 10
0.0
 20
0.0
 30
0.0
 11
8.004881040317796
 21
12.96821654312252
 31
0.0
 70
    32
  1
<>
 71
     5
 42
-1.0
 53
90.0
  3
Standard
100
AcDbAlignedDimension
 13
2.764336293137914
 23
8.35910827156126
 33
0.0
 14
3.389336293137914
 24
5.85910827156126
 34
0.0
 50
90.0
100
AcDbRotatedDimension
1001
ACAD
1000
DSTYLE
1002
{
1070
    76
1070
     0
1070
    75
1070
     0
1070
   282
1070
     0
1070
   281
1070
     0
1070
    77
1070
     0
1070
    79
1070
     0
1070
    78
1070
     0
1070
   272
1070
     2
1070
   271
1070
     2
1070
   179
1070
     2
1070
   140
1040
0.0895833333333333
1070
    71
1070
     0
1070
    72
1070
     0
1070
    48
1040
0.0000787401574803
1070
    47
1040
0.0001968503937008
1002
}
  0
DIMENSION
  5
88
330
1F
100
AcDbEntity
  8
DIMENSIONS
100
AcDbDimension
  2
D3
 10
0.0
 20
0.0
 30
0.0
 11
8.966172586275828
 21
11.33643202894314
 31
0.0
 70
    32
  1
<>TYP\P
 71
     5
 42
-1.0
 53
180.0
  3
Standard
100
AcDbAlignedDimension
 13
2.764336293137914
 23
5.73410827156126
 33
0.0
 14
3.389336293137914
 24
5.85910827156126
 34
0.0
 50
180.0
100
AcDbRotatedDimension
1001
ACAD
1000
DSTYLE
1002
{
1070
    76
1070
     0
1070
    75
1070
     0
1070
   282
1070
     0
1070
   281
1070
     0
1070
    77
1070
     0
1070
    79
1070
     0
1070
    78
1070
     0
1070
   272
1070
     2
1070
   271
1070
     2
1070
   179
1070
     2
1070
   140
1040
0.0895833333333333
1070
    71
1070
     0
1070
    72
1070
     0
1070
    48
1040
0.0000787401574803
1070
    47
1040
0.0001968503937008
1002
}
  0
DIMENSION
  5
95
330
1F
100
AcDbEntity
  8
DIMENSIONS
100
AcDbDimension
  2
D4
 10
0.0
 20
0.0
 30
0.0
 11
11.77867258627583
 21
8.678625211940954
 31
0.0
 70
    32
  1
<>
 71
     5
 42
-1.0
 53
180.0
  3
Standard
100
AcDbAlignedDimension
 13
9.014336293137914
 23
3.35910827156126
 33
0.0
 14
2.764336293137914
 24
3.35910827156126
 34
0.0
 50
180.0
100
AcDbRotatedDimension
1001
ACAD
1000
DSTYLE
1002
{
1070
    76
1070
     0
1070
    75
1070
     0
1070
   282
1070
     0
1070
   281
1070
     0
1070
    77
1070
     0
1070
    79
1070
     0
1070
    78
1070
     0
1070
   272
1070
     2
1070
   271
1070
     2
1070
   179
1070
     2
1070
   140
1040
0.0895833333333333
1070
    71
1070
     0
1070
    72
1070
     0
1070
    48
1040
0.0000787401574803
1070
    47
1040
0.0001968503937008
1002
}
  0
DIMENSION
  5
A2
330
1F
100
AcDbEntity
  8
DIMENSIONS
100
AcDbDimension
  2
D5
 10
3.389336293137914
 20
5.85910827156126
 30
0.0
 11
10.07532735509196
 21
12.01189656895913
 31
0.0
 70
    36
  1
<>
 71
     5
 42
-1.0
  3
Standard
100
AcDbRadialDimension
 15
3.499803438702588
 25
5.917606218113196
 35
0.0
 40
0.0
1001
ACAD
1000
DSTYLE
1002
{
1070
    76
1070
     0
1070
    75
1070
     0
1070
   282
1070
     0
1070
   281
1070
     0
1070
    77
1070
     0
1070
    79
1070
     0
1070
    78
1070
     0
1070
   272
1070
     2
1070
   271
1070
     2
1070
   179
1070
     2
1070
   140
1040
0.0895833333333333
1070
    71
1070
     0
1070
    72
1070
     0
1070
    48
1040
0.0000787401574803
1070
    47
1040
0.0001968503937008
1002
}
  0
MTEXT
  5
AD
330
1F
100
AcDbEntity
  8
CONTINUOUS
100
AcDbMText
 10
7.137477604422993
 20
2.357121751439855
 30
0.0
 40
0.1393518518518518
 41
0.0
 71
     1
 72
     1
  1
{\fArial|b0|i0|c0|p0;\C7;MAT'L: 1/8 THK H.R. STEEL}{\fArial|b0|i0|c0|p0;\C7;\H0.642857134x;}
 73
     1
 44
1.0
  0
MTEXT
  5
AE
330
1F
100
AcDbEntity
  8
CONTINUOUS
100
AcDbMText
 10
8.150675015186692
 20
1.691032061238929
 30
0.0
 40
0.0796296296296296
 41
0.0
 71
     2
 72
     1
  3
{\fArial Narrow|b0|i0|c0|p0;\C7;LICENSE INFORMATION}{\fArial Narrow|b0|i0|c0|p0;\C7;\P}{\fArial Narrow|b0|i0|c0|p0;\C7;\PALL INFORMATION IS RELEASED UNDER THE OSE}{\fArial Narrow|b0|i0|c0|p0;\C7;\PLICENSE FOR DISTRIBUTIVE ECONOMICS. FOR}{\fArial Nar
  1
row|b0|i0|c0|p0;\C7;\PFURTHER INFORMATION GO TO:}{\fArial Narrow|b0|i0|c0|p0;\C7;\POPENSOURCEECOLOGY.ORG/WIKI/LICENSE}{\fArial|b0|i0|c0|p0;\C7;\H1.125x;}
 73
     1
 44
1.0
  0
MTEXT
  5
AF
330
1F
100
AcDbEntity
  8
CONTINUOUS
100
AcDbMText
 10
5.786548524390985
 20
8.885258784256575
 30
0.0
 40
0.1791666666666667
 41
0.0
 71
     1
 72
     1
  1
{\fArial|b0|i0|c0|p0;\C7;C}{\fArial|b0|i0|c0|p0;\C7;\H0.5x;}
 73
     1
 44
1.0
  0
MTEXT
  5
B0
330
1F
100
AcDbEntity
  8
CONTINUOUS
100
AcDbMText
 10
5.859967930110433
 20
8.797154896653543
 30
0.0
 40
0.1791666666666667
 41
0.0
 71
     1
 72
     1
  1
{\fArial|b0|i0|c0|p0;\C7;L}{\fArial|b0|i0|c0|p0;\C7;\H0.5x;}
 73
     1
 44
1.0
  0
CIRCLE
  5
B1
330
1F
100
AcDbEntity
  8
CONTINUOUS
100
AcDbCircle
 10
13.42480877253016
 20
6.246217742679646
 30
0.0
 40
0.3250713484727417
  0
CIRCLE
  5
B2
330
1F
100
AcDbEntity
  8
CONTINUOUS
100
AcDbCircle
 10
13.45949908879799
 20
5.500372338482716
 30
0.0
 40
0.3250713484727417
  0
INSERT
  5
B3
330
1F
100
AcDbEntity
  8
CONTINUOUS
100
AcDbBlockReference
  2
BLOCK1
 10
0.0
 20
0.0
 30
0.0
  0
MTEXT
  5
FB
330
1F
100
AcDbEntity
  8
CONTINUOUS
100
AcDbMText
 10
11.26368605245756
 20
1.974396568959154
 30
0.0
 40
0.2388888888888889
 41
0.0
 71
     1
 72
     1
  1
{\fArial|b0|i0|c0|p0;\C7;Open Source Ecology}{\fArial|b0|i0|c0|p0;\C7;\H0.375x;}
 73
     1
 44
1.0
  0
MTEXT
  5
FC
330
1F
100
AcDbEntity
  8
CONTINUOUS
100
AcDbMText
 10
15.10955930694819
 20
0.848847366693449
 30
0.0
 40
0.1990740740740741
 41
0.0
 71
     1
 72
     1
  1
{\fArial|b0|i0|c0|p0;\C7;B}{\fArial|b0|i0|c0|p0;\C7;\H0.45x;}
 73
     1
 44
1.0
  0
MTEXT
  5
FD
330
1F
100
AcDbEntity
  8
CONTINUOUS
100
AcDbMText
 10
11.66015504852055
 20
6.350227992741143
 30
0.0
 40
0.2388888888888889
 41
0.0
 71
     1
 72
     1
  1
{\fArial|b0|i0|c0|p0;\C7;1X  INDEX 166}{\fArial|b0|i0|c0|p0;\C7;\H0.375x;}
 73
     1
 44
1.0
  0
MTEXT
  5
FE
330
1F
100
AcDbEntity
  8
CONTINUOUS
100
AcDbMText
 10
11.69646135465366
 20
5.593105502391418
 30
0.0
 40
0.2388888888888889
 41
0.0
 71
     1
 72
     1
  1
{\fArial|b0|i0|c0|p0;\C7;1X  INDEX 167}{\fArial|b0|i0|c0|p0;\C7;\H0.375x;}
 73
     1
 44
1.0
  0
MTEXT
  5
FF
330
1F
100
AcDbEntity
  8
CONTINUOUS
100
AcDbMText
 10
11.35770302119217
 20
1.421786210668366
 30
0.0
 40
0.1990740740740741
 41
0.0
 71
     1
 72
     1
  1
{\fArial|b0|i0|c0|p0;\C7;Drawer Cylinder Cover}{\fArial|b0|i0|c0|p0;\C7;}
 73
     1
 44
1.0
  0
ENDSEC
  0
SECTION
  2
OBJECTS
  0
DICTIONARY
  5
C
330
0
100
AcDbDictionary
281
     1
  3
ACAD_GROUP
350
D
  3
ACAD_LAYOUT
350
1A
  3
ACAD_MLEADERSTYLE
350
103
  3
ACAD_MLINESTYLE
350
17
  3
ACAD_PLOTSETTINGS
350
19
  3
ACAD_PLOTSTYLENAME
350
E
  3
ACAD_SCALELIST
350
3B
  3
ACAD_TABLESTYLE
350
102
  3
ACAD_VISUALSTYLE
350
2A
  3
AcDbVariableDictionary
350
100
  0
DICTIONARY
  5
D
102
{ACAD_REACTORS
330
C
102
}
330
C
100
AcDbDictionary
281
     1
  0
DICTIONARY
  5
1A
102
{ACAD_REACTORS
330
C
102
}
330
C
100
AcDbDictionary
281
     1
  3
Layout1
350
1E
  3
Layout2
350
26
  3
Model
350
22
  0
DICTIONARY
  5
103
102
{ACAD_REACTORS
330
C
102
}
330
C
100
AcDbDictionary
281
     1
  0
DICTIONARY
  5
17
102
{ACAD_REACTORS
330
C
102
}
330
C
100
AcDbDictionary
281
     1
  3
Standard
350
18
  0
DICTIONARY
  5
19
102
{ACAD_REACTORS
330
C
102
}
330
C
100
AcDbDictionary
281
     1
  0
ACDBDICTIONARYWDFLT
  5
E
102
{ACAD_REACTORS
330
C
102
}
330
C
100
AcDbDictionary
281
     1
  3
Normal
350
F
100
AcDbDictionaryWithDefault
340
F
  0
DICTIONARY
  5
3B
102
{ACAD_REACTORS
330
C
102
}
330
C
100
AcDbDictionary
281
     1
  3
A0
350
3C
  3
A1
350
3D
  3
A2
350
3E
  3
A3
350
3F
  3
A4
350
40
  3
A5
350
41
  3
A6
350
42
  3
A7
350
43
  3
A8
350
44
  3
A9
350
45
  3
B0
350
46
  3
B1
350
47
  3
B2
350
48
  3
B3
350
49
  3
B4
350
4A
  3
B5
350
4B
  3
B6
350
4C
  3
B7
350
4D
  3
B8
350
4E
  3
B9
350
4F
  3
C0
350
50
  3
C1
350
51
  3
C2
350
52
  3
C3
350
53
  3
C4
350
54
  3
C5
350
55
  3
C6
350
56
  3
C7
350
57
  3
C8
350
58
  3
C9
350
59
  3
D0
350
5A
  3
D1
350
5B
  3
D2
350
5C
  0
DICTIONARY
  5
102
102
{ACAD_REACTORS
330
C
102
}
330
C
100
AcDbDictionary
281
     1
  0
DICTIONARY
  5
2A
102
{ACAD_REACTORS
330
C
102
}
330
C
100
AcDbDictionary
281
     1
  3
2dWireframe
350
2F
  3
3D Hidden
350
31
  3
3dWireframe
350
30
  3
Basic
350
32
  3
Brighten
350
36
  3
ColorChange
350
3A
  3
Conceptual
350
34
  3
Dim
350
35
  3
Facepattern
350
39
  3
Flat
350
2B
  3
FlatWithEdges
350
2C
  3
Gouraud
350
2D
  3
GouraudWithEdges
350
2E
  3
Linepattern
350
38
  3
Realistic
350
33
  3
Thicken
350
37
  0
DICTIONARY
  5
100
102
{ACAD_REACTORS
330
C
102
}
330
C
100
AcDbDictionary
281
     1
  3
CANNOSCALE
350
101
  0
LAYOUT
  5
1E
102
{ACAD_REACTORS
330
1A
102
}
330
1A
100
AcDbPlotSettings
  1

  2
none_device
  4

  6

 40
0.0
 41
0.0
 42
0.0
 43
0.0
 44
0.0
 45
0.0
 46
0.0
 47
0.0
 48
0.0
 49
0.0
140
0.0
141
0.0
142
1.0
143
1.0
 70
   688
 72
     0
 73
     0
 74
     5
  7

 75
    16
147
1.0
148
0.0
149
0.0
100
AcDbLayout
  1
Layout1
 70
     1
 71
     1
 10
0.0
 20
0.0
 11
12.0
 21
9.0
 12
0.0
 22
0.0
 32
0.0
 14
1.000000000000000E+20
 24
1.000000000000000E+20
 34
1.000000000000000E+20
 15
-1.000000000000000E+20
 25
-1.000000000000000E+20
 35
-1.000000000000000E+20
146
0.0
 13
0.0
 23
0.0
 33
0.0
 16
1.0
 26
0.0
 36
0.0
 17
0.0
 27
1.0
 37
0.0
 76
     0
330
1B
  0
LAYOUT
  5
26
102
{ACAD_REACTORS
330
1A
102
}
330
1A
100
AcDbPlotSettings
  1

  2
none_device
  4

  6

 40
0.0
 41
0.0
 42
0.0
 43
0.0
 44
0.0
 45
0.0
 46
0.0
 47
0.0
 48
0.0
 49
0.0
140
0.0
141
0.0
142
1.0
143
1.0
 70
   688
 72
     0
 73
     0
 74
     5
  7

 75
    16
147
1.0
148
0.0
149
0.0
100
AcDbLayout
  1
Layout2
 70
     1
 71
     2
 10
0.0
 20
0.0
 11
0.0
 21
0.0
 12
0.0
 22
0.0
 32
0.0
 14
0.0
 24
0.0
 34
0.0
 15
0.0
 25
0.0
 35
0.0
146
0.0
 13
0.0
 23
0.0
 33
0.0
 16
1.0
 26
0.0
 36
0.0
 17
0.0
 27
1.0
 37
0.0
 76
     0
330
23
  0
LAYOUT
  5
22
102
{ACAD_REACTORS
330
1A
102
}
330
1A
100
AcDbPlotSettings
  1

  2
none_device
  4

  6

 40
0.0
 41
0.0
 42
0.0
 43
0.0
 44
0.0
 45
0.0
 46
0.0
 47
0.0
 48
0.0
 49
0.0
140
0.0
141
0.0
142
1.0
143
1.0
 70
  1712
 72
     0
 73
     0
 74
     0
  7

 75
     0
147
1.0
148
0.0
149
0.0
100
AcDbLayout
  1
Model
 70
     1
 71
     0
 10
0.0
 20
0.0
 11
12.0
 21
9.0
 12
0.0
 22
0.0
 32
0.0
 14
1.000000000000000E+20
 24
1.000000000000000E+20
 34
1.000000000000000E+20
 15
-1.000000000000000E+20
 25
-1.000000000000000E+20
 35
-1.000000000000000E+20
146
0.0
 13
0.0
 23
0.0
 33
0.0
 16
1.0
 26
0.0
 36
0.0
 17
0.0
 27
1.0
 37
0.0
 76
     0
330
1F
331
29
  0
MLINESTYLE
  5
18
102
{ACAD_REACTORS
330
17
102
}
330
17
100
AcDbMlineStyle
  2
Standard
 70
     0
  3

 62
   256
 51
90.0
 52
90.0
 71
     2
 49
0.5
 62
   256
  6
BYLAYER
 49
-0.5
 62
   256
  6
BYLAYER
  0
ACDBPLACEHOLDER
  5
F
102
{ACAD_REACTORS
330
E
102
}
330
E
  0
SCALE
  5
3C
102
{ACAD_REACTORS
330
3B
102
}
330
3B
100
AcDbScale
 70
     0
300
1:1
140
1.0
141
1.0
290
     1
  0
SCALE
  5
3D
102
{ACAD_REACTORS
330
3B
102
}
330
3B
100
AcDbScale
 70
     0
300
1:2
140
1.0
141
2.0
290
     0
  0
SCALE
  5
3E
102
{ACAD_REACTORS
330
3B
102
}
330
3B
100
AcDbScale
 70
     0
300
1:4
140
1.0
141
4.0
290
     0
  0
SCALE
  5
3F
102
{ACAD_REACTORS
330
3B
102
}
330
3B
100
AcDbScale
 70
     0
300
1:5
140
1.0
141
5.0
290
     0
  0
SCALE
  5
40
102
{ACAD_REACTORS
330
3B
102
}
330
3B
100
AcDbScale
 70
     0
300
1:8
140
1.0
141
8.0
290
     0
  0
SCALE
  5
41
102
{ACAD_REACTORS
330
3B
102
}
330
3B
100
AcDbScale
 70
     0
300
1:10
140
1.0
141
10.0
290
     0
  0
SCALE
  5
42
102
{ACAD_REACTORS
330
3B
102
}
330
3B
100
AcDbScale
 70
     0
300
1:16
140
1.0
141
16.0
290
     0
  0
SCALE
  5
43
102
{ACAD_REACTORS
330
3B
102
}
330
3B
100
AcDbScale
 70
     0
300
1:20
140
1.0
141
20.0
290
     0
  0
SCALE
  5
44
102
{ACAD_REACTORS
330
3B
102
}
330
3B
100
AcDbScale
 70
     0
300
1:30
140
1.0
141
30.0
290
     0
  0
SCALE
  5
45
102
{ACAD_REACTORS
330
3B
102
}
330
3B
100
AcDbScale
 70
     0
300
1:40
140
1.0
141
40.0
290
     0
  0
SCALE
  5
46
102
{ACAD_REACTORS
330
3B
102
}
330
3B
100
AcDbScale
 70
     0
300
1:50
140
1.0
141
50.0
290
     0
  0
SCALE
  5
47
102
{ACAD_REACTORS
330
3B
102
}
330
3B
100
AcDbScale
 70
     0
300
1:100
140
1.0
141
100.0
290
     0
  0
SCALE
  5
48
102
{ACAD_REACTORS
330
3B
102
}
330
3B
100
AcDbScale
 70
     0
300
2:1
140
2.0
141
1.0
290
     0
  0
SCALE
  5
49
102
{ACAD_REACTORS
330
3B
102
}
330
3B
100
AcDbScale
 70
     0
300
4:1
140
4.0
141
1.0
290
     0
  0
SCALE
  5
4A
102
{ACAD_REACTORS
330
3B
102
}
330
3B
100
AcDbScale
 70
     0
300
8:1
140
8.0
141
1.0
290
     0
  0
SCALE
  5
4B
102
{ACAD_REACTORS
330
3B
102
}
330
3B
100
AcDbScale
 70
     0
300
10:1
140
10.0
141
1.0
290
     0
  0
SCALE
  5
4C
102
{ACAD_REACTORS
330
3B
102
}
330
3B
100
AcDbScale
 70
     0
300
100:1
140
100.0
141
1.0
290
     0
  0
SCALE
  5
4D
102
{ACAD_REACTORS
330
3B
102
}
330
3B
100
AcDbScale
 70
     0
300
1/128" = 1'-0"
140
0.0078125
141
12.0
290
     0
  0
SCALE
  5
4E
102
{ACAD_REACTORS
330
3B
102
}
330
3B
100
AcDbScale
 70
     0
300
1/64" = 1'-0"
140
0.015625
141
12.0
290
     0
  0
SCALE
  5
4F
102
{ACAD_REACTORS
330
3B
102
}
330
3B
100
AcDbScale
 70
     0
300
1/32" = 1'-0"
140
0.03125
141
12.0
290
     0
  0
SCALE
  5
50
102
{ACAD_REACTORS
330
3B
102
}
330
3B
100
AcDbScale
 70
     0
300
1/16" = 1'-0"
140
0.0625
141
12.0
290
     0
  0
SCALE
  5
51
102
{ACAD_REACTORS
330
3B
102
}
330
3B
100
AcDbScale
 70
     0
300
3/32" = 1'-0"
140
0.09375
141
12.0
290
     0
  0
SCALE
  5
52
102
{ACAD_REACTORS
330
3B
102
}
330
3B
100
AcDbScale
 70
     0
300
1/8" = 1'-0"
140
0.125
141
12.0
290
     0
  0
SCALE
  5
53
102
{ACAD_REACTORS
330
3B
102
}
330
3B
100
AcDbScale
 70
     0
300
3/16" = 1'-0"
140
0.1875
141
12.0
290
     0
  0
SCALE
  5
54
102
{ACAD_REACTORS
330
3B
102
}
330
3B
100
AcDbScale
 70
     0
300
1/4" = 1'-0"
140
0.25
141
12.0
290
     0
  0
SCALE
  5
55
102
{ACAD_REACTORS
330
3B
102
}
330
3B
100
AcDbScale
 70
     0
300
3/8" = 1'-0"
140
0.375
141
12.0
290
     0
  0
SCALE
  5
56
102
{ACAD_REACTORS
330
3B
102
}
330
3B
100
AcDbScale
 70
     0
300
1/2" = 1'-0"
140
0.5
141
12.0
290
     0
  0
SCALE
  5
57
102
{ACAD_REACTORS
330
3B
102
}
330
3B
100
AcDbScale
 70
     0
300
3/4" = 1'-0"
140
0.75
141
12.0
290
     0
  0
SCALE
  5
58
102
{ACAD_REACTORS
330
3B
102
}
330
3B
100
AcDbScale
 70
     0
300
1" = 1'-0"
140
1.0
141
12.0
290
     0
  0
SCALE
  5
59
102
{ACAD_REACTORS
330
3B
102
}
330
3B
100
AcDbScale
 70
     0
300
1-1/2" = 1'-0"
140
1.5
141
12.0
290
     0
  0
SCALE
  5
5A
102
{ACAD_REACTORS
330
3B
102
}
330
3B
100
AcDbScale
 70
     0
300
3" = 1'-0"
140
3.0
141
12.0
290
     0
  0
SCALE
  5
5B
102
{ACAD_REACTORS
330
3B
102
}
330
3B
100
AcDbScale
 70
     0
300
6" = 1'-0"
140
6.0
141
12.0
290
     0
  0
SCALE
  5
5C
102
{ACAD_REACTORS
330
3B
102
}
330
3B
100
AcDbScale
 70
     0
300
1'-0" = 1'-0"
140
12.0
141
12.0
290
     0
  0
VISUALSTYLE
  5
2F
102
{ACAD_REACTORS
330
2A
102
}
330
2A
100
AcDbVisualStyle
  2
2dWireframe
 70
     4
 71
     0
 72
     2
 73
     0
 90
        0
 40
-0.6
 41
-30.0
 62
     5
 63
     7
 74
     1
 91
        4
 64
     7
 65
   257
 75
     1
175
     1
 42
1.0
 92
        0
 66
   257
 43
1.0
 76
     1
 77
     6
 78
     2
 67
     7
 79
     5
170
     0
171
     0
290
     0
174
     0
 93
        1
 44
0.0
173
     0
291
     0
 45
0.0
1001
ACAD
1000
AcDbSavedByObjectVersion
1070
     0
  0
VISUALSTYLE
  5
31
102
{ACAD_REACTORS
330
2A
102
}
330
2A
100
AcDbVisualStyle
  2
3D Hidden
 70
     6
 71
     1
 72
     2
 73
     2
 90
        0
 40
-0.6
 41
-30.0
 62
     5
 63
     7
 74
     2
 91
        2
 64
     7
 65
   257
 75
     2
175
     1
 42
40.0
 92
        0
 66
   257
 43
1.0
 76
     1
 77
     6
 78
     2
 67
     7
 79
     3
170
     0
171
     0
290
     0
174
     0
 93
        1
 44
0.0
173
     0
291
     0
 45
0.0
1001
ACAD
1000
AcDbSavedByObjectVersion
1070
     0
  0
VISUALSTYLE
  5
30
102
{ACAD_REACTORS
330
2A
102
}
330
2A
100
AcDbVisualStyle
  2
3dWireframe
 70
     5
 71
     0
 72
     2
 73
     0
 90
        0
 40
-0.6
 41
-30.0
 62
     5
 63
     7
 74
     1
 91
        4
 64
     7
 65
   257
 75
     1
175
     1
 42
1.0
 92
        0
 66
   257
 43
1.0
 76
     1
 77
     6
 78
     2
 67
     7
 79
     5
170
     0
171
     0
290
     0
174
     0
 93
        1
 44
0.0
173
     0
291
     0
 45
0.0
1001
ACAD
1000
AcDbSavedByObjectVersion
1070
     0
  0
VISUALSTYLE
  5
32
102
{ACAD_REACTORS
330
2A
102
}
330
2A
100
AcDbVisualStyle
  2
Basic
 70
     7
 71
     1
 72
     0
 73
     1
 90
        0
 40
-0.6
 41
-30.0
 62
     5
 63
     7
 74
     0
 91
        4
 64
     7
 65
   257
 75
     1
175
     1
 42
1.0
 92
        8
 66
     7
 43
1.0
 76
     1
 77
     6
 78
     2
 67
     7
 79
     5
170
     0
171
     0
290
     0
174
     0
 93
        1
 44
0.0
173
     0
291
     1
 45
0.0
1001
ACAD
1000
AcDbSavedByObjectVersion
1070
     0
  0
VISUALSTYLE
  5
36
102
{ACAD_REACTORS
330
2A
102
}
330
2A
100
AcDbVisualStyle
  2
Brighten
 70
    12
 71
     2
 72
     2
 73
     0
 90
        0
 40
-0.6
 41
-30.0
 62
     5
 63
     7
 74
     1
 91
        4
 64
     7
 65
   257
 75
     1
175
     1
 42
1.0
 92
        8
 66
     7
 43
1.0
 76
     1
 77
     6
 78
     2
 67
     7
 79
     5
170
     0
171
     0
290
     0
174
     0
 93
        1
 44
50.0
173
     0
291
     1
 45
0.0
1001
ACAD
1000
AcDbSavedByObjectVersion
1070
     0
  0
VISUALSTYLE
  5
3A
102
{ACAD_REACTORS
330
2A
102
}
330
2A
100
AcDbVisualStyle
  2
ColorChange
 70
    16
 71
     2
 72
     2
 73
     3
 90
        0
 40
-0.6
 41
-30.0
 62
     5
 63
     8
 74
     1
 91
        4
 64
     7
 65
   257
 75
     1
175
     1
 42
1.0
 92
        8
 66
     8
 43
1.0
 76
     1
 77
     6
 78
     2
 67
     7
 79
     5
170
     0
171
     0
290
     0
174
     0
 93
        1
 44
0.0
173
     0
291
     1
 45
0.0
1001
ACAD
1000
AcDbSavedByObjectVersion
1070
     0
  0
VISUALSTYLE
  5
34
102
{ACAD_REACTORS
330
2A
102
}
330
2A
100
AcDbVisualStyle
  2
Conceptual
 70
     9
 71
     3
 72
     2
 73
     0
 90
        0
 40
-0.6
 41
-30.0
 62
     5
 63
     7
 74
     2
 91
        2
 64
     7
 65
   257
 75
     1
175
     1
 42
40.0
 92
        8
 66
     7
 43
1.0
 76
     1
 77
     6
 78
     2
 67
     7
 79
     3
170
     0
171
     0
290
     0
174
     0
 93
        1
 44
0.0
173
     0
291
     0
 45
0.0
1001
ACAD
1000
AcDbSavedByObjectVersion
1070
     0
  0
VISUALSTYLE
  5
35
102
{ACAD_REACTORS
330
2A
102
}
330
2A
100
AcDbVisualStyle
  2
Dim
 70
    11
 71
     2
 72
     2
 73
     0
 90
        0
 40
-0.6
 41
-30.0
 62
     5
 63
     7
 74
     1
 91
        4
 64
     7
 65
   257
 75
     1
175
     1
 42
1.0
 92
        8
 66
     7
 43
1.0
 76
     1
 77
     6
 78
     2
 67
     7
 79
     5
170
     0
171
     0
290
     0
174
     0
 93
        1
 44
-50.0
173
     0
291
     1
 45
0.0
1001
ACAD
1000
AcDbSavedByObjectVersion
1070
     0
  0
VISUALSTYLE
  5
39
102
{ACAD_REACTORS
330
2A
102
}
330
2A
100
AcDbVisualStyle
  2
Facepattern
 70
    15
 71
     2
 72
     2
 73
     0
 90
        0
 40
-0.6
 41
-30.0
 62
     5
 63
     7
 74
     1
 91
        4
 64
     7
 65
   257
 75
     1
175
     1
 42
1.0
 92
        8
 66
     7
 43
1.0
 76
     1
 77
     6
 78
     2
 67
     7
 79
     5
170
     0
171
     0
290
     0
174
     0
 93
        1
 44
0.0
173
     0
291
     1
 45
0.0
1001
ACAD
1000
AcDbSavedByObjectVersion
1070
     0
  0
VISUALSTYLE
  5
2B
102
{ACAD_REACTORS
330
2A
102
}
330
2A
100
AcDbVisualStyle
  2
Flat
 70
     0
 71
     2
 72
     1
 73
     1
 90
        2
 40
-0.6
 41
30.0
 62
     5
 63
     7
 74
     0
 91
        4
 64
     7
 65
   257
 75
     1
175
     1
 42
1.0
 92
        8
 66
     7
 43
1.0
 76
     1
 77
     6
 78
     2
 67
     7
 79
     5
170
     0
171
     0
290
     0
174
     0
 93
       13
 44
0.0
173
     0
291
     1
 45
0.0
1001
ACAD
1000
AcDbSavedByObjectVersion
1070
     0
  0
VISUALSTYLE
  5
2C
102
{ACAD_REACTORS
330
2A
102
}
330
2A
100
AcDbVisualStyle
  2
FlatWithEdges
 70
     1
 71
     2
 72
     1
 73
     1
 90
        2
 40
-0.6
 41
30.0
 62
     5
 63
     7
 74
     1
 91
        4
 64
     7
 65
   257
 75
     1
175
     1
 42
1.0
 92
        0
 66
   257
 43
1.0
 76
     1
 77
     6
 78
     2
 67
     7
 79
     5
170
     0
171
     0
290
     0
174
     0
 93
       13
 44
0.0
173
     0
291
     1
 45
0.0
1001
ACAD
1000
AcDbSavedByObjectVersion
1070
     0
  0
VISUALSTYLE
  5
2D
102
{ACAD_REACTORS
330
2A
102
}
330
2A
100
AcDbVisualStyle
  2
Gouraud
 70
     2
 71
     2
 72
     2
 73
     1
 90
        2
 40
-0.6
 41
30.0
 62
     5
 63
     7
 74
     0
 91
        4
 64
     7
 65
   257
 75
     1
175
     1
 42
1.0
 92
        0
 66
     7
 43
1.0
 76
     1
 77
     6
 78
     2
 67
     7
 79
     5
170
     0
171
     0
290
     0
174
     0
 93
       13
 44
0.0
173
     0
291
     1
 45
0.0
1001
ACAD
1000
AcDbSavedByObjectVersion
1070
     0
  0
VISUALSTYLE
  5
2E
102
{ACAD_REACTORS
330
2A
102
}
330
2A
100
AcDbVisualStyle
  2
GouraudWithEdges
 70
     3
 71
     2
 72
     2
 73
     1
 90
        2
 40
-0.6
 41
30.0
 62
     5
 63
     7
 74
     1
 91
        4
 64
     7
 65
   257
 75
     1
175
     1
 42
1.0
 92
        0
 66
   257
 43
1.0
 76
     1
 77
     6
 78
     2
 67
     7
 79
     5
170
     0
171
     0
290
     0
174
     0
 93
       13
 44
0.0
173
     0
291
     1
 45
0.0
1001
ACAD
1000
AcDbSavedByObjectVersion
1070
     0
  0
VISUALSTYLE
  5
38
102
{ACAD_REACTORS
330
2A
102
}
330
2A
100
AcDbVisualStyle
  2
Linepattern
 70
    14
 71
     2
 72
     2
 73
     0
 90
        0
 40
-0.6
 41
-30.0
 62
     5
 63
     7
 74
     1
 91
        4
 64
     7
 65
   257
 75
     7
175
     7
 42
1.0
 92
        8
 66
     7
 43
1.0
 76
     1
 77
     6
 78
     2
 67
     7
 79
     5
170
     0
171
     0
290
     0
174
     0
 93
        1
 44
0.0
173
     0
291
     1
 45
0.0
1001
ACAD
1000
AcDbSavedByObjectVersion
1070
     0
  0
VISUALSTYLE
  5
33
102
{ACAD_REACTORS
330
2A
102
}
330
2A
100
AcDbVisualStyle
  2
Realistic
 70
     8
 71
     2
 72
     2
 73
     0
 90
        0
 40
-0.6
 41
-30.0
 62
     5
 63
     7
 74
     1
 91
        0
 64
     7
 65
   257
 75
     1
175
     1
 42
1.0
 92
        8
 66
     8
 43
1.0
 76
     1
 77
     6
 78
     2
 67
     7
 79
     5
170
     0
171
     0
290
     0
174
     0
 93
       13
 44
0.0
173
     0
291
     0
 45
0.0
1001
ACAD
1000
AcDbSavedByObjectVersion
1070
     0
  0
VISUALSTYLE
  5
37
102
{ACAD_REACTORS
330
2A
102
}
330
2A
100
AcDbVisualStyle
  2
Thicken
 70
    13
 71
     2
 72
     2
 73
     0
 90
        0
 40
-0.6
 41
-30.0
 62
     5
 63
     7
 74
     1
 91
        4
 64
     7
 65
   257
 75
     1
175
     1
 42
1.0
 92
       12
 66
     7
 43
1.0
 76
     1
 77
     6
 78
     2
 67
     7
 79
     5
170
     0
171
     0
290
     0
174
     0
 93
        1
 44
0.0
173
     0
291
     1
 45
0.0
1001
ACAD
1000
AcDbSavedByObjectVersion
1070
     0
  0
DICTIONARYVAR
  5
101
102
{ACAD_REACTORS
330
100
102
}
330
100
100
DictionaryVariables
280
     0
  1
1:1
  0
ENDSEC
  0
EOF
