  0
SECTION
  2
HEADER
  9
$ACADVER
  1
AC1015
  9
$ACADMAINTVER
 70
     6
  9
$DWGCODEPAGE
  3
ANSI_1252
  9
$INSBASE
 10
0.0
 20
0.0
 30
0.0
  9
$EXTMIN
 10
1.000000000000000E+20
 20
1.000000000000000E+20
 30
1.000000000000000E+20
  9
$EXTMAX
 10
-1.000000000000000E+20
 20
-1.000000000000000E+20
 30
-1.000000000000000E+20
  9
$LIMMIN
 10
0.0
 20
0.0
  9
$LIMMAX
 10
12.0
 20
9.0
  9
$ORTHOMODE
 70
     0
  9
$REGENMODE
 70
     1
  9
$FILLMODE
 70
     1
  9
$QTEXTMODE
 70
     0
  9
$MIRRTEXT
 70
     1
  9
$LTSCALE
 40
1.0
  9
$ATTMODE
 70
     1
  9
$TEXTSIZE
 40
0.2
  9
$TRACEWID
 40
0.05
  9
$TEXTSTYLE
  7
Standard
  9
$CLAYER
  8
0
  9
$CELTYPE
  6
ByLayer
  9
$CECOLOR
 62
   256
  9
$CELTSCALE
 40
1.0
  9
$DISPSILH
 70
     0
  9
$DIMSCALE
 40
1.0
  9
$DIMASZ
 40
0.09
  9
$DIMEXO
 40
0.0625
  9
$DIMDLI
 40
0.38
  9
$DIMRND
 40
0.0
  9
$DIMDLE
 40
0.0
  9
$DIMEXE
 40
0.18
  9
$DIMTP
 40
0.0
  9
$DIMTM
 40
0.0
  9
$DIMTXT
 40
0.0895833333333333
  9
$DIMCEN
 40
0.09
  9
$DIMTSZ
 40
0.0
  9
$DIMTOL
 70
     0
  9
$DIMLIM
 70
     0
  9
$DIMTIH
 70
     1
  9
$DIMTOH
 70
     1
  9
$DIMSE1
 70
     0
  9
$DIMSE2
 70
     0
  9
$DIMTAD
 70
     0
  9
$DIMZIN
 70
     0
  9
$DIMBLK
  1

  9
$DIMASO
 70
     1
  9
$DIMSHO
 70
     1
  9
$DIMPOST
  1

  9
$DIMAPOST
  1

  9
$DIMALT
 70
     0
  9
$DIMALTD
 70
     2
  9
$DIMALTF
 40
25.4
  9
$DIMLFAC
 40
1.0
  9
$DIMTOFL
 70
     0
  9
$DIMTVP
 40
0.0
  9
$DIMTIX
 70
     0
  9
$DIMSOXD
 70
     0
  9
$DIMSAH
 70
     0
  9
$DIMBLK1
  1

  9
$DIMBLK2
  1

  9
$DIMSTYLE
  2
Standard
  9
$DIMCLRD
 70
     0
  9
$DIMCLRE
 70
     0
  9
$DIMCLRT
 70
     0
  9
$DIMTFAC
 40
1.0
  9
$DIMGAP
 40
0.09
  9
$DIMJUST
 70
     0
  9
$DIMSD1
 70
     0
  9
$DIMSD2
 70
     0
  9
$DIMTOLJ
 70
     1
  9
$DIMTZIN
 70
     0
  9
$DIMALTZ
 70
     0
  9
$DIMALTTZ
 70
     0
  9
$DIMUPT
 70
     0
  9
$DIMDEC
 70
     4
  9
$DIMTDEC
 70
     4
  9
$DIMALTU
 70
     2
  9
$DIMALTTD
 70
     2
  9
$DIMTXSTY
  7
Standard
  9
$DIMAUNIT
 70
     0
  9
$DIMADEC
 70
     0
  9
$DIMALTRND
 40
0.0
  9
$DIMAZIN
 70
     0
  9
$DIMDSEP
 70
    46
  9
$DIMATFIT
 70
     3
  9
$DIMFRAC
 70
     0
  9
$DIMLDRBLK
  1

  9
$DIMLUNIT
 70
     2
  9
$DIMLWD
 70
    -2
  9
$DIMLWE
 70
    -2
  9
$DIMTMOVE
 70
     0
  9
$LUNITS
 70
     2
  9
$LUPREC
 70
     4
  9
$SKETCHINC
 40
0.1
  9
$FILLETRAD
 40
0.5
  9
$AUNITS
 70
     0
  9
$AUPREC
 70
     0
  9
$MENU
  1
.
  9
$ELEVATION
 40
0.0
  9
$PELEVATION
 40
0.0
  9
$THICKNESS
 40
0.0
  9
$LIMCHECK
 70
     0
  9
$CHAMFERA
 40
0.5
  9
$CHAMFERB
 40
0.5
  9
$CHAMFERC
 40
1.0
  9
$CHAMFERD
 40
0.0
  9
$SKPOLY
 70
     0
  9
$TDCREATE
 40
2456268.991954931
  9
$TDUCREATE
 40
2456269.325288264
  9
$TDUPDATE
 40
2456268.991954942
  9
$TDUUPDATE
 40
2456269.325288275
  9
$TDINDWG
 40
0.0000000116
  9
$TDUSRTIMER
 40
0.0000000116
  9
$USRTIMER
 70
     1
  9
$ANGBASE
 50
0.0
  9
$ANGDIR
 70
     0
  9
$PDMODE
 70
     0
  9
$PDSIZE
 40
0.0
  9
$PLINEWID
 40
0.0
  9
$SPLFRAME
 70
     0
  9
$SPLINETYPE
 70
     6
  9
$SPLINESEGS
 70
     8
  9
$HANDSEED
  5
1B9
  9
$SURFTAB1
 70
     6
  9
$SURFTAB2
 70
     6
  9
$SURFTYPE
 70
     6
  9
$SURFU
 70
     6
  9
$SURFV
 70
     6
  9
$UCSBASE
  2

  9
$UCSNAME
  2

  9
$UCSORG
 10
0.0
 20
0.0
 30
0.0
  9
$UCSXDIR
 10
1.0
 20
0.0
 30
0.0
  9
$UCSYDIR
 10
0.0
 20
1.0
 30
0.0
  9
$UCSORTHOREF
  2

  9
$UCSORTHOVIEW
 70
     0
  9
$UCSORGTOP
 10
0.0
 20
0.0
 30
0.0
  9
$UCSORGBOTTOM
 10
0.0
 20
0.0
 30
0.0
  9
$UCSORGLEFT
 10
0.0
 20
0.0
 30
0.0
  9
$UCSORGRIGHT
 10
0.0
 20
0.0
 30
0.0
  9
$UCSORGFRONT
 10
0.0
 20
0.0
 30
0.0
  9
$UCSORGBACK
 10
0.0
 20
0.0
 30
0.0
  9
$PUCSBASE
  2

  9
$PUCSNAME
  2

  9
$PUCSORG
 10
0.0
 20
0.0
 30
0.0
  9
$PUCSXDIR
 10
1.0
 20
0.0
 30
0.0
  9
$PUCSYDIR
 10
0.0
 20
1.0
 30
0.0
  9
$PUCSORTHOREF
  2

  9
$PUCSORTHOVIEW
 70
     0
  9
$PUCSORGTOP
 10
0.0
 20
0.0
 30
0.0
  9
$PUCSORGBOTTOM
 10
0.0
 20
0.0
 30
0.0
  9
$PUCSORGLEFT
 10
0.0
 20
0.0
 30
0.0
  9
$PUCSORGRIGHT
 10
0.0
 20
0.0
 30
0.0
  9
$PUCSORGFRONT
 10
0.0
 20
0.0
 30
0.0
  9
$PUCSORGBACK
 10
0.0
 20
0.0
 30
0.0
  9
$USERI1
 70
     0
  9
$USERI2
 70
     0
  9
$USERI3
 70
     0
  9
$USERI4
 70
     0
  9
$USERI5
 70
     0
  9
$USERR1
 40
0.0
  9
$USERR2
 40
0.0
  9
$USERR3
 40
0.0
  9
$USERR4
 40
0.0
  9
$USERR5
 40
0.0
  9
$WORLDVIEW
 70
     1
  9
$SHADEDGE
 70
     3
  9
$SHADEDIF
 70
    70
  9
$TILEMODE
 70
     1
  9
$MAXACTVP
 70
    64
  9
$PINSBASE
 10
0.0
 20
0.0
 30
0.0
  9
$PLIMCHECK
 70
     0
  9
$PEXTMIN
 10
1.000000000000000E+20
 20
1.000000000000000E+20
 30
1.000000000000000E+20
  9
$PEXTMAX
 10
-1.000000000000000E+20
 20
-1.000000000000000E+20
 30
-1.000000000000000E+20
  9
$PLIMMIN
 10
0.0
 20
0.0
  9
$PLIMMAX
 10
12.0
 20
9.0
  9
$UNITMODE
 70
     0
  9
$VISRETAIN
 70
     1
  9
$PLINEGEN
 70
     0
  9
$PSLTSCALE
 70
     1
  9
$TREEDEPTH
 70
  3020
  9
$CMLSTYLE
  2
Standard
  9
$CMLJUST
 70
     0
  9
$CMLSCALE
 40
1.0
  9
$PROXYGRAPHICS
 70
     1
  9
$MEASUREMENT
 70
     0
  9
$CELWEIGHT
370
    -1
  9
$ENDCAPS
280
     0
  9
$JOINSTYLE
280
     0
  9
$LWDISPLAY
290
     0
  9
$INSUNITS
 70
     1
  9
$HYPERLINKBASE
  1

  9
$STYLESHEET
  1

  9
$XEDIT
290
     1
  9
$CEPSNTYPE
380
     0
  9
$PSTYLEMODE
290
     1
  9
$FINGERPRINTGUID
  2
{2961E7FD-63DE-44AB-8D9C-9B8AAEE1AA14}
  9
$VERSIONGUID
  2
{FAEB1C32-E019-11D5-929B-00C0DF256EC4}
  9
$EXTNAMES
290
     1
  9
$PSVPSCALE
 40
0.0
  9
$OLESTARTUP
290
     0
  0
ENDSEC
  0
SECTION
  2
CLASSES
  0
CLASS
  1
ACDBDICTIONARYWDFLT
  2
AcDbDictionaryWithDefault
  3
ObjectDBX Classes
 90
        0
280
     0
281
     0
  0
CLASS
  1
VISUALSTYLE
  2
AcDbVisualStyle
  3
ObjectDBX Classes
 90
     4095
280
     0
281
     0
  0
CLASS
  1
SCALE
  2
AcDbScale
  3
ObjectDBX Classes
 90
     1153
280
     0
281
     0
  0
CLASS
  1
DICTIONARYVAR
  2
AcDbDictionaryVar
  3
ObjectDBX Classes
 90
        0
280
     0
281
     0
  0
CLASS
  1
ACDBPLACEHOLDER
  2
AcDbPlaceHolder
  3
ObjectDBX Classes
 90
        0
280
     0
281
     0
  0
CLASS
  1
LAYOUT
  2
AcDbLayout
  3
ObjectDBX Classes
 90
        0
280
     0
281
     0
  0
ENDSEC
  0
SECTION
  2
TABLES
  0
TABLE
  2
VPORT
  5
8
330
0
100
AcDbSymbolTable
 70
     1
  0
VPORT
  5
29
330
8
100
AcDbSymbolTableRecord
100
AcDbViewportTableRecord
  2
*Active
 70
     0
 10
0.0
 20
0.0
 11
1.0
 21
1.0
 12
10.42990654205607
 22
4.5
 13
0.0
 23
0.0
 14
0.5
 24
0.5
 15
0.5
 25
0.5
 16
0.0
 26
0.0
 36
1.0
 17
0.0
 27
0.0
 37
0.0
 40
9.0
 41
1.972972972850329
 42
50.0
 43
0.0
 44
0.0
 50
0.0
 51
0.0
 71
     0
 72
   100
 73
     1
 74
     3
 75
     0
 76
     0
 77
     0
 78
     0
281
     0
 65
     1
110
0.0
120
0.0
130
0.0
111
1.0
121
0.0
131
0.0
112
0.0
122
1.0
132
0.0
 79
     0
146
0.0
  0
ENDTAB
  0
TABLE
  2
LTYPE
  5
5
330
0
100
AcDbSymbolTable
 70
     2
  0
LTYPE
  5
14
330
5
100
AcDbSymbolTableRecord
100
AcDbLinetypeTableRecord
  2
ByBlock
 70
     0
  3

 72
    65
 73
     0
 40
0.0
  0
LTYPE
  5
15
330
5
100
AcDbSymbolTableRecord
100
AcDbLinetypeTableRecord
  2
ByLayer
 70
     0
  3

 72
    65
 73
     0
 40
0.0
  0
LTYPE
  5
16
330
5
100
AcDbSymbolTableRecord
100
AcDbLinetypeTableRecord
  2
Continuous
 70
     0
  3
Solid line
 72
    65
 73
     0
 40
0.0
  0
LTYPE
  5
125
330
5
100
AcDbSymbolTableRecord
100
AcDbLinetypeTableRecord
  2
CENTER2
 70
     0
  3
Center (.5x) ___ _ ___ _ ___ _ ___ _ ___ _ ___
 72
    65
 73
     4
 40
1.125
 49
0.75
 74
     0
 49
-0.125
 74
     0
 49
0.125
 74
     0
 49
-0.125
 74
     0
  0
ENDTAB
  0
TABLE
  2
LAYER
  5
2
330
0
100
AcDbSymbolTable
 70
     6
  0
LAYER
  5
10
330
2
100
AcDbSymbolTableRecord
100
AcDbLayerTableRecord
  2
0
 70
     0
 62
     7
  6
Continuous
370
    -3
390
F
  0
LAYER
  5
5D
330
2
100
AcDbSymbolTableRecord
100
AcDbLayerTableRecord
  2
VISIBLE
 70
     0
 62
     7
  6
Continuous
370
     0
390
F
  0
LAYER
  5
88
330
2
100
AcDbSymbolTableRecord
100
AcDbLayerTableRecord
  2
TANGENT EDGES
 70
     0
 62
     7
  6
Continuous
370
     0
390
F
  0
LAYER
  5
8D
330
2
100
AcDbSymbolTableRecord
100
AcDbLayerTableRecord
  2
DIMENSIONS
 70
     0
 62
     7
  6
Continuous
370
     0
390
F
  0
LAYER
  5
126
330
2
100
AcDbSymbolTableRecord
100
AcDbLayerTableRecord
  2
BEND CENTERS
 70
     0
 62
   204
  6
CENTER2
370
     0
390
F
  0
LAYER
  5
164
330
2
100
AcDbSymbolTableRecord
100
AcDbLayerTableRecord
  2
CONTINUOUS
 70
     0
 62
     7
  6
Continuous
370
     0
390
F
  0
ENDTAB
  0
TABLE
  2
STYLE
  5
3
330
0
100
AcDbSymbolTable
 70
     1
  0
STYLE
  5
11
330
3
100
AcDbSymbolTableRecord
100
AcDbTextStyleTableRecord
  2
Standard
 70
     0
 40
0.125
 41
1.0
 50
0.0
 71
     0
 42
0.2
  3
txt
  4

1001
ACAD
1000
Arial
1071
        0
  0
ENDTAB
  0
TABLE
  2
VIEW
  5
6
330
0
100
AcDbSymbolTable
 70
     0
  0
ENDTAB
  0
TABLE
  2
UCS
  5
7
330
0
100
AcDbSymbolTable
 70
     0
  0
ENDTAB
  0
TABLE
  2
APPID
  5
9
330
0
100
AcDbSymbolTable
 70
     1
  0
APPID
  5
12
330
9
100
AcDbSymbolTableRecord
100
AcDbRegAppTableRecord
  2
ACAD
 70
     0
  0
ENDTAB
  0
TABLE
  2
DIMSTYLE
  5
A
330
0
100
AcDbSymbolTable
 70
     1
100
AcDbDimStyleTable
  0
DIMSTYLE
105
27
102
{ACAD_REACTORS
330
8E
330
9B
330
AF
330
BC
330
128
330
135
330
146
330
154
102
}
330
A
100
AcDbSymbolTableRecord
100
AcDbDimStyleTableRecord
  2
Standard
 70
     0
340
11
  0
ENDTAB
  0
TABLE
  2
BLOCK_RECORD
  5
1
330
0
100
AcDbSymbolTable
 70
    10
  0
BLOCK_RECORD
  5
1F
330
1
100
AcDbSymbolTableRecord
100
AcDbBlockTableRecord
  2
*Model_Space
340
22
  0
BLOCK_RECORD
  5
1B
330
1
100
AcDbSymbolTableRecord
100
AcDbBlockTableRecord
  2
*Paper_Space
340
1E
  0
BLOCK_RECORD
  5
23
330
1
100
AcDbSymbolTableRecord
100
AcDbBlockTableRecord
  2
*Paper_Space0
340
26
  0
BLOCK_RECORD
  5
8F
330
1
100
AcDbSymbolTableRecord
100
AcDbBlockTableRecord
  2
D1
340
0
  0
BLOCK_RECORD
  5
9C
330
1
100
AcDbSymbolTableRecord
100
AcDbBlockTableRecord
  2
D2
340
0
  0
BLOCK_RECORD
  5
B0
330
1
100
AcDbSymbolTableRecord
100
AcDbBlockTableRecord
  2
D3
340
0
  0
BLOCK_RECORD
  5
BD
330
1
100
AcDbSymbolTableRecord
100
AcDbBlockTableRecord
  2
D4
340
0
  0
BLOCK_RECORD
  5
129
330
1
100
AcDbSymbolTableRecord
100
AcDbBlockTableRecord
  2
D5
340
0
  0
BLOCK_RECORD
  5
136
330
1
100
AcDbSymbolTableRecord
100
AcDbBlockTableRecord
  2
D6
340
0
  0
BLOCK_RECORD
  5
147
330
1
100
AcDbSymbolTableRecord
100
AcDbBlockTableRecord
  2
D7
340
0
  0
BLOCK_RECORD
  5
155
330
1
100
AcDbSymbolTableRecord
100
AcDbBlockTableRecord
  2
D8
340
0
  0
BLOCK_RECORD
  5
167
330
1
100
AcDbSymbolTableRecord
100
AcDbBlockTableRecord
  2
BLOCK4
340
0
102
{BLKREFS
331
166
102
}
  0
ENDTAB
  0
ENDSEC
  0
SECTION
  2
BLOCKS
  0
BLOCK
  5
20
330
1F
100
AcDbEntity
  8
0
100
AcDbBlockBegin
  2
*Model_Space
 70
     0
 10
0.0
 20
0.0
 30
0.0
  3
*Model_Space
  1

  0
ENDBLK
  5
21
330
1F
100
AcDbEntity
  8
0
100
AcDbBlockEnd
  0
BLOCK
  5
1C
330
1B
100
AcDbEntity
 67
     1
  8
0
100
AcDbBlockBegin
  2
*Paper_Space
 70
     0
 10
0.0
 20
0.0
 30
0.0
  3
*Paper_Space
  1

  0
ENDBLK
  5
1D
330
1B
100
AcDbEntity
 67
     1
  8
0
100
AcDbBlockEnd
  0
BLOCK
  5
24
330
23
100
AcDbEntity
  8
0
100
AcDbBlockBegin
  2
*Paper_Space0
 70
     0
 10
0.0
 20
0.0
 30
0.0
  3
*Paper_Space0
  1

  0
ENDBLK
  5
25
330
23
100
AcDbEntity
  8
0
100
AcDbBlockEnd
  0
BLOCK
  5
90
330
8F
100
AcDbEntity
  8
0
100
AcDbBlockBegin
  2
D1
 70
     0
 10
0.0
 20
0.0
 30
0.0
  3
D1
  1

  0
MTEXT
  5
92
330
8F
100
AcDbEntity
  8
DIMENSIONS
100
AcDbMText
 10
4.288777328851655
 20
5.712268258642961
 30
0.0
 40
0.0895833333333333
 41
0.0
 71
     5
 72
     1
  1
{\fArial|b0|i0|c0|p0;28.00}{\fMS Shell Dlg|b0|i0|c0|p0;\H0.9444444x;}
 73
     1
 44
1.0
  0
MTEXT
  5
93
330
8F
100
AcDbEntity
  8
DIMENSIONS
100
AcDbMText
 10
4.288777328851655
 20
5.712268258642961
 30
0.0
 40
0.0895833333333333
 41
0.0
 71
     5
 72
     1
  1
{\fArial|b0|i0|c0|p0;}
 73
     1
 44
1.0
  0
MTEXT
  5
94
330
8F
100
AcDbEntity
  8
DIMENSIONS
100
AcDbMText
 10
4.288777328851655
 20
5.712268258642961
 30
0.0
 40
0.0895833333333333
 41
0.0
 71
     5
 72
     1
  1
{\fArial|b0|i0|c0|p0;}
 73
     1
 44
1.0
  0
LINE
  5
95
330
8F
100
AcDbEntity
  8
DIMENSIONS
100
AcDbLine
 10
6.453421144660689
 20
6.504498673141704
 30
0.0
 11
6.453421144660689
 21
5.649768258642961
 31
0.0
  0
LINE
  5
96
330
8F
100
AcDbEntity
  8
DIMENSIONS
100
AcDbLine
 10
1.786754477994023
 20
6.504498673141703
 30
0.0
 11
1.786754477994023
 21
5.649768258642961
 31
0.0
  0
LWPOLYLINE
  5
97
330
8F
100
AcDbEntity
  8
DIMENSIONS
100
AcDbPolyline
 90
        4
 70
     0
 43
0.0
 10
6.453421144660689
 20
5.712268258642961
 10
6.363421144660689
 20
5.697268258642962
 10
6.363421144660689
 20
5.727268258642962
 10
6.453421144660689
 20
5.712268258642961
  0
LINE
  5
98
330
8F
100
AcDbEntity
  8
DIMENSIONS
100
AcDbLine
 10
6.363421144660689
 20
5.712268258642961
 30
0.0
 11
4.490166211065658
 21
5.712268360112366
 31
0.0
  0
LWPOLYLINE
  5
99
330
8F
100
AcDbEntity
  8
DIMENSIONS
100
AcDbPolyline
 90
        4
 70
     0
 43
0.0
 10
1.786754477994024
 20
5.712268258642961
 10
1.876754477994024
 20
5.727268258642962
 10
1.876754477994024
 20
5.697268258642962
 10
1.786754477994024
 20
5.712268258642961
  0
LINE
  5
9A
330
8F
100
AcDbEntity
  8
DIMENSIONS
100
AcDbLine
 10
1.876754477994023
 20
5.712268258642961
 30
0.0
 11
4.087388416600666
 21
5.712268360112366
 31
0.0
  0
ENDBLK
  5
91
330
8F
100
AcDbEntity
  8
0
100
AcDbBlockEnd
  0
BLOCK
  5
9D
330
9C
100
AcDbEntity
  8
0
100
AcDbBlockBegin
  2
D2
 70
     0
 10
0.0
 20
0.0
 30
0.0
  3
D2
  1

  0
MTEXT
  5
9F
330
9C
100
AcDbEntity
  8
DIMENSIONS
100
AcDbMText
 10
7.254948653574065
 20
7.817432324811939
 30
0.0
 40
0.0895833333333333
 41
0.0
 71
     5
 72
     1
  1
{\fArial|b0|i0|c0|p0;12.00}{\fArial|b0|i0|c0|p0;}
 73
     1
 44
1.0
  0
MTEXT
  5
A0
330
9C
100
AcDbEntity
  8
DIMENSIONS
100
AcDbMText
 10
7.254948653574065
 20
7.817432324811939
 30
0.0
 40
0.0895833333333333
 41
0.0
 71
     5
 72
     1
  1
{\fArial|b0|i0|c0|p0;}
 73
     1
 44
1.0
  0
MTEXT
  5
A1
330
9C
100
AcDbEntity
  8
DIMENSIONS
100
AcDbMText
 10
7.254948653574065
 20
7.817432324811939
 30
0.0
 40
0.0895833333333333
 41
0.0
 71
     5
 72
     1
  1
{\fArial|b0|i0|c0|p0;}
 73
     1
 44
1.0
  0
LINE
  5
A2
330
9C
100
AcDbEntity
  8
DIMENSIONS
100
AcDbLine
 10
6.515921144660689
 20
6.817432324811939
 30
0.0
 11
7.317448653574065
 21
6.817432324811939
 31
0.0
  0
LINE
  5
A3
330
9C
100
AcDbEntity
  8
DIMENSIONS
100
AcDbLine
 10
6.515921144660689
 20
8.81743232481194
 30
0.0
 11
7.317448653574065
 21
8.81743232481194
 31
0.0
  0
LWPOLYLINE
  5
A4
330
9C
100
AcDbEntity
  8
DIMENSIONS
100
AcDbPolyline
 90
        4
 70
     0
 43
0.0
 10
7.254948653574065
 20
6.817432324811939
 10
7.239948653574065
 20
6.907432324811939
 10
7.269948653574065
 20
6.907432324811939
 10
7.254948653574065
 20
6.817432324811939
  0
LINE
  5
A5
330
9C
100
AcDbEntity
  8
DIMENSIONS
100
AcDbLine
 10
7.254948653574065
 20
6.907432324811939
 30
0.0
 11
7.254948676101804
 21
7.692432325750595
 31
0.0
  0
LWPOLYLINE
  5
A6
330
9C
100
AcDbEntity
  8
DIMENSIONS
100
AcDbPolyline
 90
        4
 70
     0
 43
0.0
 10
7.254948653574065
 20
8.81743232481194
 10
7.269948653574065
 20
8.72743232481194
 10
7.239948653574065
 20
8.72743232481194
 10
7.254948653574065
 20
8.81743232481194
  0
LINE
  5
A7
330
9C
100
AcDbEntity
  8
DIMENSIONS
100
AcDbLine
 10
7.254948653574065
 20
8.72743232481194
 30
0.0
 11
7.254948676101804
 21
7.942432323873284
 31
0.0
  0
ENDBLK
  5
9E
330
9C
100
AcDbEntity
  8
0
100
AcDbBlockEnd
  0
BLOCK
  5
B1
330
B0
100
AcDbEntity
  8
0
100
AcDbBlockBegin
  2
D3
 70
     0
 10
0.0
 20
0.0
 30
0.0
  3
D3
  1

  0
MTEXT
  5
B3
330
B0
100
AcDbEntity
  8
DIMENSIONS
100
AcDbMText
 10
8.948852058470719
 20
6.380281223086861
 30
0.0
 40
0.0895833333333333
 41
0.0
 71
     5
 72
     1
  1
{\fArial|b0|i0|c0|p0;2.00}{\fArial|b0|i0|c0|p0;}
 11
0.7071067811865476
 21
0.7071067811865475
 31
0.0
 73
     1
 44
1.0
  0
MTEXT
  5
B4
330
B0
100
AcDbEntity
  8
DIMENSIONS
100
AcDbMText
 10
8.948852058470719
 20
6.380281223086861
 30
0.0
 40
0.0895833333333333
 41
0.0
 71
     5
 72
     1
  1
{\fArial|b0|i0|c0|p0;}
 11
0.7071067811865476
 21
0.7071067811865475
 31
0.0
 73
     1
 44
1.0
  0
MTEXT
  5
B5
330
B0
100
AcDbEntity
  8
DIMENSIONS
100
AcDbMText
 10
8.948852058470719
 20
6.380281223086861
 30
0.0
 40
0.0895833333333333
 41
0.0
 71
     5
 72
     1
  1
{\fArial|b0|i0|c0|p0;}
 11
0.7071067811865476
 21
0.7071067811865475
 31
0.0
 73
     1
 44
1.0
  0
LINE
  5
B6
330
B0
100
AcDbEntity
  8
DIMENSIONS
100
AcDbLine
 10
7.961532814903157
 20
6.537535890592265
 30
0.0
 11
8.578013944263798
 21
5.921054761231623
 31
0.0
  0
LINE
  5
B7
330
B0
100
AcDbEntity
  8
DIMENSIONS
100
AcDbLine
 10
8.197235075298673
 20
6.77323815098778
 30
0.0
 11
8.813716204659315
 21
6.156757021627139
 31
0.0
  0
LWPOLYLINE
  5
B8
330
B0
100
AcDbEntity
  8
DIMENSIONS
100
AcDbPolyline
 90
        4
 70
     0
 43
0.0
 10
8.53381977043964
 20
5.965248935055783
 10
8.58685277902863
 20
6.03949514708037
 10
8.608065982464227
 20
6.018281943644773
 10
8.53381977043964
 20
5.965248935055783
  0
LINE
  5
B9
330
B0
100
AcDbEntity
  8
DIMENSIONS
100
AcDbLine
 10
8.597459380746429
 20
6.028888545362571
 30
0.0
 11
8.705882420528367
 21
6.137311585144509
 31
0.0
  0
LWPOLYLINE
  5
BA
330
B0
100
AcDbEntity
  8
DIMENSIONS
100
AcDbPolyline
 90
        4
 70
     0
 43
0.0
 10
8.769522030835155
 20
6.200951195451299
 10
8.716489022246165
 20
6.126704983426711
 10
8.695275818810568
 20
6.147918186862308
 10
8.769522030835155
 20
6.200951195451299
  0
LINE
  5
BB
330
B0
100
AcDbEntity
  8
DIMENSIONS
100
AcDbLine
 10
8.769522030835155
 20
6.200951195451298
 30
0.0
 11
8.826090476917761
 21
6.257519572639744
 31
0.0
  0
ENDBLK
  5
B2
330
B0
100
AcDbEntity
  8
0
100
AcDbBlockEnd
  0
BLOCK
  5
BE
330
BD
100
AcDbEntity
  8
0
100
AcDbBlockBegin
  2
D4
 70
     0
 10
0.0
 20
0.0
 30
0.0
  3
D4
  1

  0
MTEXT
  5
C0
330
BD
100
AcDbEntity
  8
DIMENSIONS
100
AcDbMText
 10
7.765116053303395
 20
6.986912404458355
 30
0.0
 40
0.0895833333333333
 41
0.0
 71
     5
 72
     1
  1
{\fArial|b0|i0|c0|p0;135 \U+02DA}{\fArial|b0|i0|c0|p0;}
 73
     1
 44
1.0
  0
MTEXT
  5
C1
330
BD
100
AcDbEntity
  8
DIMENSIONS
100
AcDbMText
 10
7.765116053303395
 20
6.986912404458355
 30
0.0
 40
0.0895833333333333
 41
0.0
 71
     5
 72
     1
  1
{\fArial|b0|i0|c0|p0;}
 73
     1
 44
1.0
  0
MTEXT
  5
C2
330
BD
100
AcDbEntity
  8
DIMENSIONS
100
AcDbMText
 10
7.765116053303395
 20
6.986912404458355
 30
0.0
 40
0.0895833333333333
 41
0.0
 71
     5
 72
     1
  1
{\fArial|b0|i0|c0|p0;}
 73
     1
 44
1.0
  0
LWPOLYLINE
  5
C3
330
BD
100
AcDbEntity
  8
DIMENSIONS
100
AcDbPolyline
 90
        4
 70
     0
 43
0.0
 10
8.153040901474515
 20
7.240763383471165
 10
8.065181850969562
 20
7.21615063790371
 10
8.061948476758763
 20
7.245975883773827
 10
8.153040901474515
 20
7.240763383471165
  0
ARC
  5
C4
330
BD
100
AcDbEntity
  8
DIMENSIONS
100
AcDbCircle
 10
8.153040901474514
 20
6.817432324811939
 30
0.0
 40
0.4231641265433128
100
AcDbArc
 50
102.1625066171076
 51
135.7149441004278
  0
LWPOLYLINE
  5
C5
330
BD
100
AcDbEntity
  8
DIMENSIONS
100
AcDbPolyline
 90
        4
 70
     0
 43
0.0
 10
7.853700639209696
 20
6.518092062547121
 10
7.785617447998957
 20
6.578834791120688
 10
7.808997964899072
 20
6.597632435374248
 10
7.853700639209696
 20
6.518092062547121
  0
ARC
  5
C6
330
BD
100
AcDbEntity
  8
DIMENSIONS
100
AcDbCircle
 10
8.153040901474514
 20
6.817432324811939
 30
0.0
 40
0.4217914340817028
100
AcDbArc
 50
173.9466155512127
 51
212.8131986125227
  0
LINE
  5
C7
330
BD
100
AcDbEntity
  8
DIMENSIONS
100
AcDbLine
 10
8.153040901474514
 20
6.879932324811939
 30
0.0
 11
8.153040901474515
 21
7.303263383471165
 31
0.0
  0
LINE
  5
C8
330
BD
100
AcDbEntity
  8
DIMENSIONS
100
AcDbLine
 10
8.108846727650356
 20
6.77323815098778
 30
0.0
 11
7.809506465385536
 21
6.473897888722961
 31
0.0
  0
ENDBLK
  5
BF
330
BD
100
AcDbEntity
  8
0
100
AcDbBlockEnd
  0
BLOCK
  5
12A
330
129
100
AcDbEntity
  8
0
100
AcDbBlockBegin
  2
D5
 70
     0
 10
0.0
 20
0.0
 30
0.0
  3
D5
  1

  0
MTEXT
  5
12C
330
129
100
AcDbEntity
  8
DIMENSIONS
100
AcDbMText
 10
8.939962386669954
 20
4.820190715453878
 30
0.0
 40
0.0895833333333333
 41
0.0
 71
     5
 72
     1
  1
{\fArial|b0|i0|c0|p0;8.75}{\fArial|b0|i0|c0|p0; TYP}{\fMS Shell Dlg|b0|i0|c0|p0;\H0.9444444x;}
 73
     1
 44
1.0
  0
MTEXT
  5
12D
330
129
100
AcDbEntity
  8
DIMENSIONS
100
AcDbMText
 10
8.939962386669954
 20
4.820190715453878
 30
0.0
 40
0.0895833333333333
 41
0.0
 71
     5
 72
     1
  1
{\fArial|b0|i0|c0|p0;}
 73
     1
 44
1.0
  0
MTEXT
  5
12E
330
129
100
AcDbEntity
  8
DIMENSIONS
100
AcDbMText
 10
8.939962386669954
 20
4.820190715453878
 30
0.0
 40
0.0895833333333333
 41
0.0
 71
     5
 72
     1
  1
{\fArial|b0|i0|c0|p0;}
 73
     1
 44
1.0
  0
LINE
  5
12F
330
129
100
AcDbEntity
  8
DIMENSIONS
100
AcDbLine
 10
9.898675839344536
 20
4.747706778898079
 30
0.0
 11
9.411366907460986
 21
4.260397847014528
 31
0.0
  0
LINE
  5
130
330
129
100
AcDbEntity
  8
DIMENSIONS
100
AcDbLine
 10
8.749627319916398
 20
5.661053037930701
 30
0.0
 11
8.380169518230606
 21
5.291595236244908
 31
0.0
  0
LWPOLYLINE
  5
131
330
129
100
AcDbEntity
  8
DIMENSIONS
100
AcDbPolyline
 90
        4
 70
     0
 43
0.0
 10
9.455561081285143
 20
4.304592020838687
 10
9.381314869260557
 20
4.357625029427679
 10
9.402528072696153
 20
4.378838232863274
 10
9.455561081285143
 20
4.304592020838687
  0
LINE
  5
132
330
129
100
AcDbEntity
  8
DIMENSIONS
100
AcDbLine
 10
9.391921470978355
 20
4.368231631145477
 30
0.0
 11
9.046656578143004
 21
4.713496556516735
 31
0.0
  0
LWPOLYLINE
  5
133
330
129
100
AcDbEntity
  8
DIMENSIONS
100
AcDbPolyline
 90
        4
 70
     0
 43
0.0
 10
8.424363692054763
 20
5.335789410069067
 10
8.498609904079352
 20
5.282756401480077
 10
8.477396700643755
 20
5.26154319804448
 10
8.424363692054763
 20
5.335789410069067
  0
LINE
  5
134
330
129
100
AcDbEntity
  8
DIMENSIONS
100
AcDbLine
 10
8.488003302361554
 20
5.272149799762278
 30
0.0
 11
8.833268181475702
 21
4.926884948185251
 31
0.0
  0
ENDBLK
  5
12B
330
129
100
AcDbEntity
  8
0
100
AcDbBlockEnd
  0
BLOCK
  5
137
330
136
100
AcDbEntity
  8
0
100
AcDbBlockBegin
  2
D6
 70
     0
 10
0.0
 20
0.0
 30
0.0
  3
D6
  1

  0
MTEXT
  5
139
330
136
100
AcDbEntity
  8
DIMENSIONS
100
AcDbMText
 10
9.44602675550566
 20
3.95018570066437
 30
0.0
 40
0.0895833333333333
 41
0.0
 71
     6
 72
     1
  1
{\fAlibre Symbols|b0|i0|c0|p0;n}{\fArial|b0|i0|c0|p0;1.00}{\fMS Shell Dlg|b0|i0|c0|p0;\H0.9444444x;}
 73
     1
 44
1.0
  0
MTEXT
  5
13A
330
136
100
AcDbEntity
  8
DIMENSIONS
100
AcDbMText
 10
9.48352675550566
 20
4.07518570066437
 30
0.0
 40
0.0895833333333333
 41
0.0
 71
     4
 72
     1
  1
{\fArial|b0|i0|c0|p0;+}{\fArial|b0|i0|c0|p0;}
 73
     1
 44
1.0
  0
MTEXT
  5
13B
330
136
100
AcDbEntity
  8
DIMENSIONS
100
AcDbMText
 10
9.54602675550566
 20
4.07518570066437
 30
0.0
 40
0.0895833333333333
 41
0.0
 71
     4
 72
     1
  1
{\fArial|b0|i0|c0|p0;.00}{\fArial|b0|i0|c0|p0;}
 73
     1
 44
1.0
  0
MTEXT
  5
13C
330
136
100
AcDbEntity
  8
DIMENSIONS
100
AcDbMText
 10
9.48352675550566
 20
3.926376176854847
 30
0.0
 40
0.0895833333333333
 41
0.0
 71
     4
 72
     1
  1
{\fArial|b0|i0|c0|p0;-}{\fArial|b0|i0|c0|p0;}
 73
     1
 44
1.0
  0
MTEXT
  5
13D
330
136
100
AcDbEntity
  8
DIMENSIONS
100
AcDbMText
 10
9.54602675550566
 20
3.926376176854847
 30
0.0
 40
0.0895833333333333
 41
0.0
 71
     4
 72
     1
  1
{\fArial|b0|i0|c0|p0;.25}{\fArial|b0|i0|c0|p0;}
 73
     1
 44
1.0
  0
MTEXT
  5
13E
330
136
100
AcDbEntity
  8
DIMENSIONS
100
AcDbMText
 10
9.698804533283438
 20
3.95018570066437
 30
0.0
 40
0.0895833333333333
 41
0.0
 71
     4
 72
     1
  1
{\fArial|b0|i0|c0|p0;}
 73
     1
 44
1.0
  0
MTEXT
  5
13F
330
136
100
AcDbEntity
  8
DIMENSIONS
100
AcDbMText
 10
9.29602675550566
 20
3.95018570066437
 30
0.0
 40
0.0895833333333333
 41
0.0
 71
     5
 72
     1
  1
{\fArial|b0|i0|c0|p0;}
 73
     1
 44
1.0
  0
MTEXT
  5
140
330
136
100
AcDbEntity
  8
DIMENSIONS
100
AcDbMText
 10
9.126582311061215
 20
3.804352367331037
 30
0.0
 40
0.0895833333333333
 41
0.0
 71
     4
 72
     1
  1
{\fArial|b0|i0|c0|p0;TYP 2 PL}{\fArial|b0|i0|c0|p0;}
 73
     1
 44
1.0
  0
LINE
  5
141
330
136
100
AcDbEntity
  8
DIMENSIONS
100
AcDbLine
 10
9.789082288975706
 20
3.95018571294567
 30
0.0
 11
10.03908228897571
 21
3.95018571294567
 31
0.0
  0
LINE
  5
142
330
136
100
AcDbEntity
  8
DIMENSIONS
100
AcDbLine
 10
9.962554703805036
 20
4.61968899785558
 30
0.0
 11
10.03908228897571
 21
3.95018571294567
 31
0.0
  0
LWPOLYLINE
  5
143
330
136
100
AcDbEntity
  8
DIMENSIONS
100
AcDbPolyline
 90
        4
 70
     0
 43
0.0
 10
9.952333806743859
 20
4.709106743651729
 10
9.977457661437729
 20
4.621392480699109
 10
9.947651746172344
 20
4.61798551501205
 10
9.952333806743859
 20
4.709106743651729
  0
LWPOLYLINE
  5
144
330
136
100
AcDbEntity
  8
DIMENSIONS
100
AcDbPolyline
 90
        4
 70
     0
 43
0.0
 10
9.93340621959353
 20
4.874695161792749
 10
9.908282364899662
 20
4.962409424745369
 10
9.938088280165045
 20
4.965816390432428
 10
9.93340621959353
 20
4.874695161792749
  0
LINE
  5
145
330
136
100
AcDbEntity
  8
DIMENSIONS
100
AcDbLine
 10
9.923185322532355
 20
4.964112907588897
 30
0.0
 11
9.90501483886804
 21
5.123077789004274
 31
0.0
  0
ENDBLK
  5
138
330
136
100
AcDbEntity
  8
0
100
AcDbBlockEnd
  0
BLOCK
  5
148
330
147
100
AcDbEntity
  8
0
100
AcDbBlockBegin
  2
D7
 70
     0
 10
0.0
 20
0.0
 30
0.0
  3
D7
  1

  0
MTEXT
  5
14A
330
147
100
AcDbEntity
  8
DIMENSIONS
100
AcDbMText
 10
9.804422573780451
 20
5.857821487066314
 30
0.0
 40
0.0895833333333333
 41
0.0
 71
     5
 72
     1
  1
{\fArial|b0|i0|c0|p0;.87}{\fMS Shell Dlg|b0|i0|c0|p0;\H0.9444444x;}
 73
     1
 44
1.0
  0
MTEXT
  5
14B
330
147
100
AcDbEntity
  8
DIMENSIONS
100
AcDbMText
 10
9.804422573780451
 20
5.857821487066314
 30
0.0
 40
0.0895833333333333
 41
0.0
 71
     5
 72
     1
  1
{\fArial|b0|i0|c0|p0;}
 73
     1
 44
1.0
  0
MTEXT
  5
14C
330
147
100
AcDbEntity
  8
DIMENSIONS
100
AcDbMText
 10
9.804422573780451
 20
5.857821487066314
 30
0.0
 40
0.0895833333333333
 41
0.0
 71
     5
 72
     1
  1
{\fArial|b0|i0|c0|p0;}
 73
     1
 44
1.0
  0
LINE
  5
14D
330
147
100
AcDbEntity
  8
DIMENSIONS
100
AcDbLine
 10
9.415533576032535
 20
5.857821386708915
 30
0.0
 11
9.665533576032537
 21
5.857821386708915
 31
0.0
  0
LINE
  5
14E
330
147
100
AcDbEntity
  8
DIMENSIONS
100
AcDbLine
 10
9.176837666883255
 20
5.882023907051513
 30
0.0
 11
9.328278535110755
 21
6.033464775279015
 31
0.0
  0
LINE
  5
14F
330
147
100
AcDbEntity
  8
DIMENSIONS
100
AcDbLine
 10
9.073717927960232
 20
5.985143645974535
 30
0.0
 11
9.225158796187733
 21
6.136584514202037
 31
0.0
  0
LWPOLYLINE
  5
150
330
147
100
AcDbEntity
  8
DIMENSIONS
100
AcDbPolyline
 90
        4
 70
     0
 43
0.0
 10
9.284084361286595
 20
5.989270601454855
 10
9.358330573311184
 20
5.936237592865864
 10
9.337117369875587
 20
5.915024389430268
 10
9.284084361286595
 20
5.989270601454855
  0
LINE
  5
151
330
147
100
AcDbEntity
  8
DIMENSIONS
100
AcDbLine
 10
9.347723971593386
 20
5.925630991148066
 30
0.0
 11
9.415533576032535
 21
5.857821386708915
 31
0.0
  0
LWPOLYLINE
  5
152
330
147
100
AcDbEntity
  8
DIMENSIONS
100
AcDbPolyline
 90
        4
 70
     0
 43
0.0
 10
9.180964622363573
 20
6.092390340377877
 10
9.106718410338987
 20
6.145423348966868
 10
9.127931613774583
 20
6.166636552402464
 10
9.180964622363573
 20
6.092390340377877
  0
LINE
  5
153
330
147
100
AcDbEntity
  8
DIMENSIONS
100
AcDbLine
 10
9.117325012056785
 20
6.156029950684666
 30
0.0
 11
9.004187927066937
 21
6.269167035674513
 31
0.0
  0
ENDBLK
  5
149
330
147
100
AcDbEntity
  8
0
100
AcDbBlockEnd
  0
BLOCK
  5
156
330
155
100
AcDbEntity
  8
0
100
AcDbBlockBegin
  2
D8
 70
     0
 10
0.0
 20
0.0
 30
0.0
  3
D8
  1

  0
MTEXT
  5
158
330
155
100
AcDbEntity
  8
DIMENSIONS
100
AcDbMText
 10
11.56752458707554
 20
4.237448925108422
 30
0.0
 40
0.0895833333333333
 41
0.0
 71
     5
 72
     1
  1
{\fArial|b0|i0|c0|p0;1.75}{\fMS Shell Dlg|b0|i0|c0|p0;\H0.9444444x;}
 73
     1
 44
1.0
  0
MTEXT
  5
159
330
155
100
AcDbEntity
  8
DIMENSIONS
100
AcDbMText
 10
11.56752458707554
 20
4.237448925108422
 30
0.0
 40
0.0895833333333333
 41
0.0
 71
     5
 72
     1
  1
{\fArial|b0|i0|c0|p0;}
 73
     1
 44
1.0
  0
MTEXT
  5
15A
330
155
100
AcDbEntity
  8
DIMENSIONS
100
AcDbMText
 10
11.56752458707554
 20
4.237448925108422
 30
0.0
 40
0.0895833333333333
 41
0.0
 71
     5
 72
     1
  1
{\fArial|b0|i0|c0|p0;}
 73
     1
 44
1.0
  0
LINE
  5
15B
330
155
100
AcDbEntity
  8
DIMENSIONS
100
AcDbLine
 10
11.14391345888509
 20
4.237448937389722
 30
0.0
 11
11.39391345888509
 21
4.237448937389722
 31
0.0
  0
LINE
  5
15C
330
155
100
AcDbEntity
  8
DIMENSIONS
100
AcDbLine
 10
10.6205140118058
 20
4.438347562128967
 30
0.0
 11
10.82595859679998
 21
4.643792147123145
 31
0.0
  0
LINE
  5
15D
330
155
100
AcDbEntity
  8
DIMENSIONS
100
AcDbLine
 10
10.82675348965188
 20
4.232108084282885
 30
0.0
 11
11.03219807464606
 21
4.437552669277063
 31
0.0
  0
LWPOLYLINE
  5
15E
330
155
100
AcDbEntity
  8
DIMENSIONS
100
AcDbPolyline
 90
        4
 70
     0
 43
0.0
 10
10.78176442297582
 20
4.599597973298986
 10
10.85601063500041
 20
4.546564964709995
 10
10.83479743156481
 20
4.525351761274398
 10
10.78176442297582
 20
4.599597973298986
  0
LINE
  5
15F
330
155
100
AcDbEntity
  8
DIMENSIONS
100
AcDbLine
 10
10.84540403328261
 20
4.535958362992196
 30
0.0
 11
10.92436429051511
 21
4.456998105759693
 31
0.0
  0
LWPOLYLINE
  5
160
330
155
100
AcDbEntity
  8
DIMENSIONS
100
AcDbPolyline
 90
        4
 70
     0
 43
0.0
 10
10.9880039008219
 20
4.393358495452905
 10
10.91375768879732
 20
4.446391504041896
 10
10.93497089223291
 20
4.467604707477491
 10
10.9880039008219
 20
4.393358495452905
  0
LINE
  5
161
330
155
100
AcDbEntity
  8
DIMENSIONS
100
AcDbLine
 10
10.9880039008219
 20
4.393358495452904
 30
0.0
 11
11.14391345888509
 21
4.237448937389722
 31
0.0
  0
ENDBLK
  5
157
330
155
100
AcDbEntity
  8
0
100
AcDbBlockEnd
  0
BLOCK
  5
168
330
167
100
AcDbEntity
  8
0
100
AcDbBlockBegin
  2
BLOCK4
 70
     0
 10
0.0
 20
0.0
 30
0.0
  3
BLOCK4
  1

  0
LINE
  5
16A
330
167
100
AcDbEntity
  8
CONTINUOUS
100
AcDbLine
 10
0.0
 20
0.0
 30
0.0
 11
16.00000000000004
 21
0.0
 31
0.0
  0
LINE
  5
16B
330
167
100
AcDbEntity
  8
CONTINUOUS
100
AcDbLine
 10
16.00000000000004
 20
10.0
 30
0.0
 11
0.0
 21
10.0
 31
0.0
  0
LINE
  5
16C
330
167
100
AcDbEntity
  8
CONTINUOUS
100
AcDbLine
 10
0.6200000000000196
 20
0.3800000000000016
 30
0.0
 11
15.37999999999996
 21
0.3800000000000016
 31
0.0
  0
LINE
  5
16D
330
167
100
AcDbEntity
  8
CONTINUOUS
100
AcDbLine
 10
15.38
 20
9.620000000000001
 30
0.0
 11
0.6200000000000393
 21
9.620000000000001
 31
0.0
  0
LWPOLYLINE
  5
16E
330
167
100
AcDbEntity
  8
CONTINUOUS
100
AcDbPolyline
 90
        5
 70
     0
 43
0.0
 10
7.85
 20
0.2300000000000039
 10
8.15
 20
0.2300000000000039
 10
7.999999999999999
 20
0.3800000000000016
 10
7.999999999999999
 20
0.3800000000000016
 10
7.85
 20
0.2300000000000039
  0
LWPOLYLINE
  5
16F
330
167
100
AcDbEntity
  8
CONTINUOUS
100
AcDbPolyline
 90
        5
 70
     0
 43
0.0
 10
7.85
 20
9.77
 10
8.15
 20
9.77
 10
7.999999999999999
 20
9.620000000000001
 10
7.999999999999999
 20
9.620000000000001
 10
7.85
 20
9.77
  0
LINE
  5
170
330
167
100
AcDbEntity
  8
CONTINUOUS
100
AcDbLine
 10
0.0
 20
10.0
 30
0.0
 11
0.0
 21
0.0
 31
0.0
  0
LINE
  5
171
330
167
100
AcDbEntity
  8
CONTINUOUS
100
AcDbLine
 10
0.6200000000000393
 20
9.620000000000001
 30
0.0
 11
0.6200000000000196
 21
0.3800000000000016
 31
0.0
  0
LWPOLYLINE
  5
172
330
167
100
AcDbEntity
  8
CONTINUOUS
100
AcDbPolyline
 90
        5
 70
     0
 43
0.0
 10
0.48
 20
4.85
 10
0.48
 20
5.15
 10
0.6200000000000196
 20
5.0
 10
0.6200000000000196
 20
5.0
 10
0.48
 20
4.85
  0
LINE
  5
173
330
167
100
AcDbEntity
  8
CONTINUOUS
100
AcDbLine
 10
16.00000000000004
 20
0.0
 30
0.0
 11
16.00000000000004
 21
10.0
 31
0.0
  0
LINE
  5
174
330
167
100
AcDbEntity
  8
CONTINUOUS
100
AcDbLine
 10
15.38
 20
0.3800000000000016
 30
0.0
 11
15.38
 21
9.620000000000001
 31
0.0
  0
LWPOLYLINE
  5
175
330
167
100
AcDbEntity
  8
CONTINUOUS
100
AcDbPolyline
 90
        5
 70
     0
 43
0.0
 10
15.52000000000004
 20
4.85
 10
15.52000000000004
 20
5.15
 10
15.38
 20
5.0
 10
15.38
 20
5.0
 10
15.52000000000004
 20
4.85
  0
LINE
  5
176
330
167
100
AcDbEntity
  8
CONTINUOUS
100
AcDbLine
 10
11.13
 20
0.6299999999999999
 30
0.0
 11
15.38
 21
0.6299999999999999
 31
0.0
  0
LINE
  5
177
330
167
100
AcDbEntity
  8
CONTINUOUS
100
AcDbLine
 10
11.13
 20
1.63
 30
0.0
 11
15.38
 21
1.63
 31
0.0
  0
LINE
  5
178
330
167
100
AcDbEntity
  8
CONTINUOUS
100
AcDbLine
 10
11.13
 20
0.3800000000000016
 30
0.0
 11
11.13
 21
2.129999999999996
 31
0.0
  0
LINE
  5
179
330
167
100
AcDbEntity
  8
CONTINUOUS
100
AcDbLine
 10
11.51
 20
0.6299999999999999
 30
0.0
 11
11.51
 21
1.01
 31
0.0
  0
LINE
  5
17A
330
167
100
AcDbEntity
  8
CONTINUOUS
100
AcDbLine
 10
12.13
 20
0.3800000000000016
 30
0.0
 11
12.13
 21
0.6299999999999999
 31
0.0
  0
LINE
  5
17B
330
167
100
AcDbEntity
  8
CONTINUOUS
100
AcDbLine
 10
12.63000000000004
 20
0.6299999999999999
 30
0.0
 11
12.63000000000004
 21
1.01
 31
0.0
  0
LINE
  5
17C
330
167
100
AcDbEntity
  8
CONTINUOUS
100
AcDbLine
 10
13.63
 20
0.3800000000000016
 30
0.0
 11
13.63
 21
0.6299999999999999
 31
0.0
  0
LINE
  5
17D
330
167
100
AcDbEntity
  8
CONTINUOUS
100
AcDbLine
 10
15.0
 20
0.6299999999999999
 30
0.0
 11
15.0
 21
1.01
 31
0.0
  0
LINE
  5
17E
330
167
100
AcDbEntity
  8
CONTINUOUS
100
AcDbLine
 10
9.879999999999999
 20
9.37
 30
0.0
 11
15.38
 21
9.37
 31
0.0
  0
LINE
  5
17F
330
167
100
AcDbEntity
  8
CONTINUOUS
100
AcDbLine
 10
9.879999999999999
 20
9.12
 30
0.0
 11
15.38
 21
9.12
 31
0.0
  0
LINE
  5
180
330
167
100
AcDbEntity
  8
CONTINUOUS
100
AcDbLine
 10
9.879999999999999
 20
9.620000000000001
 30
0.0
 11
9.879999999999999
 21
8.5727
 31
0.0
  0
LINE
  5
181
330
167
100
AcDbEntity
  8
CONTINUOUS
100
AcDbLine
 10
10.38
 20
9.12
 30
0.0
 11
10.38
 21
9.37
 31
0.0
  0
LINE
  5
182
330
167
100
AcDbEntity
  8
CONTINUOUS
100
AcDbLine
 10
10.76
 20
9.12
 30
0.0
 11
10.76
 21
9.37
 31
0.0
  0
LINE
  5
183
330
167
100
AcDbEntity
  8
CONTINUOUS
100
AcDbLine
 10
13.50000000000004
 20
9.12
 30
0.0
 11
13.50000000000004
 21
9.37
 31
0.0
  0
LINE
  5
184
330
167
100
AcDbEntity
  8
CONTINUOUS
100
AcDbLine
 10
14.38
 20
9.12
 30
0.0
 11
14.38
 21
9.37
 31
0.0
  0
LINE
  5
185
330
167
100
AcDbEntity
  8
CONTINUOUS
100
AcDbLine
 10
7.999999999999999
 20
0.1300000000000051
 30
0.0
 11
7.999999999999999
 21
0.2300000000000039
 31
0.0
  0
LINE
  5
186
330
167
100
AcDbEntity
  8
CONTINUOUS
100
AcDbLine
 10
0.3800000000000016
 20
5.0
 30
0.0
 11
0.48
 21
5.0
 31
0.0
  0
LINE
  5
187
330
167
100
AcDbEntity
  8
CONTINUOUS
100
AcDbLine
 10
7.999999999999999
 20
9.870000000000001
 30
0.0
 11
7.999999999999999
 21
9.77
 31
0.0
  0
LINE
  5
188
330
167
100
AcDbEntity
  8
CONTINUOUS
100
AcDbLine
 10
15.62000000000004
 20
5.0
 30
0.0
 11
15.52000000000004
 21
5.0
 31
0.0
  0
LINE
  5
189
330
167
100
AcDbEntity
  8
CONTINUOUS
100
AcDbLine
 10
11.13
 20
1.4158617485185
 30
0.0
 11
9.129999999999999
 21
1.4158617485185
 31
0.0
  0
LINE
  5
18A
330
167
100
AcDbEntity
  8
CONTINUOUS
100
AcDbLine
 10
9.129999999999999
 20
0.6995204745271615
 30
0.0
 11
7.124461979194095
 21
0.6995204745271615
 31
0.0
  0
LINE
  5
18B
330
167
100
AcDbEntity
  8
CONTINUOUS
100
AcDbLine
 10
9.134604388150787
 20
2.129999999999996
 30
0.0
 11
9.134604388150787
 21
0.3799999999999996
 31
0.0
  0
LINE
  5
18C
330
167
100
AcDbEntity
  8
CONTINUOUS
100
AcDbLine
 10
11.13
 20
1.774037191431886
 30
0.0
 11
9.129999999999999
 21
1.774037191431886
 31
0.0
  0
LINE
  5
18D
330
167
100
AcDbEntity
  8
CONTINUOUS
100
AcDbLine
 10
9.129999999999999
 20
1.006522504546846
 30
0.0
 11
7.124461979194095
 21
1.006522504546846
 31
0.0
  0
LINE
  5
18E
330
167
100
AcDbEntity
  8
CONTINUOUS
100
AcDbLine
 10
11.13
 20
1.01
 30
0.0
 11
15.38
 21
1.01
 31
0.0
  0
LINE
  5
18F
330
167
100
AcDbEntity
  8
CONTINUOUS
100
AcDbLine
 10
11.13
 20
2.129999999999996
 30
0.0
 11
15.38
 21
2.129999999999996
 31
0.0
  0
LINE
  5
190
330
167
100
AcDbEntity
  8
CONTINUOUS
100
AcDbLine
 10
7.124461979194095
 20
2.129999999999996
 30
0.0
 11
7.124461979194095
 21
0.3799999999999996
 31
0.0
  0
LINE
  5
191
330
167
100
AcDbEntity
  8
CONTINUOUS
100
AcDbLine
 10
7.124461979194095
 20
2.129999999999996
 30
0.0
 11
11.13
 21
2.129999999999996
 31
0.0
  0
LINE
  5
192
330
167
100
AcDbEntity
  8
CONTINUOUS
100
AcDbLine
 10
11.13
 20
0.7287596785133819
 30
0.0
 11
9.129999999999999
 21
0.7287596785133819
 31
0.0
  0
LINE
  5
193
330
167
100
AcDbEntity
  8
CONTINUOUS
100
AcDbLine
 10
11.13
 20
1.072315519433854
 30
0.0
 11
9.129999999999999
 21
1.072315519433854
 31
0.0
  0
LINE
  5
194
330
167
100
AcDbEntity
  8
CONTINUOUS
100
AcDbLine
 10
10.11408888618228
 20
2.129999999999996
 30
0.0
 11
10.11408888618228
 21
0.3799999999999996
 31
0.0
  0
MTEXT
  5
195
330
167
100
AcDbEntity
  8
CONTINUOUS
100
AcDbMText
 10
9.176473544154724
 20
1.899404363553146
 30
0.0
 40
0.0895833333333333
 41
0.0
 71
     4
 72
     1
  1
{\fArial|b0|i0|c0|p0;\C7;CH}{\fArial|b0|i0|c0|p0;\C7;}
 73
     1
 44
1.0
  0
MTEXT
  5
196
330
167
100
AcDbEntity
  8
CONTINUOUS
100
AcDbMText
 10
12.583375
 20
9.48396
 30
0.0
 40
0.0696759259259259
 41
0.0
 71
     4
 72
     1
  1
{\fArial|b0|i0|c0|p0;\C7;REVISIONS}{\fArial|b0|i0|c0|p0;\C7;}
 73
     1
 44
1.0
  0
MTEXT
  5
197
330
167
100
AcDbEntity
  8
CONTINUOUS
100
AcDbMText
 10
-0.065749999999989
 20
0.072599999999998
 30
0.0
 40
0.2090277777777778
 41
0.0
 71
     4
 72
     1
  1
{\fArial|b0|i0|c0|p0;\C7;}
 73
     1
 44
1.0
  0
MTEXT
  5
198
330
167
100
AcDbEntity
  8
CONTINUOUS
100
AcDbMText
 10
9.169995166940158
 20
0.6396771858952717
 30
0.0
 40
0.0696759259259259
 41
0.0
 71
     4
 72
     1
  1
{\fArial|b0|i0|c0|p0;\C7;APPROVED}{\fArial|b0|i0|c0|p0;\C7;}
 73
     1
 44
1.0
  0
MTEXT
  5
199
330
167
100
AcDbEntity
  8
CONTINUOUS
100
AcDbMText
 10
13.6642245309424
 20
0.5392086662977362
 30
0.0
 40
0.0696759259259259
 41
0.0
 71
     4
 72
     1
  1
{\fArial|b0|i0|c0|p0;\C7;SHEET}{\fArial|b0|i0|c0|p0;\C7;}
 73
     1
 44
1.0
  0
MTEXT
  5
19A
330
167
100
AcDbEntity
  8
CONTINUOUS
100
AcDbMText
 10
9.169975943268899
 20
1.687472999748815
 30
0.0
 40
0.0696759259259259
 41
0.0
 71
     4
 72
     1
  1
{\fArial|b0|i0|c0|p0;\C7;CHECKED}{\fArial|b0|i0|c0|p0;\C7;}
 73
     1
 44
1.0
  0
MTEXT
  5
19B
330
167
100
AcDbEntity
  8
CONTINUOUS
100
AcDbMText
 10
-0.065749999999989
 20
6.0726
 30
0.0
 40
0.2090277777777778
 41
0.0
 71
     4
 72
     1
  1
{\fArial|b0|i0|c0|p0;\C7;}
 73
     1
 44
1.0
  0
MTEXT
  5
19C
330
167
100
AcDbEntity
  8
CONTINUOUS
100
AcDbMText
 10
11.755175
 20
9.24176
 30
0.0
 40
0.0696759259259259
 41
0.0
 71
     4
 72
     1
  1
{\fArial|b0|i0|c0|p0;\C7;DESCRIPTION}{\fArial|b0|i0|c0|p0;\C7;}
 73
     1
 44
1.0
  0
MTEXT
  5
19D
330
167
100
AcDbEntity
  8
CONTINUOUS
100
AcDbMText
 10
9.981875
 20
9.24176
 30
0.0
 40
0.0696759259259259
 41
0.0
 71
     4
 72
     1
  1
{\fArial|b0|i0|c0|p0;\C7;ZONE}{\fArial|b0|i0|c0|p0;\C7;}
 73
     1
 44
1.0
  0
MTEXT
  5
19E
330
167
100
AcDbEntity
  8
CONTINUOUS
100
AcDbMText
 10
10.16036026290472
 20
1.891782177898421
 30
0.0
 40
0.0895833333333333
 41
0.0
 71
     4
 72
     1
  1
{\fArial|b0|i0|c0|p0;\C7;6-DEC-2012}{\fArial|b0|i0|c0|p0;\C7;}
 73
     1
 44
1.0
  0
MTEXT
  5
19F
330
167
100
AcDbEntity
  8
CONTINUOUS
100
AcDbMText
 10
11.572075
 20
0.92736
 30
0.0
 40
0.0696759259259259
 41
0.0
 71
     4
 72
     1
  1
{\fArial|b0|i0|c0|p0;\C7;FSCM NO.}{\fArial|b0|i0|c0|p0;\C7;}
 73
     1
 44
1.0
  0
MTEXT
  5
1A0
330
167
100
AcDbEntity
  8
CONTINUOUS
100
AcDbMText
 10
-0.065749999999989
 20
3.072599999999992
 30
0.0
 40
0.2090277777777778
 41
0.0
 71
     4
 72
     1
  1
{\fArial|b0|i0|c0|p0;\C7;}
 73
     1
 44
1.0
  0
MTEXT
  5
1A1
330
167
100
AcDbEntity
  8
CONTINUOUS
100
AcDbMText
 10
14.614575
 20
9.24176
 30
0.0
 40
0.0696759259259259
 41
0.0
 71
     4
 72
     1
  1
{\fArial|b0|i0|c0|p0;\C7;APPROVED}{\fArial|b0|i0|c0|p0;\C7;}
 73
     1
 44
1.0
  0
MTEXT
  5
1A2
330
167
100
AcDbEntity
  8
CONTINUOUS
100
AcDbMText
 10
15.073675
 20
0.92736
 30
0.0
 40
0.0696759259259259
 41
0.0
 71
     4
 72
     1
  1
{\fArial|b0|i0|c0|p0;\C7;REV}{\fArial|b0|i0|c0|p0;\C7;}
 73
     1
 44
1.0
  0
MTEXT
  5
1A3
330
167
100
AcDbEntity
  8
CONTINUOUS
100
AcDbMText
 10
9.169975943268899
 20
2.036738271033067
 30
0.0
 40
0.0696759259259259
 41
0.0
 71
     4
 72
     1
  1
{\fArial|b0|i0|c0|p0;\C7;DRAWN}{\fArial|b0|i0|c0|p0;\C7;}
 73
     1
 44
1.0
  0
MTEXT
  5
1A4
330
167
100
AcDbEntity
  8
CONTINUOUS
100
AcDbMText
 10
13.820875
 20
9.24176
 30
0.0
 40
0.0696759259259259
 41
0.0
 71
     4
 72
     1
  1
{\fArial|b0|i0|c0|p0;\C7;DATE}{\fArial|b0|i0|c0|p0;\C7;}
 73
     1
 44
1.0
  0
MTEXT
  5
1A5
330
167
100
AcDbEntity
  8
CONTINUOUS
100
AcDbMText
 10
11.24972726585748
 20
0.7664026305387873
 30
0.0
 40
0.169212962962963
 41
0.0
 71
     4
 72
     1
  1
{\fArial|b0|i0|c0|p0;\C7;B}{\fArial|b0|i0|c0|p0;\C7;}
 73
     1
 44
1.0
  0
MTEXT
  5
1A6
330
167
100
AcDbEntity
  8
CONTINUOUS
100
AcDbMText
 10
9.180241383721654
 20
1.338207728464169
 30
0.0
 40
0.0696759259259259
 41
0.0
 71
     4
 72
     1
  1
{\fArial|b0|i0|c0|p0;\C7;QA}{\fArial|b0|i0|c0|p0;\C7;}
 73
     1
 44
1.0
  0
MTEXT
  5
1A7
330
167
100
AcDbEntity
  8
CONTINUOUS
100
AcDbMText
 10
9.182106079833858
 20
0.9945461573519646
 30
0.0
 40
0.0696759259259259
 41
0.0
 71
     4
 72
     1
  1
{\fArial|b0|i0|c0|p0;\C7;MFG}{\fArial|b0|i0|c0|p0;\C7;}
 73
     1
 44
1.0
  0
MTEXT
  5
1A8
330
167
100
AcDbEntity
  8
CONTINUOUS
100
AcDbMText
 10
11.175475
 20
0.5450834127254961
 30
0.0
 40
0.0696759259259259
 41
0.0
 71
     4
 72
     1
  1
{\fArial|b0|i0|c0|p0;\C7;SCALE}{\fArial|b0|i0|c0|p0;\C7;}
 73
     1
 44
1.0
  0
MTEXT
  5
1A9
330
167
100
AcDbEntity
  8
CONTINUOUS
100
AcDbMText
 10
10.453275
 20
9.24176
 30
0.0
 40
0.0696759259259259
 41
0.0
 71
     4
 72
     1
  1
{\fArial|b0|i0|c0|p0;\C7;REV}{\fArial|b0|i0|c0|p0;\C7;}
 73
     1
 44
1.0
  0
MTEXT
  5
1AA
330
167
100
AcDbEntity
  8
CONTINUOUS
100
AcDbMText
 10
11.211075
 20
0.92736
 30
0.0
 40
0.0696759259259259
 41
0.0
 71
     4
 72
     1
  1
{\fArial|b0|i0|c0|p0;\C7;SIZE}{\fArial|b0|i0|c0|p0;\C7;}
 73
     1
 44
1.0
  0
MTEXT
  5
1AB
330
167
100
AcDbEntity
  8
CONTINUOUS
100
AcDbMText
 10
13.13451812192602
 20
0.7493454520116338
 30
0.0
 40
0.0895833333333333
 41
0.0
 71
     4
 72
     1
  1
{\fArial|b0|i0|c0|p0;\C7;HOPPER SIDE BIB}{\fArial|b0|i0|c0|p0;\C7;}
 73
     1
 44
1.0
  0
MTEXT
  5
1AC
330
167
100
AcDbEntity
  8
CONTINUOUS
100
AcDbMText
 10
12.694175
 20
0.92736
 30
0.0
 40
0.0696759259259259
 41
0.0
 71
     4
 72
     1
  1
{\fArial|b0|i0|c0|p0;\C7;DWG NO.}{\fArial|b0|i0|c0|p0;\C7;}
 73
     1
 44
1.0
  0
MTEXT
  5
1AD
330
167
100
AcDbEntity
  8
CONTINUOUS
100
AcDbMText
 10
10.16976063815079
 20
2.047244007376768
 30
0.0
 40
0.0696759259259259
 41
0.0
 71
     4
 72
     1
  1
{\fArial|b0|i0|c0|p0;\C7;DATE}{\fArial|b0|i0|c0|p0;\C7;}
 73
     1
 44
1.0
  0
ENDBLK
  5
169
330
167
100
AcDbEntity
  8
0
100
AcDbBlockEnd
  0
ENDSEC
  0
SECTION
  2
ENTITIES
  0
LINE
  5
5E
330
1F
100
AcDbEntity
  8
VISIBLE
100
AcDbLine
 10
6.286754477994022
 20
6.801487181796728
 30
0.0
 11
4.286754477994027
 21
6.801487181796727
 31
0.0
  0
ELLIPSE
  5
5F
330
1F
100
AcDbEntity
  8
VISIBLE
100
AcDbEllipse
 10
4.995087811327356
 20
6.699581194614181
 30
0.0
 11
0.08333333333333304
 21
0.0
 31
0.0
210
0.0
220
0.0
230
1.0
 40
0.7071067811865522
 41
3.141592653589778
 42
4.71238898038469
  0
ELLIPSE
  5
60
330
1F
100
AcDbEntity
  8
VISIBLE
100
AcDbEllipse
 10
4.995087811327356
 20
6.699581194614181
 30
0.0
 11
0.08333333333333304
 21
0.0
 31
0.0
210
0.0
220
0.0
230
1.0
 40
0.7071067811865522
 41
0.0
 42
3.141592653589778
  0
ELLIPSE
  5
61
330
1F
100
AcDbEntity
  8
VISIBLE
100
AcDbEllipse
 10
4.995087811327356
 20
6.699581194614181
 30
0.0
 11
0.08333333333333304
 21
0.0
 31
0.0
210
0.0
220
0.0
230
1.0
 40
0.7071067811865522
 41
4.71238898038469
 42
6.283185307179586
  0
ELLIPSE
  5
62
330
1F
100
AcDbEntity
  8
VISIBLE
100
AcDbEllipse
 10
6.286754477994045
 20
6.817432324811939
 30
0.0
 11
0.02083333333333393
 21
0.0
 31
0.0
210
0.0
220
0.0
230
1.0
 40
0.7653668647301752
 41
4.71238898038469
 42
6.283185307179586
  0
LINE
  5
63
330
1F
100
AcDbEntity
  8
VISIBLE
100
AcDbLine
 10
6.453421144660689
 20
8.81743232481194
 30
0.0
 11
1.786754477994023
 21
8.81743232481194
 31
0.0
  0
ELLIPSE
  5
64
330
1F
100
AcDbEntity
  8
VISIBLE
100
AcDbEllipse
 10
3.953421144660687
 20
6.817432324811939
 30
0.0
 11
0.02083333333333304
 21
0.0
 31
0.0
210
0.0
220
0.0
230
1.0
 40
0.7653668647301652
 41
4.71238898038469
 42
6.283185307179586
  0
LINE
  5
65
330
1F
100
AcDbEntity
  8
VISIBLE
100
AcDbLine
 10
1.786754477994023
 20
8.81743232481194
 30
0.0
 11
1.786754477994023
 21
6.817432324811938
 31
0.0
  0
ELLIPSE
  5
66
330
1F
100
AcDbEntity
  8
VISIBLE
100
AcDbEllipse
 10
3.245087811327354
 20
6.69958119461418
 30
0.0
 11
0.08333333333333393
 21
0.0
 31
0.0
210
0.0
220
0.0
230
1.0
 40
0.7071067811865447
 41
3.141592653589778
 42
4.71238898038469
  0
ELLIPSE
  5
67
330
1F
100
AcDbEntity
  8
VISIBLE
100
AcDbEllipse
 10
3.245087811327354
 20
6.69958119461418
 30
0.0
 11
0.08333333333333393
 21
0.0
 31
0.0
210
0.0
220
0.0
230
1.0
 40
0.7071067811865447
 41
0.0
 42
3.141592653589778
  0
ELLIPSE
  5
68
330
1F
100
AcDbEntity
  8
VISIBLE
100
AcDbEllipse
 10
3.245087811327354
 20
6.69958119461418
 30
0.0
 11
0.08333333333333393
 21
0.0
 31
0.0
210
0.0
220
0.0
230
1.0
 40
0.7071067811865447
 41
4.71238898038469
 42
6.283185307179586
  0
LINE
  5
69
330
1F
100
AcDbEntity
  8
VISIBLE
100
AcDbLine
 10
3.953421144660689
 20
6.831352713101924
 30
0.0
 11
1.953421144660693
 21
6.831352713101924
 31
0.0
  0
ELLIPSE
  5
6A
330
1F
100
AcDbEntity
  8
VISIBLE
100
AcDbEllipse
 10
4.286754477994027
 20
6.817432324811939
 30
0.0
 11
0.01732228358963539
 21
0.01732228358963627
 31
0.0
210
0.0
220
0.0
230
1.0
 40
0.6681786379193351
 41
2.159844949342984
 42
2.329763404070056
  0
LINE
  5
6B
330
1F
100
AcDbEntity
  8
VISIBLE
100
AcDbLine
 10
6.453421144660689
 20
6.566998673141704
 30
0.0
 11
6.453421144660689
 21
6.581730064416424
 31
0.0
  0
LINE
  5
6C
330
1F
100
AcDbEntity
  8
VISIBLE
100
AcDbLine
 10
1.786754477994023
 20
6.817432324811938
 30
0.0
 11
1.786754477994023
 21
6.581730064416423
 31
0.0
  0
LINE
  5
6D
330
1F
100
AcDbEntity
  8
VISIBLE
100
AcDbLine
 10
4.286754477994023
 20
6.83998216231803
 30
0.0
 11
6.28675447799402
 21
6.839982162318031
 31
0.0
  0
ELLIPSE
  5
6E
330
1F
100
AcDbEntity
  8
VISIBLE
100
AcDbEllipse
 10
1.953421144660667
 20
6.808802875595832
 30
0.0
 11
0.0
 21
0.02254983750609174
 31
0.0
210
0.0
220
0.0
230
1.0
 40
0.9238795325112654
 41
0.0
 42
1.178097245096196
  0
ELLIPSE
  5
6F
330
1F
100
AcDbEntity
  8
VISIBLE
100
AcDbEllipse
 10
1.953421144660667
 20
6.817432324811938
 30
0.0
 11
0.02083333333333304
 21
0.0
 31
0.0
210
0.0
220
0.0
230
1.0
 40
0.7653668647302079
 41
3.141592653589793
 42
4.71238898038469
  0
ELLIPSE
  5
70
330
1F
100
AcDbEntity
  8
VISIBLE
100
AcDbEllipse
 10
6.286754477994045
 20
6.808802875595833
 30
0.0
 11
0.0
 21
0.02254983750609174
 31
0.0
210
0.0
220
0.0
230
1.0
 40
0.9238795325112654
 41
-1.178097245096196
 42
0.0
  0
ELLIPSE
  5
71
330
1F
100
AcDbEntity
  8
VISIBLE
100
AcDbEllipse
 10
3.953421144660687
 20
6.817432324811939
 30
0.0
 11
0.0
 21
0.02254983750609085
 31
0.0
210
0.0
220
0.0
230
1.0
 40
0.9238795325113018
 41
-1.570796326794897
 42
0.0
  0
ELLIPSE
  5
72
330
1F
100
AcDbEntity
  8
VISIBLE
100
AcDbEllipse
 10
3.953421144660687
 20
6.808802875595832
 30
0.0
 11
0.0
 21
0.02254983750609174
 31
0.0
210
0.0
220
0.0
230
1.0
 40
0.9238795325112654
 41
-1.178097245096144
 42
0.0
  0
ELLIPSE
  5
73
330
1F
100
AcDbEntity
  8
VISIBLE
100
AcDbEllipse
 10
1.953421144660667
 20
6.817432324811938
 30
0.0
 11
0.01732228358963627
 21
0.01732228358963716
 31
0.0
210
0.0
220
0.0
230
1.0
 40
0.6681786379192817
 41
2.159844949342947
 42
2.329763404070016
  0
LINE
  5
74
330
1F
100
AcDbEntity
  8
VISIBLE
100
AcDbLine
 10
1.953421144660693
 20
6.83998216231803
 30
0.0
 11
3.953421144660689
 21
6.83998216231803
 31
0.0
  0
ELLIPSE
  5
75
330
1F
100
AcDbEntity
  8
VISIBLE
100
AcDbEllipse
 10
4.286754477994027
 20
6.808802875595833
 30
0.0
 11
0.0
 21
0.02254983750609085
 31
0.0
210
0.0
220
0.0
230
1.0
 40
0.9238795325113413
 41
0.0
 42
1.178097245096151
  0
LINE
  5
76
330
1F
100
AcDbEntity
  8
VISIBLE
100
AcDbLine
 10
1.786754477994023
 20
6.581730064416423
 30
0.0
 11
1.786754477994023
 21
6.566998673141703
 31
0.0
  0
ELLIPSE
  5
77
330
1F
100
AcDbEntity
  8
VISIBLE
100
AcDbEllipse
 10
4.286754477994027
 20
6.817432324811939
 30
0.0
 11
0.02083333333333215
 21
0.0
 31
0.0
210
0.0
220
0.0
230
1.0
 40
0.7653668647301979
 41
3.141592653589793
 42
4.71238898038469
  0
ELLIPSE
  5
78
330
1F
100
AcDbEntity
  8
VISIBLE
100
AcDbEllipse
 10
6.286754477994045
 20
6.817432324811939
 30
0.0
 11
0.0
 21
0.02254983750609174
 31
0.0
210
0.0
220
0.0
230
1.0
 40
0.9238795325112654
 41
-1.570796326794897
 42
0.0
  0
ELLIPSE
  5
79
330
1F
100
AcDbEntity
  8
VISIBLE
100
AcDbEllipse
 10
4.286754477994027
 20
6.817432324811939
 30
0.0
 11
0.0
 21
0.02254983750609085
 31
0.0
210
0.0
220
0.0
230
1.0
 40
0.9238795325113413
 41
0.0
 42
1.570796326794897
  0
LINE
  5
7A
330
1F
100
AcDbEntity
  8
VISIBLE
100
AcDbLine
 10
6.453421144660689
 20
6.581730064416424
 30
0.0
 11
1.786754477994023
 21
6.581730064416423
 31
0.0
  0
LINE
  5
7B
330
1F
100
AcDbEntity
  8
VISIBLE
100
AcDbLine
 10
3.953421144660687
 20
6.801487181796727
 30
0.0
 11
1.95342114466069
 21
6.801487181796727
 31
0.0
  0
ELLIPSE
  5
7C
330
1F
100
AcDbEntity
  8
VISIBLE
100
AcDbEllipse
 10
1.953421144660667
 20
6.817432324811938
 30
0.0
 11
0.0
 21
0.02254983750609174
 31
0.0
210
0.0
220
0.0
230
1.0
 40
0.9238795325112654
 41
0.0
 42
1.570796326794897
  0
LINE
  5
7D
330
1F
100
AcDbEntity
  8
VISIBLE
100
AcDbLine
 10
1.932587811327333
 20
6.817432324811938
 30
0.0
 11
1.786754477994023
 21
6.817432324811938
 31
0.0
  0
LINE
  5
7E
330
1F
100
AcDbEntity
  8
VISIBLE
100
AcDbLine
 10
6.453421144660689
 20
6.566998673141704
 30
0.0
 11
1.786754477994023
 21
6.566998673141703
 31
0.0
  0
LINE
  5
7F
330
1F
100
AcDbEntity
  8
VISIBLE
100
AcDbLine
 10
6.453421144660689
 20
6.817432324811939
 30
0.0
 11
6.307587811327379
 21
6.817432324811939
 31
0.0
  0
LINE
  5
80
330
1F
100
AcDbEntity
  8
VISIBLE
100
AcDbLine
 10
6.28675447799402
 20
6.831352713101925
 30
0.0
 11
4.286754477994023
 21
6.831352713101924
 31
0.0
  0
LINE
  5
81
330
1F
100
AcDbEntity
  8
VISIBLE
100
AcDbLine
 10
4.265921144660693
 20
6.817432324811939
 30
0.0
 11
3.974254477994019
 21
6.817432324811939
 31
0.0
  0
ELLIPSE
  5
82
330
1F
100
AcDbEntity
  8
VISIBLE
100
AcDbEllipse
 10
3.953421144660687
 20
6.817432324811939
 30
0.0
 11
0.01732228358963628
 21
-0.01732228358963628
 31
0.0
210
0.0
220
0.0
230
0.9999999999999998
 40
0.6681786379192924
 41
0.8118292495197795
 42
0.981747704246815
  0
LINE
  5
83
330
1F
100
AcDbEntity
  8
VISIBLE
100
AcDbLine
 10
6.453421144660689
 20
6.581730064416424
 30
0.0
 11
6.453421144660689
 21
6.817432324811939
 31
0.0
  0
ELLIPSE
  5
84
330
1F
100
AcDbEntity
  8
VISIBLE
100
AcDbEllipse
 10
4.995087811327356
 20
6.684849803339461
 30
0.0
 11
-0.08333333333333304
 21
0.0
 31
0.0
210
0.0
220
0.0
230
1.0
 40
0.7071067811865416
 41
-3.016264822421705
 42
-0.1253278311680885
  0
ELLIPSE
  5
85
330
1F
100
AcDbEntity
  8
VISIBLE
100
AcDbEllipse
 10
6.286754477994045
 20
6.817432324811939
 30
0.0
 11
0.01732228358963628
 21
-0.01732228358963628
 31
0.0
210
0.0
220
0.0
230
0.9999999999999998
 40
0.6681786379192924
 41
0.8118292495197871
 42
0.981747704246815
  0
LINE
  5
86
330
1F
100
AcDbEntity
  8
VISIBLE
100
AcDbLine
 10
6.453421144660689
 20
6.817432324811939
 30
0.0
 11
6.453421144660689
 21
8.81743232481194
 31
0.0
  0
ELLIPSE
  5
87
330
1F
100
AcDbEntity
  8
VISIBLE
100
AcDbEllipse
 10
3.245087811327354
 20
6.684849803339461
 30
0.0
 11
-0.08333333333333393
 21
0.0
 31
0.0
210
0.0
220
0.0
230
1.0
 40
0.7071067811865447
 41
-3.016264822421722
 42
-0.1253278311680557
  0
LINE
  5
89
330
1F
100
AcDbEntity
  8
TANGENT EDGES
100
AcDbLine
 10
1.953421144660693
 20
6.83998216231803
 30
0.0
 11
1.953421144660693
 21
6.831352713101924
 31
0.0
  0
LINE
  5
8A
330
1F
100
AcDbEntity
  8
TANGENT EDGES
100
AcDbLine
 10
4.286754477994023
 20
6.83998216231803
 30
0.0
 11
4.286754477994023
 21
6.831352713101924
 31
0.0
  0
LINE
  5
8B
330
1F
100
AcDbEntity
  8
TANGENT EDGES
100
AcDbLine
 10
3.953421144660689
 20
6.83998216231803
 30
0.0
 11
3.953421144660689
 21
6.831352713101924
 31
0.0
  0
LINE
  5
8C
330
1F
100
AcDbEntity
  8
TANGENT EDGES
100
AcDbLine
 10
6.28675447799402
 20
6.839982162318031
 30
0.0
 11
6.28675447799402
 21
6.831352713101925
 31
0.0
  0
DIMENSION
  5
8E
330
1F
100
AcDbEntity
  8
DIMENSIONS
100
AcDbDimension
  2
D1
 10
0.0
 20
0.0
 30
0.0
 11
10.74219847351234
 21
13.5297005834549
 31
0.0
 70
    32
  1
<>
 71
     5
 42
-1.0
 53
180.0
  3
Standard
100
AcDbAlignedDimension
 13
6.453421144660689
 23
6.566998673141704
 33
0.0
 14
1.786754477994023
 24
6.566998673141703
 34
0.0
 50
180.0
100
AcDbRotatedDimension
1001
ACAD
1000
DSTYLE
1002
{
1070
    76
1070
     0
1070
    75
1070
     0
1070
   282
1070
     0
1070
   281
1070
     0
1070
    77
1070
     0
1070
    79
1070
     0
1070
    78
1070
     0
1070
   272
1070
     2
1070
   271
1070
     2
1070
   179
1070
     2
1070
   140
1040
0.0895833333333333
1070
    71
1070
     0
1070
    72
1070
     0
1070
    48
1040
0.0000787401574803
1070
    47
1040
0.0001968503937008
1002
}
  0
DIMENSION
  5
9B
330
1F
100
AcDbEntity
  8
DIMENSIONS
100
AcDbDimension
  2
D2
 10
0.0
 20
0.0
 30
0.0
 11
13.70836979823475
 21
15.63486464962388
 31
0.0
 70
    32
  1
<>
 71
     5
 42
-1.0
 53
90.0
  3
Standard
100
AcDbAlignedDimension
 13
6.453421144660689
 23
6.817432324811939
 33
0.0
 14
6.453421144660689
 24
8.81743232481194
 34
0.0
 50
90.0
100
AcDbRotatedDimension
1001
ACAD
1000
DSTYLE
1002
{
1070
    76
1070
     0
1070
    75
1070
     0
1070
   282
1070
     0
1070
   281
1070
     0
1070
    77
1070
     0
1070
    79
1070
     0
1070
    78
1070
     0
1070
   272
1070
     2
1070
   271
1070
     2
1070
   179
1070
     2
1070
   140
1040
0.0895833333333333
1070
    71
1070
     0
1070
    72
1070
     0
1070
    48
1040
0.0000787401574803
1070
    47
1040
0.0001968503937008
1002
}
  0
LINE
  5
A8
330
1F
100
AcDbEntity
  8
VISIBLE
100
AcDbLine
 10
7.932070032353718
 20
6.566998673141704
 30
0.0
 11
7.917338641078999
 21
6.581730064416424
 31
0.0
  0
ARC
  5
A9
330
1F
100
AcDbEntity
  8
VISIBLE
100
AcDbCircle
 10
8.153040901474514
 20
6.817432324811939
 30
0.0
 40
0.0208333333333337
100
AcDbArc
 50
315.0000000000017
 51
0.0
  0
LINE
  5
AA
330
1F
100
AcDbEntity
  8
VISIBLE
100
AcDbLine
 10
8.173874234807847
 20
8.81743232481194
 30
0.0
 11
8.173874234807847
 21
6.817432324811939
 31
0.0
  0
LINE
  5
AB
330
1F
100
AcDbEntity
  8
VISIBLE
100
AcDbLine
 10
7.917338641078999
 20
6.581730064416424
 30
0.0
 11
8.153040901474514
 21
6.817432324811939
 31
0.0
  0
LINE
  5
AC
330
1F
100
AcDbEntity
  8
VISIBLE
100
AcDbLine
 10
8.153040901474515
 20
8.81743232481194
 30
0.0
 11
8.173874234807847
 21
8.81743232481194
 31
0.0
  0
LINE
  5
AD
330
1F
100
AcDbEntity
  8
VISIBLE
100
AcDbLine
 10
8.167772292749234
 20
6.80270093353722
 30
0.0
 11
7.932070032353718
 21
6.566998673141704
 31
0.0
  0
LINE
  5
AE
330
1F
100
AcDbEntity
  8
VISIBLE
100
AcDbLine
 10
8.153040901474514
 20
6.817432324811939
 30
0.0
 11
8.153040901474515
 21
8.81743232481194
 31
0.0
  0
DIMENSION
  5
AF
330
1F
100
AcDbEntity
  8
DIMENSIONS
100
AcDbDimension
  2
D3
 10
0.0
 20
0.0
 30
0.0
 11
17.1123096266119
 21
14.1977135478988
 31
0.0
 70
    32
  1
<>
 71
     5
 42
-1.0
 53
44.99999999999999
  3
Standard
100
AcDbAlignedDimension
 13
7.917338641078999
 23
6.581730064416424
 33
0.0
 14
8.153040901474514
 24
6.817432324811939
 34
0.0
 50
44.99999999999999
100
AcDbRotatedDimension
1001
ACAD
1000
DSTYLE
1002
{
1070
    76
1070
     0
1070
    75
1070
     0
1070
   282
1070
     0
1070
   281
1070
     0
1070
    77
1070
     0
1070
    79
1070
     0
1070
    78
1070
     0
1070
   272
1070
     2
1070
   271
1070
     2
1070
   179
1070
     2
1070
   140
1040
0.0895833333333333
1070
    71
1070
     0
1070
    72
1070
     0
1070
    48
1040
0.0000787401574803
1070
    47
1040
0.0001968503937008
1002
}
  0
DIMENSION
  5
BC
330
1F
100
AcDbEntity
  8
DIMENSIONS
100
AcDbDimension
  2
D4
 10
8.452381163739334
 20
7.116772587076758
 30
0.0
 11
15.92857362144458
 21
14.80434472927029
 31
0.0
 70
    34
  1
<>
 71
     5
 42
-1.0
  3
Standard
100
AcDb2LineAngularDimension
 13
8.153040901474514
 23
6.817432324811939
 33
0.0
 14
8.153040901474515
 24
7.240763383471165
 34
0.0
 15
8.153040901474514
 25
6.817432324811939
 35
0.0
 16
15.92857362144458
 26
14.80434472927029
 36
0.0
1001
ACAD
1000
DSTYLE
1002
{
1070
    76
1070
     0
1070
    75
1070
     0
1070
   282
1070
     0
1070
   281
1070
     0
1070
    77
1070
     0
1070
    79
1070
     0
1070
    78
1070
     0
1070
   272
1070
     0
1070
   271
1070
     0
1070
   179
1070
     0
1070
   140
1040
0.0895833333333333
1070
    71
1070
     0
1070
    72
1070
     0
1070
    48
1040
0.0006871172362205
1070
    47
1040
0.0006871172362205
1002
}
  0
LINE
  5
C9
330
1F
100
AcDbEntity
  8
VISIBLE
100
AcDbLine
 10
5.573668708508449
 20
1.614737508551402
 30
0.0
 11
4.159455146135357
 21
2.431234089479127
 31
0.0
  0
ELLIPSE
  5
CA
330
1F
100
AcDbEntity
  8
VISIBLE
100
AcDbEllipse
 10
3.949759195767602
 20
2.588304842036326
 30
0.0
 11
0.01127491875304543
 21
0.01952873213148631
 31
0.0
210
0.0
220
0.0
230
1.0
 40
0.7543444794845919
 41
3.141592653589734
 42
3.223941053255795
  0
ELLIPSE
  5
CB
330
1F
100
AcDbEntity
  8
VISIBLE
100
AcDbEllipse
 10
4.588264034895539
 20
2.017249381901305
 30
0.0
 11
0.04166666666666607
 21
0.07216878364870283
 31
0.0
210
0.0
220
0.0
230
1.0
 40
0.8164965809277333
 41
0.0
 42
3.141592653589781
  0
ELLIPSE
  5
CC
330
1F
100
AcDbEntity
  8
VISIBLE
100
AcDbEllipse
 10
4.588264034895539
 20
2.017249381901305
 30
0.0
 11
0.04166666666666607
 21
0.07216878364870283
 31
0.0
210
0.0
220
0.0
230
1.0
 40
0.8164965809277333
 41
3.141592653589781
 42
6.283185307179586
  0
ELLIPSE
  5
CD
330
1F
100
AcDbEntity
  8
VISIBLE
100
AcDbEllipse
 10
5.584943627261511
 20
1.634266240682879
 30
0.0
 11
0.01127491875304543
 21
0.01952873213148631
 31
0.0
210
0.0
220
0.0
230
0.9999999999999999
 40
0.7543444794845701
 41
3.637651514740547
 42
4.712388980384674
  0
ELLIPSE
  5
CE
330
1F
100
AcDbEntity
  8
VISIBLE
100
AcDbEllipse
 10
5.584943627261511
 20
1.634266240682879
 30
0.0
 11
0.01127491875304543
 21
0.01952873213148631
 31
0.0
210
0.0
220
0.0
230
0.9999999999999999
 40
0.7543444794845701
 41
3.141592653589754
 42
3.637651514740547
  0
LINE
  5
CF
330
1F
100
AcDbEntity
  8
VISIBLE
100
AcDbLine
 10
5.702794757459253
 20
3.199218020794363
 30
0.0
 11
2.402963111922032
 21
5.104376709625722
 31
0.0
  0
ELLIPSE
  5
D0
330
1F
100
AcDbEntity
  8
VISIBLE
100
AcDbEllipse
 10
3.935027804492882
 20
2.58684558509857
 30
0.0
 11
0.01127491875304631
 21
0.01952873213148587
 31
0.0
210
0.0
220
0.0
230
0.9999999999999998
 40
0.7543444794845655
 41
3.637651514740652
 42
4.712388980384707
  0
ELLIPSE
  5
D1
330
1F
100
AcDbEntity
  8
VISIBLE
100
AcDbEllipse
 10
3.935027804492882
 20
2.58684558509857
 30
0.0
 11
0.01127491875304631
 21
0.01952873213148587
 31
0.0
210
0.0
220
0.0
230
0.9999999999999998
 40
0.7543444794845655
 41
3.141592653589851
 42
3.637651514740652
  0
LINE
  5
D2
330
1F
100
AcDbEntity
  8
VISIBLE
100
AcDbLine
 10
2.402963111922032
 20
5.104376709625722
 30
0.0
 11
2.402963111922033
 21
3.471383547770271
 31
0.0
  0
ELLIPSE
  5
D3
330
1F
100
AcDbEntity
  8
VISIBLE
100
AcDbEllipse
 10
3.350827167819079
 20
2.731683890213065
 30
0.0
 11
0.04166666666666696
 21
0.07216878364870372
 31
0.0
210
0.0
220
0.0
230
1.0
 40
0.8164965809277287
 41
0.0
 42
3.14159265358979
  0
ELLIPSE
  5
D4
330
1F
100
AcDbEntity
  8
VISIBLE
100
AcDbEllipse
 10
3.350827167819079
 20
2.731683890213065
 30
0.0
 11
0.04166666666666696
 21
0.07216878364870372
 31
0.0
210
0.0
220
0.0
230
1.0
 40
0.8164965809277287
 41
3.141592653589796
 42
6.283185307179586
  0
ELLIPSE
  5
D5
330
1F
100
AcDbEntity
  8
VISIBLE
100
AcDbEllipse
 10
4.170730064888403
 20
2.450762821610613
 30
0.0
 11
-0.004607867272217626
 21
-0.02136379009198341
 31
0.0
210
0.0
220
0.0
230
0.9999999999999998
 40
0.1608319353696923
 41
-2.407874379918374
 42
-1.622476216520907
  0
LINE
  5
D6
330
1F
100
AcDbEntity
  8
VISIBLE
100
AcDbLine
 10
5.546544757459253
 20
1.27153565904004
 30
0.0
 11
5.536128090792586
 21
1.277549724344099
 31
0.0
  0
LINE
  5
D7
330
1F
100
AcDbEntity
  8
VISIBLE
100
AcDbLine
 10
5.717526148733972
 20
3.20772319351236
 30
0.0
 11
2.417694503196752
 21
5.11288188234372
 31
0.0
  0
LINE
  5
D8
330
1F
100
AcDbEntity
  8
VISIBLE
100
AcDbLine
 10
2.402963111922033
 20
3.471383547770271
 30
0.0
 11
2.236296445255366
 21
3.182708413175458
 31
0.0
  0
LINE
  5
D9
330
1F
100
AcDbEntity
  8
VISIBLE
100
AcDbLine
 10
4.170730064888401
 20
2.469174686834813
 30
0.0
 11
5.584943627261493
 21
1.652678105907089
 31
0.0
  0
ELLIPSE
  5
DA
330
1F
100
AcDbEntity
  8
VISIBLE
100
AcDbEllipse
 10
2.535545633394493
 20
3.404801422964061
 30
0.0
 11
-0.009566572691540374
 21
0.01952450331279953
 31
0.0
210
0.0
220
0.0
230
1.0
 40
0.573762926328896
 41
0.3873519380466486
 42
0.4713014415527318
  0
ELLIPSE
  5
DB
330
1F
100
AcDbEntity
  8
VISIBLE
100
AcDbEllipse
 10
2.520814242119775
 20
3.403342166026303
 30
0.0
 11
0.01127491875304498
 21
0.01952873213148631
 31
0.0
210
0.0
220
0.0
230
1.0
 40
0.7543444794845625
 41
1.570796326794895
 42
3.141592653589726
  0
LINE
  5
DC
330
1F
100
AcDbEntity
  8
VISIBLE
100
AcDbLine
 10
2.524270714641464
 20
3.385272690832565
 30
0.0
 11
3.938484277014557
 21
2.568776109904841
 31
0.0
  0
ELLIPSE
  5
DD
330
1F
100
AcDbEntity
  8
VISIBLE
100
AcDbEllipse
 10
3.935027804492882
 20
2.58684558509857
 30
0.0
 11
-0.009566572691540374
 21
0.01952450331279909
 31
0.0
210
0.0
220
0.0
230
1.0
 40
0.5737629263289065
 41
4.005593176841213
 42
5.576389503636141
  0
ELLIPSE
  5
DE
330
1F
100
AcDbEntity
  8
VISIBLE
100
AcDbEllipse
 10
2.520814242119774
 20
3.403342166026303
 30
0.0
 11
-0.00460786727221807
 21
-0.02136379009198297
 31
0.0
210
0.0
220
0.0
230
1.0
 40
0.1608319353697189
 41
-2.407874379918284
 42
-1.62247621652093
  0
ELLIPSE
  5
DF
330
1F
100
AcDbEntity
  8
VISIBLE
100
AcDbEllipse
 10
5.599675018536231
 20
1.635725497620636
 30
0.0
 11
0.01127491875304631
 21
0.01952873213148654
 31
0.0
210
0.0
220
0.0
230
1.0
 40
0.7543444794845584
 41
3.141592653589832
 42
3.223941053255885
  0
LINE
  5
E0
330
1F
100
AcDbEntity
  8
VISIBLE
100
AcDbLine
 10
2.520814242119793
 20
3.421754031250492
 30
0.0
 11
3.935027804492885
 21
2.605257450322768
 31
0.0
  0
ELLIPSE
  5
E1
330
1F
100
AcDbEntity
  8
VISIBLE
100
AcDbEllipse
 10
4.185461456163123
 20
2.45222207854837
 30
0.0
 11
-0.009566572691541708
 21
0.01952450331279953
 31
0.0
210
0.0
220
0.0
230
1.0
 40
0.5737629263289169
 41
0.3873519380466541
 42
0.4713014415526611
  0
ELLIPSE
  5
E2
330
1F
100
AcDbEntity
  8
VISIBLE
100
AcDbEllipse
 10
5.702794757459253
 20
1.566224858938911
 30
0.0
 11
0.01041666666666697
 21
0.01804219591217593
 31
0.0
210
0.0
220
0.0
230
0.9999999999999999
 40
0.577350269189588
 41
4.712388980384704
 42
5.497787143782126
  0
ELLIPSE
  5
E3
330
1F
100
AcDbEntity
  8
VISIBLE
100
AcDbEllipse
 10
4.170730064888403
 20
2.450762821610613
 30
0.0
 11
0.01127491875304543
 21
0.01952873213148587
 31
0.0
210
0.0
220
0.0
230
1.0
 40
0.754344479484578
 41
1.570796326794906
 42
3.141592653589806
  0
ELLIPSE
  5
E4
330
1F
100
AcDbEntity
  8
VISIBLE
100
AcDbEllipse
 10
5.584943627261511
 20
1.634266240682879
 30
0.0
 11
-0.009566572691540818
 21
0.01952450331279975
 31
0.0
210
0.0
220
0.0
230
0.9999999999999999
 40
0.5737629263289085
 41
4.005593176841206
 42
5.576389503636136
  0
ELLIPSE
  5
E5
330
1F
100
AcDbEntity
  8
VISIBLE
100
AcDbEllipse
 10
4.170730064888403
 20
2.450762821610613
 30
0.0
 11
-0.00956657269154082
 21
0.01952450331279953
 31
0.0
210
0.0
220
0.0
230
0.9999999999999998
 40
0.5737629263288726
 41
-0.2107369423926566
 42
0.8640005232514636
  0
ELLIPSE
  5
E6
330
1F
100
AcDbEntity
  8
VISIBLE
100
AcDbEllipse
 10
4.170730064888403
 20
2.450762821610613
 30
0.0
 11
-0.00956657269154082
 21
0.01952450331279953
 31
0.0
210
0.0
220
0.0
230
0.9999999999999998
 40
0.5737629263288726
 41
-0.706795803543486
 42
-0.2107369423926566
  0
LINE
  5
E7
330
1F
100
AcDbEntity
  8
VISIBLE
100
AcDbLine
 10
5.536128090792586
 20
1.277549724344099
 30
0.0
 11
2.236296445255366
 21
3.182708413175458
 31
0.0
  0
LINE
  5
E8
330
1F
100
AcDbEntity
  8
VISIBLE
100
AcDbLine
 10
3.923752885739837
 20
2.567316852967084
 30
0.0
 11
2.509539323366746
 21
3.383813433894808
 31
0.0
  0
ELLIPSE
  5
E9
330
1F
100
AcDbEntity
  8
VISIBLE
100
AcDbEllipse
 10
2.520814242119774
 20
3.403342166026303
 30
0.0
 11
-0.00956657269154082
 21
0.01952450331279998
 31
0.0
210
0.0
220
0.0
230
0.9999999999999998
 40
0.5737629263288986
 41
-0.210736942392677
 42
0.8640005232514643
  0
ELLIPSE
  5
EA
330
1F
100
AcDbEntity
  8
VISIBLE
100
AcDbEllipse
 10
2.520814242119774
 20
3.403342166026303
 30
0.0
 11
-0.00956657269154082
 21
0.01952450331279998
 31
0.0
210
0.0
220
0.0
230
0.9999999999999998
 40
0.5737629263288986
 41
-0.7067958035434525
 42
-0.210736942392677
  0
LINE
  5
EB
330
1F
100
AcDbEntity
  8
VISIBLE
100
AcDbLine
 10
2.506082850845054
 20
3.411847338744301
 30
0.0
 11
2.402963111922033
 21
3.471383547770271
 31
0.0
  0
LINE
  5
EC
330
1F
100
AcDbEntity
  8
VISIBLE
100
AcDbLine
 10
4.174186537410077
 20
2.432693346416884
 30
0.0
 11
5.588400099783169
 21
1.61619676548916
 31
0.0
  0
LINE
  5
ED
330
1F
100
AcDbEntity
  8
VISIBLE
100
AcDbLine
 10
5.702794757459253
 20
1.566224858938911
 30
0.0
 11
5.599675018536231
 21
1.625761067964882
 31
0.0
  0
LINE
  5
EE
330
1F
100
AcDbEntity
  8
VISIBLE
100
AcDbLine
 10
4.155998673613683
 20
2.45926799432861
 30
0.0
 11
3.949759195767601
 21
2.578340412380573
 31
0.0
  0
LINE
  5
EF
330
1F
100
AcDbEntity
  8
VISIBLE
100
AcDbLine
 10
2.417694503196752
 20
5.11288188234372
 30
0.0
 11
2.402963111922032
 21
5.104376709625722
 31
0.0
  0
ELLIPSE
  5
F0
330
1F
100
AcDbEntity
  8
VISIBLE
100
AcDbEllipse
 10
4.185461456163122
 20
2.45222207854837
 30
0.0
 11
0.01127491875304543
 21
0.01952873213148587
 31
0.0
210
0.0
220
0.0
230
1.0
 40
0.754344479484578
 41
1.963495408493623
 42
3.14159265358985
  0
LINE
  5
F1
330
1F
100
AcDbEntity
  8
VISIBLE
100
AcDbLine
 10
5.717526148733972
 20
3.20772319351236
 30
0.0
 11
5.717526148733973
 21
1.574730031656908
 31
0.0
  0
LINE
  5
F2
330
1F
100
AcDbEntity
  8
VISIBLE
100
AcDbLine
 10
5.536128090792586
 20
1.277549724344099
 30
0.0
 11
5.702794757459253
 21
1.566224858938911
 31
0.0
  0
LINE
  5
F3
330
1F
100
AcDbEntity
  8
VISIBLE
100
AcDbLine
 10
5.702794757459253
 20
3.199218020794363
 30
0.0
 11
5.717526148733972
 21
3.20772319351236
 31
0.0
  0
ELLIPSE
  5
F4
330
1F
100
AcDbEntity
  8
VISIBLE
100
AcDbEllipse
 10
4.598680701562206
 20
2.011235316597246
 30
0.0
 11
0.04166666666666607
 21
0.07216878364870283
 31
0.0
210
0.0
220
0.0
230
1.0
 40
0.8164965809277214
 41
0.0885038431440187
 42
3.053088810445761
  0
LINE
  5
F5
330
1F
100
AcDbEntity
  8
VISIBLE
100
AcDbLine
 10
5.71321142412592
 20
1.560210793634853
 30
0.0
 11
5.546544757459253
 21
1.27153565904004
 31
0.0
  0
LINE
  5
F6
330
1F
100
AcDbEntity
  8
VISIBLE
100
AcDbLine
 10
5.702794757459253
 20
1.566224858938911
 30
0.0
 11
5.702794757459253
 21
3.199218020794363
 31
0.0
  0
ELLIPSE
  5
F7
330
1F
100
AcDbEntity
  8
VISIBLE
100
AcDbEllipse
 10
3.361243834485746
 20
2.725669824909007
 30
0.0
 11
0.04166666666666652
 21
0.07216878364870327
 31
0.0
210
0.0
220
0.0
230
0.9999999999999999
 40
0.8164965809277395
 41
0.0885038431440306
 42
3.053088810445795
  0
ELLIPSE
  5
F8
330
1F
100
AcDbEntity
  8
VISIBLE
100
AcDbEllipse
 10
2.535545633394494
 20
3.40480142296406
 30
0.0
 11
0.01127491875304543
 21
0.01952873213148631
 31
0.0
210
0.0
220
0.0
230
1.0
 40
0.7543444794845651
 41
1.963495408493567
 42
3.141592653589793
  0
LINE
  5
F9
330
1F
100
AcDbEntity
  8
TANGENT EDGES
100
AcDbLine
 10
3.923752885739836
 20
2.567316852967084
 30
0.0
 11
3.938484277014556
 21
2.568776109904841
 31
0.0
  0
LINE
  5
FA
330
1F
100
AcDbEntity
  8
TANGENT EDGES
100
AcDbLine
 10
2.509539323366746
 20
3.383813433894808
 30
0.0
 11
2.524270714641464
 21
3.385272690832565
 31
0.0
  0
LINE
  5
FB
330
1F
100
AcDbEntity
  8
TANGENT EDGES
100
AcDbLine
 10
4.159455146135357
 20
2.431234089479127
 30
0.0
 11
4.174186537410077
 21
2.432693346416884
 31
0.0
  0
LINE
  5
FC
330
1F
100
AcDbEntity
  8
TANGENT EDGES
100
AcDbLine
 10
5.573668708508449
 20
1.614737508551403
 30
0.0
 11
5.588400099783168
 21
1.61619676548916
 31
0.0
  0
LINE
  5
FD
330
1F
100
AcDbEntity
  8
VISIBLE
100
AcDbLine
 10
12.19555912646032
 20
2.743023813795703
 30
0.0
 11
10.78134556408723
 21
4.157237376168794
 31
0.0
  0
ELLIPSE
  5
FE
330
1F
100
AcDbEntity
  8
VISIBLE
100
AcDbEllipse
 10
10.56769038876554
 20
4.41498672163814
 30
0.0
 11
0.01594514301521244
 21
0.01594514301521155
 31
0.0
210
0.0
220
0.0
230
1.0
 40
0.923879532511336
 41
3.141592653589823
 42
4.319689898685906
  0
CIRCLE
  5
FF
330
1F
100
AcDbEntity
  8
VISIBLE
100
AcDbCircle
 10
11.18030688024515
 20
3.55446408564578
 30
0.0
 40
0.0833333333333339
  0
ELLIPSE
  5
100
330
1F
100
AcDbEntity
  8
VISIBLE
100
AcDbEllipse
 10
12.21150426947555
 20
2.758968956810898
 30
0.0
 11
0.01594514301521244
 21
0.01594514301521155
 31
0.0
210
0.0
220
0.0
230
1.0
 40
0.9238795325112525
 41
3.141592653589884
 42
4.712388980384729
  0
LINE
  5
101
330
1F
100
AcDbEntity
  8
VISIBLE
100
AcDbLine
 10
13.32935539967329
 20
3.641117826613156
 30
0.0
 11
10.02952375413607
 21
6.940949472150375
 31
0.0
  0
ELLIPSE
  5
102
330
1F
100
AcDbEntity
  8
VISIBLE
100
AcDbEllipse
 10
10.56158844670692
 20
4.408884779579527
 30
0.0
 11
0.01594514301521066
 21
0.01594514301521155
 31
0.0
210
0.0
220
0.0
230
1.0
 40
0.9238795325113597
 41
3.141592653589763
 42
4.712388980384608
  0
LINE
  5
103
330
1F
100
AcDbEntity
  8
VISIBLE
100
AcDbLine
 10
10.02952375413607
 20
6.940949472150375
 30
0.0
 11
9.029523754136074
 21
5.940949472150375
 31
0.0
  0
CIRCLE
  5
104
330
1F
100
AcDbEntity
  8
VISIBLE
100
AcDbCircle
 10
9.942870013168696
 20
4.791900952722238
 30
0.0
 40
0.0833333333333339
  0
ELLIPSE
  5
105
330
1F
100
AcDbEntity
  8
VISIBLE
100
AcDbEllipse
 10
10.79729070710244
 20
4.173182519184006
 30
0.0
 11
0.0
 21
-0.02449740838373593
 31
0.0
210
0.0
220
0.0
230
1.0
 40
0.6681786379193382
 41
-2.329763404070085
 42
-2.15984494934301
  0
LINE
  5
106
330
1F
100
AcDbEntity
  8
VISIBLE
100
AcDbLine
 10
13.33977206633996
 20
3.651534493279823
 30
0.0
 11
10.03994042080274
 21
6.951366138817042
 31
0.0
  0
LINE
  5
107
330
1F
100
AcDbEntity
  8
VISIBLE
100
AcDbLine
 10
9.029523754136074
 20
5.940949472150375
 30
0.0
 11
8.793821493740557
 21
5.705247211754861
 31
0.0
  0
LINE
  5
108
330
1F
100
AcDbEntity
  8
VISIBLE
100
AcDbLine
 10
10.80856562585549
 20
4.184457437937054
 30
0.0
 11
12.22277918822858
 21
2.770243875563962
 31
0.0
  0
ELLIPSE
  5
109
330
1F
100
AcDbEntity
  8
VISIBLE
100
AcDbEllipse
 10
9.147374884333814
 20
5.823098341952635
 30
0.0
 11
0.01594514301521244
 21
0.01594514301521155
 31
0.0
210
0.0
220
0.0
230
1.0
 40
0.9238795325112525
 41
1.570796326794922
 42
3.141592653589823
  0
LINE
  5
10A
330
1F
100
AcDbEntity
  8
VISIBLE
100
AcDbLine
 10
9.137531683377233
 20
5.81325514099602
 30
0.0
 11
10.55174524575033
 21
4.399041578622928
 31
0.0
  0
ELLIPSE
  5
10B
330
1F
100
AcDbEntity
  8
VISIBLE
100
AcDbEllipse
 10
10.56158844670692
 20
4.408884779579527
 30
0.0
 11
0.01473139127471867
 21
-0.01473139127472045
 31
0.0
210
0.0
220
0.0
230
0.9999999999999998
 40
0.7653668647301353
 41
0.0
 42
1.570796326794823
  0
ELLIPSE
  5
10C
330
1F
100
AcDbEntity
  8
VISIBLE
100
AcDbEllipse
 10
9.147374884333814
 20
5.823098341952635
 30
0.0
 11
0.0
 21
-0.02449740838373771
 31
0.0
210
0.0
220
0.0
230
1.0
 40
0.6681786379192897
 41
-2.32976340407015
 42
-2.159844949343007
  0
ELLIPSE
  5
10D
330
1F
100
AcDbEntity
  8
VISIBLE
100
AcDbEllipse
 10
12.21760621153417
 20
2.765070898869512
 30
0.0
 11
0.01594514301521244
 21
0.01594514301521199
 31
0.0
210
0.0
220
0.0
230
1.0
 40
0.9238795325112258
 41
3.141592653589868
 42
4.319689898686002
  0
LINE
  5
10E
330
1F
100
AcDbEntity
  8
VISIBLE
100
AcDbLine
 10
9.15864980308688
 20
5.834373260705662
 30
0.0
 11
10.57286336545997
 21
4.42015969833257
 31
0.0
  0
ELLIPSE
  5
10F
330
1F
100
AcDbEntity
  8
VISIBLE
100
AcDbEllipse
 10
10.79729070710244
 20
4.173182519184006
 30
0.0
 11
0.01594514301521244
 21
0.01594514301521244
 31
0.0
210
0.0
220
0.0
230
0.9999999999999998
 40
0.9238795325112267
 41
1.570796326794925
 42
3.141592653589763
  0
ELLIPSE
  5
110
330
1F
100
AcDbEntity
  8
VISIBLE
100
AcDbEllipse
 10
12.21150426947555
 20
2.758968956810898
 30
0.0
 11
0.01473139127472045
 21
-0.01473139127472001
 31
0.0
210
0.0
220
0.0
230
1.0
 40
0.7653668647301608
 41
0.0
 42
1.570796326796121
  0
ELLIPSE
  5
111
330
1F
100
AcDbEntity
  8
VISIBLE
100
AcDbEllipse
 10
10.79729070710244
 20
4.173182519184006
 30
0.0
 11
0.01473139127471867
 21
-0.01473139127471956
 31
0.0
210
0.0
220
0.0
230
0.9999999999999998
 40
0.7653668647301886
 41
-4.712388980384516
 42
-3.141592653589714
  0
LINE
  5
112
330
1F
100
AcDbEntity
  8
VISIBLE
100
AcDbLine
 10
12.09365313927778
 20
2.40541556621764
 30
0.0
 11
8.793821493740557
 21
5.705247211754861
 31
0.0
  0
LINE
  5
113
330
1F
100
AcDbEntity
  8
VISIBLE
100
AcDbLine
 10
10.54564330369171
 20
4.392939636564314
 30
0.0
 11
9.13142974131862
 21
5.807153198937407
 31
0.0
  0
ELLIPSE
  5
114
330
1F
100
AcDbEntity
  8
VISIBLE
100
AcDbEllipse
 10
9.147374884333814
 20
5.823098341952635
 30
0.0
 11
0.01473139127472045
 21
-0.01473139127472045
 31
0.0
210
0.0
220
0.0
230
0.9999999999999998
 40
0.7653668647301493
 41
-4.712388980385986
 42
-3.141592653589793
  0
LINE
  5
115
330
1F
100
AcDbEntity
  8
VISIBLE
100
AcDbLine
 10
9.132643493059096
 20
5.837829733227355
 30
0.0
 11
9.029523754136074
 21
5.940949472150375
 31
0.0
  0
LINE
  5
116
330
1F
100
AcDbEntity
  8
VISIBLE
100
AcDbLine
 10
10.78744750614585
 20
4.163339318227408
 30
0.0
 11
12.20166106851894
 21
2.749125755854316
 31
0.0
  0
LINE
  5
117
330
1F
100
AcDbEntity
  8
VISIBLE
100
AcDbLine
 10
12.32935539967329
 20
2.641117826613157
 30
0.0
 11
12.22623566075027
 21
2.744237565536178
 31
0.0
  0
LINE
  5
118
330
1F
100
AcDbEntity
  8
VISIBLE
100
AcDbLine
 10
10.78255931582772
 20
4.187913910458726
 30
0.0
 11
10.57631983798164
 21
4.394153388304807
 31
0.0
  0
LINE
  5
119
330
1F
100
AcDbEntity
  8
VISIBLE
100
AcDbLine
 10
10.03994042080274
 20
6.951366138817042
 30
0.0
 11
10.02952375413607
 21
6.940949472150375
 31
0.0
  0
ELLIPSE
  5
11A
330
1F
100
AcDbEntity
  8
VISIBLE
100
AcDbEllipse
 10
10.56158844670692
 20
4.408884779579527
 30
0.0
 11
0.02449740838373593
 21
0.0
 31
0.0
210
0.0
220
0.0
230
1.0
 40
0.6681786379193019
 41
5.301437602932718
 42
5.471356057659787
  0
ELLIPSE
  5
11B
330
1F
100
AcDbEntity
  8
VISIBLE
100
AcDbEllipse
 10
10.80339264916106
 20
4.17928446124262
 30
0.0
 11
0.01594514301521244
 21
0.01594514301521155
 31
0.0
210
0.0
220
0.0
230
1.0
 40
0.9238795325112247
 41
1.963495408493654
 42
3.141592653589823
  0
LINE
  5
11C
330
1F
100
AcDbEntity
  8
VISIBLE
100
AcDbLine
 10
12.09365313927778
 20
2.40541556621764
 30
0.0
 11
12.32935539967329
 21
2.641117826613157
 31
0.0
  0
LINE
  5
11D
330
1F
100
AcDbEntity
  8
VISIBLE
100
AcDbLine
 10
13.32935539967329
 20
3.641117826613156
 30
0.0
 11
13.33977206633996
 21
3.651534493279823
 31
0.0
  0
ELLIPSE
  5
11E
330
1F
100
AcDbEntity
  8
VISIBLE
100
AcDbEllipse
 10
12.21150426947555
 20
2.758968956810898
 30
0.0
 11
0.02449740838373771
 21
0.0
 31
0.0
210
0.0
220
0.0
230
1.0
 40
0.6681786379192535
 41
5.301437602932729
 42
5.471356057659802
  0
LINE
  5
11F
330
1F
100
AcDbEntity
  8
VISIBLE
100
AcDbLine
 10
12.32935539967329
 20
2.641117826613157
 30
0.0
 11
13.32935539967329
 21
3.641117826613156
 31
0.0
  0
ELLIPSE
  5
120
330
1F
100
AcDbEntity
  8
VISIBLE
100
AcDbEllipse
 10
9.153476826392428
 20
5.829200284011248
 30
0.0
 11
0.01594514301521244
 21
0.01594514301521244
 31
0.0
210
0.0
220
0.0
230
0.9999999999999998
 40
0.9238795325111988
 41
1.963495408493551
 42
3.141592653589793
  0
LINE
  5
121
330
1F
100
AcDbEntity
  8
TANGENT EDGES
100
AcDbLine
 10
10.54564330369171
 20
4.392939636564314
 30
0.0
 11
10.55174524575033
 21
4.399041578622928
 31
0.0
  0
LINE
  5
122
330
1F
100
AcDbEntity
  8
TANGENT EDGES
100
AcDbLine
 10
9.13142974131862
 20
5.807153198937407
 30
0.0
 11
9.137531683377233
 21
5.81325514099602
 31
0.0
  0
LINE
  5
123
330
1F
100
AcDbEntity
  8
TANGENT EDGES
100
AcDbLine
 10
10.78134556408723
 20
4.157237376168794
 30
0.0
 11
10.78744750614585
 21
4.163339318227408
 31
0.0
  0
LINE
  5
124
330
1F
100
AcDbEntity
  8
TANGENT EDGES
100
AcDbLine
 10
12.19555912646032
 20
2.743023813795703
 30
0.0
 11
12.20166106851894
 21
2.749125755854316
 31
0.0
  0
LINE
  5
127
330
1F
100
AcDbEntity
  8
BEND CENTERS
100
AcDbLine
 10
12.01721424690984
 20
5.628808319386923
 30
0.0
 11
9.748479026332667
 21
3.360073098809752
 31
0.0
  0
DIMENSION
  5
128
330
1F
100
AcDbEntity
  8
DIMENSIONS
100
AcDbDimension
  2
D5
 10
0.0
 20
0.0
 30
0.0
 11
21.27973445300992
 21
8.461308542067034
 31
0.0
 70
    32
  1
<> TYP
 71
     5
 42
-1.0
 53
315.0
  3
Standard
100
AcDbAlignedDimension
 13
9.942870013168696
 23
4.791900952722238
 33
0.0
 14
8.793821493740557
 24
5.705247211754861
 34
0.0
 50
315.0
100
AcDbRotatedDimension
1001
ACAD
1000
DSTYLE
1002
{
1070
    76
1070
     0
1070
    75
1070
     0
1070
   282
1070
     0
1070
   281
1070
     0
1070
    77
1070
     0
1070
    79
1070
     0
1070
    78
1070
     0
1070
   272
1070
     2
1070
   271
1070
     2
1070
   179
1070
     2
1070
   140
1040
0.0895833333333333
1070
    71
1070
     0
1070
    72
1070
     0
1070
    48
1040
0.0000787401574803
1070
    47
1040
0.0001968503937008
1002
}
  0
DIMENSION
  5
135
330
1F
100
AcDbEntity
  8
DIMENSIONS
100
AcDbDimension
  2
D6
 10
9.955249920131884
 20
4.874309583022876
 30
0.0
 11
22.34446023916846
 21
7.591303527277526
 31
0.0
 70
    35
  1
<>TYP 2 PL\P
 71
     5
 42
-1.0
  3
Standard
100
AcDbDiametricDimension
 15
9.930490106205506
 25
4.7094923224216
 35
0.0
 40
0.0
1001
ACAD
1000
DSTYLE
1002
{
1070
    76
1070
     0
1070
    75
1070
     0
1070
   282
1070
     0
1070
   281
1070
     0
1070
    77
1070
     0
1070
    79
1070
     0
1070
    78
1070
     0
1070
   272
1070
     2
1070
   271
1070
     2
1070
   179
1070
     2
1070
   140
1040
0.0895833333333333
1070
    71
1070
     0
1070
    72
1070
     0
1070
    48
1040
0.25
1070
    47
1040
0.0001968503937008
1002
}
  0
DIMENSION
  5
146
330
1F
100
AcDbEntity
  8
DIMENSIONS
100
AcDbDimension
  2
D7
 10
0.0
 20
0.0
 30
0.0
 11
22.14419464012041
 21
9.49893931367947
 31
0.0
 70
    32
  1
<>
 71
     5
 42
-1.0
 53
315.0000000000001
  3
Standard
100
AcDbAlignedDimension
 13
9.132643493059096
 23
5.837829733227354
 33
0.0
 14
9.029523754136074
 24
5.940949472150375
 34
0.0
 50
315.0000000000001
100
AcDbRotatedDimension
1001
ACAD
1000
DSTYLE
1002
{
1070
    76
1070
     0
1070
    75
1070
     0
1070
   282
1070
     0
1070
   281
1070
     0
1070
    77
1070
     0
1070
    79
1070
     0
1070
    78
1070
     0
1070
   272
1070
     2
1070
   271
1070
     2
1070
   179
1070
     2
1070
   140
1040
0.0895833333333333
1070
    71
1070
     0
1070
    72
1070
     0
1070
    48
1040
0.0000787401574803
1070
    47
1040
0.0001968503937008
1002
}
  0
DIMENSION
  5
154
330
1F
100
AcDbEntity
  8
DIMENSIONS
100
AcDbDimension
  2
D8
 10
0.0
 20
0.0
 30
0.0
 11
23.9072966534155
 21
7.878566751721578
 31
0.0
 70
    32
  1
<>
 71
     5
 42
-1.0
 53
315.0
  3
Standard
100
AcDbAlignedDimension
 13
10.57631983798164
 23
4.394153388304807
 33
0.0
 14
10.78255931582772
 24
4.187913910458725
 34
0.0
 50
315.0
100
AcDbRotatedDimension
1001
ACAD
1000
DSTYLE
1002
{
1070
    76
1070
     0
1070
    75
1070
     0
1070
   282
1070
     0
1070
   281
1070
     0
1070
    77
1070
     0
1070
    79
1070
     0
1070
    78
1070
     0
1070
   272
1070
     2
1070
   271
1070
     2
1070
   179
1070
     2
1070
   140
1040
0.0895833333333333
1070
    71
1070
     0
1070
    72
1070
     0
1070
    48
1040
0.0000787401574803
1070
    47
1040
0.0001968503937008
1002
}
  0
MTEXT
  5
162
330
1F
100
AcDbEntity
  8
BEND CENTERS
100
AcDbMText
 10
12.00433325579786
 20
5.796129457969366
 30
0.0
 40
0.1393518518518518
 41
0.0
 71
     1
 72
     1
  1
{\fArial|b0|i0|c0|p0;\C7;C}{\fArial|b0|i0|c0|p0;\C7;\H0.642857134x;}
 73
     1
 44
1.0
  0
MTEXT
  5
163
330
1F
100
AcDbEntity
  8
BEND CENTERS
100
AcDbMText
 10
12.0503138744925
 20
5.738654886080525
 30
0.0
 40
0.1393518518518518
 41
0.0
 71
     1
 72
     1
  1
{\fArial|b0|i0|c0|p0;\C7;L}{\fArial|b0|i0|c0|p0;\C7;\H0.642857134x;}
 73
     1
 44
1.0
  0
CIRCLE
  5
165
330
1F
100
AcDbEntity
  8
CONTINUOUS
100
AcDbCircle
 10
14.21516718826895
 20
6.798882071427473
 30
0.0
 40
0.2824522482556713
  0
INSERT
  5
166
330
1F
100
AcDbEntity
  8
CONTINUOUS
100
AcDbBlockReference
  2
BLOCK4
 10
0.0
 20
0.0
 30
0.0
  0
MTEXT
  5
1AE
330
1F
100
AcDbEntity
  8
BEND CENTERS
100
AcDbMText
 10
7.152162086306594
 20
2.430541457529143
 30
0.0
 40
0.1393518518518518
 41
0.0
 71
     1
 72
     1
  1
{\fArial|b0|i0|c0|p0;\C7;MAT'L: 1/8 THK H.R. STEEL}{\fArial|b0|i0|c0|p0;\C7;\H0.642857134x;}
 73
     1
 44
1.0
  0
MTEXT
  5
1AF
330
1F
100
AcDbEntity
  8
BEND CENTERS
100
AcDbMText
 10
14.12706269992618
 20
0.565671318534791
 30
0.0
 40
0.1393518518518518
 41
0.0
 71
     1
 72
     1
  1
{\fArial|b0|i0|c0|p0;\C7;1 OF 2}{\fArial|b0|i0|c0|p0;\C7;\H0.642857134x;}
 73
     1
 44
1.0
  0
MTEXT
  5
1B0
330
1F
100
AcDbEntity
  8
CONTINUOUS
100
AcDbMText
 10
8.150675015186701
 20
1.705720748300627
 30
0.0
 40
0.0796296296296296
 41
0.0
 71
     2
 72
     1
  3
{\fArial Narrow|b0|i0|c0|p0;\C7;LICENSE INFORMATION}{\fArial Narrow|b0|i0|c0|p0;\C7;\P}{\fArial Narrow|b0|i0|c0|p0;\C7;\PALL INFORMATION IS RELEASED UNDER THE OSE}{\fArial Narrow|b0|i0|c0|p0;\C7;\PLICENSE FOR DISTRIBUTIVE ECONOMICS. FOR}{\fArial Nar
  1
row|b0|i0|c0|p0;\C7;\PFURTHER INFORMATION GO TO:}{\fArial Narrow|b0|i0|c0|p0;\C7;\POPENSOURCEECOLOGY.ORG/WIKI/LICENSE}{\fArial|b0|i0|c0|p0;\C7;\H1.125x;}
 73
     1
 44
1.0
  0
MTEXT
  5
1B1
330
1F
100
AcDbEntity
  8
CONTINUOUS
100
AcDbMText
 10
11.26368605245757
 20
1.989085256020852
 30
0.0
 40
0.2388888888888889
 41
0.0
 71
     1
 72
     1
  1
{\fArial|b0|i0|c0|p0;\C7;Open Source Ecology}{\fArial|b0|i0|c0|p0;\C7;\H0.375x;}
 73
     1
 44
1.0
  0
MTEXT
  5
1B2
330
1F
100
AcDbEntity
  8
CONTINUOUS
100
AcDbMText
 10
15.1095593069482
 20
0.8635360537551513
 30
0.0
 40
0.1990740740740741
 41
0.0
 71
     1
 72
     1
  1
{\fArial|b0|i0|c0|p0;\C7;B}{\fArial|b0|i0|c0|p0;\C7;\H0.45x;}
 73
     1
 44
1.0
  0
MTEXT
  5
1B3
330
1F
100
AcDbEntity
  8
CONTINUOUS
100
AcDbMText
 10
12.43840855876292
 20
6.878856725016916
 30
0.0
 40
0.2388888888888889
 41
0.0
 71
     1
 72
     1
  1
{\fArial|b0|i0|c0|p0;\C7;2X  INDEX 150}{\fArial|b0|i0|c0|p0;\C7;\H0.375x;}
 73
     1
 44
1.0
  0
MTEXT
  5
1B4
330
1F
100
AcDbEntity
  8
CONTINUOUS
100
AcDbMText
 10
11.35770302119218
 20
1.436474897730067
 30
0.0
 40
0.1990740740740741
 41
0.0
 71
     1
 72
     1
  1
{\fArial|b0|i0|c0|p0;\C7;Side Bib, Hopper}{\fArial|b0|i0|c0|p0;\C7;}
 73
     1
 44
1.0
  0
ENDSEC
  0
SECTION
  2
OBJECTS
  0
DICTIONARY
  5
C
330
0
100
AcDbDictionary
281
     1
  3
ACAD_GROUP
350
D
  3
ACAD_LAYOUT
350
1A
  3
ACAD_MLEADERSTYLE
350
1B8
  3
ACAD_MLINESTYLE
350
17
  3
ACAD_PLOTSETTINGS
350
19
  3
ACAD_PLOTSTYLENAME
350
E
  3
ACAD_SCALELIST
350
3B
  3
ACAD_TABLESTYLE
350
1B7
  3
ACAD_VISUALSTYLE
350
2A
  3
AcDbVariableDictionary
350
1B5
  0
DICTIONARY
  5
D
102
{ACAD_REACTORS
330
C
102
}
330
C
100
AcDbDictionary
281
     1
  0
DICTIONARY
  5
1A
102
{ACAD_REACTORS
330
C
102
}
330
C
100
AcDbDictionary
281
     1
  3
Layout1
350
1E
  3
Layout2
350
26
  3
Model
350
22
  0
DICTIONARY
  5
1B8
102
{ACAD_REACTORS
330
C
102
}
330
C
100
AcDbDictionary
281
     1
  0
DICTIONARY
  5
17
102
{ACAD_REACTORS
330
C
102
}
330
C
100
AcDbDictionary
281
     1
  3
Standard
350
18
  0
DICTIONARY
  5
19
102
{ACAD_REACTORS
330
C
102
}
330
C
100
AcDbDictionary
281
     1
  0
ACDBDICTIONARYWDFLT
  5
E
102
{ACAD_REACTORS
330
C
102
}
330
C
100
AcDbDictionary
281
     1
  3
Normal
350
F
100
AcDbDictionaryWithDefault
340
F
  0
DICTIONARY
  5
3B
102
{ACAD_REACTORS
330
C
102
}
330
C
100
AcDbDictionary
281
     1
  3
A0
350
3C
  3
A1
350
3D
  3
A2
350
3E
  3
A3
350
3F
  3
A4
350
40
  3
A5
350
41
  3
A6
350
42
  3
A7
350
43
  3
A8
350
44
  3
A9
350
45
  3
B0
350
46
  3
B1
350
47
  3
B2
350
48
  3
B3
350
49
  3
B4
350
4A
  3
B5
350
4B
  3
B6
350
4C
  3
B7
350
4D
  3
B8
350
4E
  3
B9
350
4F
  3
C0
350
50
  3
C1
350
51
  3
C2
350
52
  3
C3
350
53
  3
C4
350
54
  3
C5
350
55
  3
C6
350
56
  3
C7
350
57
  3
C8
350
58
  3
C9
350
59
  3
D0
350
5A
  3
D1
350
5B
  3
D2
350
5C
  0
DICTIONARY
  5
1B7
102
{ACAD_REACTORS
330
C
102
}
330
C
100
AcDbDictionary
281
     1
  0
DICTIONARY
  5
2A
102
{ACAD_REACTORS
330
C
102
}
330
C
100
AcDbDictionary
281
     1
  3
2dWireframe
350
2F
  3
3D Hidden
350
31
  3
3dWireframe
350
30
  3
Basic
350
32
  3
Brighten
350
36
  3
ColorChange
350
3A
  3
Conceptual
350
34
  3
Dim
350
35
  3
Facepattern
350
39
  3
Flat
350
2B
  3
FlatWithEdges
350
2C
  3
Gouraud
350
2D
  3
GouraudWithEdges
350
2E
  3
Linepattern
350
38
  3
Realistic
350
33
  3
Thicken
350
37
  0
DICTIONARY
  5
1B5
102
{ACAD_REACTORS
330
C
102
}
330
C
100
AcDbDictionary
281
     1
  3
CANNOSCALE
350
1B6
  0
LAYOUT
  5
1E
102
{ACAD_REACTORS
330
1A
102
}
330
1A
100
AcDbPlotSettings
  1

  2
none_device
  4

  6

 40
0.0
 41
0.0
 42
0.0
 43
0.0
 44
0.0
 45
0.0
 46
0.0
 47
0.0
 48
0.0
 49
0.0
140
0.0
141
0.0
142
1.0
143
1.0
 70
   688
 72
     0
 73
     0
 74
     5
  7

 75
    16
147
1.0
148
0.0
149
0.0
100
AcDbLayout
  1
Layout1
 70
     1
 71
     1
 10
0.0
 20
0.0
 11
12.0
 21
9.0
 12
0.0
 22
0.0
 32
0.0
 14
1.000000000000000E+20
 24
1.000000000000000E+20
 34
1.000000000000000E+20
 15
-1.000000000000000E+20
 25
-1.000000000000000E+20
 35
-1.000000000000000E+20
146
0.0
 13
0.0
 23
0.0
 33
0.0
 16
1.0
 26
0.0
 36
0.0
 17
0.0
 27
1.0
 37
0.0
 76
     0
330
1B
  0
LAYOUT
  5
26
102
{ACAD_REACTORS
330
1A
102
}
330
1A
100
AcDbPlotSettings
  1

  2
none_device
  4

  6

 40
0.0
 41
0.0
 42
0.0
 43
0.0
 44
0.0
 45
0.0
 46
0.0
 47
0.0
 48
0.0
 49
0.0
140
0.0
141
0.0
142
1.0
143
1.0
 70
   688
 72
     0
 73
     0
 74
     5
  7

 75
    16
147
1.0
148
0.0
149
0.0
100
AcDbLayout
  1
Layout2
 70
     1
 71
     2
 10
0.0
 20
0.0
 11
0.0
 21
0.0
 12
0.0
 22
0.0
 32
0.0
 14
0.0
 24
0.0
 34
0.0
 15
0.0
 25
0.0
 35
0.0
146
0.0
 13
0.0
 23
0.0
 33
0.0
 16
1.0
 26
0.0
 36
0.0
 17
0.0
 27
1.0
 37
0.0
 76
     0
330
23
  0
LAYOUT
  5
22
102
{ACAD_REACTORS
330
1A
102
}
330
1A
100
AcDbPlotSettings
  1

  2
none_device
  4

  6

 40
0.0
 41
0.0
 42
0.0
 43
0.0
 44
0.0
 45
0.0
 46
0.0
 47
0.0
 48
0.0
 49
0.0
140
0.0
141
0.0
142
1.0
143
1.0
 70
  1712
 72
     0
 73
     0
 74
     0
  7

 75
     0
147
1.0
148
0.0
149
0.0
100
AcDbLayout
  1
Model
 70
     1
 71
     0
 10
0.0
 20
0.0
 11
12.0
 21
9.0
 12
0.0
 22
0.0
 32
0.0
 14
1.000000000000000E+20
 24
1.000000000000000E+20
 34
1.000000000000000E+20
 15
-1.000000000000000E+20
 25
-1.000000000000000E+20
 35
-1.000000000000000E+20
146
0.0
 13
0.0
 23
0.0
 33
0.0
 16
1.0
 26
0.0
 36
0.0
 17
0.0
 27
1.0
 37
0.0
 76
     0
330
1F
331
29
  0
MLINESTYLE
  5
18
102
{ACAD_REACTORS
330
17
102
}
330
17
100
AcDbMlineStyle
  2
Standard
 70
     0
  3

 62
   256
 51
90.0
 52
90.0
 71
     2
 49
0.5
 62
   256
  6
BYLAYER
 49
-0.5
 62
   256
  6
BYLAYER
  0
ACDBPLACEHOLDER
  5
F
102
{ACAD_REACTORS
330
E
102
}
330
E
  0
SCALE
  5
3C
102
{ACAD_REACTORS
330
3B
102
}
330
3B
100
AcDbScale
 70
     0
300
1:1
140
1.0
141
1.0
290
     1
  0
SCALE
  5
3D
102
{ACAD_REACTORS
330
3B
102
}
330
3B
100
AcDbScale
 70
     0
300
1:2
140
1.0
141
2.0
290
     0
  0
SCALE
  5
3E
102
{ACAD_REACTORS
330
3B
102
}
330
3B
100
AcDbScale
 70
     0
300
1:4
140
1.0
141
4.0
290
     0
  0
SCALE
  5
3F
102
{ACAD_REACTORS
330
3B
102
}
330
3B
100
AcDbScale
 70
     0
300
1:5
140
1.0
141
5.0
290
     0
  0
SCALE
  5
40
102
{ACAD_REACTORS
330
3B
102
}
330
3B
100
AcDbScale
 70
     0
300
1:8
140
1.0
141
8.0
290
     0
  0
SCALE
  5
41
102
{ACAD_REACTORS
330
3B
102
}
330
3B
100
AcDbScale
 70
     0
300
1:10
140
1.0
141
10.0
290
     0
  0
SCALE
  5
42
102
{ACAD_REACTORS
330
3B
102
}
330
3B
100
AcDbScale
 70
     0
300
1:16
140
1.0
141
16.0
290
     0
  0
SCALE
  5
43
102
{ACAD_REACTORS
330
3B
102
}
330
3B
100
AcDbScale
 70
     0
300
1:20
140
1.0
141
20.0
290
     0
  0
SCALE
  5
44
102
{ACAD_REACTORS
330
3B
102
}
330
3B
100
AcDbScale
 70
     0
300
1:30
140
1.0
141
30.0
290
     0
  0
SCALE
  5
45
102
{ACAD_REACTORS
330
3B
102
}
330
3B
100
AcDbScale
 70
     0
300
1:40
140
1.0
141
40.0
290
     0
  0
SCALE
  5
46
102
{ACAD_REACTORS
330
3B
102
}
330
3B
100
AcDbScale
 70
     0
300
1:50
140
1.0
141
50.0
290
     0
  0
SCALE
  5
47
102
{ACAD_REACTORS
330
3B
102
}
330
3B
100
AcDbScale
 70
     0
300
1:100
140
1.0
141
100.0
290
     0
  0
SCALE
  5
48
102
{ACAD_REACTORS
330
3B
102
}
330
3B
100
AcDbScale
 70
     0
300
2:1
140
2.0
141
1.0
290
     0
  0
SCALE
  5
49
102
{ACAD_REACTORS
330
3B
102
}
330
3B
100
AcDbScale
 70
     0
300
4:1
140
4.0
141
1.0
290
     0
  0
SCALE
  5
4A
102
{ACAD_REACTORS
330
3B
102
}
330
3B
100
AcDbScale
 70
     0
300
8:1
140
8.0
141
1.0
290
     0
  0
SCALE
  5
4B
102
{ACAD_REACTORS
330
3B
102
}
330
3B
100
AcDbScale
 70
     0
300
10:1
140
10.0
141
1.0
290
     0
  0
SCALE
  5
4C
102
{ACAD_REACTORS
330
3B
102
}
330
3B
100
AcDbScale
 70
     0
300
100:1
140
100.0
141
1.0
290
     0
  0
SCALE
  5
4D
102
{ACAD_REACTORS
330
3B
102
}
330
3B
100
AcDbScale
 70
     0
300
1/128" = 1'-0"
140
0.0078125
141
12.0
290
     0
  0
SCALE
  5
4E
102
{ACAD_REACTORS
330
3B
102
}
330
3B
100
AcDbScale
 70
     0
300
1/64" = 1'-0"
140
0.015625
141
12.0
290
     0
  0
SCALE
  5
4F
102
{ACAD_REACTORS
330
3B
102
}
330
3B
100
AcDbScale
 70
     0
300
1/32" = 1'-0"
140
0.03125
141
12.0
290
     0
  0
SCALE
  5
50
102
{ACAD_REACTORS
330
3B
102
}
330
3B
100
AcDbScale
 70
     0
300
1/16" = 1'-0"
140
0.0625
141
12.0
290
     0
  0
SCALE
  5
51
102
{ACAD_REACTORS
330
3B
102
}
330
3B
100
AcDbScale
 70
     0
300
3/32" = 1'-0"
140
0.09375
141
12.0
290
     0
  0
SCALE
  5
52
102
{ACAD_REACTORS
330
3B
102
}
330
3B
100
AcDbScale
 70
     0
300
1/8" = 1'-0"
140
0.125
141
12.0
290
     0
  0
SCALE
  5
53
102
{ACAD_REACTORS
330
3B
102
}
330
3B
100
AcDbScale
 70
     0
300
3/16" = 1'-0"
140
0.1875
141
12.0
290
     0
  0
SCALE
  5
54
102
{ACAD_REACTORS
330
3B
102
}
330
3B
100
AcDbScale
 70
     0
300
1/4" = 1'-0"
140
0.25
141
12.0
290
     0
  0
SCALE
  5
55
102
{ACAD_REACTORS
330
3B
102
}
330
3B
100
AcDbScale
 70
     0
300
3/8" = 1'-0"
140
0.375
141
12.0
290
     0
  0
SCALE
  5
56
102
{ACAD_REACTORS
330
3B
102
}
330
3B
100
AcDbScale
 70
     0
300
1/2" = 1'-0"
140
0.5
141
12.0
290
     0
  0
SCALE
  5
57
102
{ACAD_REACTORS
330
3B
102
}
330
3B
100
AcDbScale
 70
     0
300
3/4" = 1'-0"
140
0.75
141
12.0
290
     0
  0
SCALE
  5
58
102
{ACAD_REACTORS
330
3B
102
}
330
3B
100
AcDbScale
 70
     0
300
1" = 1'-0"
140
1.0
141
12.0
290
     0
  0
SCALE
  5
59
102
{ACAD_REACTORS
330
3B
102
}
330
3B
100
AcDbScale
 70
     0
300
1-1/2" = 1'-0"
140
1.5
141
12.0
290
     0
  0
SCALE
  5
5A
102
{ACAD_REACTORS
330
3B
102
}
330
3B
100
AcDbScale
 70
     0
300
3" = 1'-0"
140
3.0
141
12.0
290
     0
  0
SCALE
  5
5B
102
{ACAD_REACTORS
330
3B
102
}
330
3B
100
AcDbScale
 70
     0
300
6" = 1'-0"
140
6.0
141
12.0
290
     0
  0
SCALE
  5
5C
102
{ACAD_REACTORS
330
3B
102
}
330
3B
100
AcDbScale
 70
     0
300
1'-0" = 1'-0"
140
12.0
141
12.0
290
     0
  0
VISUALSTYLE
  5
2F
102
{ACAD_REACTORS
330
2A
102
}
330
2A
100
AcDbVisualStyle
  2
2dWireframe
 70
     4
 71
     0
 72
     2
 73
     0
 90
        0
 40
-0.6
 41
-30.0
 62
     5
 63
     7
 74
     1
 91
        4
 64
     7
 65
   257
 75
     1
175
     1
 42
1.0
 92
        0
 66
   257
 43
1.0
 76
     1
 77
     6
 78
     2
 67
     7
 79
     5
170
     0
171
     0
290
     0
174
     0
 93
        1
 44
0.0
173
     0
291
     0
 45
0.0
1001
ACAD
1000
AcDbSavedByObjectVersion
1070
     0
  0
VISUALSTYLE
  5
31
102
{ACAD_REACTORS
330
2A
102
}
330
2A
100
AcDbVisualStyle
  2
3D Hidden
 70
     6
 71
     1
 72
     2
 73
     2
 90
        0
 40
-0.6
 41
-30.0
 62
     5
 63
     7
 74
     2
 91
        2
 64
     7
 65
   257
 75
     2
175
     1
 42
40.0
 92
        0
 66
   257
 43
1.0
 76
     1
 77
     6
 78
     2
 67
     7
 79
     3
170
     0
171
     0
290
     0
174
     0
 93
        1
 44
0.0
173
     0
291
     0
 45
0.0
1001
ACAD
1000
AcDbSavedByObjectVersion
1070
     0
  0
VISUALSTYLE
  5
30
102
{ACAD_REACTORS
330
2A
102
}
330
2A
100
AcDbVisualStyle
  2
3dWireframe
 70
     5
 71
     0
 72
     2
 73
     0
 90
        0
 40
-0.6
 41
-30.0
 62
     5
 63
     7
 74
     1
 91
        4
 64
     7
 65
   257
 75
     1
175
     1
 42
1.0
 92
        0
 66
   257
 43
1.0
 76
     1
 77
     6
 78
     2
 67
     7
 79
     5
170
     0
171
     0
290
     0
174
     0
 93
        1
 44
0.0
173
     0
291
     0
 45
0.0
1001
ACAD
1000
AcDbSavedByObjectVersion
1070
     0
  0
VISUALSTYLE
  5
32
102
{ACAD_REACTORS
330
2A
102
}
330
2A
100
AcDbVisualStyle
  2
Basic
 70
     7
 71
     1
 72
     0
 73
     1
 90
        0
 40
-0.6
 41
-30.0
 62
     5
 63
     7
 74
     0
 91
        4
 64
     7
 65
   257
 75
     1
175
     1
 42
1.0
 92
        8
 66
     7
 43
1.0
 76
     1
 77
     6
 78
     2
 67
     7
 79
     5
170
     0
171
     0
290
     0
174
     0
 93
        1
 44
0.0
173
     0
291
     1
 45
0.0
1001
ACAD
1000
AcDbSavedByObjectVersion
1070
     0
  0
VISUALSTYLE
  5
36
102
{ACAD_REACTORS
330
2A
102
}
330
2A
100
AcDbVisualStyle
  2
Brighten
 70
    12
 71
     2
 72
     2
 73
     0
 90
        0
 40
-0.6
 41
-30.0
 62
     5
 63
     7
 74
     1
 91
        4
 64
     7
 65
   257
 75
     1
175
     1
 42
1.0
 92
        8
 66
     7
 43
1.0
 76
     1
 77
     6
 78
     2
 67
     7
 79
     5
170
     0
171
     0
290
     0
174
     0
 93
        1
 44
50.0
173
     0
291
     1
 45
0.0
1001
ACAD
1000
AcDbSavedByObjectVersion
1070
     0
  0
VISUALSTYLE
  5
3A
102
{ACAD_REACTORS
330
2A
102
}
330
2A
100
AcDbVisualStyle
  2
ColorChange
 70
    16
 71
     2
 72
     2
 73
     3
 90
        0
 40
-0.6
 41
-30.0
 62
     5
 63
     8
 74
     1
 91
        4
 64
     7
 65
   257
 75
     1
175
     1
 42
1.0
 92
        8
 66
     8
 43
1.0
 76
     1
 77
     6
 78
     2
 67
     7
 79
     5
170
     0
171
     0
290
     0
174
     0
 93
        1
 44
0.0
173
     0
291
     1
 45
0.0
1001
ACAD
1000
AcDbSavedByObjectVersion
1070
     0
  0
VISUALSTYLE
  5
34
102
{ACAD_REACTORS
330
2A
102
}
330
2A
100
AcDbVisualStyle
  2
Conceptual
 70
     9
 71
     3
 72
     2
 73
     0
 90
        0
 40
-0.6
 41
-30.0
 62
     5
 63
     7
 74
     2
 91
        2
 64
     7
 65
   257
 75
     1
175
     1
 42
40.0
 92
        8
 66
     7
 43
1.0
 76
     1
 77
     6
 78
     2
 67
     7
 79
     3
170
     0
171
     0
290
     0
174
     0
 93
        1
 44
0.0
173
     0
291
     0
 45
0.0
1001
ACAD
1000
AcDbSavedByObjectVersion
1070
     0
  0
VISUALSTYLE
  5
35
102
{ACAD_REACTORS
330
2A
102
}
330
2A
100
AcDbVisualStyle
  2
Dim
 70
    11
 71
     2
 72
     2
 73
     0
 90
        0
 40
-0.6
 41
-30.0
 62
     5
 63
     7
 74
     1
 91
        4
 64
     7
 65
   257
 75
     1
175
     1
 42
1.0
 92
        8
 66
     7
 43
1.0
 76
     1
 77
     6
 78
     2
 67
     7
 79
     5
170
     0
171
     0
290
     0
174
     0
 93
        1
 44
-50.0
173
     0
291
     1
 45
0.0
1001
ACAD
1000
AcDbSavedByObjectVersion
1070
     0
  0
VISUALSTYLE
  5
39
102
{ACAD_REACTORS
330
2A
102
}
330
2A
100
AcDbVisualStyle
  2
Facepattern
 70
    15
 71
     2
 72
     2
 73
     0
 90
        0
 40
-0.6
 41
-30.0
 62
     5
 63
     7
 74
     1
 91
        4
 64
     7
 65
   257
 75
     1
175
     1
 42
1.0
 92
        8
 66
     7
 43
1.0
 76
     1
 77
     6
 78
     2
 67
     7
 79
     5
170
     0
171
     0
290
     0
174
     0
 93
        1
 44
0.0
173
     0
291
     1
 45
0.0
1001
ACAD
1000
AcDbSavedByObjectVersion
1070
     0
  0
VISUALSTYLE
  5
2B
102
{ACAD_REACTORS
330
2A
102
}
330
2A
100
AcDbVisualStyle
  2
Flat
 70
     0
 71
     2
 72
     1
 73
     1
 90
        2
 40
-0.6
 41
30.0
 62
     5
 63
     7
 74
     0
 91
        4
 64
     7
 65
   257
 75
     1
175
     1
 42
1.0
 92
        8
 66
     7
 43
1.0
 76
     1
 77
     6
 78
     2
 67
     7
 79
     5
170
     0
171
     0
290
     0
174
     0
 93
       13
 44
0.0
173
     0
291
     1
 45
0.0
1001
ACAD
1000
AcDbSavedByObjectVersion
1070
     0
  0
VISUALSTYLE
  5
2C
102
{ACAD_REACTORS
330
2A
102
}
330
2A
100
AcDbVisualStyle
  2
FlatWithEdges
 70
     1
 71
     2
 72
     1
 73
     1
 90
        2
 40
-0.6
 41
30.0
 62
     5
 63
     7
 74
     1
 91
        4
 64
     7
 65
   257
 75
     1
175
     1
 42
1.0
 92
        0
 66
   257
 43
1.0
 76
     1
 77
     6
 78
     2
 67
     7
 79
     5
170
     0
171
     0
290
     0
174
     0
 93
       13
 44
0.0
173
     0
291
     1
 45
0.0
1001
ACAD
1000
AcDbSavedByObjectVersion
1070
     0
  0
VISUALSTYLE
  5
2D
102
{ACAD_REACTORS
330
2A
102
}
330
2A
100
AcDbVisualStyle
  2
Gouraud
 70
     2
 71
     2
 72
     2
 73
     1
 90
        2
 40
-0.6
 41
30.0
 62
     5
 63
     7
 74
     0
 91
        4
 64
     7
 65
   257
 75
     1
175
     1
 42
1.0
 92
        0
 66
     7
 43
1.0
 76
     1
 77
     6
 78
     2
 67
     7
 79
     5
170
     0
171
     0
290
     0
174
     0
 93
       13
 44
0.0
173
     0
291
     1
 45
0.0
1001
ACAD
1000
AcDbSavedByObjectVersion
1070
     0
  0
VISUALSTYLE
  5
2E
102
{ACAD_REACTORS
330
2A
102
}
330
2A
100
AcDbVisualStyle
  2
GouraudWithEdges
 70
     3
 71
     2
 72
     2
 73
     1
 90
        2
 40
-0.6
 41
30.0
 62
     5
 63
     7
 74
     1
 91
        4
 64
     7
 65
   257
 75
     1
175
     1
 42
1.0
 92
        0
 66
   257
 43
1.0
 76
     1
 77
     6
 78
     2
 67
     7
 79
     5
170
     0
171
     0
290
     0
174
     0
 93
       13
 44
0.0
173
     0
291
     1
 45
0.0
1001
ACAD
1000
AcDbSavedByObjectVersion
1070
     0
  0
VISUALSTYLE
  5
38
102
{ACAD_REACTORS
330
2A
102
}
330
2A
100
AcDbVisualStyle
  2
Linepattern
 70
    14
 71
     2
 72
     2
 73
     0
 90
        0
 40
-0.6
 41
-30.0
 62
     5
 63
     7
 74
     1
 91
        4
 64
     7
 65
   257
 75
     7
175
     7
 42
1.0
 92
        8
 66
     7
 43
1.0
 76
     1
 77
     6
 78
     2
 67
     7
 79
     5
170
     0
171
     0
290
     0
174
     0
 93
        1
 44
0.0
173
     0
291
     1
 45
0.0
1001
ACAD
1000
AcDbSavedByObjectVersion
1070
     0
  0
VISUALSTYLE
  5
33
102
{ACAD_REACTORS
330
2A
102
}
330
2A
100
AcDbVisualStyle
  2
Realistic
 70
     8
 71
     2
 72
     2
 73
     0
 90
        0
 40
-0.6
 41
-30.0
 62
     5
 63
     7
 74
     1
 91
        0
 64
     7
 65
   257
 75
     1
175
     1
 42
1.0
 92
        8
 66
     8
 43
1.0
 76
     1
 77
     6
 78
     2
 67
     7
 79
     5
170
     0
171
     0
290
     0
174
     0
 93
       13
 44
0.0
173
     0
291
     0
 45
0.0
1001
ACAD
1000
AcDbSavedByObjectVersion
1070
     0
  0
VISUALSTYLE
  5
37
102
{ACAD_REACTORS
330
2A
102
}
330
2A
100
AcDbVisualStyle
  2
Thicken
 70
    13
 71
     2
 72
     2
 73
     0
 90
        0
 40
-0.6
 41
-30.0
 62
     5
 63
     7
 74
     1
 91
        4
 64
     7
 65
   257
 75
     1
175
     1
 42
1.0
 92
       12
 66
     7
 43
1.0
 76
     1
 77
     6
 78
     2
 67
     7
 79
     5
170
     0
171
     0
290
     0
174
     0
 93
        1
 44
0.0
173
     0
291
     1
 45
0.0
1001
ACAD
1000
AcDbSavedByObjectVersion
1070
     0
  0
DICTIONARYVAR
  5
1B6
102
{ACAD_REACTORS
330
1B5
102
}
330
1B5
100
DictionaryVariables
280
     0
  1
1:1
  0
ENDSEC
  0
EOF
