  0
SECTION
  2
HEADER
  9
$ACADVER
  1
AC1015
  9
$ACADMAINTVER
 70
     6
  9
$DWGCODEPAGE
  3
ANSI_1252
  9
$INSBASE
 10
0.0
 20
0.0
 30
0.0
  9
$EXTMIN
 10
1.000000000000000E+20
 20
1.000000000000000E+20
 30
1.000000000000000E+20
  9
$EXTMAX
 10
-1.000000000000000E+20
 20
-1.000000000000000E+20
 30
-1.000000000000000E+20
  9
$LIMMIN
 10
0.0
 20
0.0
  9
$LIMMAX
 10
12.0
 20
9.0
  9
$ORTHOMODE
 70
     0
  9
$REGENMODE
 70
     1
  9
$FILLMODE
 70
     1
  9
$QTEXTMODE
 70
     0
  9
$MIRRTEXT
 70
     1
  9
$LTSCALE
 40
1.0
  9
$ATTMODE
 70
     1
  9
$TEXTSIZE
 40
0.2
  9
$TRACEWID
 40
0.05
  9
$TEXTSTYLE
  7
Standard
  9
$CLAYER
  8
0
  9
$CELTYPE
  6
ByLayer
  9
$CECOLOR
 62
   256
  9
$CELTSCALE
 40
1.0
  9
$DISPSILH
 70
     0
  9
$DIMSCALE
 40
1.0
  9
$DIMASZ
 40
0.09
  9
$DIMEXO
 40
0.0625
  9
$DIMDLI
 40
0.38
  9
$DIMRND
 40
0.0
  9
$DIMDLE
 40
0.0
  9
$DIMEXE
 40
0.18
  9
$DIMTP
 40
0.0
  9
$DIMTM
 40
0.0
  9
$DIMTXT
 40
0.0895833333333333
  9
$DIMCEN
 40
0.09
  9
$DIMTSZ
 40
0.0
  9
$DIMTOL
 70
     0
  9
$DIMLIM
 70
     0
  9
$DIMTIH
 70
     1
  9
$DIMTOH
 70
     1
  9
$DIMSE1
 70
     0
  9
$DIMSE2
 70
     0
  9
$DIMTAD
 70
     0
  9
$DIMZIN
 70
     0
  9
$DIMBLK
  1

  9
$DIMASO
 70
     1
  9
$DIMSHO
 70
     1
  9
$DIMPOST
  1

  9
$DIMAPOST
  1

  9
$DIMALT
 70
     0
  9
$DIMALTD
 70
     2
  9
$DIMALTF
 40
25.4
  9
$DIMLFAC
 40
1.0
  9
$DIMTOFL
 70
     0
  9
$DIMTVP
 40
0.0
  9
$DIMTIX
 70
     0
  9
$DIMSOXD
 70
     0
  9
$DIMSAH
 70
     0
  9
$DIMBLK1
  1

  9
$DIMBLK2
  1

  9
$DIMSTYLE
  2
Standard
  9
$DIMCLRD
 70
     0
  9
$DIMCLRE
 70
     0
  9
$DIMCLRT
 70
     0
  9
$DIMTFAC
 40
1.0
  9
$DIMGAP
 40
0.09
  9
$DIMJUST
 70
     0
  9
$DIMSD1
 70
     0
  9
$DIMSD2
 70
     0
  9
$DIMTOLJ
 70
     1
  9
$DIMTZIN
 70
     0
  9
$DIMALTZ
 70
     0
  9
$DIMALTTZ
 70
     0
  9
$DIMUPT
 70
     0
  9
$DIMDEC
 70
     4
  9
$DIMTDEC
 70
     4
  9
$DIMALTU
 70
     2
  9
$DIMALTTD
 70
     2
  9
$DIMTXSTY
  7
Standard
  9
$DIMAUNIT
 70
     0
  9
$DIMADEC
 70
     0
  9
$DIMALTRND
 40
0.0
  9
$DIMAZIN
 70
     0
  9
$DIMDSEP
 70
    46
  9
$DIMATFIT
 70
     3
  9
$DIMFRAC
 70
     0
  9
$DIMLDRBLK
  1

  9
$DIMLUNIT
 70
     2
  9
$DIMLWD
 70
    -2
  9
$DIMLWE
 70
    -2
  9
$DIMTMOVE
 70
     0
  9
$LUNITS
 70
     2
  9
$LUPREC
 70
     4
  9
$SKETCHINC
 40
0.1
  9
$FILLETRAD
 40
0.5
  9
$AUNITS
 70
     0
  9
$AUPREC
 70
     0
  9
$MENU
  1
.
  9
$ELEVATION
 40
0.0
  9
$PELEVATION
 40
0.0
  9
$THICKNESS
 40
0.0
  9
$LIMCHECK
 70
     0
  9
$CHAMFERA
 40
0.5
  9
$CHAMFERB
 40
0.5
  9
$CHAMFERC
 40
1.0
  9
$CHAMFERD
 40
0.0
  9
$SKPOLY
 70
     0
  9
$TDCREATE
 40
2456269.001496308
  9
$TDUCREATE
 40
2456269.334829641
  9
$TDUPDATE
 40
2456269.00149632
  9
$TDUUPDATE
 40
2456269.334829653
  9
$TDINDWG
 40
0.0000000116
  9
$TDUSRTIMER
 40
0.0000000116
  9
$USRTIMER
 70
     1
  9
$ANGBASE
 50
0.0
  9
$ANGDIR
 70
     0
  9
$PDMODE
 70
     0
  9
$PDSIZE
 40
0.0
  9
$PLINEWID
 40
0.0
  9
$SPLFRAME
 70
     0
  9
$SPLINETYPE
 70
     6
  9
$SPLINESEGS
 70
     8
  9
$HANDSEED
  5
135
  9
$SURFTAB1
 70
     6
  9
$SURFTAB2
 70
     6
  9
$SURFTYPE
 70
     6
  9
$SURFU
 70
     6
  9
$SURFV
 70
     6
  9
$UCSBASE
  2

  9
$UCSNAME
  2

  9
$UCSORG
 10
0.0
 20
0.0
 30
0.0
  9
$UCSXDIR
 10
1.0
 20
0.0
 30
0.0
  9
$UCSYDIR
 10
0.0
 20
1.0
 30
0.0
  9
$UCSORTHOREF
  2

  9
$UCSORTHOVIEW
 70
     0
  9
$UCSORGTOP
 10
0.0
 20
0.0
 30
0.0
  9
$UCSORGBOTTOM
 10
0.0
 20
0.0
 30
0.0
  9
$UCSORGLEFT
 10
0.0
 20
0.0
 30
0.0
  9
$UCSORGRIGHT
 10
0.0
 20
0.0
 30
0.0
  9
$UCSORGFRONT
 10
0.0
 20
0.0
 30
0.0
  9
$UCSORGBACK
 10
0.0
 20
0.0
 30
0.0
  9
$PUCSBASE
  2

  9
$PUCSNAME
  2

  9
$PUCSORG
 10
0.0
 20
0.0
 30
0.0
  9
$PUCSXDIR
 10
1.0
 20
0.0
 30
0.0
  9
$PUCSYDIR
 10
0.0
 20
1.0
 30
0.0
  9
$PUCSORTHOREF
  2

  9
$PUCSORTHOVIEW
 70
     0
  9
$PUCSORGTOP
 10
0.0
 20
0.0
 30
0.0
  9
$PUCSORGBOTTOM
 10
0.0
 20
0.0
 30
0.0
  9
$PUCSORGLEFT
 10
0.0
 20
0.0
 30
0.0
  9
$PUCSORGRIGHT
 10
0.0
 20
0.0
 30
0.0
  9
$PUCSORGFRONT
 10
0.0
 20
0.0
 30
0.0
  9
$PUCSORGBACK
 10
0.0
 20
0.0
 30
0.0
  9
$USERI1
 70
     0
  9
$USERI2
 70
     0
  9
$USERI3
 70
     0
  9
$USERI4
 70
     0
  9
$USERI5
 70
     0
  9
$USERR1
 40
0.0
  9
$USERR2
 40
0.0
  9
$USERR3
 40
0.0
  9
$USERR4
 40
0.0
  9
$USERR5
 40
0.0
  9
$WORLDVIEW
 70
     1
  9
$SHADEDGE
 70
     3
  9
$SHADEDIF
 70
    70
  9
$TILEMODE
 70
     1
  9
$MAXACTVP
 70
    64
  9
$PINSBASE
 10
0.0
 20
0.0
 30
0.0
  9
$PLIMCHECK
 70
     0
  9
$PEXTMIN
 10
1.000000000000000E+20
 20
1.000000000000000E+20
 30
1.000000000000000E+20
  9
$PEXTMAX
 10
-1.000000000000000E+20
 20
-1.000000000000000E+20
 30
-1.000000000000000E+20
  9
$PLIMMIN
 10
0.0
 20
0.0
  9
$PLIMMAX
 10
12.0
 20
9.0
  9
$UNITMODE
 70
     0
  9
$VISRETAIN
 70
     1
  9
$PLINEGEN
 70
     0
  9
$PSLTSCALE
 70
     1
  9
$TREEDEPTH
 70
  3020
  9
$CMLSTYLE
  2
Standard
  9
$CMLJUST
 70
     0
  9
$CMLSCALE
 40
1.0
  9
$PROXYGRAPHICS
 70
     1
  9
$MEASUREMENT
 70
     0
  9
$CELWEIGHT
370
    -1
  9
$ENDCAPS
280
     0
  9
$JOINSTYLE
280
     0
  9
$LWDISPLAY
290
     0
  9
$INSUNITS
 70
     1
  9
$HYPERLINKBASE
  1

  9
$STYLESHEET
  1

  9
$XEDIT
290
     1
  9
$CEPSNTYPE
380
     0
  9
$PSTYLEMODE
290
     1
  9
$FINGERPRINTGUID
  2
{3C52056C-E2A2-44CC-AE62-D2B88ACCB662}
  9
$VERSIONGUID
  2
{FAEB1C32-E019-11D5-929B-00C0DF256EC4}
  9
$EXTNAMES
290
     1
  9
$PSVPSCALE
 40
0.0
  9
$OLESTARTUP
290
     0
  0
ENDSEC
  0
SECTION
  2
CLASSES
  0
CLASS
  1
ACDBDICTIONARYWDFLT
  2
AcDbDictionaryWithDefault
  3
ObjectDBX Classes
 90
        0
280
     0
281
     0
  0
CLASS
  1
VISUALSTYLE
  2
AcDbVisualStyle
  3
ObjectDBX Classes
 90
     4095
280
     0
281
     0
  0
CLASS
  1
SCALE
  2
AcDbScale
  3
ObjectDBX Classes
 90
     1153
280
     0
281
     0
  0
CLASS
  1
DICTIONARYVAR
  2
AcDbDictionaryVar
  3
ObjectDBX Classes
 90
        0
280
     0
281
     0
  0
CLASS
  1
ACDBPLACEHOLDER
  2
AcDbPlaceHolder
  3
ObjectDBX Classes
 90
        0
280
     0
281
     0
  0
CLASS
  1
LAYOUT
  2
AcDbLayout
  3
ObjectDBX Classes
 90
        0
280
     0
281
     0
  0
ENDSEC
  0
SECTION
  2
TABLES
  0
TABLE
  2
VPORT
  5
8
330
0
100
AcDbSymbolTable
 70
     1
  0
VPORT
  5
29
330
8
100
AcDbSymbolTableRecord
100
AcDbViewportTableRecord
  2
*Active
 70
     0
 10
0.0
 20
0.0
 11
1.0
 21
1.0
 12
10.42990654205607
 22
4.5
 13
0.0
 23
0.0
 14
0.5
 24
0.5
 15
0.5
 25
0.5
 16
0.0
 26
0.0
 36
1.0
 17
0.0
 27
0.0
 37
0.0
 40
9.0
 41
1.972972972850329
 42
50.0
 43
0.0
 44
0.0
 50
0.0
 51
0.0
 71
     0
 72
   100
 73
     1
 74
     3
 75
     0
 76
     0
 77
     0
 78
     0
281
     0
 65
     1
110
0.0
120
0.0
130
0.0
111
1.0
121
0.0
131
0.0
112
0.0
122
1.0
132
0.0
 79
     0
146
0.0
  0
ENDTAB
  0
TABLE
  2
LTYPE
  5
5
330
0
100
AcDbSymbolTable
 70
     2
  0
LTYPE
  5
14
330
5
100
AcDbSymbolTableRecord
100
AcDbLinetypeTableRecord
  2
ByBlock
 70
     0
  3

 72
    65
 73
     0
 40
0.0
  0
LTYPE
  5
15
330
5
100
AcDbSymbolTableRecord
100
AcDbLinetypeTableRecord
  2
ByLayer
 70
     0
  3

 72
    65
 73
     0
 40
0.0
  0
LTYPE
  5
16
330
5
100
AcDbSymbolTableRecord
100
AcDbLinetypeTableRecord
  2
Continuous
 70
     0
  3
Solid line
 72
    65
 73
     0
 40
0.0
  0
LTYPE
  5
6C
330
5
100
AcDbSymbolTableRecord
100
AcDbLinetypeTableRecord
  2
CENTER2
 70
     0
  3
Center (.5x) ___ _ ___ _ ___ _ ___ _ ___ _ ___
 72
    65
 73
     4
 40
1.125
 49
0.75
 74
     0
 49
-0.125
 74
     0
 49
0.125
 74
     0
 49
-0.125
 74
     0
  0
ENDTAB
  0
TABLE
  2
LAYER
  5
2
330
0
100
AcDbSymbolTable
 70
     5
  0
LAYER
  5
10
330
2
100
AcDbSymbolTableRecord
100
AcDbLayerTableRecord
  2
0
 70
     0
 62
     7
  6
Continuous
370
    -3
390
F
  0
LAYER
  5
5D
330
2
100
AcDbSymbolTableRecord
100
AcDbLayerTableRecord
  2
VISIBLE
 70
     0
 62
     7
  6
Continuous
370
     0
390
F
  0
LAYER
  5
6D
330
2
100
AcDbSymbolTableRecord
100
AcDbLayerTableRecord
  2
BEND CENTERS
 70
     0
 62
   204
  6
CENTER2
370
     0
390
F
  0
LAYER
  5
6F
330
2
100
AcDbSymbolTableRecord
100
AcDbLayerTableRecord
  2
DIMENSIONS
 70
     0
 62
     7
  6
Continuous
370
     0
390
F
  0
LAYER
  5
FA
330
2
100
AcDbSymbolTableRecord
100
AcDbLayerTableRecord
  2
CONTINUOUS
 70
     0
 62
     7
  6
Continuous
370
     0
390
F
  0
ENDTAB
  0
TABLE
  2
STYLE
  5
3
330
0
100
AcDbSymbolTable
 70
     1
  0
STYLE
  5
11
330
3
100
AcDbSymbolTableRecord
100
AcDbTextStyleTableRecord
  2
Standard
 70
     0
 40
0.125
 41
1.0
 50
0.0
 71
     0
 42
0.2
  3
txt
  4

1001
ACAD
1000
Arial
1071
        0
  0
ENDTAB
  0
TABLE
  2
VIEW
  5
6
330
0
100
AcDbSymbolTable
 70
     0
  0
ENDTAB
  0
TABLE
  2
UCS
  5
7
330
0
100
AcDbSymbolTable
 70
     0
  0
ENDTAB
  0
TABLE
  2
APPID
  5
9
330
0
100
AcDbSymbolTable
 70
     1
  0
APPID
  5
12
330
9
100
AcDbSymbolTableRecord
100
AcDbRegAppTableRecord
  2
ACAD
 70
     0
  0
ENDTAB
  0
TABLE
  2
DIMSTYLE
  5
A
330
0
100
AcDbSymbolTable
 70
     1
100
AcDbDimStyleTable
  0
DIMSTYLE
105
27
102
{ACAD_REACTORS
330
70
330
7D
330
8A
330
9B
330
A8
330
B6
330
C4
330
D2
330
E0
330
EA
102
}
330
A
100
AcDbSymbolTableRecord
100
AcDbDimStyleTableRecord
  2
Standard
 70
     0
340
11
  0
ENDTAB
  0
TABLE
  2
BLOCK_RECORD
  5
1
330
0
100
AcDbSymbolTable
 70
    12
  0
BLOCK_RECORD
  5
1F
330
1
100
AcDbSymbolTableRecord
100
AcDbBlockTableRecord
  2
*Model_Space
340
22
  0
BLOCK_RECORD
  5
1B
330
1
100
AcDbSymbolTableRecord
100
AcDbBlockTableRecord
  2
*Paper_Space
340
1E
  0
BLOCK_RECORD
  5
23
330
1
100
AcDbSymbolTableRecord
100
AcDbBlockTableRecord
  2
*Paper_Space0
340
26
  0
BLOCK_RECORD
  5
71
330
1
100
AcDbSymbolTableRecord
100
AcDbBlockTableRecord
  2
D1
340
0
  0
BLOCK_RECORD
  5
7E
330
1
100
AcDbSymbolTableRecord
100
AcDbBlockTableRecord
  2
D2
340
0
  0
BLOCK_RECORD
  5
8B
330
1
100
AcDbSymbolTableRecord
100
AcDbBlockTableRecord
  2
D3
340
0
  0
BLOCK_RECORD
  5
9C
330
1
100
AcDbSymbolTableRecord
100
AcDbBlockTableRecord
  2
D4
340
0
  0
BLOCK_RECORD
  5
A9
330
1
100
AcDbSymbolTableRecord
100
AcDbBlockTableRecord
  2
D5
340
0
  0
BLOCK_RECORD
  5
B7
330
1
100
AcDbSymbolTableRecord
100
AcDbBlockTableRecord
  2
D6
340
0
  0
BLOCK_RECORD
  5
C5
330
1
100
AcDbSymbolTableRecord
100
AcDbBlockTableRecord
  2
D7
340
0
  0
BLOCK_RECORD
  5
D3
330
1
100
AcDbSymbolTableRecord
100
AcDbBlockTableRecord
  2
D8
340
0
  0
BLOCK_RECORD
  5
E1
330
1
100
AcDbSymbolTableRecord
100
AcDbBlockTableRecord
  2
D9
340
0
  0
BLOCK_RECORD
  5
EB
330
1
100
AcDbSymbolTableRecord
100
AcDbBlockTableRecord
  2
D10
340
0
  0
BLOCK_RECORD
  5
FC
330
1
100
AcDbSymbolTableRecord
100
AcDbBlockTableRecord
  2
BLOCK6
340
0
102
{BLKREFS
331
FB
102
}
  0
ENDTAB
  0
ENDSEC
  0
SECTION
  2
BLOCKS
  0
BLOCK
  5
20
330
1F
100
AcDbEntity
  8
0
100
AcDbBlockBegin
  2
*Model_Space
 70
     0
 10
0.0
 20
0.0
 30
0.0
  3
*Model_Space
  1

  0
ENDBLK
  5
21
330
1F
100
AcDbEntity
  8
0
100
AcDbBlockEnd
  0
BLOCK
  5
1C
330
1B
100
AcDbEntity
 67
     1
  8
0
100
AcDbBlockBegin
  2
*Paper_Space
 70
     0
 10
0.0
 20
0.0
 30
0.0
  3
*Paper_Space
  1

  0
ENDBLK
  5
1D
330
1B
100
AcDbEntity
 67
     1
  8
0
100
AcDbBlockEnd
  0
BLOCK
  5
24
330
23
100
AcDbEntity
  8
0
100
AcDbBlockBegin
  2
*Paper_Space0
 70
     0
 10
0.0
 20
0.0
 30
0.0
  3
*Paper_Space0
  1

  0
ENDBLK
  5
25
330
23
100
AcDbEntity
  8
0
100
AcDbBlockEnd
  0
BLOCK
  5
72
330
71
100
AcDbEntity
  8
0
100
AcDbBlockBegin
  2
D1
 70
     0
 10
0.0
 20
0.0
 30
0.0
  3
D1
  1

  0
MTEXT
  5
74
330
71
100
AcDbEntity
  8
DIMENSIONS
100
AcDbMText
 10
7.783574382151206
 20
2.775464996578184
 30
0.0
 40
0.0895833333333333
 41
0.0
 71
     5
 72
     1
  1
{\fArial|b0|i0|c0|p0;28.00}{\fMS Shell Dlg|b0|i0|c0|p0;\H0.9444444x;}
 73
     1
 44
1.0
  0
MTEXT
  5
75
330
71
100
AcDbEntity
  8
DIMENSIONS
100
AcDbMText
 10
7.783574382151206
 20
2.775464996578184
 30
0.0
 40
0.0895833333333333
 41
0.0
 71
     5
 72
     1
  1
{\fArial|b0|i0|c0|p0;}
 73
     1
 44
1.0
  0
MTEXT
  5
76
330
71
100
AcDbEntity
  8
DIMENSIONS
100
AcDbMText
 10
7.783574382151206
 20
2.775464996578184
 30
0.0
 40
0.0895833333333333
 41
0.0
 71
     5
 72
     1
  1
{\fArial|b0|i0|c0|p0;}
 73
     1
 44
1.0
  0
LINE
  5
77
330
71
100
AcDbEntity
  8
DIMENSIONS
100
AcDbLine
 10
11.2835743821512
 20
3.092147586852548
 30
0.0
 11
11.2835743821512
 21
2.712964996578184
 31
0.0
  0
LINE
  5
78
330
71
100
AcDbEntity
  8
DIMENSIONS
100
AcDbLine
 10
4.283574382151206
 20
3.092147586852547
 30
0.0
 11
4.283574382151206
 21
2.712964996578184
 31
0.0
  0
LWPOLYLINE
  5
79
330
71
100
AcDbEntity
  8
DIMENSIONS
100
AcDbPolyline
 90
        4
 70
     0
 43
0.0
 10
11.2835743821512
 20
2.775464996578183
 10
11.1935743821512
 20
2.760464996578183
 10
11.1935743821512
 20
2.790464996578184
 10
11.2835743821512
 20
2.775464996578183
  0
LINE
  5
7A
330
71
100
AcDbEntity
  8
DIMENSIONS
100
AcDbLine
 10
11.1935743821512
 20
2.775464996578184
 30
0.0
 11
7.984963271561571
 21
2.775464921485721
 31
0.0
  0
LWPOLYLINE
  5
7B
330
71
100
AcDbEntity
  8
DIMENSIONS
100
AcDbPolyline
 90
        4
 70
     0
 43
0.0
 10
4.283574382151207
 20
2.775464996578184
 10
4.373574382151208
 20
2.790464996578184
 10
4.373574382151208
 20
2.760464996578184
 10
4.283574382151207
 20
2.775464996578184
  0
LINE
  5
7C
330
71
100
AcDbEntity
  8
DIMENSIONS
100
AcDbLine
 10
4.373574382151206
 20
2.775464996578184
 30
0.0
 11
7.582185492740842
 21
2.775464921485721
 31
0.0
  0
ENDBLK
  5
73
330
71
100
AcDbEntity
  8
0
100
AcDbBlockEnd
  0
BLOCK
  5
7F
330
7E
100
AcDbEntity
  8
0
100
AcDbBlockBegin
  2
D2
 70
     0
 10
0.0
 20
0.0
 30
0.0
  3
D2
  1

  0
MTEXT
  5
81
330
7E
100
AcDbEntity
  8
DIMENSIONS
100
AcDbMText
 10
3.231533981683686
 20
4.904647586852547
 30
0.0
 40
0.0895833333333333
 41
0.0
 71
     5
 72
     1
  1
{\fArial|b0|i0|c0|p0;14.000}{\fMS Shell Dlg|b0|i0|c0|p0;\H0.9444444x;}
 73
     1
 44
1.0
  0
MTEXT
  5
82
330
7E
100
AcDbEntity
  8
DIMENSIONS
100
AcDbMText
 10
3.231533981683686
 20
4.904647586852547
 30
0.0
 40
0.0895833333333333
 41
0.0
 71
     5
 72
     1
  1
{\fArial|b0|i0|c0|p0;}
 73
     1
 44
1.0
  0
MTEXT
  5
83
330
7E
100
AcDbEntity
  8
DIMENSIONS
100
AcDbMText
 10
3.231533981683686
 20
4.904647586852547
 30
0.0
 40
0.0895833333333333
 41
0.0
 71
     5
 72
     1
  1
{\fArial|b0|i0|c0|p0;}
 73
     1
 44
1.0
  0
LINE
  5
84
330
7E
100
AcDbEntity
  8
DIMENSIONS
100
AcDbLine
 10
4.221074382151206
 20
3.154647586852547
 30
0.0
 11
3.169033981683686
 21
3.154647586852547
 31
0.0
  0
LINE
  5
85
330
7E
100
AcDbEntity
  8
DIMENSIONS
100
AcDbLine
 10
4.221074382151206
 20
6.654647586852548
 30
0.0
 11
3.169033981683686
 21
6.654647586852548
 31
0.0
  0
LWPOLYLINE
  5
86
330
7E
100
AcDbEntity
  8
DIMENSIONS
100
AcDbPolyline
 90
        4
 70
     0
 43
0.0
 10
3.231533981683686
 20
3.154647586852547
 10
3.216533981683686
 20
3.244647586852547
 10
3.246533981683686
 20
3.244647586852547
 10
3.231533981683686
 20
3.154647586852547
  0
LINE
  5
87
330
7E
100
AcDbEntity
  8
DIMENSIONS
100
AcDbLine
 10
3.231533981683686
 20
3.244647586852547
 30
0.0
 11
3.231534056776153
 21
4.779647587791203
 31
0.0
  0
LWPOLYLINE
  5
88
330
7E
100
AcDbEntity
  8
DIMENSIONS
100
AcDbPolyline
 90
        4
 70
     0
 43
0.0
 10
3.231533981683685
 20
6.654647586852547
 10
3.246533981683686
 20
6.564647586852547
 10
3.216533981683686
 20
6.564647586852547
 10
3.231533981683685
 20
6.654647586852547
  0
LINE
  5
89
330
7E
100
AcDbEntity
  8
DIMENSIONS
100
AcDbLine
 10
3.231533981683686
 20
6.564647586852547
 30
0.0
 11
3.231534056776153
 21
5.029647585913892
 31
0.0
  0
ENDBLK
  5
80
330
7E
100
AcDbEntity
  8
0
100
AcDbBlockEnd
  0
BLOCK
  5
8C
330
8B
100
AcDbEntity
  8
0
100
AcDbBlockBegin
  2
D3
 70
     0
 10
0.0
 20
0.0
 30
0.0
  3
D3
  1

  0
MTEXT
  5
8E
330
8B
100
AcDbEntity
  8
DIMENSIONS
100
AcDbMText
 10
7.452704458161603
 20
7.306851364496186
 30
0.0
 40
0.0895833333333333
 41
0.0
 71
     6
 72
     1
  1
{\fAlibre Symbols|b0|i0|c0|p0;n}{\fArial|b0|i0|c0|p0;1.00}{\fMS Shell Dlg|b0|i0|c0|p0;\H0.9444444x;}
 73
     1
 44
1.0
  0
MTEXT
  5
8F
330
8B
100
AcDbEntity
  8
DIMENSIONS
100
AcDbMText
 10
7.490204458161602
 20
7.431851364496186
 30
0.0
 40
0.0895833333333333
 41
0.0
 71
     4
 72
     1
  1
{\fArial|b0|i0|c0|p0;+}{\fArial|b0|i0|c0|p0;}
 73
     1
 44
1.0
  0
MTEXT
  5
90
330
8B
100
AcDbEntity
  8
DIMENSIONS
100
AcDbMText
 10
7.552704458161602
 20
7.431851364496186
 30
0.0
 40
0.0895833333333333
 41
0.0
 71
     4
 72
     1
  1
{\fArial|b0|i0|c0|p0;.00}{\fArial|b0|i0|c0|p0;}
 73
     1
 44
1.0
  0
MTEXT
  5
91
330
8B
100
AcDbEntity
  8
DIMENSIONS
100
AcDbMText
 10
7.490204458161602
 20
7.283041840686662
 30
0.0
 40
0.0895833333333333
 41
0.0
 71
     4
 72
     1
  1
{\fArial|b0|i0|c0|p0;-}{\fArial|b0|i0|c0|p0;}
 73
     1
 44
1.0
  0
MTEXT
  5
92
330
8B
100
AcDbEntity
  8
DIMENSIONS
100
AcDbMText
 10
7.552704458161602
 20
7.283041840686662
 30
0.0
 40
0.0895833333333333
 41
0.0
 71
     4
 72
     1
  1
{\fArial|b0|i0|c0|p0;.25}{\fArial|b0|i0|c0|p0;}
 73
     1
 44
1.0
  0
MTEXT
  5
93
330
8B
100
AcDbEntity
  8
DIMENSIONS
100
AcDbMText
 10
7.70548223593938
 20
7.306851364496186
 30
0.0
 40
0.0895833333333333
 41
0.0
 71
     4
 72
     1
  1
{\fArial|b0|i0|c0|p0;}
 73
     1
 44
1.0
  0
MTEXT
  5
94
330
8B
100
AcDbEntity
  8
DIMENSIONS
100
AcDbMText
 10
7.302704458161602
 20
7.306851364496186
 30
0.0
 40
0.0895833333333333
 41
0.0
 71
     5
 72
     1
  1
{\fArial|b0|i0|c0|p0;}
 73
     1
 44
1.0
  0
MTEXT
  5
95
330
8B
100
AcDbEntity
  8
DIMENSIONS
100
AcDbMText
 10
7.133260013717158
 20
7.161018031162853
 30
0.0
 40
0.0895833333333333
 41
0.0
 71
     4
 72
     1
  1
{\fArial|b0|i0|c0|p0;TYP 2 PL}{\fArial|b0|i0|c0|p0;}
 73
     1
 44
1.0
  0
LINE
  5
96
330
8B
100
AcDbEntity
  8
DIMENSIONS
100
AcDbLine
 10
7.070760017304909
 20
7.306851439588653
 30
0.0
 11
6.820760017304909
 21
7.306851439588653
 31
0.0
  0
LINE
  5
97
330
8B
100
AcDbEntity
  8
DIMENSIONS
100
AcDbLine
 10
6.516248685529605
 20
6.521199216246034
 30
0.0
 11
6.820760017304909
 21
7.306851439588653
 31
0.0
  0
LWPOLYLINE
  5
98
330
8B
100
AcDbEntity
  8
DIMENSIONS
100
AcDbPolyline
 90
        4
 70
     0
 43
0.0
 10
6.516248685529605
 20
6.521199216246034
 10
6.497709382624377
 20
6.431861126677316
 10
6.46973699156994
 20
6.442702959488131
 10
6.516248685529605
 20
6.521199216246034
  0
LWPOLYLINE
  5
99
330
8B
100
AcDbEntity
  8
DIMENSIONS
100
AcDbPolyline
 90
        4
 70
     0
 43
0.0
 10
6.425900078772809
 20
6.288095957459062
 10
6.444439381678037
 20
6.377434047027779
 10
6.472411772732474
 20
6.366592214216963
 10
6.425900078772809
 20
6.288095957459062
  0
LINE
  5
9A
330
8B
100
AcDbEntity
  8
DIMENSIONS
100
AcDbLine
 10
6.458425577205255
 20
6.372013130622372
 30
0.0
 11
6.483723187097159
 21
6.437282043082724
 31
0.0
  0
ENDBLK
  5
8D
330
8B
100
AcDbEntity
  8
0
100
AcDbBlockEnd
  0
BLOCK
  5
9D
330
9C
100
AcDbEntity
  8
0
100
AcDbBlockBegin
  2
D4
 70
     0
 10
0.0
 20
0.0
 30
0.0
  3
D4
  1

  0
MTEXT
  5
9F
330
9C
100
AcDbEntity
  8
DIMENSIONS
100
AcDbMText
 10
5.377324382151206
 20
6.832618413009044
 30
0.0
 40
0.0895833333333333
 41
0.0
 71
     5
 72
     1
  1
{\fArial|b0|i0|c0|p0;8.75}{\fMS Shell Dlg|b0|i0|c0|p0;\H0.9444444x;}
 73
     1
 44
1.0
  0
MTEXT
  5
A0
330
9C
100
AcDbEntity
  8
DIMENSIONS
100
AcDbMText
 10
5.377324382151206
 20
6.832618413009044
 30
0.0
 40
0.0895833333333333
 41
0.0
 71
     5
 72
     1
  1
{\fArial|b0|i0|c0|p0;}
 73
     1
 44
1.0
  0
MTEXT
  5
A1
330
9C
100
AcDbEntity
  8
DIMENSIONS
100
AcDbMText
 10
5.377324382151206
 20
6.832618413009044
 30
0.0
 40
0.0895833333333333
 41
0.0
 71
     5
 72
     1
  1
{\fArial|b0|i0|c0|p0;}
 73
     1
 44
1.0
  0
LINE
  5
A2
330
9C
100
AcDbEntity
  8
DIMENSIONS
100
AcDbLine
 10
4.283574382151206
 20
6.717147586852548
 30
0.0
 11
4.283574382151206
 21
6.895118413009044
 31
0.0
  0
LINE
  5
A3
330
9C
100
AcDbEntity
  8
DIMENSIONS
100
AcDbLine
 10
6.471074382151206
 20
6.467147586852548
 30
0.0
 11
6.471074382151206
 21
6.895118413009044
 31
0.0
  0
LWPOLYLINE
  5
A4
330
9C
100
AcDbEntity
  8
DIMENSIONS
100
AcDbPolyline
 90
        4
 70
     0
 43
0.0
 10
4.283574382151206
 20
6.832618413009044
 10
4.373574382151206
 20
6.847618413009044
 10
4.373574382151206
 20
6.817618413009043
 10
4.283574382151206
 20
6.832618413009044
  0
LINE
  5
A5
330
9C
100
AcDbEntity
  8
DIMENSIONS
100
AcDbLine
 10
4.373574382151206
 20
6.832618413009044
 30
0.0
 11
5.203713229322059
 21
6.83261848810151
 31
0.0
  0
LWPOLYLINE
  5
A6
330
9C
100
AcDbEntity
  8
DIMENSIONS
100
AcDbPolyline
 90
        4
 70
     0
 43
0.0
 10
6.471074382151206
 20
6.832618413009044
 10
6.381074382151207
 20
6.817618413009043
 10
6.381074382151207
 20
6.847618413009044
 10
6.471074382151206
 20
6.832618413009044
  0
LINE
  5
A7
330
9C
100
AcDbEntity
  8
DIMENSIONS
100
AcDbLine
 10
6.381074382151207
 20
6.832618413009044
 30
0.0
 11
5.550935489924875
 21
6.83261848810151
 31
0.0
  0
ENDBLK
  5
9E
330
9C
100
AcDbEntity
  8
0
100
AcDbBlockEnd
  0
BLOCK
  5
AA
330
A9
100
AcDbEntity
  8
0
100
AcDbBlockBegin
  2
D5
 70
     0
 10
0.0
 20
0.0
 30
0.0
  3
D5
  1

  0
MTEXT
  5
AC
330
A9
100
AcDbEntity
  8
DIMENSIONS
100
AcDbMText
 10
7.120381753275714
 20
6.825733334999386
 30
0.0
 40
0.0895833333333333
 41
0.0
 71
     5
 72
     1
  1
{\fArial|b0|i0|c0|p0;1.000}{\fMS Shell Dlg|b0|i0|c0|p0;\H0.9444444x;}
 73
     1
 44
1.0
  0
MTEXT
  5
AD
330
A9
100
AcDbEntity
  8
DIMENSIONS
100
AcDbMText
 10
7.120381753275714
 20
6.825733334999386
 30
0.0
 40
0.0895833333333333
 41
0.0
 71
     5
 72
     1
  1
{\fArial|b0|i0|c0|p0;}
 73
     1
 44
1.0
  0
MTEXT
  5
AE
330
A9
100
AcDbEntity
  8
DIMENSIONS
100
AcDbMText
 10
7.120381753275714
 20
6.825733334999386
 30
0.0
 40
0.0895833333333333
 41
0.0
 71
     5
 72
     1
  1
{\fArial|b0|i0|c0|p0;}
 73
     1
 44
1.0
  0
LINE
  5
AF
330
A9
100
AcDbEntity
  8
DIMENSIONS
100
AcDbLine
 10
6.668992887331745
 20
6.82573325990692
 30
0.0
 11
6.918992887331745
 21
6.82573325990692
 31
0.0
  0
LINE
  5
B0
330
A9
100
AcDbEntity
  8
DIMENSIONS
100
AcDbLine
 10
4.346074382151206
 20
6.654647586852548
 30
0.0
 11
6.731492887331745
 21
6.654647586852548
 31
0.0
  0
LINE
  5
B1
330
A9
100
AcDbEntity
  8
DIMENSIONS
100
AcDbLine
 10
6.533574382151206
 20
6.404647586852548
 30
0.0
 11
6.731492887331745
 21
6.404647586852548
 31
0.0
  0
LWPOLYLINE
  5
B2
330
A9
100
AcDbEntity
  8
DIMENSIONS
100
AcDbPolyline
 90
        4
 70
     0
 43
0.0
 10
6.668992887331745
 20
6.654647586852548
 10
6.683992887331745
 20
6.564647586852547
 10
6.653992887331746
 20
6.564647586852547
 10
6.668992887331745
 20
6.654647586852548
  0
LINE
  5
B3
330
A9
100
AcDbEntity
  8
DIMENSIONS
100
AcDbLine
 10
6.668992887331745
 20
6.654647586852548
 30
0.0
 11
6.668992887331745
 21
6.82573325990692
 31
0.0
  0
LWPOLYLINE
  5
B4
330
A9
100
AcDbEntity
  8
DIMENSIONS
100
AcDbPolyline
 90
        4
 70
     0
 43
0.0
 10
6.668992887331745
 20
6.404647586852548
 10
6.653992887331746
 20
6.494647586852548
 10
6.683992887331746
 20
6.494647586852548
 10
6.668992887331745
 20
6.404647586852548
  0
LINE
  5
B5
330
A9
100
AcDbEntity
  8
DIMENSIONS
100
AcDbLine
 10
6.668992887331745
 20
6.494647586852548
 30
0.0
 11
6.668992887331745
 21
6.564647586852547
 31
0.0
  0
ENDBLK
  5
AB
330
A9
100
AcDbEntity
  8
0
100
AcDbBlockEnd
  0
BLOCK
  5
B8
330
B7
100
AcDbEntity
  8
0
100
AcDbBlockBegin
  2
D6
 70
     0
 10
0.0
 20
0.0
 30
0.0
  3
D6
  1

  0
MTEXT
  5
BA
330
B7
100
AcDbEntity
  8
DIMENSIONS
100
AcDbMText
 10
5.418114249161849
 20
5.931488998292938
 30
0.0
 40
0.0895833333333333
 41
0.0
 71
     5
 72
     1
  1
{\fArial|b0|i0|c0|p0;.250}{\fMS Shell Dlg|b0|i0|c0|p0;\H0.9444444x;}
 73
     1
 44
1.0
  0
MTEXT
  5
BB
330
B7
100
AcDbEntity
  8
DIMENSIONS
100
AcDbMText
 10
5.418114249161849
 20
5.931488998292938
 30
0.0
 40
0.0895833333333333
 41
0.0
 71
     5
 72
     1
  1
{\fArial|b0|i0|c0|p0;}
 73
     1
 44
1.0
  0
MTEXT
  5
BC
330
B7
100
AcDbEntity
  8
DIMENSIONS
100
AcDbMText
 10
5.418114249161849
 20
5.931488998292938
 30
0.0
 40
0.0895833333333333
 41
0.0
 71
     5
 72
     1
  1
{\fArial|b0|i0|c0|p0;}
 73
     1
 44
1.0
  0
LINE
  5
BD
330
B7
100
AcDbEntity
  8
DIMENSIONS
100
AcDbLine
 10
4.994503081314208
 20
5.931488998292939
 30
0.0
 11
5.244503081314208
 21
5.931488998292939
 31
0.0
  0
LINE
  5
BE
330
B7
100
AcDbEntity
  8
DIMENSIONS
100
AcDbLine
 10
4.596074382151207
 20
6.185897586852547
 30
0.0
 11
5.057003081314208
 21
6.185897586852547
 31
0.0
  0
LINE
  5
BF
330
B7
100
AcDbEntity
  8
DIMENSIONS
100
AcDbLine
 10
4.596074382151207
 20
6.123397586852548
 30
0.0
 11
5.057003081314208
 21
6.123397586852548
 31
0.0
  0
LWPOLYLINE
  5
C0
330
B7
100
AcDbEntity
  8
DIMENSIONS
100
AcDbPolyline
 90
        4
 70
     0
 43
0.0
 10
4.994503081314208
 20
6.185897586852548
 10
4.979503081314208
 20
6.275897586852548
 10
5.009503081314207
 20
6.275897586852548
 10
4.994503081314208
 20
6.185897586852548
  0
LINE
  5
C1
330
B7
100
AcDbEntity
  8
DIMENSIONS
100
AcDbLine
 10
4.994503081314208
 20
6.275897586852548
 30
0.0
 11
4.994503081314208
 21
6.435897586852548
 31
0.0
  0
LWPOLYLINE
  5
C2
330
B7
100
AcDbEntity
  8
DIMENSIONS
100
AcDbPolyline
 90
        4
 70
     0
 43
0.0
 10
4.994503081314207
 20
6.123397586852548
 10
5.009503081314207
 20
6.033397586852548
 10
4.979503081314206
 20
6.033397586852548
 10
4.994503081314207
 20
6.123397586852548
  0
LINE
  5
C3
330
B7
100
AcDbEntity
  8
DIMENSIONS
100
AcDbLine
 10
4.994503081314208
 20
6.033397586852547
 30
0.0
 11
4.994503081314208
 21
5.931488998292939
 31
0.0
  0
ENDBLK
  5
B9
330
B7
100
AcDbEntity
  8
0
100
AcDbBlockEnd
  0
BLOCK
  5
C6
330
C5
100
AcDbEntity
  8
0
100
AcDbBlockBegin
  2
D7
 70
     0
 10
0.0
 20
0.0
 30
0.0
  3
D7
  1

  0
MTEXT
  5
C8
330
C5
100
AcDbEntity
  8
DIMENSIONS
100
AcDbMText
 10
8.25605858029343
 20
6.377643374946175
 30
0.0
 40
0.0895833333333333
 41
0.0
 71
     5
 72
     1
  1
{\fArial|b0|i0|c0|p0;1.75}{\fMS Shell Dlg|b0|i0|c0|p0;\H0.9444444x;}
 73
     1
 44
1.0
  0
MTEXT
  5
C9
330
C5
100
AcDbEntity
  8
DIMENSIONS
100
AcDbMText
 10
8.25605858029343
 20
6.377643374946175
 30
0.0
 40
0.0895833333333333
 41
0.0
 71
     5
 72
     1
  1
{\fArial|b0|i0|c0|p0;}
 73
     1
 44
1.0
  0
MTEXT
  5
CA
330
C5
100
AcDbEntity
  8
DIMENSIONS
100
AcDbMText
 10
8.25605858029343
 20
6.377643374946175
 30
0.0
 40
0.0895833333333333
 41
0.0
 71
     5
 72
     1
  1
{\fArial|b0|i0|c0|p0;}
 73
     1
 44
1.0
  0
LINE
  5
CB
330
C5
100
AcDbEntity
  8
DIMENSIONS
100
AcDbLine
 10
8.08244746407186
 20
6.377643374946175
 30
0.0
 11
8.08244746407186
 21
6.377643374946175
 31
0.0
  0
LINE
  5
CC
330
C5
100
AcDbEntity
  8
DIMENSIONS
100
AcDbLine
 10
7.564824382151209
 20
6.217147586852548
 30
0.0
 11
7.564824382151209
 21
6.440143374946175
 31
0.0
  0
LINE
  5
CD
330
C5
100
AcDbEntity
  8
DIMENSIONS
100
AcDbLine
 10
8.002324382151205
 20
6.217147586852548
 30
0.0
 11
8.002324382151205
 21
6.440143374946175
 31
0.0
  0
LWPOLYLINE
  5
CE
330
C5
100
AcDbEntity
  8
DIMENSIONS
100
AcDbPolyline
 90
        4
 70
     0
 43
0.0
 10
7.564824382151209
 20
6.377643374946175
 10
7.654824382151209
 20
6.392643374946174
 10
7.654824382151209
 20
6.362643374946174
 10
7.564824382151209
 20
6.377643374946175
  0
LINE
  5
CF
330
C5
100
AcDbEntity
  8
DIMENSIONS
100
AcDbLine
 10
7.654824382151209
 20
6.377643374946175
 30
0.0
 11
7.912324382151204
 21
6.377643374946175
 31
0.0
  0
LWPOLYLINE
  5
D0
330
C5
100
AcDbEntity
  8
DIMENSIONS
100
AcDbPolyline
 90
        4
 70
     0
 43
0.0
 10
8.002324382151205
 20
6.377643374946175
 10
7.912324382151204
 20
6.362643374946174
 10
7.912324382151204
 20
6.392643374946174
 10
8.002324382151205
 20
6.377643374946175
  0
LINE
  5
D1
330
C5
100
AcDbEntity
  8
DIMENSIONS
100
AcDbLine
 10
8.002324382151205
 20
6.377643374946175
 30
0.0
 11
8.08244746407186
 21
6.377643374946175
 31
0.0
  0
ENDBLK
  5
C7
330
C5
100
AcDbEntity
  8
0
100
AcDbBlockEnd
  0
BLOCK
  5
D4
330
D3
100
AcDbEntity
  8
0
100
AcDbBlockBegin
  2
D8
 70
     0
 10
0.0
 20
0.0
 30
0.0
  3
D8
  1

  0
MTEXT
  5
D6
330
D3
100
AcDbEntity
  8
DIMENSIONS
100
AcDbMText
 10
4.014654685193159
 20
6.230855025644377
 30
0.0
 40
0.0895833333333333
 41
0.0
 71
     5
 72
     1
  1
{\fArial|b0|i0|c0|p0;.88}{\fMS Shell Dlg|b0|i0|c0|p0;\H0.9444444x;}
 73
     1
 44
1.0
  0
MTEXT
  5
D7
330
D3
100
AcDbEntity
  8
DIMENSIONS
100
AcDbMText
 10
4.014654685193159
 20
6.230855025644377
 30
0.0
 40
0.0895833333333333
 41
0.0
 71
     5
 72
     1
  1
{\fArial|b0|i0|c0|p0;}
 73
     1
 44
1.0
  0
MTEXT
  5
D8
330
D3
100
AcDbEntity
  8
DIMENSIONS
100
AcDbMText
 10
3.93826579630427
 20
6.105855025644377
 30
0.0
 40
0.0895833333333333
 41
0.0
 71
     4
 72
     1
  1
{\fArial|b0|i0|c0|p0;TYP}{\fArial|b0|i0|c0|p0;}
 73
     1
 44
1.0
  0
LINE
  5
D9
330
D3
100
AcDbEntity
  8
DIMENSIONS
100
AcDbLine
 10
4.222987933421699
 20
6.230855063190612
 30
0.0
 11
4.222987933421699
 21
6.230855063190612
 31
0.0
  0
LINE
  5
DA
330
D3
100
AcDbEntity
  8
DIMENSIONS
100
AcDbLine
 10
4.283574382151206
 20
6.592147586852547
 30
0.0
 11
4.283574382151206
 21
6.168355025644378
 31
0.0
  0
LINE
  5
DB
330
D3
100
AcDbEntity
  8
DIMENSIONS
100
AcDbLine
 10
4.502324382151206
 20
6.217147586852548
 30
0.0
 11
4.502324382151206
 21
6.293355025644377
 31
0.0
  0
LWPOLYLINE
  5
DC
330
D3
100
AcDbEntity
  8
DIMENSIONS
100
AcDbPolyline
 90
        4
 70
     0
 43
0.0
 10
4.283574382151206
 20
6.230855025644377
 10
4.373574382151206
 20
6.245855025644378
 10
4.373574382151206
 20
6.215855025644378
 10
4.283574382151206
 20
6.230855025644377
  0
LINE
  5
DD
330
D3
100
AcDbEntity
  8
DIMENSIONS
100
AcDbLine
 10
4.283574382151206
 20
6.230855025644377
 30
0.0
 11
4.222987933421699
 21
6.230855063190612
 31
0.0
  0
LWPOLYLINE
  5
DE
330
D3
100
AcDbEntity
  8
DIMENSIONS
100
AcDbPolyline
 90
        4
 70
     0
 43
0.0
 10
4.502324382151206
 20
6.230855025644377
 10
4.412324382151207
 20
6.215855025644378
 10
4.412324382151207
 20
6.245855025644378
 10
4.502324382151206
 20
6.230855025644377
  0
LINE
  5
DF
330
D3
100
AcDbEntity
  8
DIMENSIONS
100
AcDbLine
 10
4.412324382151207
 20
6.230855025644377
 30
0.0
 11
4.373574382151206
 21
6.230855025644377
 31
0.0
  0
ENDBLK
  5
D5
330
D3
100
AcDbEntity
  8
0
100
AcDbBlockEnd
  0
BLOCK
  5
E2
330
E1
100
AcDbEntity
  8
0
100
AcDbBlockBegin
  2
D9
 70
     0
 10
0.0
 20
0.0
 30
0.0
  3
D9
  1

  0
MTEXT
  5
E4
330
E1
100
AcDbEntity
  8
DIMENSIONS
100
AcDbMText
 10
3.733432799812378
 20
5.840459508220042
 30
0.0
 40
0.0895833333333333
 41
0.0
 71
     5
 72
     1
  1
{\fArial|b0|i0|c0|p0;R.13}{\fMS Shell Dlg|b0|i0|c0|p0;\H0.9444444x;}
 73
     1
 44
1.0
  0
MTEXT
  5
E5
330
E1
100
AcDbEntity
  8
DIMENSIONS
100
AcDbMText
 10
3.733432799812378
 20
5.840459508220042
 30
0.0
 40
0.0895833333333333
 41
0.0
 71
     5
 72
     1
  1
{\fArial|b0|i0|c0|p0;}
 73
     1
 44
1.0
  0
MTEXT
  5
E6
330
E1
100
AcDbEntity
  8
DIMENSIONS
100
AcDbMText
 10
3.615377244256822
 20
5.715459508220042
 30
0.0
 40
0.0895833333333333
 41
0.0
 71
     4
 72
     1
  1
{\fArial|b0|i0|c0|p0;REF}{\fArial|b0|i0|c0|p0;}
 73
     1
 44
1.0
  0
LINE
  5
E7
330
E1
100
AcDbEntity
  8
DIMENSIONS
100
AcDbLine
 10
3.913988068347841
 20
5.84045947067381
 30
0.0
 11
4.163988068347841
 21
5.84045947067381
 31
0.0
  0
LINE
  5
E8
330
E1
100
AcDbEntity
  8
DIMENSIONS
100
AcDbLine
 10
4.44123745457973
 20
6.076151340069769
 30
0.0
 11
4.163988068347841
 21
5.84045947067381
 31
0.0
  0
LWPOLYLINE
  5
E9
330
E1
100
AcDbEntity
  8
DIMENSIONS
100
AcDbPolyline
 90
        4
 70
     0
 43
0.0
 10
4.509771221000092
 20
6.134412423230573
 10
4.450915768062064
 20
6.064691295446668
 10
4.431484886236907
 20
6.087548260063537
 10
4.509771221000092
 20
6.134412423230573
  0
ENDBLK
  5
E3
330
E1
100
AcDbEntity
  8
0
100
AcDbBlockEnd
  0
BLOCK
  5
EC
330
EB
100
AcDbEntity
  8
0
100
AcDbBlockBegin
  2
D10
 70
     0
 10
0.0
 20
0.0
 30
0.0
  3
D10
  1

  0
MTEXT
  5
EE
330
EB
100
AcDbEntity
  8
DIMENSIONS
100
AcDbMText
 10
7.125682079885889
 20
6.404647586852548
 30
0.0
 40
0.0895833333333333
 41
0.0
 71
     5
 72
     1
  1
{\fArial|b0|i0|c0|p0;2.00}{\fMS Shell Dlg|b0|i0|c0|p0;\H0.9444444x;}
 73
     1
 44
1.0
  0
MTEXT
  5
EF
330
EB
100
AcDbEntity
  8
DIMENSIONS
100
AcDbMText
 10
7.125682079885889
 20
6.404647586852548
 30
0.0
 40
0.0895833333333333
 41
0.0
 71
     5
 72
     1
  1
{\fArial|b0|i0|c0|p0;}
 73
     1
 44
1.0
  0
MTEXT
  5
F0
330
EB
100
AcDbEntity
  8
DIMENSIONS
100
AcDbMText
 10
7.125682079885889
 20
6.404647586852548
 30
0.0
 40
0.0895833333333333
 41
0.0
 71
     5
 72
     1
  1
{\fArial|b0|i0|c0|p0;}
 73
     1
 44
1.0
  0
LINE
  5
F1
330
EB
100
AcDbEntity
  8
DIMENSIONS
100
AcDbLine
 10
4.346074382151206
 20
6.654647586852548
 30
0.0
 11
7.188182079885889
 21
6.654647586852548
 31
0.0
  0
LINE
  5
F2
330
EB
100
AcDbEntity
  8
DIMENSIONS
100
AcDbLine
 10
7.471074382151206
 20
6.154647586852548
 30
0.0
 11
7.063182079885889
 21
6.154647586852548
 31
0.0
  0
LWPOLYLINE
  5
F3
330
EB
100
AcDbEntity
  8
DIMENSIONS
100
AcDbPolyline
 90
        4
 70
     0
 43
0.0
 10
7.125682079885889
 20
6.654647586852548
 10
7.140682079885889
 20
6.564647586852547
 10
7.110682079885889
 20
6.564647586852547
 10
7.125682079885889
 20
6.654647586852548
  0
LINE
  5
F4
330
EB
100
AcDbEntity
  8
DIMENSIONS
100
AcDbLine
 10
7.125682079885889
 20
6.564647586852547
 30
0.0
 11
7.125682061112773
 21
6.529647586852548
 31
0.0
  0
LWPOLYLINE
  5
F5
330
EB
100
AcDbEntity
  8
DIMENSIONS
100
AcDbPolyline
 90
        4
 70
     0
 43
0.0
 10
7.125682079885889
 20
6.154647586852548
 10
7.110682079885889
 20
6.244647586852548
 10
7.140682079885889
 20
6.244647586852548
 10
7.125682079885889
 20
6.154647586852548
  0
LINE
  5
F6
330
EB
100
AcDbEntity
  8
DIMENSIONS
100
AcDbLine
 10
7.125682079885889
 20
6.244647586852548
 30
0.0
 11
7.125682061112773
 21
6.279647541797068
 31
0.0
  0
ENDBLK
  5
ED
330
EB
100
AcDbEntity
  8
0
100
AcDbBlockEnd
  0
BLOCK
  5
FD
330
FC
100
AcDbEntity
  8
0
100
AcDbBlockBegin
  2
BLOCK6
 70
     0
 10
0.0
 20
0.0
 30
0.0
  3
BLOCK6
  1

  0
LINE
  5
FF
330
FC
100
AcDbEntity
  8
CONTINUOUS
100
AcDbLine
 10
0.0
 20
0.0
 30
0.0
 11
16.00000000000004
 21
0.0
 31
0.0
  0
LINE
  5
100
330
FC
100
AcDbEntity
  8
CONTINUOUS
100
AcDbLine
 10
16.00000000000004
 20
10.0
 30
0.0
 11
0.0
 21
10.0
 31
0.0
  0
LINE
  5
101
330
FC
100
AcDbEntity
  8
CONTINUOUS
100
AcDbLine
 10
0.6200000000000196
 20
0.3800000000000016
 30
0.0
 11
15.37999999999996
 21
0.3800000000000016
 31
0.0
  0
LINE
  5
102
330
FC
100
AcDbEntity
  8
CONTINUOUS
100
AcDbLine
 10
15.38
 20
9.620000000000001
 30
0.0
 11
0.6200000000000393
 21
9.620000000000001
 31
0.0
  0
LWPOLYLINE
  5
103
330
FC
100
AcDbEntity
  8
CONTINUOUS
100
AcDbPolyline
 90
        5
 70
     0
 43
0.0
 10
7.85
 20
0.2300000000000039
 10
8.15
 20
0.2300000000000039
 10
7.999999999999999
 20
0.3800000000000016
 10
7.999999999999999
 20
0.3800000000000016
 10
7.85
 20
0.2300000000000039
  0
LWPOLYLINE
  5
104
330
FC
100
AcDbEntity
  8
CONTINUOUS
100
AcDbPolyline
 90
        5
 70
     0
 43
0.0
 10
7.85
 20
9.77
 10
8.15
 20
9.77
 10
7.999999999999999
 20
9.620000000000001
 10
7.999999999999999
 20
9.620000000000001
 10
7.85
 20
9.77
  0
LINE
  5
105
330
FC
100
AcDbEntity
  8
CONTINUOUS
100
AcDbLine
 10
0.0
 20
10.0
 30
0.0
 11
0.0
 21
0.0
 31
0.0
  0
LINE
  5
106
330
FC
100
AcDbEntity
  8
CONTINUOUS
100
AcDbLine
 10
0.6200000000000393
 20
9.620000000000001
 30
0.0
 11
0.6200000000000196
 21
0.3800000000000016
 31
0.0
  0
LWPOLYLINE
  5
107
330
FC
100
AcDbEntity
  8
CONTINUOUS
100
AcDbPolyline
 90
        5
 70
     0
 43
0.0
 10
0.48
 20
4.85
 10
0.48
 20
5.15
 10
0.6200000000000196
 20
5.0
 10
0.6200000000000196
 20
5.0
 10
0.48
 20
4.85
  0
LINE
  5
108
330
FC
100
AcDbEntity
  8
CONTINUOUS
100
AcDbLine
 10
16.00000000000004
 20
0.0
 30
0.0
 11
16.00000000000004
 21
10.0
 31
0.0
  0
LINE
  5
109
330
FC
100
AcDbEntity
  8
CONTINUOUS
100
AcDbLine
 10
15.38
 20
0.3800000000000016
 30
0.0
 11
15.38
 21
9.620000000000001
 31
0.0
  0
LWPOLYLINE
  5
10A
330
FC
100
AcDbEntity
  8
CONTINUOUS
100
AcDbPolyline
 90
        5
 70
     0
 43
0.0
 10
15.52000000000004
 20
4.85
 10
15.52000000000004
 20
5.15
 10
15.38
 20
5.0
 10
15.38
 20
5.0
 10
15.52000000000004
 20
4.85
  0
LINE
  5
10B
330
FC
100
AcDbEntity
  8
CONTINUOUS
100
AcDbLine
 10
11.13
 20
0.6299999999999999
 30
0.0
 11
15.38
 21
0.6299999999999999
 31
0.0
  0
LINE
  5
10C
330
FC
100
AcDbEntity
  8
CONTINUOUS
100
AcDbLine
 10
11.51
 20
0.6299999999999999
 30
0.0
 11
11.51
 21
1.01
 31
0.0
  0
LINE
  5
10D
330
FC
100
AcDbEntity
  8
CONTINUOUS
100
AcDbLine
 10
12.13
 20
0.3800000000000016
 30
0.0
 11
12.13
 21
0.6299999999999999
 31
0.0
  0
LINE
  5
10E
330
FC
100
AcDbEntity
  8
CONTINUOUS
100
AcDbLine
 10
12.63000000000004
 20
0.6299999999999999
 30
0.0
 11
12.63000000000004
 21
1.01
 31
0.0
  0
LINE
  5
10F
330
FC
100
AcDbEntity
  8
CONTINUOUS
100
AcDbLine
 10
13.63
 20
0.3800000000000016
 30
0.0
 11
13.63
 21
0.6299999999999999
 31
0.0
  0
LINE
  5
110
330
FC
100
AcDbEntity
  8
CONTINUOUS
100
AcDbLine
 10
15.0
 20
0.6299999999999999
 30
0.0
 11
15.0
 21
1.01
 31
0.0
  0
LINE
  5
111
330
FC
100
AcDbEntity
  8
CONTINUOUS
100
AcDbLine
 10
9.879999999999999
 20
9.37
 30
0.0
 11
15.38
 21
9.37
 31
0.0
  0
LINE
  5
112
330
FC
100
AcDbEntity
  8
CONTINUOUS
100
AcDbLine
 10
9.879999999999999
 20
9.12
 30
0.0
 11
15.38
 21
9.12
 31
0.0
  0
LINE
  5
113
330
FC
100
AcDbEntity
  8
CONTINUOUS
100
AcDbLine
 10
9.879999999999999
 20
9.620000000000001
 30
0.0
 11
9.879999999999999
 21
8.5727
 31
0.0
  0
LINE
  5
114
330
FC
100
AcDbEntity
  8
CONTINUOUS
100
AcDbLine
 10
10.38
 20
9.12
 30
0.0
 11
10.38
 21
9.37
 31
0.0
  0
LINE
  5
115
330
FC
100
AcDbEntity
  8
CONTINUOUS
100
AcDbLine
 10
10.76
 20
9.12
 30
0.0
 11
10.76
 21
9.37
 31
0.0
  0
LINE
  5
116
330
FC
100
AcDbEntity
  8
CONTINUOUS
100
AcDbLine
 10
13.50000000000004
 20
9.12
 30
0.0
 11
13.50000000000004
 21
9.37
 31
0.0
  0
LINE
  5
117
330
FC
100
AcDbEntity
  8
CONTINUOUS
100
AcDbLine
 10
14.38
 20
9.12
 30
0.0
 11
14.38
 21
9.37
 31
0.0
  0
LINE
  5
118
330
FC
100
AcDbEntity
  8
CONTINUOUS
100
AcDbLine
 10
7.999999999999999
 20
0.1300000000000051
 30
0.0
 11
7.999999999999999
 21
0.2300000000000039
 31
0.0
  0
LINE
  5
119
330
FC
100
AcDbEntity
  8
CONTINUOUS
100
AcDbLine
 10
0.3800000000000016
 20
5.0
 30
0.0
 11
0.48
 21
5.0
 31
0.0
  0
LINE
  5
11A
330
FC
100
AcDbEntity
  8
CONTINUOUS
100
AcDbLine
 10
7.999999999999999
 20
9.870000000000001
 30
0.0
 11
7.999999999999999
 21
9.77
 31
0.0
  0
LINE
  5
11B
330
FC
100
AcDbEntity
  8
CONTINUOUS
100
AcDbLine
 10
15.62000000000004
 20
5.0
 30
0.0
 11
15.52000000000004
 21
5.0
 31
0.0
  0
LINE
  5
11C
330
FC
100
AcDbEntity
  8
CONTINUOUS
100
AcDbLine
 10
11.13
 20
1.01
 30
0.0
 11
15.38
 21
1.01
 31
0.0
  0
LINE
  5
11D
330
FC
100
AcDbEntity
  8
CONTINUOUS
100
AcDbLine
 10
11.13
 20
0.3800000000000016
 30
0.0
 11
11.13
 21
1.01
 31
0.0
  0
MTEXT
  5
11E
330
FC
100
AcDbEntity
  8
CONTINUOUS
100
AcDbMText
 10
11.572075
 20
0.92736
 30
0.0
 40
0.0696759259259259
 41
0.0
 71
     4
 72
     1
  1
{\fArial|b0|i0|c0|p0;\C7;FSCM NO.}{\fArial|b0|i0|c0|p0;\C7;}
 73
     1
 44
1.0
  0
MTEXT
  5
11F
330
FC
100
AcDbEntity
  8
CONTINUOUS
100
AcDbMText
 10
-0.065749999999989
 20
6.0726
 30
0.0
 40
0.2090277777777778
 41
0.0
 71
     4
 72
     1
  1
{\fArial|b0|i0|c0|p0;\C7;}
 73
     1
 44
1.0
  0
MTEXT
  5
120
330
FC
100
AcDbEntity
  8
CONTINUOUS
100
AcDbMText
 10
15.073675
 20
0.92736
 30
0.0
 40
0.0696759259259259
 41
0.0
 71
     4
 72
     1
  1
{\fArial|b0|i0|c0|p0;\C7;REV}{\fArial|b0|i0|c0|p0;\C7;}
 73
     1
 44
1.0
  0
MTEXT
  5
121
330
FC
100
AcDbEntity
  8
CONTINUOUS
100
AcDbMText
 10
11.175475
 20
0.5450834127254961
 30
0.0
 40
0.0696759259259259
 41
0.0
 71
     4
 72
     1
  1
{\fArial|b0|i0|c0|p0;\C7;SCALE}{\fArial|b0|i0|c0|p0;\C7;}
 73
     1
 44
1.0
  0
MTEXT
  5
122
330
FC
100
AcDbEntity
  8
CONTINUOUS
100
AcDbMText
 10
-0.065749999999989
 20
0.072599999999998
 30
0.0
 40
0.2090277777777778
 41
0.0
 71
     4
 72
     1
  1
{\fArial|b0|i0|c0|p0;\C7;}
 73
     1
 44
1.0
  0
MTEXT
  5
123
330
FC
100
AcDbEntity
  8
CONTINUOUS
100
AcDbMText
 10
13.13451812192602
 20
0.7493454520116338
 30
0.0
 40
0.0895833333333333
 41
0.0
 71
     4
 72
     1
  1
{\fArial|b0|i0|c0|p0;\C7;HOPPER SIDE BIB}{\fArial|b0|i0|c0|p0;\C7;}
 73
     1
 44
1.0
  0
MTEXT
  5
124
330
FC
100
AcDbEntity
  8
CONTINUOUS
100
AcDbMText
 10
9.981875
 20
9.24176
 30
0.0
 40
0.0696759259259259
 41
0.0
 71
     4
 72
     1
  1
{\fArial|b0|i0|c0|p0;\C7;ZONE}{\fArial|b0|i0|c0|p0;\C7;}
 73
     1
 44
1.0
  0
MTEXT
  5
125
330
FC
100
AcDbEntity
  8
CONTINUOUS
100
AcDbMText
 10
11.755175
 20
9.24176
 30
0.0
 40
0.0696759259259259
 41
0.0
 71
     4
 72
     1
  1
{\fArial|b0|i0|c0|p0;\C7;DESCRIPTION}{\fArial|b0|i0|c0|p0;\C7;}
 73
     1
 44
1.0
  0
MTEXT
  5
126
330
FC
100
AcDbEntity
  8
CONTINUOUS
100
AcDbMText
 10
10.453275
 20
9.24176
 30
0.0
 40
0.0696759259259259
 41
0.0
 71
     4
 72
     1
  1
{\fArial|b0|i0|c0|p0;\C7;REV}{\fArial|b0|i0|c0|p0;\C7;}
 73
     1
 44
1.0
  0
MTEXT
  5
127
330
FC
100
AcDbEntity
  8
CONTINUOUS
100
AcDbMText
 10
12.583375
 20
9.48396
 30
0.0
 40
0.0696759259259259
 41
0.0
 71
     4
 72
     1
  1
{\fArial|b0|i0|c0|p0;\C7;REVISIONS}{\fArial|b0|i0|c0|p0;\C7;}
 73
     1
 44
1.0
  0
MTEXT
  5
128
330
FC
100
AcDbEntity
  8
CONTINUOUS
100
AcDbMText
 10
14.614575
 20
9.24176
 30
0.0
 40
0.0696759259259259
 41
0.0
 71
     4
 72
     1
  1
{\fArial|b0|i0|c0|p0;\C7;APPROVED}{\fArial|b0|i0|c0|p0;\C7;}
 73
     1
 44
1.0
  0
MTEXT
  5
129
330
FC
100
AcDbEntity
  8
CONTINUOUS
100
AcDbMText
 10
11.24972726585748
 20
0.7664026305387873
 30
0.0
 40
0.169212962962963
 41
0.0
 71
     4
 72
     1
  1
{\fArial|b0|i0|c0|p0;\C7;B}{\fArial|b0|i0|c0|p0;\C7;}
 73
     1
 44
1.0
  0
MTEXT
  5
12A
330
FC
100
AcDbEntity
  8
CONTINUOUS
100
AcDbMText
 10
11.211075
 20
0.92736
 30
0.0
 40
0.0696759259259259
 41
0.0
 71
     4
 72
     1
  1
{\fArial|b0|i0|c0|p0;\C7;SIZE}{\fArial|b0|i0|c0|p0;\C7;}
 73
     1
 44
1.0
  0
MTEXT
  5
12B
330
FC
100
AcDbEntity
  8
CONTINUOUS
100
AcDbMText
 10
12.694175
 20
0.92736
 30
0.0
 40
0.0696759259259259
 41
0.0
 71
     4
 72
     1
  1
{\fArial|b0|i0|c0|p0;\C7;DWG NO.}{\fArial|b0|i0|c0|p0;\C7;}
 73
     1
 44
1.0
  0
MTEXT
  5
12C
330
FC
100
AcDbEntity
  8
CONTINUOUS
100
AcDbMText
 10
13.6642245309424
 20
0.5392086662977362
 30
0.0
 40
0.0696759259259259
 41
0.0
 71
     4
 72
     1
  1
{\fArial|b0|i0|c0|p0;\C7;SHEET}{\fArial|b0|i0|c0|p0;\C7;}
 73
     1
 44
1.0
  0
MTEXT
  5
12D
330
FC
100
AcDbEntity
  8
CONTINUOUS
100
AcDbMText
 10
13.820875
 20
9.24176
 30
0.0
 40
0.0696759259259259
 41
0.0
 71
     4
 72
     1
  1
{\fArial|b0|i0|c0|p0;\C7;DATE}{\fArial|b0|i0|c0|p0;\C7;}
 73
     1
 44
1.0
  0
MTEXT
  5
12E
330
FC
100
AcDbEntity
  8
CONTINUOUS
100
AcDbMText
 10
-0.065749999999989
 20
3.072599999999992
 30
0.0
 40
0.2090277777777778
 41
0.0
 71
     4
 72
     1
  1
{\fArial|b0|i0|c0|p0;\C7;}
 73
     1
 44
1.0
  0
ENDBLK
  5
FE
330
FC
100
AcDbEntity
  8
0
100
AcDbBlockEnd
  0
ENDSEC
  0
SECTION
  2
ENTITIES
  0
LINE
  5
5E
330
1F
100
AcDbEntity
  8
VISIBLE
100
AcDbLine
 10
8.033574382151206
 20
6.185897586852549
 30
0.0
 11
11.0335743821512
 21
6.185897586852548
 31
0.0
  0
LINE
  5
5F
330
1F
100
AcDbEntity
  8
VISIBLE
100
AcDbLine
 10
11.2835743821512
 20
3.154647586852548
 30
0.0
 11
4.283574382151206
 21
3.154647586852547
 31
0.0
  0
ARC
  5
60
330
1F
100
AcDbEntity
  8
VISIBLE
100
AcDbCircle
 10
4.533574382151207
 20
6.154647586852548
 30
0.0
 40
0.03125
100
AcDbArc
 50
90.0
 51
270.0
  0
ARC
  5
61
330
1F
100
AcDbEntity
  8
VISIBLE
100
AcDbCircle
 10
7.533574382151206
 20
6.154647586852548
 30
0.0
 40
0.0312500000000027
100
AcDbArc
 50
270.0
 51
90.0
  0
LINE
  5
62
330
1F
100
AcDbEntity
  8
VISIBLE
100
AcDbLine
 10
11.0335743821512
 20
6.123397586852548
 30
0.0
 11
8.033574382151206
 21
6.123397586852545
 31
0.0
  0
CIRCLE
  5
63
330
1F
100
AcDbEntity
  8
VISIBLE
100
AcDbCircle
 10
6.471074382151206
 20
6.404647586852548
 30
0.0
 40
0.125
  0
ARC
  5
64
330
1F
100
AcDbEntity
  8
VISIBLE
100
AcDbCircle
 10
8.033574382151206
 20
6.154647586852548
 30
0.0
 40
0.0312500000000018
100
AcDbArc
 50
90.0
 51
270.0
  0
CIRCLE
  5
65
330
1F
100
AcDbEntity
  8
VISIBLE
100
AcDbCircle
 10
9.096074382151206
 20
6.404647586852548
 30
0.0
 40
0.125
  0
LINE
  5
66
330
1F
100
AcDbEntity
  8
VISIBLE
100
AcDbLine
 10
4.533574382151207
 20
6.185897586852547
 30
0.0
 11
7.533574382151206
 21
6.185897586852549
 31
0.0
  0
LINE
  5
67
330
1F
100
AcDbEntity
  8
VISIBLE
100
AcDbLine
 10
4.283574382151206
 20
3.154647586852547
 30
0.0
 11
4.283574382151206
 21
6.654647586852548
 31
0.0
  0
LINE
  5
68
330
1F
100
AcDbEntity
  8
VISIBLE
100
AcDbLine
 10
11.2835743821512
 20
6.654647586852548
 30
0.0
 11
11.2835743821512
 21
3.154647586852548
 31
0.0
  0
ARC
  5
69
330
1F
100
AcDbEntity
  8
VISIBLE
100
AcDbCircle
 10
11.0335743821512
 20
6.154647586852548
 30
0.0
 40
0.03125
100
AcDbArc
 50
270.0
 51
90.0
  0
LINE
  5
6A
330
1F
100
AcDbEntity
  8
VISIBLE
100
AcDbLine
 10
4.283574382151206
 20
6.654647586852548
 30
0.0
 11
11.2835743821512
 21
6.654647586852548
 31
0.0
  0
LINE
  5
6B
330
1F
100
AcDbEntity
  8
VISIBLE
100
AcDbLine
 10
7.533574382151206
 20
6.123397586852545
 30
0.0
 11
4.533574382151207
 21
6.123397586852548
 31
0.0
  0
LINE
  5
6E
330
1F
100
AcDbEntity
  8
BEND CENTERS
100
AcDbLine
 10
7.783574382151206
 20
6.890543539693037
 30
0.0
 11
7.783574382151206
 21
2.958247868094857
 31
0.0
  0
DIMENSION
  5
70
330
1F
100
AcDbEntity
  8
DIMENSIONS
100
AcDbDimension
  2
D1
 10
0.0
 20
0.0
 30
0.0
 11
15.56714876430241
 21
7.680112583430732
 31
0.0
 70
    32
  1
<>
 71
     5
 42
-1.0
 53
180.0
  3
Standard
100
AcDbAlignedDimension
 13
11.2835743821512
 23
3.154647586852548
 33
0.0
 14
4.283574382151206
 24
3.154647586852547
 34
0.0
 50
180.0
100
AcDbRotatedDimension
1001
ACAD
1000
DSTYLE
1002
{
1070
    76
1070
     0
1070
    75
1070
     0
1070
   282
1070
     0
1070
   281
1070
     0
1070
    77
1070
     0
1070
    79
1070
     0
1070
    78
1070
     0
1070
   272
1070
     2
1070
   271
1070
     2
1070
   179
1070
     2
1070
   140
1040
0.0895833333333333
1070
    71
1070
     0
1070
    72
1070
     0
1070
    48
1040
0.0000787401574803
1070
    47
1040
0.0001968503937008
1002
}
  0
DIMENSION
  5
7D
330
1F
100
AcDbEntity
  8
DIMENSIONS
100
AcDbDimension
  2
D2
 10
0.0
 20
0.0
 30
0.0
 11
11.01510836383489
 21
9.809295173705095
 31
0.0
 70
    32
  1
<>
 71
     5
 42
-1.0
 53
90.0
  3
Standard
100
AcDbAlignedDimension
 13
4.283574382151206
 23
3.154647586852547
 33
0.0
 14
4.283574382151206
 24
6.654647586852548
 34
0.0
 50
90.0
100
AcDbRotatedDimension
1001
ACAD
1000
DSTYLE
1002
{
1070
    76
1070
     0
1070
    75
1070
     0
1070
   282
1070
     0
1070
   281
1070
     0
1070
    77
1070
     0
1070
    79
1070
     0
1070
    78
1070
     0
1070
   272
1070
     3
1070
   271
1070
     3
1070
   179
1070
     3
1070
   140
1040
0.0895833333333333
1070
    71
1070
     0
1070
    72
1070
     0
1070
    48
1040
0.0000787401574803
1070
    47
1040
0.0001968503937008
1002
}
  0
DIMENSION
  5
8A
330
1F
100
AcDbEntity
  8
DIMENSIONS
100
AcDbDimension
  2
D3
 10
6.407038435774638
 20
6.297295839909812
 30
0.0
 11
16.14927096629706
 21
12.21149895134873
 31
0.0
 70
    35
  1
<>TYP 2 PL\P
 71
     5
 42
-1.0
  3
Standard
100
AcDbDiametricDimension
 15
6.535110328527776
 25
6.511999333795283
 35
0.0
 40
0.0
1001
ACAD
1000
DSTYLE
1002
{
1070
    76
1070
     0
1070
    75
1070
     0
1070
   282
1070
     0
1070
   281
1070
     0
1070
    77
1070
     0
1070
    79
1070
     0
1070
    78
1070
     0
1070
   272
1070
     2
1070
   271
1070
     2
1070
   179
1070
     2
1070
   140
1040
0.0895833333333333
1070
    71
1070
     0
1070
    72
1070
     0
1070
    48
1040
0.25
1070
    47
1040
0.0001968503937008
1002
}
  0
DIMENSION
  5
9B
330
1F
100
AcDbEntity
  8
DIMENSIONS
100
AcDbDimension
  2
D4
 10
0.0
 20
0.0
 30
0.0
 11
13.16089876430241
 21
11.73726599986159
 31
0.0
 70
    32
  1
<>
 71
     5
 42
-1.0
 53
180.0
  3
Standard
100
AcDbAlignedDimension
 13
4.283574382151206
 23
6.654647586852548
 33
0.0
 14
6.471074382151206
 24
6.404647586852548
 34
0.0
 50
180.0
100
AcDbRotatedDimension
1001
ACAD
1000
DSTYLE
1002
{
1070
    76
1070
     0
1070
    75
1070
     0
1070
   282
1070
     0
1070
   281
1070
     0
1070
    77
1070
     0
1070
    79
1070
     0
1070
    78
1070
     0
1070
   272
1070
     2
1070
   271
1070
     2
1070
   179
1070
     2
1070
   140
1040
0.0895833333333333
1070
    71
1070
     0
1070
    72
1070
     0
1070
    48
1040
0.0000787401574803
1070
    47
1040
0.0001968503937008
1002
}
  0
DIMENSION
  5
A8
330
1F
100
AcDbEntity
  8
DIMENSIONS
100
AcDbDimension
  2
D5
 10
0.0
 20
0.0
 30
0.0
 11
14.90395613542692
 21
11.73038092185193
 31
0.0
 70
    32
  1
<>
 71
     5
 42
-1.0
 53
90.0
  3
Standard
100
AcDbAlignedDimension
 13
4.283574382151206
 23
6.654647586852548
 33
0.0
 14
6.471074382151206
 24
6.404647586852548
 34
0.0
 50
90.0
100
AcDbRotatedDimension
1001
ACAD
1000
DSTYLE
1002
{
1070
    76
1070
     0
1070
    75
1070
     0
1070
   282
1070
     0
1070
   281
1070
     0
1070
    77
1070
     0
1070
    79
1070
     0
1070
    78
1070
     0
1070
   272
1070
     3
1070
   271
1070
     3
1070
   179
1070
     3
1070
   140
1040
0.0895833333333333
1070
    71
1070
     0
1070
    72
1070
     0
1070
    48
1040
0.0000787401574803
1070
    47
1040
0.0001968503937008
1002
}
  0
DIMENSION
  5
B6
330
1F
100
AcDbEntity
  8
DIMENSIONS
100
AcDbDimension
  2
D6
 10
0.0
 20
0.0
 30
0.0
 11
13.20168863131305
 21
10.83613658514549
 31
0.0
 70
    32
  1
<>
 71
     5
 42
-1.0
 53
90.0
  3
Standard
100
AcDbAlignedDimension
 13
4.533574382151207
 23
6.185897586852547
 33
0.0
 14
4.533574382151207
 24
6.123397586852548
 34
0.0
 50
90.0
100
AcDbRotatedDimension
1001
ACAD
1000
DSTYLE
1002
{
1070
    76
1070
     0
1070
    75
1070
     0
1070
   282
1070
     0
1070
   281
1070
     0
1070
    77
1070
     0
1070
    79
1070
     0
1070
    78
1070
     0
1070
   272
1070
     3
1070
   271
1070
     3
1070
   179
1070
     3
1070
   140
1040
0.0895833333333333
1070
    71
1070
     0
1070
    72
1070
     0
1070
    48
1040
0.0000787401574803
1070
    47
1040
0.0001968503937008
1002
}
  0
DIMENSION
  5
C4
330
1F
100
AcDbEntity
  8
DIMENSIONS
100
AcDbDimension
  2
D7
 10
0.0
 20
0.0
 30
0.0
 11
16.03963296244464
 21
11.28229096179872
 31
0.0
 70
    32
  1
<>
 71
     5
 42
-1.0
  3
Standard
100
AcDbAlignedDimension
 13
7.564824382151209
 23
6.154647586852548
 33
0.0
 14
8.002324382151205
 24
6.154647586852548
 34
0.0
100
AcDbRotatedDimension
1001
ACAD
1000
DSTYLE
1002
{
1070
    76
1070
     0
1070
    75
1070
     0
1070
   282
1070
     0
1070
   281
1070
     0
1070
    77
1070
     0
1070
    79
1070
     0
1070
    78
1070
     0
1070
   272
1070
     2
1070
   271
1070
     2
1070
   179
1070
     2
1070
   140
1040
0.0895833333333333
1070
    71
1070
     0
1070
    72
1070
     0
1070
    48
1040
0.0000787401574803
1070
    47
1040
0.0001968503937008
1002
}
  0
DIMENSION
  5
D2
330
1F
100
AcDbEntity
  8
DIMENSIONS
100
AcDbDimension
  2
D8
 10
0.0
 20
0.0
 30
0.0
 11
11.79822906734437
 21
11.13550261249692
 31
0.0
 70
    32
  1
<>TYP\P
 71
     5
 42
-1.0
 53
180.0
  3
Standard
100
AcDbAlignedDimension
 13
4.283574382151206
 23
6.654647586852548
 33
0.0
 14
4.502324382151206
 24
6.154647586852548
 34
0.0
 50
180.0
100
AcDbRotatedDimension
1001
ACAD
1000
DSTYLE
1002
{
1070
    76
1070
     0
1070
    75
1070
     0
1070
   282
1070
     0
1070
   281
1070
     0
1070
    77
1070
     0
1070
    79
1070
     0
1070
    78
1070
     0
1070
   272
1070
     2
1070
   271
1070
     2
1070
   179
1070
     2
1070
   140
1040
0.0895833333333333
1070
    71
1070
     0
1070
    72
1070
     0
1070
    48
1040
0.0000787401574803
1070
    47
1040
0.0001968503937008
1002
}
  0
DIMENSION
  5
E0
330
1F
100
AcDbEntity
  8
DIMENSIONS
100
AcDbDimension
  2
D9
 10
4.533574382151207
 20
6.154647586852548
 30
0.0
 11
11.51700718196359
 21
10.74510709507259
 31
0.0
 70
    36
  1
<>REF\P
 71
     5
 42
-1.0
  3
Standard
100
AcDbRadialDimension
 15
4.506343349389871
 25
6.139316789262367
 35
0.0
 40
0.0
1001
ACAD
1000
DSTYLE
1002
{
1070
    76
1070
     0
1070
    75
1070
     0
1070
   282
1070
     0
1070
   281
1070
     0
1070
    77
1070
     0
1070
    79
1070
     0
1070
    78
1070
     0
1070
   272
1070
     2
1070
   271
1070
     2
1070
   179
1070
     2
1070
   140
1040
0.0895833333333333
1070
    71
1070
     0
1070
    72
1070
     0
1070
    48
1040
0.0000787401574803
1070
    47
1040
0.0001968503937008
1002
}
  0
DIMENSION
  5
EA
330
1F
100
AcDbEntity
  8
DIMENSIONS
100
AcDbDimension
  2
D10
 10
0.0
 20
0.0
 30
0.0
 11
14.9092564620371
 21
11.3092951737051
 31
0.0
 70
    32
  1
<>
 71
     5
 42
-1.0
 53
90.0
  3
Standard
100
AcDbAlignedDimension
 13
4.283574382151206
 23
6.654647586852548
 33
0.0
 14
7.533574382151206
 24
6.154647586852548
 34
0.0
 50
90.0
100
AcDbRotatedDimension
1001
ACAD
1000
DSTYLE
1002
{
1070
    76
1070
     0
1070
    75
1070
     0
1070
   282
1070
     0
1070
   281
1070
     0
1070
    77
1070
     0
1070
    79
1070
     0
1070
    78
1070
     0
1070
   272
1070
     2
1070
   271
1070
     2
1070
   179
1070
     2
1070
   140
1040
0.0895833333333333
1070
    71
1070
     0
1070
    72
1070
     0
1070
    48
1040
0.0000787401574803
1070
    47
1040
0.0001968503937008
1002
}
  0
MTEXT
  5
F7
330
1F
100
AcDbEntity
  8
BEND CENTERS
100
AcDbMText
 10
7.707534549743172
 20
7.097433832123524
 30
0.0
 40
0.1393518518518518
 41
0.0
 71
     1
 72
     1
  1
{\fArial|b0|i0|c0|p0;\C7;C}{\fArial|b0|i0|c0|p0;\C7;\H0.642857134x;}
 73
     1
 44
1.0
  0
MTEXT
  5
F8
330
1F
100
AcDbEntity
  8
BEND CENTERS
100
AcDbMText
 10
7.746162714920645
 20
7.051079553318775
 30
0.0
 40
0.1393518518518518
 41
0.0
 71
     1
 72
     1
  1
{\fArial|b0|i0|c0|p0;\C7;L}{\fArial|b0|i0|c0|p0;\C7;\H0.642857134x;}
 73
     1
 44
1.0
  0
MTEXT
  5
F9
330
1F
100
AcDbEntity
  8
BEND CENTERS
100
AcDbMText
 10
6.711639644592766
 20
2.298385025384858
 30
0.0
 40
0.1393518518518518
 41
0.0
 71
     1
 72
     1
  1
{\fArial|b0|i0|c0|p0;\C7;BLANK PRIOR TO BENDING}{\fArial|b0|i0|c0|p0;\C7;\H0.642857134x;}
 73
     1
 44
1.0
  0
INSERT
  5
FB
330
1F
100
AcDbEntity
  8
CONTINUOUS
100
AcDbBlockReference
  2
BLOCK6
 10
0.0
 20
0.0
 30
0.0
  0
MTEXT
  5
12F
330
1F
100
AcDbEntity
  8
BEND CENTERS
100
AcDbMText
 10
14.08300925427534
 20
0.5656718066358192
 30
0.0
 40
0.1393518518518518
 41
0.0
 71
     1
 72
     1
  1
{\fArial|b0|i0|c0|p0;\C7;2 OF 2}{\fArial|b0|i0|c0|p0;\C7;\H0.642857134x;}
 73
     1
 44
1.0
  0
MTEXT
  5
130
330
1F
100
AcDbEntity
  8
BEND CENTERS
100
AcDbMText
 10
15.11088934470349
 20
0.8940293019212138
 30
0.0
 40
0.1990740740740741
 41
0.0
 71
     1
 72
     1
  1
{\fArial|b0|i0|c0|p0;\C7;B}{\fArial|b0|i0|c0|p0;\C7;\H0.45x;}
 73
     1
 44
1.0
  0
ENDSEC
  0
SECTION
  2
OBJECTS
  0
DICTIONARY
  5
C
330
0
100
AcDbDictionary
281
     1
  3
ACAD_GROUP
350
D
  3
ACAD_LAYOUT
350
1A
  3
ACAD_MLEADERSTYLE
350
134
  3
ACAD_MLINESTYLE
350
17
  3
ACAD_PLOTSETTINGS
350
19
  3
ACAD_PLOTSTYLENAME
350
E
  3
ACAD_SCALELIST
350
3B
  3
ACAD_TABLESTYLE
350
133
  3
ACAD_VISUALSTYLE
350
2A
  3
AcDbVariableDictionary
350
131
  0
DICTIONARY
  5
D
102
{ACAD_REACTORS
330
C
102
}
330
C
100
AcDbDictionary
281
     1
  0
DICTIONARY
  5
1A
102
{ACAD_REACTORS
330
C
102
}
330
C
100
AcDbDictionary
281
     1
  3
Layout1
350
1E
  3
Layout2
350
26
  3
Model
350
22
  0
DICTIONARY
  5
134
102
{ACAD_REACTORS
330
C
102
}
330
C
100
AcDbDictionary
281
     1
  0
DICTIONARY
  5
17
102
{ACAD_REACTORS
330
C
102
}
330
C
100
AcDbDictionary
281
     1
  3
Standard
350
18
  0
DICTIONARY
  5
19
102
{ACAD_REACTORS
330
C
102
}
330
C
100
AcDbDictionary
281
     1
  0
ACDBDICTIONARYWDFLT
  5
E
102
{ACAD_REACTORS
330
C
102
}
330
C
100
AcDbDictionary
281
     1
  3
Normal
350
F
100
AcDbDictionaryWithDefault
340
F
  0
DICTIONARY
  5
3B
102
{ACAD_REACTORS
330
C
102
}
330
C
100
AcDbDictionary
281
     1
  3
A0
350
3C
  3
A1
350
3D
  3
A2
350
3E
  3
A3
350
3F
  3
A4
350
40
  3
A5
350
41
  3
A6
350
42
  3
A7
350
43
  3
A8
350
44
  3
A9
350
45
  3
B0
350
46
  3
B1
350
47
  3
B2
350
48
  3
B3
350
49
  3
B4
350
4A
  3
B5
350
4B
  3
B6
350
4C
  3
B7
350
4D
  3
B8
350
4E
  3
B9
350
4F
  3
C0
350
50
  3
C1
350
51
  3
C2
350
52
  3
C3
350
53
  3
C4
350
54
  3
C5
350
55
  3
C6
350
56
  3
C7
350
57
  3
C8
350
58
  3
C9
350
59
  3
D0
350
5A
  3
D1
350
5B
  3
D2
350
5C
  0
DICTIONARY
  5
133
102
{ACAD_REACTORS
330
C
102
}
330
C
100
AcDbDictionary
281
     1
  0
DICTIONARY
  5
2A
102
{ACAD_REACTORS
330
C
102
}
330
C
100
AcDbDictionary
281
     1
  3
2dWireframe
350
2F
  3
3D Hidden
350
31
  3
3dWireframe
350
30
  3
Basic
350
32
  3
Brighten
350
36
  3
ColorChange
350
3A
  3
Conceptual
350
34
  3
Dim
350
35
  3
Facepattern
350
39
  3
Flat
350
2B
  3
FlatWithEdges
350
2C
  3
Gouraud
350
2D
  3
GouraudWithEdges
350
2E
  3
Linepattern
350
38
  3
Realistic
350
33
  3
Thicken
350
37
  0
DICTIONARY
  5
131
102
{ACAD_REACTORS
330
C
102
}
330
C
100
AcDbDictionary
281
     1
  3
CANNOSCALE
350
132
  0
LAYOUT
  5
1E
102
{ACAD_REACTORS
330
1A
102
}
330
1A
100
AcDbPlotSettings
  1

  2
none_device
  4

  6

 40
0.0
 41
0.0
 42
0.0
 43
0.0
 44
0.0
 45
0.0
 46
0.0
 47
0.0
 48
0.0
 49
0.0
140
0.0
141
0.0
142
1.0
143
1.0
 70
   688
 72
     0
 73
     0
 74
     5
  7

 75
    16
147
1.0
148
0.0
149
0.0
100
AcDbLayout
  1
Layout1
 70
     1
 71
     1
 10
0.0
 20
0.0
 11
12.0
 21
9.0
 12
0.0
 22
0.0
 32
0.0
 14
1.000000000000000E+20
 24
1.000000000000000E+20
 34
1.000000000000000E+20
 15
-1.000000000000000E+20
 25
-1.000000000000000E+20
 35
-1.000000000000000E+20
146
0.0
 13
0.0
 23
0.0
 33
0.0
 16
1.0
 26
0.0
 36
0.0
 17
0.0
 27
1.0
 37
0.0
 76
     0
330
1B
  0
LAYOUT
  5
26
102
{ACAD_REACTORS
330
1A
102
}
330
1A
100
AcDbPlotSettings
  1

  2
none_device
  4

  6

 40
0.0
 41
0.0
 42
0.0
 43
0.0
 44
0.0
 45
0.0
 46
0.0
 47
0.0
 48
0.0
 49
0.0
140
0.0
141
0.0
142
1.0
143
1.0
 70
   688
 72
     0
 73
     0
 74
     5
  7

 75
    16
147
1.0
148
0.0
149
0.0
100
AcDbLayout
  1
Layout2
 70
     1
 71
     2
 10
0.0
 20
0.0
 11
0.0
 21
0.0
 12
0.0
 22
0.0
 32
0.0
 14
0.0
 24
0.0
 34
0.0
 15
0.0
 25
0.0
 35
0.0
146
0.0
 13
0.0
 23
0.0
 33
0.0
 16
1.0
 26
0.0
 36
0.0
 17
0.0
 27
1.0
 37
0.0
 76
     0
330
23
  0
LAYOUT
  5
22
102
{ACAD_REACTORS
330
1A
102
}
330
1A
100
AcDbPlotSettings
  1

  2
none_device
  4

  6

 40
0.0
 41
0.0
 42
0.0
 43
0.0
 44
0.0
 45
0.0
 46
0.0
 47
0.0
 48
0.0
 49
0.0
140
0.0
141
0.0
142
1.0
143
1.0
 70
  1712
 72
     0
 73
     0
 74
     0
  7

 75
     0
147
1.0
148
0.0
149
0.0
100
AcDbLayout
  1
Model
 70
     1
 71
     0
 10
0.0
 20
0.0
 11
12.0
 21
9.0
 12
0.0
 22
0.0
 32
0.0
 14
1.000000000000000E+20
 24
1.000000000000000E+20
 34
1.000000000000000E+20
 15
-1.000000000000000E+20
 25
-1.000000000000000E+20
 35
-1.000000000000000E+20
146
0.0
 13
0.0
 23
0.0
 33
0.0
 16
1.0
 26
0.0
 36
0.0
 17
0.0
 27
1.0
 37
0.0
 76
     0
330
1F
331
29
  0
MLINESTYLE
  5
18
102
{ACAD_REACTORS
330
17
102
}
330
17
100
AcDbMlineStyle
  2
Standard
 70
     0
  3

 62
   256
 51
90.0
 52
90.0
 71
     2
 49
0.5
 62
   256
  6
BYLAYER
 49
-0.5
 62
   256
  6
BYLAYER
  0
ACDBPLACEHOLDER
  5
F
102
{ACAD_REACTORS
330
E
102
}
330
E
  0
SCALE
  5
3C
102
{ACAD_REACTORS
330
3B
102
}
330
3B
100
AcDbScale
 70
     0
300
1:1
140
1.0
141
1.0
290
     1
  0
SCALE
  5
3D
102
{ACAD_REACTORS
330
3B
102
}
330
3B
100
AcDbScale
 70
     0
300
1:2
140
1.0
141
2.0
290
     0
  0
SCALE
  5
3E
102
{ACAD_REACTORS
330
3B
102
}
330
3B
100
AcDbScale
 70
     0
300
1:4
140
1.0
141
4.0
290
     0
  0
SCALE
  5
3F
102
{ACAD_REACTORS
330
3B
102
}
330
3B
100
AcDbScale
 70
     0
300
1:5
140
1.0
141
5.0
290
     0
  0
SCALE
  5
40
102
{ACAD_REACTORS
330
3B
102
}
330
3B
100
AcDbScale
 70
     0
300
1:8
140
1.0
141
8.0
290
     0
  0
SCALE
  5
41
102
{ACAD_REACTORS
330
3B
102
}
330
3B
100
AcDbScale
 70
     0
300
1:10
140
1.0
141
10.0
290
     0
  0
SCALE
  5
42
102
{ACAD_REACTORS
330
3B
102
}
330
3B
100
AcDbScale
 70
     0
300
1:16
140
1.0
141
16.0
290
     0
  0
SCALE
  5
43
102
{ACAD_REACTORS
330
3B
102
}
330
3B
100
AcDbScale
 70
     0
300
1:20
140
1.0
141
20.0
290
     0
  0
SCALE
  5
44
102
{ACAD_REACTORS
330
3B
102
}
330
3B
100
AcDbScale
 70
     0
300
1:30
140
1.0
141
30.0
290
     0
  0
SCALE
  5
45
102
{ACAD_REACTORS
330
3B
102
}
330
3B
100
AcDbScale
 70
     0
300
1:40
140
1.0
141
40.0
290
     0
  0
SCALE
  5
46
102
{ACAD_REACTORS
330
3B
102
}
330
3B
100
AcDbScale
 70
     0
300
1:50
140
1.0
141
50.0
290
     0
  0
SCALE
  5
47
102
{ACAD_REACTORS
330
3B
102
}
330
3B
100
AcDbScale
 70
     0
300
1:100
140
1.0
141
100.0
290
     0
  0
SCALE
  5
48
102
{ACAD_REACTORS
330
3B
102
}
330
3B
100
AcDbScale
 70
     0
300
2:1
140
2.0
141
1.0
290
     0
  0
SCALE
  5
49
102
{ACAD_REACTORS
330
3B
102
}
330
3B
100
AcDbScale
 70
     0
300
4:1
140
4.0
141
1.0
290
     0
  0
SCALE
  5
4A
102
{ACAD_REACTORS
330
3B
102
}
330
3B
100
AcDbScale
 70
     0
300
8:1
140
8.0
141
1.0
290
     0
  0
SCALE
  5
4B
102
{ACAD_REACTORS
330
3B
102
}
330
3B
100
AcDbScale
 70
     0
300
10:1
140
10.0
141
1.0
290
     0
  0
SCALE
  5
4C
102
{ACAD_REACTORS
330
3B
102
}
330
3B
100
AcDbScale
 70
     0
300
100:1
140
100.0
141
1.0
290
     0
  0
SCALE
  5
4D
102
{ACAD_REACTORS
330
3B
102
}
330
3B
100
AcDbScale
 70
     0
300
1/128" = 1'-0"
140
0.0078125
141
12.0
290
     0
  0
SCALE
  5
4E
102
{ACAD_REACTORS
330
3B
102
}
330
3B
100
AcDbScale
 70
     0
300
1/64" = 1'-0"
140
0.015625
141
12.0
290
     0
  0
SCALE
  5
4F
102
{ACAD_REACTORS
330
3B
102
}
330
3B
100
AcDbScale
 70
     0
300
1/32" = 1'-0"
140
0.03125
141
12.0
290
     0
  0
SCALE
  5
50
102
{ACAD_REACTORS
330
3B
102
}
330
3B
100
AcDbScale
 70
     0
300
1/16" = 1'-0"
140
0.0625
141
12.0
290
     0
  0
SCALE
  5
51
102
{ACAD_REACTORS
330
3B
102
}
330
3B
100
AcDbScale
 70
     0
300
3/32" = 1'-0"
140
0.09375
141
12.0
290
     0
  0
SCALE
  5
52
102
{ACAD_REACTORS
330
3B
102
}
330
3B
100
AcDbScale
 70
     0
300
1/8" = 1'-0"
140
0.125
141
12.0
290
     0
  0
SCALE
  5
53
102
{ACAD_REACTORS
330
3B
102
}
330
3B
100
AcDbScale
 70
     0
300
3/16" = 1'-0"
140
0.1875
141
12.0
290
     0
  0
SCALE
  5
54
102
{ACAD_REACTORS
330
3B
102
}
330
3B
100
AcDbScale
 70
     0
300
1/4" = 1'-0"
140
0.25
141
12.0
290
     0
  0
SCALE
  5
55
102
{ACAD_REACTORS
330
3B
102
}
330
3B
100
AcDbScale
 70
     0
300
3/8" = 1'-0"
140
0.375
141
12.0
290
     0
  0
SCALE
  5
56
102
{ACAD_REACTORS
330
3B
102
}
330
3B
100
AcDbScale
 70
     0
300
1/2" = 1'-0"
140
0.5
141
12.0
290
     0
  0
SCALE
  5
57
102
{ACAD_REACTORS
330
3B
102
}
330
3B
100
AcDbScale
 70
     0
300
3/4" = 1'-0"
140
0.75
141
12.0
290
     0
  0
SCALE
  5
58
102
{ACAD_REACTORS
330
3B
102
}
330
3B
100
AcDbScale
 70
     0
300
1" = 1'-0"
140
1.0
141
12.0
290
     0
  0
SCALE
  5
59
102
{ACAD_REACTORS
330
3B
102
}
330
3B
100
AcDbScale
 70
     0
300
1-1/2" = 1'-0"
140
1.5
141
12.0
290
     0
  0
SCALE
  5
5A
102
{ACAD_REACTORS
330
3B
102
}
330
3B
100
AcDbScale
 70
     0
300
3" = 1'-0"
140
3.0
141
12.0
290
     0
  0
SCALE
  5
5B
102
{ACAD_REACTORS
330
3B
102
}
330
3B
100
AcDbScale
 70
     0
300
6" = 1'-0"
140
6.0
141
12.0
290
     0
  0
SCALE
  5
5C
102
{ACAD_REACTORS
330
3B
102
}
330
3B
100
AcDbScale
 70
     0
300
1'-0" = 1'-0"
140
12.0
141
12.0
290
     0
  0
VISUALSTYLE
  5
2F
102
{ACAD_REACTORS
330
2A
102
}
330
2A
100
AcDbVisualStyle
  2
2dWireframe
 70
     4
 71
     0
 72
     2
 73
     0
 90
        0
 40
-0.6
 41
-30.0
 62
     5
 63
     7
 74
     1
 91
        4
 64
     7
 65
   257
 75
     1
175
     1
 42
1.0
 92
        0
 66
   257
 43
1.0
 76
     1
 77
     6
 78
     2
 67
     7
 79
     5
170
     0
171
     0
290
     0
174
     0
 93
        1
 44
0.0
173
     0
291
     0
 45
0.0
1001
ACAD
1000
AcDbSavedByObjectVersion
1070
     0
  0
VISUALSTYLE
  5
31
102
{ACAD_REACTORS
330
2A
102
}
330
2A
100
AcDbVisualStyle
  2
3D Hidden
 70
     6
 71
     1
 72
     2
 73
     2
 90
        0
 40
-0.6
 41
-30.0
 62
     5
 63
     7
 74
     2
 91
        2
 64
     7
 65
   257
 75
     2
175
     1
 42
40.0
 92
        0
 66
   257
 43
1.0
 76
     1
 77
     6
 78
     2
 67
     7
 79
     3
170
     0
171
     0
290
     0
174
     0
 93
        1
 44
0.0
173
     0
291
     0
 45
0.0
1001
ACAD
1000
AcDbSavedByObjectVersion
1070
     0
  0
VISUALSTYLE
  5
30
102
{ACAD_REACTORS
330
2A
102
}
330
2A
100
AcDbVisualStyle
  2
3dWireframe
 70
     5
 71
     0
 72
     2
 73
     0
 90
        0
 40
-0.6
 41
-30.0
 62
     5
 63
     7
 74
     1
 91
        4
 64
     7
 65
   257
 75
     1
175
     1
 42
1.0
 92
        0
 66
   257
 43
1.0
 76
     1
 77
     6
 78
     2
 67
     7
 79
     5
170
     0
171
     0
290
     0
174
     0
 93
        1
 44
0.0
173
     0
291
     0
 45
0.0
1001
ACAD
1000
AcDbSavedByObjectVersion
1070
     0
  0
VISUALSTYLE
  5
32
102
{ACAD_REACTORS
330
2A
102
}
330
2A
100
AcDbVisualStyle
  2
Basic
 70
     7
 71
     1
 72
     0
 73
     1
 90
        0
 40
-0.6
 41
-30.0
 62
     5
 63
     7
 74
     0
 91
        4
 64
     7
 65
   257
 75
     1
175
     1
 42
1.0
 92
        8
 66
     7
 43
1.0
 76
     1
 77
     6
 78
     2
 67
     7
 79
     5
170
     0
171
     0
290
     0
174
     0
 93
        1
 44
0.0
173
     0
291
     1
 45
0.0
1001
ACAD
1000
AcDbSavedByObjectVersion
1070
     0
  0
VISUALSTYLE
  5
36
102
{ACAD_REACTORS
330
2A
102
}
330
2A
100
AcDbVisualStyle
  2
Brighten
 70
    12
 71
     2
 72
     2
 73
     0
 90
        0
 40
-0.6
 41
-30.0
 62
     5
 63
     7
 74
     1
 91
        4
 64
     7
 65
   257
 75
     1
175
     1
 42
1.0
 92
        8
 66
     7
 43
1.0
 76
     1
 77
     6
 78
     2
 67
     7
 79
     5
170
     0
171
     0
290
     0
174
     0
 93
        1
 44
50.0
173
     0
291
     1
 45
0.0
1001
ACAD
1000
AcDbSavedByObjectVersion
1070
     0
  0
VISUALSTYLE
  5
3A
102
{ACAD_REACTORS
330
2A
102
}
330
2A
100
AcDbVisualStyle
  2
ColorChange
 70
    16
 71
     2
 72
     2
 73
     3
 90
        0
 40
-0.6
 41
-30.0
 62
     5
 63
     8
 74
     1
 91
        4
 64
     7
 65
   257
 75
     1
175
     1
 42
1.0
 92
        8
 66
     8
 43
1.0
 76
     1
 77
     6
 78
     2
 67
     7
 79
     5
170
     0
171
     0
290
     0
174
     0
 93
        1
 44
0.0
173
     0
291
     1
 45
0.0
1001
ACAD
1000
AcDbSavedByObjectVersion
1070
     0
  0
VISUALSTYLE
  5
34
102
{ACAD_REACTORS
330
2A
102
}
330
2A
100
AcDbVisualStyle
  2
Conceptual
 70
     9
 71
     3
 72
     2
 73
     0
 90
        0
 40
-0.6
 41
-30.0
 62
     5
 63
     7
 74
     2
 91
        2
 64
     7
 65
   257
 75
     1
175
     1
 42
40.0
 92
        8
 66
     7
 43
1.0
 76
     1
 77
     6
 78
     2
 67
     7
 79
     3
170
     0
171
     0
290
     0
174
     0
 93
        1
 44
0.0
173
     0
291
     0
 45
0.0
1001
ACAD
1000
AcDbSavedByObjectVersion
1070
     0
  0
VISUALSTYLE
  5
35
102
{ACAD_REACTORS
330
2A
102
}
330
2A
100
AcDbVisualStyle
  2
Dim
 70
    11
 71
     2
 72
     2
 73
     0
 90
        0
 40
-0.6
 41
-30.0
 62
     5
 63
     7
 74
     1
 91
        4
 64
     7
 65
   257
 75
     1
175
     1
 42
1.0
 92
        8
 66
     7
 43
1.0
 76
     1
 77
     6
 78
     2
 67
     7
 79
     5
170
     0
171
     0
290
     0
174
     0
 93
        1
 44
-50.0
173
     0
291
     1
 45
0.0
1001
ACAD
1000
AcDbSavedByObjectVersion
1070
     0
  0
VISUALSTYLE
  5
39
102
{ACAD_REACTORS
330
2A
102
}
330
2A
100
AcDbVisualStyle
  2
Facepattern
 70
    15
 71
     2
 72
     2
 73
     0
 90
        0
 40
-0.6
 41
-30.0
 62
     5
 63
     7
 74
     1
 91
        4
 64
     7
 65
   257
 75
     1
175
     1
 42
1.0
 92
        8
 66
     7
 43
1.0
 76
     1
 77
     6
 78
     2
 67
     7
 79
     5
170
     0
171
     0
290
     0
174
     0
 93
        1
 44
0.0
173
     0
291
     1
 45
0.0
1001
ACAD
1000
AcDbSavedByObjectVersion
1070
     0
  0
VISUALSTYLE
  5
2B
102
{ACAD_REACTORS
330
2A
102
}
330
2A
100
AcDbVisualStyle
  2
Flat
 70
     0
 71
     2
 72
     1
 73
     1
 90
        2
 40
-0.6
 41
30.0
 62
     5
 63
     7
 74
     0
 91
        4
 64
     7
 65
   257
 75
     1
175
     1
 42
1.0
 92
        8
 66
     7
 43
1.0
 76
     1
 77
     6
 78
     2
 67
     7
 79
     5
170
     0
171
     0
290
     0
174
     0
 93
       13
 44
0.0
173
     0
291
     1
 45
0.0
1001
ACAD
1000
AcDbSavedByObjectVersion
1070
     0
  0
VISUALSTYLE
  5
2C
102
{ACAD_REACTORS
330
2A
102
}
330
2A
100
AcDbVisualStyle
  2
FlatWithEdges
 70
     1
 71
     2
 72
     1
 73
     1
 90
        2
 40
-0.6
 41
30.0
 62
     5
 63
     7
 74
     1
 91
        4
 64
     7
 65
   257
 75
     1
175
     1
 42
1.0
 92
        0
 66
   257
 43
1.0
 76
     1
 77
     6
 78
     2
 67
     7
 79
     5
170
     0
171
     0
290
     0
174
     0
 93
       13
 44
0.0
173
     0
291
     1
 45
0.0
1001
ACAD
1000
AcDbSavedByObjectVersion
1070
     0
  0
VISUALSTYLE
  5
2D
102
{ACAD_REACTORS
330
2A
102
}
330
2A
100
AcDbVisualStyle
  2
Gouraud
 70
     2
 71
     2
 72
     2
 73
     1
 90
        2
 40
-0.6
 41
30.0
 62
     5
 63
     7
 74
     0
 91
        4
 64
     7
 65
   257
 75
     1
175
     1
 42
1.0
 92
        0
 66
     7
 43
1.0
 76
     1
 77
     6
 78
     2
 67
     7
 79
     5
170
     0
171
     0
290
     0
174
     0
 93
       13
 44
0.0
173
     0
291
     1
 45
0.0
1001
ACAD
1000
AcDbSavedByObjectVersion
1070
     0
  0
VISUALSTYLE
  5
2E
102
{ACAD_REACTORS
330
2A
102
}
330
2A
100
AcDbVisualStyle
  2
GouraudWithEdges
 70
     3
 71
     2
 72
     2
 73
     1
 90
        2
 40
-0.6
 41
30.0
 62
     5
 63
     7
 74
     1
 91
        4
 64
     7
 65
   257
 75
     1
175
     1
 42
1.0
 92
        0
 66
   257
 43
1.0
 76
     1
 77
     6
 78
     2
 67
     7
 79
     5
170
     0
171
     0
290
     0
174
     0
 93
       13
 44
0.0
173
     0
291
     1
 45
0.0
1001
ACAD
1000
AcDbSavedByObjectVersion
1070
     0
  0
VISUALSTYLE
  5
38
102
{ACAD_REACTORS
330
2A
102
}
330
2A
100
AcDbVisualStyle
  2
Linepattern
 70
    14
 71
     2
 72
     2
 73
     0
 90
        0
 40
-0.6
 41
-30.0
 62
     5
 63
     7
 74
     1
 91
        4
 64
     7
 65
   257
 75
     7
175
     7
 42
1.0
 92
        8
 66
     7
 43
1.0
 76
     1
 77
     6
 78
     2
 67
     7
 79
     5
170
     0
171
     0
290
     0
174
     0
 93
        1
 44
0.0
173
     0
291
     1
 45
0.0
1001
ACAD
1000
AcDbSavedByObjectVersion
1070
     0
  0
VISUALSTYLE
  5
33
102
{ACAD_REACTORS
330
2A
102
}
330
2A
100
AcDbVisualStyle
  2
Realistic
 70
     8
 71
     2
 72
     2
 73
     0
 90
        0
 40
-0.6
 41
-30.0
 62
     5
 63
     7
 74
     1
 91
        0
 64
     7
 65
   257
 75
     1
175
     1
 42
1.0
 92
        8
 66
     8
 43
1.0
 76
     1
 77
     6
 78
     2
 67
     7
 79
     5
170
     0
171
     0
290
     0
174
     0
 93
       13
 44
0.0
173
     0
291
     0
 45
0.0
1001
ACAD
1000
AcDbSavedByObjectVersion
1070
     0
  0
VISUALSTYLE
  5
37
102
{ACAD_REACTORS
330
2A
102
}
330
2A
100
AcDbVisualStyle
  2
Thicken
 70
    13
 71
     2
 72
     2
 73
     0
 90
        0
 40
-0.6
 41
-30.0
 62
     5
 63
     7
 74
     1
 91
        4
 64
     7
 65
   257
 75
     1
175
     1
 42
1.0
 92
       12
 66
     7
 43
1.0
 76
     1
 77
     6
 78
     2
 67
     7
 79
     5
170
     0
171
     0
290
     0
174
     0
 93
        1
 44
0.0
173
     0
291
     1
 45
0.0
1001
ACAD
1000
AcDbSavedByObjectVersion
1070
     0
  0
DICTIONARYVAR
  5
132
102
{ACAD_REACTORS
330
131
102
}
330
131
100
DictionaryVariables
280
     0
  1
1:1
  0
ENDSEC
  0
EOF
